<?xml version="1.0" encoding="utf-8" ?>
<svg baseProfile="full" height="300mm" version="1.1" viewBox="0,0,200,300" width="200mm" xmlns="http://www.w3.org/2000/svg" xmlns:ev="http://www.w3.org/2001/xml-events" xmlns:xlink="http://www.w3.org/1999/xlink"><defs /><rect fill="#222222" height="300" width="200" x="0" y="0" /><text fill="#FFFFFF" style="font-size:12px; font-family:Arial; font-weight:bold;" x="10" y="20">Over 5km Hikings</text><text fill="#FFFFFF" style="font-size:4px; font-family:Arial" x="10" y="280">ATHLETE</text><text fill="#FFFFFF" style="font-size:9px; font-family:Arial" x="10" y="290">Sayid × Nuo</text><text fill="#FFFFFF" style="font-size:4px; font-family:Arial" x="120" y="280">STATISTICS</text><text fill="#FFFFFF" style="font-size:3px; font-family:Arial" x="120" y="285">Number: 8</text><text fill="#FFFFFF" style="font-size:3px; font-family:Arial" x="120" y="290">Weekly: 1.3</text><text fill="#FFFFFF" style="font-size:3px; font-family:Arial" x="141" y="285">Total: 83.0 km</text><text fill="#FFFFFF" style="font-size:3px; font-family:Arial" x="141" y="290">Avg: 10.4 km</text><text fill="#FFFFFF" style="font-size:3px; font-family:Arial" x="167" y="285">Min: 5.2 km</text><text fill="#FFFFFF" style="font-size:3px; font-family:Arial" x="167" y="290">Max: 17.6 km</text><polyline fill="none" points="38.151919866446406,36.88107686700823 38.24207011680119,36.77513821028697 37.97161936550401,37.384284862622735 37.272954924847,37.755069042468676 37.02504173619673,37.755069042468676 36.84474123537075,38.17882170615485 36.303839732776396,38.25827524936176 36.07846410688944,38.09936813736567 35.85308848076966,38.417182258563116 35.33472454082221,38.629058111138875 35.244574290467426,38.94687154762505 34.56844741222449,38.92038711022178 34.16277128539514,38.682027045768336 34.4332220365759,40.82725930766901 34.50083472440019,40.747806594721624 33.689482470741495,43.210828757684794 33.55425709509291,44.82634602485632 32.72036727878731,46.203499904382625 31.8414023371879,47.10394250154786 31.03005008341279,49.83173377341882 30.737061769585125,50.25546562454838 30.489148580934852,50.33491526535363 30.66944908176083,50.202499183113105 31.165275459061377,50.33491526535363 32.04424040066078,50.97051146751619 31.480801335419528,52.559494785411516 31.18781302170828,53.036187778561725 31.052587646059692,54.572192248131614 30.444073455641046,56.00225675055117 29.903171953279525,58.33271441681427 29.97078464110382,58.96828994744283 30.398998330463655,59.39200605530641 31.345575959887356,61.272237476179725 31.18781302170828,61.669467627158156 30.556761268759146,61.56353964963637 30.46661101828795,60.98093495774083 30.12854757916648,60.61018579869415 29.13689482456539,60.477775249353726 28.618530884734355,60.663149998523295 27.37896494148299,61.59002164826961 26.522537562530488,61.35168355773203 27.15358931547962,61.56353964963637 26.928213689359836,61.69594961445546 26.454924874706194,62.25207068800228 26.139398998231627,62.88763608930458 25.711185308755375,62.940599798588664 24.494156928150915,62.19910683039052 23.367278797901236,61.219273407550645 20.25709515856579,59.44497051737562 19.828881469089538,59.63034604510176 19.35559265431948,59.497934968138 18.837228714488447,59.60386383543664 17.845575959887356,60.08054317344795 17.3948247077642,59.94813233890454 16.989148580934852,60.02757884818129 16.69616026710719,59.497934968138 16.515859766164795,59.65682825194381 16.40317195316311,59.471452744241105 16.4482470783405,59.60386383543664 16.222871452453546,59.70979265705682 15.253756260382943,59.31255934065848 15.00584307173267,59.02125450083986 14.757929883082397,59.07421904282819 14.464941569254734,58.5975377541763 13.946577629307285,58.200302641125745 13.585976627655327,58.2532673599635 13.022537562530488,58.676984699835884 13.0,58.49160845352162 13.743739565950818,58.72994931593712 13.721202003303915,58.91532538259344 14.014190317131579,59.04773677329649 14.329716193606146,59.63034604510176 14.577629382140003,59.65682825194381 14.645242070080712,59.97461451147683 16.042570951511152,60.82204252942756 16.020033388980664,61.37816557918268 16.380634390516207,61.5370576481655 16.96661101828795,62.331516452963115 17.16944908176083,62.96708164892334 17.282136894762516,63.76153583423002 18.251252086716704,64.47654240665725 18.61185308836866,65.16506528954778 19.175292153609917,65.3504365055851 20.144407345564105,65.50932600811939 20.865609348751605,66.03895694190578 22.555926544126123,66.43617939368414 24.471619365620427,67.78673093100952 25.215358931571245,68.92542548416532 24.922370617627166,68.71357573397108 24.584307178505696,68.97838789323578 24.539232053328305,69.1107938659552 24.539232053328305,70.1965201535786 24.80968280462548,70.22300122273737 24.696994991623797,70.43484967277618 24.629382303799503,70.27596335238195 25.012520868098363,70.32892547061783 25.237896494101733,70.46133071626537 25.237896494101733,71.0703939282248 25.057595993275754,71.30872260058823 25.192821368924342,71.28224164844141 24.877295492449775,72.15611156537489 24.899833054980263,71.65297471969097 25.575959933106788,71.33520354998473 26.702838063356467,71.22927973547485 26.99582637718413,71.52057011553552 27.221202003303915,71.36168449645629 27.649415692780167,71.49408918610425 27.964941569254734,71.33520354998473 28.528380634263158,71.62649380459334 28.979131886386313,72.44740084777004 29.294657762977295,72.57980495301308 29.610183639335446,73.05645914161869 29.858096827869304,73.08293990272796 29.790484140161425,73.24182440992445 29.83555926545523,73.05645914161869 30.218697829637676,73.29478588950587 30.353923205286264,73.6125545274408 30.737061769585125,73.79791937666596 30.69198664429132,73.98328408616362 30.579298831289634,73.69199662275787 31.007512520765886,73.40070881447173 31.616026711068116,73.53311240642506 31.728714524186216,73.87736141211644 32.04424040066078,73.71847731547314 32.04424040066078,73.98328408616362 32.02170283801388,73.34774735759129 32.24707846401725,73.00349761065445 32.314691151841544,73.90384208492469 32.92320534226019,74.35401308616565 33.261268781265244,74.40697432619345 34.50083472440019,75.70452114621003 34.6585976628121,76.63133611244848 35.33472454082221,77.82295022324251 36.439065108424984,78.32607444780297 36.84474123537075,78.74975720721704 37.85893155250233,79.17343923677981 38.33222036715597,79.01455856120447 39.07595993310679,79.33231980967685 39.436560934758745,79.27935963014897 39.81969949917402,79.51768034837733 39.774624373880215,79.70304074742307 39.63939899823163,79.46472020876536 39.23372287140228,79.27935963014897 38.73789649410173,79.19991933935671 39.00834724528249,79.86192097829189 40.067612687824294,80.23264111789467 41.464941569254734,80.15320113496273 41.848080133553594,79.94136105525831 42.41151919856202,80.0472811179061 42.77212020033039,80.68280053617491 43.245409014984034,80.76224034797633 43.67362270434387,81.0535194385302 43.69616026699077,81.45071764252498 43.96661101828795,81.55663705526968 44.417362270411104,82.16567279338778 44.59766277123708,82.61582867414108 45.27378964936361,83.03950404455827 45.814691151841544,83.22486178972758 45.94991652749013,83.17190244822996 45.859766277018934,83.03950404455827 46.17529215360992,82.96006496826885 44.71035058423877,81.87439501981135 45.025876460713334,81.98031425008958 44.59766277123708,81.6360765848658 44.417362270411104,81.10647923612851 46.62604340550024,82.0597536428686 46.62604340550024,82.40399071517459 46.22036727878731,82.5628692015016 46.2654424039647,82.45695022204018 46.49081803008448,82.37751095753629 46.242904841317795,82.50990971740976 46.062604340491816,82.9865446632175 45.859766277018934,82.77470702353457 45.90484140231274,82.90710556974227 46.04006677784491,82.85414615973423 46.17529215360992,82.50990971740976 45.72454090148676,82.53638946085994 45.814691151841544,82.21863235151977 46.423205342143774,82.0597536428686 46.60350584308617,82.4834299711365 46.44574290467426,82.0597536428686 46.82888146897312,80.94759980920935 45.54424040054437,80.47096091257117 45.454090150189586,80.1796811320819 44.34974958258681,79.91488103242591 44.34974958258681,79.38527997785422 43.76377295481507,79.17343923677981 42.92988313850947,78.35255464169313 42.02838063437957,78.0612723526574 40.96911519183777,77.9553514347499 40.112687813001685,77.10798244952457 39.34641068440396,75.25435261677194 38.760434056748636,74.3010518346855 38.08430717862211,75.57211872305197 37.49833055085037,75.30731366293912 37.430717863026075,74.9630666586745 37.160267111845315,74.72474152731593 36.822203672723845,74.72474152731593 36.41652754577808,74.40697432619345 36.57429048407357,74.00976474759227 39.00834724528249,73.74495800540899 41.48747913178522,72.65924738191825 42.56928213685751,72.73868978515384 44.14691151911393,73.71847731547314 45.49916527536698,74.9630666586745 47.39232053409796,74.77770268755557 49.26293823029846,75.81044303334784 50.57011686137412,77.29334466448927 51.38146911514923,77.58462786288874 52.395659432397224,77.6375884073932 52.891485809581354,77.7964699723525 53.657762938179076,78.9351181849488 54.491652754484676,79.88840100681409 55.77629382291343,81.0535194385302 56.407345575862564,80.97407972079236 58.59348914853763,81.18591891117103 60.01335559261497,82.43047047007713 63.3263772954233,81.90087483168463 65.1068447411526,81.39775791903958 65.60267111845315,81.45071764252498 67.0,80.94759980920935 66.8196994990576,81.0535194385302 66.25626043404918,81.21239879708446 66.18864774622489,81.0535194385302 66.59432387317065,79.65008064771246 66.50417362258304,76.02228667083546 66.63939899823163,75.33379418181721 66.9774624373531,74.56585797805747 66.75208681123331,73.58607382333139 64.43071786302608,72.20907327882014 64.40818030037917,71.94426459792885 64.04757929872721,72.23555413121358 63.84474123525433,72.12963070445403 63.75459098489955,72.26203498071118 62.605175292119384,72.4209200181649 62.086811352171935,72.4209200181649 61.81636060087476,72.26203498071118 60.75709515856579,72.63276657508686 60.05843071779236,72.52684331948694 58.41318864771165,73.32126662498922 57.66944908176083,73.53311240642506 57.1510851419298,73.42718953856092 57.17362270434387,73.29478588950587 56.72287145233713,73.4536702598416 56.610183639335446,73.18886291894887 56.227045075036585,73.00349761065445 56.31719532550778,72.89757451470359 55.46076794655528,72.15611156537489 56.745409014984034,70.40836862655124 57.444073455641046,69.79930377511482 57.60183639393654,69.32264327410667 59.089315525838174,67.78673093100952 59.38230383966584,67.1511781901936 60.306343906442635,66.75395689322613 61.095158597570844,66.14488299173536 61.4557595992228,65.45636285196815 62.71786310512107,64.31765223691764 63.25876460748259,63.41727266903035 64.3405676126713,62.569853594046435 65.35475792980287,61.4311296135711 65.67028380627744,60.42481100963778 65.985809682752,60.10702533183212 65.91819699492771,59.789239243327756 65.46744574280456,59.41848828775983 64.61101836373564,58.99477222560381 63.68697829707526,58.96828994744283 63.146076794480905,58.5975377541763 62.62771285464987,58.438643785964814 62.28964941564482,58.54457310952421 61.90651085146237,58.35919676338381 61.14023372286465,58.65050238746335 60.734557595918886,59.04773677329649 59.6752921534935,58.99477222560381 59.42737896484323,59.28607709676726 59.134390651015565,58.676984699835884 58.21035058423877,59.89516798511613 56.63272120198235,61.24575544332038 55.91151919856202,62.62281737169542 55.2579298830824,63.099490858090576 54.53672787977848,64.02635332563659 52.93656093487516,64.7943224383198 52.102671118453145,64.87376738202875 50.322203672723845,66.40969791686803 49.84891485795379,66.38321643715608 49.91652754577808,65.9595123744948 49.51085141906515,65.85358624476066 49.35308848076966,65.56228915284737 49.35308848076966,65.9595123744948 49.06010016694199,66.01247542224883 48.9023372286465,65.72117851853545 49.08263772947248,66.35673495465016 48.9023372286465,66.38321643715608 48.45158597652335,67.09821538772667 47.595158597570844,67.60136155126384 47.34724540903699,68.13098797982093 46.91903171944432,68.21043184571317 46.44574290467426,68.02506278535293 47.0993322202703,68.28987568596494 47.595158597570844,70.03763367922511 47.459933221922256,70.64669794043584 47.797996661043726,72.23555413121358 48.15859766269568,72.55332413762517 48.33889816352166,73.18886291894887 48.67696160264313,73.37422808744304 49.24040066776797,74.40697432619345 49.308013355592266,74.98954721454356 49.12771285476629,75.43971622858953 47.234557595918886,74.69826094286691 46.67111853091046,74.85714440656011 46.2654424039647,74.77770268755557 45.83722871448845,74.9630666586745 45.409015025012195,74.91010553832166 43.08764607668854,72.89757451470359 42.501669449033216,72.65924738191825 41.464941569254734,72.71220898693718 38.985809682752006,73.74495800540899 38.87312186975032,73.58607382333139 39.1661101836944,72.76517058057652 38.80550918192603,73.74495800540899 38.602671118453145,73.79791937666596 37.97161936550401,73.16238216913189 37.72370617685374,72.57980495301308 37.836393989855424,71.30872260058823 39.549248747876845,67.99858147962368 39.61686143570114,66.35673495465016 39.954924874706194,65.00617556457291 40.51836393994745,63.60264520252531 41.239565943251364,62.675781138037564 41.21702838060446,60.50425736491161 41.62270450743381,59.73627485537145 41.555091819609515,58.200302641125745 41.712854757905006,58.01492603553925 41.104340567602776,56.214117450945196 41.104340567602776,55.68446535755356 40.67612687801011,54.837019635291654 40.7437395658344,54.307364575826796 40.338063439005055,53.59232843591599 40.788814691011794,50.78512941162626 40.42821368947625,49.14316795808554 40.58597662765533,48.90481780351547 40.54090150236152,47.07745894277468 40.69866444077343,46.30943449876213 41.6903171952581,43.60808808624279 42.09599332208745,41.886626360414084 41.98330550920218,41.568816723825876 40.901502504129894,41.43639592069667 39.27879799657967,40.35054264481005 37.92654424032662,41.462880087055964 37.63355592638254,42.15146741045464 37.318030049907975,42.20443558614352 37.00250417354982,41.966078705358086 36.93489148572553,42.15146741045464 36.777128547546454,42.019046921050176 36.66444073454477,41.62178502519964 36.912353923078626,41.48936425051943 36.912353923078626,41.11858570217737 37.13772954919841,40.80077507284295 36.867278797901236,40.403511208540294 37.47579298831988,40.37702692806488 38.895659432397224,39.476559695540345 38.82804674457293,38.152337186111254 38.24207011680119,36.907561524014454" stroke="#4dd2ff" stroke-linecap="round" stroke-linejoin="round" stroke-width="0.5"><title>2024-03-10 13.5km</title><desc>10928017505</desc></polyline><polyline fill="none" points="179.5066067673033,83.2151957572787 180.1583788311109,82.61615688443999 181.11275935312733,81.06409512920072 180.85670604230836,80.21998743331642 180.13510125735775,80.24721675712499 179.5531619146932,79.9476940369641 179.6229946357198,78.6679112103302 180.08854610996787,78.15055038681021 180.71704060013872,78.45007520104991 181.1593145005172,78.39561616987339 181.69469869579189,78.58622272851062 181.95075200661086,78.34115712714265 182.27663803845644,78.31392760144081 182.1369725962868,77.60595892134006 181.22914722166024,76.89798829128267 181.11275935312733,76.54400224500569 181.39209023758303,76.29893469656236 181.3688126639463,75.59096046659397 180.97309391084127,75.07359345001169 180.85670604230836,74.33838589821244 181.0429266319843,73.63040626826114 180.69376302638557,72.84073438035557 180.39115456829313,71.37030440039234 180.41443214192986,67.8575765081041 180.50754243670963,66.85004104362451 179.3902188987704,66.46881037837011 179.06433286692481,66.22373322368367 178.69189168757293,65.40680768658058 178.31945050822105,63.99079727122444 177.92373175511602,63.52786909713177 176.94607365934644,61.921229553670855 176.62018762750085,61.185984378884314 176.1546361533692,60.75028254193603 175.78219497401733,60.66858836528263 174.87436959939077,60.04226548151928 174.3389854041161,59.57933019514894 173.15182914503384,57.9998976480565 171.54567655920982,56.36599169491092 171.4758438380668,56.148136782925576 170.5447408896871,55.412875091598835 170.19557728408836,54.65037926385412 169.10153131990228,54.62314722809242 167.91437506082002,54.45975495339371 167.3091581442859,54.269130501576 166.65738608059473,54.35082671252894 165.0512334946543,55.14055541277048 164.14340812002774,55.76689024269581 162.81658641877584,56.1753686570446 162.4674228130607,56.638310075126356 162.39759009191766,56.502150921092834 161.3733768487582,57.42803174603614 161.09404596418608,57.918202597124036 160.04655514738988,58.40837251316407 159.67411396815442,58.10882434225641 158.09123895596713,59.06193094703485 158.5102352827089,58.680688729305984 158.60334557748865,58.299445945973275 159.48789337836206,57.863739215332316 159.32495036243927,57.2101777344069 159.95344485261012,55.95751358347479 159.62755882064812,55.440107043628814 159.74394668929745,54.97716346703237 159.8370569840772,54.895467455207836 159.93016727885697,55.16778739367146 159.65083639428485,55.30394725466613 159.8370569840772,55.195019371662056 160.55866176902782,55.440107043628814 161.2104338328354,55.30394725466613 161.862205896643,54.895467455207836 162.0949816335924,54.35082671252894 163.70113421953283,53.75172056237352 164.14340812002774,53.01645201462088 164.25979598856065,51.89992908597924 164.67879231530242,50.756168860796606 164.3994614308467,49.231147308280924 164.49257172562648,48.14184065829613 164.2365184148075,47.243159195786575 164.2830735623138,46.807433718960965 165.54006254242267,45.06452442330192 166.35477762226947,43.56670230222517 166.89016181754414,43.18543709552614 167.72815447102766,41.95993795673712 168.8920331564732,41.00676791893784 169.35758463060483,40.353163563704584 170.42835302115418,38.71914540187572 170.2188548578415,36.56767230684636 170.2188548578415,34.66128868769738 169.84641367848963,33.32681173805031 169.6136379414238,33.08170297340257 169.21791918831877,33.0 168.8920331564732,33.32681173805031 168.03076292923652,34.960864193184534 167.86781991331372,36.295332655805396 165.656450411072,39.69955754597322 164.53912687301636,42.313971641648095 163.81752208818216,43.593935509677976 162.07170406007208,45.881514627544675 161.97859376529232,46.53510492076748 160.83799265359994,47.02529654974933 160.04655514738988,47.106995063630166 158.58006800385192,48.74095988718909 158.4636801352026,48.6864945605339 157.7420753503684,49.99365921583376 157.1368584339507,50.157054330280516 156.1592003381811,50.89233105935273 155.99625732225832,50.72893641245901 155.97297974862158,50.919563490344444 155.64709371654317,51.13742283481406 154.97204407909885,51.40974675572943 154.66943562077358,51.40974675572943 154.18060657312162,51.05572560231667 152.45806611864828,49.06775160518009 153.01672788755968,49.50347324926406 153.36589149327483,50.157054330280516 153.92455326218624,50.67447150708176 153.83144296740647,50.59277412731899 153.7383326726267,50.6200065901503 153.87799811479636,50.6200065901503 154.04094113083556,49.74856634938624 154.25043929414824,49.36731031481759 154.32027201529127,48.63202922217897 154.62288047350012,48.57756387235713 154.85565621056594,48.27800424201996 155.32120768469758,47.46102165710181 155.8798694537254,47.352090449479874 155.94970217486843,46.18107705167495 156.22903305932414,45.74534977390431 156.46180879638996,45.091757471935125 156.4850863701431,44.49262973477016 156.78769482835196,44.274764756672084 156.99719299178105,44.35646414506482 157.2066911549773,44.19306534231873 157.50929961318616,44.30199788900791 157.8584632187849,43.621168714162195 158.16107167711016,43.158203844883246 158.7430110197747,42.72247144122957 158.9525091832038,42.313971641648095 159.76722426293418,41.6331371992419 160.90782537451014,39.34552025879384 161.67598530708347,38.47404178135912 162.2579246496316,37.03064905104111 162.86314156616572,36.785543819802115 163.142472450505,36.295332655805396 163.5149136298569,35.28767343718209 163.37524818768725,34.49788371930481 163.74768936703913,33.6808573185408 162.70019855012652,33.626388799457345 162.7933088450227,33.789794322132366 162.53725553420372,34.11660505569307 162.65364340273663,34.44341537350556 162.02514891256578,34.44341537350556 161.39665442251135,34.198307674058015 161.14060111169238,34.906395945406985 160.8845478008734,34.906395945406985 160.74488235870376,35.17873706869432 160.53538419527467,35.12426886710455 160.37244117935188,35.17873706869432 160.1163878685329,35.56001415618812 159.4413382310886,35.96852469354053 158.81284374091774,36.84001166917733 158.92923160945065,37.08511684846599 158.04468380857725,38.77361284138169 156.71786210732535,40.16252864696435 155.90314702747855,41.333569473121315 154.85565621056594,42.34120498178527 153.69177752512041,43.02203754810034 151.73646133369766,43.893500600534026 150.31652933754958,44.438163507467834 149.08281793096103,45.28238873180817 149.0595403573243,45.66365082710399 148.1284374089446,46.3989404134918 147.56977563991677,47.379323255765485 147.01111387088895,47.67888393372414 146.54556239687372,47.62441838189261 147.26716718182433,48.82265785563504 146.82489328132942,49.231147308280924 146.01017820159905,49.50347324926406 145.68429216963705,50.075356786022894 146.35934180708136,50.72893641245901 146.73178298643325,50.837866188550834 147.0809465921484,51.16465523993247 147.3602774766041,51.082958016049815 147.802551377099,51.2463524377672 148.4543234409066,51.02849318564404 148.64054403046612,50.837866188550834 148.47760101465974,50.59277412731899 148.15171498269774,50.59277412731899 147.87238409824204,50.89233105935273 147.0343914446421,51.21912004140904 146.7550605603028,50.919563490344444 146.2662315123016,50.756168860796606 146.03345577523578,50.42937929002801 145.94034548045602,50.51107672165381 145.38168371131178,50.211519345262786 144.26436017337255,50.456611770088784 143.5194778147852,50.26598434874904 142.9142608983675,50.64723905001301 142.65820758754853,51.13742283481406 141.40121860732324,51.79099976006546 139.888176316279,52.7713620311406 139.21312667871825,53.778952690423466 139.02690608915873,54.84100343286991 138.11908071453217,56.58384642214514 138.04924799338914,57.645885573059786 137.72336196142714,58.789615134941414 138.11908071453217,60.232885651203105 137.95613769849297,60.66858836528263 138.1889134356752,60.12395985730109 138.42168917274103,60.09672840157873 138.65446490980685,59.824413685943 138.98035094176885,59.089162512362236 139.2364042524714,58.98023623373592 139.91145389003213,58.76238353783265 140.30717264313716,58.73515193790081 141.5874391971156,59.06193094703485 142.146100966027,58.653457120701205 142.0297130974941,58.816846729110694 142.19265611330047,58.789615134941414 142.49526457162574,59.14362563440227 142.8444281773409,58.98023623373592 143.0772039142903,59.089162512362236 142.8444281773409,58.98023623373592 143.49620024114847,59.60656170564471 143.14703663543332,59.36147800710751 143.05392634065356,59.034699378855294 143.356534798746,58.89854149435996 144.1246947310865,58.10882434225641 144.63680135272443,58.43560414778767 144.7299116475042,58.680688729305984 144.52041348419152,58.98023623373592 144.24108259985223,59.11639407486655 144.2876377471257,59.27978338903631 144.66007892647758,59.497635646228446 144.59024620533455,59.60656170564471 144.98596495832317,59.22532029583817 145.19546312175225,59.198088744917186 145.3351285640383,59.715487718902295 145.47479400620796,59.769950708170654 144.98596495832317,60.53243134645163 145.1721855479991,61.07705898882705 145.45151643257122,61.240447056421544 145.98690062772948,61.32214105137973 146.5921175442636,61.73061063623754 146.94128114986233,61.757841918763006 148.54743373580277,63.52786909713177 149.71131242113188,64.6715724831447 149.57164697884582,64.56264857036876 150.5493050746154,65.3795767906413 151.06141169625334,65.95142499980284 151.55024074402172,66.82281030050945 151.48040802276228,66.71388729949831 151.66662861267105,66.44157959497534 151.201077138423,66.0875791478611 150.64241536939517,66.16927160188789 150.73552566429134,66.46881037837011 151.41057530173566,67.12234831534442 151.85284920223057,67.88480714149773 151.64335103880148,67.0134254412551 152.10890251304954,68.15711331690545 152.8537848716369,68.8378774934099 153.97110840969253,70.17217004895792 155.08843194763176,72.43228245194769 157.43946689215954,75.01913370346301 159.34822793619242,78.23223900710582 159.95344485261012,78.96743542174227 159.8836121314671,78.58622272851062 160.27933088457212,78.2594685414224 160.55866176902782,78.23223900710582 160.37244117935188,78.2866980729159 160.1163878685329,78.04163218601025 160.02327757375315,77.60595892134006 159.5577260996215,77.27920348822954 159.48789337836206,77.06136630199035 160.06983272114303,76.97967730954406 160.69832721119747,76.73461017664522 161.02421324315947,76.95244763969094 161.79237317549996,78.01440262864344 162.23464707587846,78.34115712714265 163.46835848258343,78.77682914579054 163.88735480920877,79.0763532302517 164.53912687301636,79.04912378246081 164.58568202052265,79.40310637888615 164.81845775758848,79.13081211716053 165.47022982139606,79.13081211716053 166.37805519602261,78.77682914579054 168.14715079776943,78.42284568687319 169.68347066245042,77.60595892134006 169.98607912077568,76.68015078199096 169.96280154702254,75.61819028083119 170.19557728408836,73.68486630902044 170.0559118418023,72.75904404668836 169.59036036767066,71.8059882344387 169.33430705685169,70.11770926389727 169.42741735174786,68.97403011238202 169.124808893539,66.71388729949831 169.26447433582507,66.46881037837011 169.8929688258795,66.19650241424097 171.73189714876935,66.14204078676994 172.26728134404402,66.25096403015777 172.523334654863,67.47634733733139 172.40694678633008,68.59280259764637 172.523334654863,71.04354104030062 172.75611039204523,71.53368592468905 172.59316737600602,72.86796448589303 173.17510671867058,74.96467394536012 172.22072619665414,74.93744406208862 171.84828501741868,74.55622539206524 171.84828501741868,74.22946608212078 171.61550928023644,74.14777618966764 171.21979052724782,73.46702607671614 170.89390449540224,73.52148615207989 171.28962324839085,72.78627416078234 171.19651295349468,72.32336182810832 170.52146331605036,71.75152779556811 171.01029236381873,70.96185013529612 171.0335699376883,70.3083219610271 170.8706269216491,70.17217004895792 170.9404596426757,69.08295215552789 171.0335699376883,69.43694847720326 170.89390449540224,69.27356562015484 170.73096147936303,67.09511760118767 170.47490816854406,66.85004104362451 169.96280154702254,67.3674246132432 169.6136379414238,68.02096026527579 169.26447433582507,68.2660357063578 169.1713640409289,68.48388034661184 170.19557728408836,68.8378774934099 170.987014790182,68.86510802299017 170.8706269216491,66.7683488058392 171.08012508496176,68.1843439185759 171.05684751120862,69.68202256812947 171.33617839589715,69.51863986684475 171.40601111692376,69.92709642535192 171.1499578061048,70.33555233484367 171.17323537985794,71.45199517553556 171.4758438380668,71.64260688319337 171.21979052724782,72.05106006652932 171.21979052724782,72.37782214579056 171.638786854106,73.35810589129687 171.40601111692376,73.76655634853523 171.98795045958832,74.22946608212078 172.0345056069782,74.6379151546571 171.7551747225225,75.75433930809959 171.4292886906769,76.08109667969984 170.7775166267529,76.43508336343803 170.3817978737643,77.11582561585237 170.31196515273768,78.06886174049578 169.24119676207192,78.77682914579054 169.07825374603271,79.10358267521951 169.00842102488969,80.21998743331642 169.14808646717574,80.51950983627466 170.45163059490733,81.44530414775363 172.26728134404402,81.55422090640059 173.17510671867058,81.8537417545449 174.1760423881933,80.62842698709574 174.7812593044946,80.92794891408994 175.61925195809454,80.95517816283973 175.9218604163034,81.20024127216311 176.06152585847303,81.58145008879364 177.31851483869832,82.77953126086504 179.13416558806784,84.08652253486798 179.5997170621995,87.0" stroke="#4dd2ff" stroke-linecap="round" stroke-linejoin="round" stroke-width="0.5"><title>2024-03-03 14.3km</title><desc>10880728755</desc></polyline><polyline fill="none" points="52.530826831120066,147.0 52.67178101371974,146.53584834191133 52.699971850262955,146.41207447345369 52.67178101371974,146.4739614125865 52.64359017717652,146.41207447345369 52.78454435977619,146.31924404660822 52.89730770571623,145.8550915818778 53.15102523448877,145.42188211868051 53.37655192648526,145.2362207734841 53.6302694552578,144.6482925999153 53.71484196477104,144.36979999920004 53.91217782034073,144.09130720054964 54.024941166397184,143.75092684433912 54.81428458879236,142.32751487771748 55.180765463621356,141.73958233863232 55.26533797313459,141.33731219821493 55.237147136591375,140.99692944900016 55.15257462707814,140.8731538305583 55.068002117448486,140.84220991979237 54.84247542533558,140.96598554810043 54.72971207939554,141.1207050283847 54.532376223709434,141.7086384963768 54.0531320029404,142.38940246208222 53.602078618714586,143.16299644164974 53.12283439794555,143.50337730863248 52.27710930246394,143.90564522476052 52.05158261046745,144.06036354400567 51.23404835141264,144.27696908829967 50.24736907344777,144.21508180213277 49.79631568910554,144.09130720054964 49.57078899710905,143.87470155360643 49.37345314130653,143.7818705253594 49.17611728573684,143.62715209607268 48.80963641102426,143.2248838939704 48.61230055545457,142.8845027849893 48.49953720939811,142.575065156474 48.386773863225244,141.9561891661724 48.04848382528871,141.39919993901276 47.766575459972955,141.08976113723475 47.315522075863555,140.9040977387922 47.061804547091015,140.74937817291357 46.77989618189167,140.53277067799354 46.554369489778765,140.22333119178074 46.30065196112264,140.06861135701183 46.159697778639384,139.88294747463078 45.990552759496495,139.32595529948594 45.79321690404322,138.42857735123835 45.79321690404322,138.05724794382695 46.04693443258293,137.22175548988162 46.103316105669364,136.72664800961502 46.24427028815262,136.51003829020192 46.638941999292,136.1077627791965 46.86446869140491,135.98398561574868 47.2309495662339,135.86020841324353 47.766575459972955,135.61265389082837 47.87933880602941,135.5507652357628 47.935720479115844,135.36509921195102 47.935720479115844,134.99376690023928 47.82295713305939,134.80810061236843 47.59743044083007,134.6533786386426 47.400094585260376,134.3748789318197 47.259140402660705,134.06543458093074 47.2309495662339,133.69410103716655 47.28733123920392,133.10615553957177 47.6256212774897,132.5491537276539 47.935720479115844,132.23970793435 48.75325473805424,131.71364952466683 49.31707146845292,131.52798168204026 49.739934016019106,131.24947975287796 49.88088819873519,131.0947563733789 50.44470492901746,130.01169100552215 50.44470492901746,129.82602235599188 50.30375074641779,129.29996070443303 50.02184238121845,128.86673293143394 49.93726987170521,128.40255978575442 49.93726987170521,128.15500054971199 50.1064148908481,127.62893665372394 50.07822405418847,127.16476204103674 49.909079035161994,126.70058687819983 49.57078899710905,126.36019140918506 49.37345314130653,126.01979564430076 49.091544776340015,125.7722349021642 48.86601808399428,124.37970281211892 48.781445574597456,124.22497671871679 48.55591888248455,123.97741484202561 48.18943800777197,123.85363384510856 47.59743044083007,123.91552434847108 46.83627785509452,124.10119579988532 46.6107511628652,124.03930532588856 46.41341530729551,123.88457909796853 46.27246112469584,123.66796227620216 45.934171086526476,123.35850946587743 44.721965116332285,122.67771242235904 43.96081253036391,122.02785959502216 43.79166751133744,121.71840548867476 43.312423290568404,121.25422387075378 43.14327827154193,121.25422387075378 42.97413325239904,121.34706023830222 42.41031652211677,121.87313257239293 41.81830895517487,122.08975038694916 41.28268306143582,121.93502338873805 41.05715636932291,121.68746006465517 40.916202186606824,121.43989658393548 40.54972131201066,120.66625969816232 40.352385456324555,119.36654628955876 40.63429382164031,118.50006828736514 40.74705716758035,118.25250279178726 41.000774696236476,117.94304570218083 41.113538042409346,117.44791385016288 41.05715636932291,116.4576482680859 40.972583859809674,115.77683922779397 41.08534720574971,115.28170463687275 41.028965532779694,114.87940732075367 40.83162967709359,114.2914335768728 40.465148802497424,113.73440500514698 38.97103446710389,112.03236834870768 38.91465279401746,111.4753365633369 38.99922530364711,110.76357257348718 38.88646195770707,110.29937797004823 38.7736986115342,110.05180728979758 38.60455359239131,109.92802189101349 37.956164352595806,109.77329008752713 37.47692013182677,109.4947726870887 37.11043925723061,109.12341584509704 36.85672172845807,108.5973263825581 36.85672172845807,107.69987802117248 37.27958427614067,106.4310682072828 37.39234762219712,105.81213509876397 37.39234762219712,105.40982805355452 37.53330180491321,104.97657385029015 37.56149264134001,104.85278684701188 37.47692013182677,104.6052127230214 36.94129423808772,103.80059573912877 36.71576754597481,103.15071158343926 36.37747750780545,102.62461409592652 36.15195081557613,100.860635008401 36.2929049981758,100.24169309419813 36.2929049981758,99.62275020146626 35.982805796549655,99.18948959442787 35.92642412346322,99.00380633032182 35.475370739237405,98.50865052890731 35.334416556637734,98.44675600974006 34.967935681925155,98.29201966890832 34.68602731684223,98.3539142125519 34.31954644212965,98.63243953796336 33.558393856161274,99.34422558054212 32.96638628921937,100.02506319305394 32.7690504337661,100.17979884892702 32.68447792425286,100.36548155528726 32.430760395596735,100.64400544972159 32.20523370348383,101.32484080194263 31.979707011254504,101.57241700019222 31.049409406259656,102.28419769793982 30.401020166347735,102.71745488041779 29.978157618665136,102.90313638330554 29.498913397896104,103.24355224316241 28.93509666749742,103.46018036350142 27.61012735136319,103.76964889897499 25.411242103087716,104.04817037182511 25.242097084061243,104.01722355128732 24.819234536378644,104.2338512436254 24.62189868069254,104.20290443772683 24.762852863175794,104.07911718991818 25.242097084061243,103.92438307506382 25.27028792060446,103.95532990293577 25.10114290146157,104.14101081874105 25.185715410974808,104.20290443772683 25.07295206503477,104.14101081874105 25.07295206503477,104.07911718991818 24.960188718978316,104.07911718991818 25.21390624763444,103.9862767283048 25.580387122230604,104.01722355128732 25.749532141373493,103.95532990293577 25.975058833369985,103.9862767283048 26.369730544742197,103.92438307506382 26.708020582795143,103.95532990293577 27.66650902433321,103.7077552115079 27.976608225959353,103.67680836401996 28.343089100788347,103.55302094982471 28.65318830241449,103.52207409025868 28.93509666749742,103.33639288088307 29.668058417038992,103.11976469203364 30.03453929175157,102.77934872443439 30.288256820407696,102.71745488041779 30.73931020463351,102.43893246096559 31.274936098372564,101.97472798835952 31.50046279048547,101.60336401392124 31.838752828654833,101.35578783534584 32.233424539794214,100.89158207844594 32.65628708759323,100.21074597284314 33.24829465453513,99.43706714292057 33.558393856161274,99.15854238992324 34.065828913473524,98.81812297820579 34.34773727855645,98.44675600974006 34.85517233598512,98.04444139634143 34.91155400883872,97.70402101593208 35.13708070095163,97.27075828559464 35.108889864524826,97.11602147991653 34.99612651846837,96.96128461314947 35.05250819143839,96.71370549907442 34.91155400883872,96.62086329088197 34.85517233598512,96.49707364581991 35.05250819143839,96.1257044756494 35.024317354895175,95.90907229704317 34.93974484549835,95.69243999858736 35.05250819143839,95.25917504203971 35.19346237403806,94.91875223984243 35.19346237403806,94.3307485205296 35.55994324875064,93.18568611165392 35.475370739237405,93.0 35.50356157566421,93.0618953804078 35.588134085410275,93.09284306681366 35.644515758380294,93.2166337884264 35.8418516140664,93.30947680378449 35.8418516140664,93.46421511401422 35.870042450376786,93.46421511401422 35.870042450376786,93.40231979722739 35.95461496000644,93.43326745685772 35.982805796549655,93.5880057180766 36.09556914260611,93.49516276863869 35.644515758380294,93.64990100541036 35.531752412207425,93.86653443411342 35.30622572009452,94.60927670818637 35.334416556637734,95.69243999858736 35.78546994086355,95.94001975853462 36.01099663297646,96.1566519199987 36.15195081557613,96.18759936181596 36.2929049981758,96.1566519199987 36.34928667114582,96.24949423820362 36.2929049981758,96.00191467397963 36.23652332520578,96.18759936181596 36.01099663297646,96.18759936181596 35.72908826789353,96.00191467397963 35.475370739237405,95.94001975853462 35.2780348835513,96.00191467397963 35.19346237403806,96.18759936181596 35.19346237403806,96.28044167271582 35.55994324875064,96.62086329088197 35.81366077740677,97.08507411144092 36.12375997903291,97.82781027941382 36.63119503634516,98.41580874644569 36.82853089203127,98.5395977848093 37.054057584144175,98.60149228936643 37.7306376604829,98.75622850796208 37.956164352595806,98.91096466526506 38.04073686210904,99.0657007615373 37.47692013182677,100.52021707672975 37.02586674760096,101.170105598605 36.91310340142809,101.54146998393117 36.88491256500129,102.06756892692647 37.054057584144175,102.655561026535 37.11043925723061,103.64586151417461 37.36415678577032,104.07911718991818 37.702446823823266,104.38858523618546 37.78701933345292,104.66710626872373 37.39234762219712,106.18349508126266 37.11043925723061,106.98810716840671 36.99767591105774,107.39041259200894 36.94129423808772,107.97839669830864 37.02586674760096,108.69016575082787 37.16682093020063,108.99963015274261 37.47692013182677,109.37098711222643 37.98435518913902,109.55666545990971 38.29445439076517,109.71139734901953 38.801889447961,109.80423645305564 39.083797813160345,110.05180728979758 39.196561159333214,110.29937797004823 39.05560697673354,111.35155161461444 39.11198864981998,111.87763737665955 39.3657061784761,112.2799377766496 40.04228625469841,112.96075289664441 40.465148802497424,113.57967470574658 40.57791214855388,113.82724315545056 40.972583859809674,114.38427159516141 41.113538042409346,114.87940732075367 41.05715636932291,115.77683922779397 41.16991971526295,116.82899815481505 41.14172887883615,117.10751033877023 41.000774696236476,117.72642559398082 40.60610298498068,118.53101396333659 40.465148802497424,119.30465506727342 40.465148802497424,119.83073014495312 40.74705716758035,120.75909620514722 41.000774696236476,121.09949654247612 41.2263013884658,121.68746006465517 41.31087389786262,121.81124174623983 41.48001891700551,121.9040779818315 42.043835647404194,121.96596879328717 42.52307986817323,121.65651463810354 42.804988233256154,121.34706023830222 43.05870576191228,121.16138748111553 43.19965994451195,121.13044201300363 43.48156830959488,121.1923329467536 43.59433165565133,121.22327840994694 43.904430857277475,121.71840548867476 44.32729340507649,122.18258655644604 45.00387348153163,122.73960311160772 45.53949937527068,122.98716577063897 46.01874359603971,123.32756417139899 46.72351450892165,123.9464695964707 47.0336137105478,124.0083600851649 47.82295713305939,123.76079807165661 48.0766746615991,123.72985280893045 48.55591888248455,123.88457909796853 48.781445574597456,124.10119579988532 49.06335393968038,124.59631924022688 49.091544776340015,125.21522266033571 49.204308122280054,125.40089349562186 49.23249895882327,125.6484544724517 49.345262304879725,125.92696038435679 49.57078899710905,126.14357595669571 49.909079035161994,126.39113646405167 50.1346057272749,126.70058687819983 50.162796563701704,127.2575970076141 49.993651544791646,127.84555128469947 49.993651544791646,128.49539445887785 50.05003321787808,128.68106373914634 50.5292774385307,129.3618503472244 50.5574682749575,129.8879119156336 49.82450652564876,131.28042442147853 49.68355234304909,131.40420307128807 48.75325473805424,131.83742803765927 48.16124717122875,132.20876334156492 47.6538121139165,132.73482108631288 47.371903748833574,133.16804458084516 47.34371291229036,133.35371164610842 47.400094585260376,133.9416567721637 47.45647625834681,134.06543458093074 48.10486549825873,134.6533786386426 48.16124717122875,134.96282252509263 48.10486549825873,135.14848873962183 47.87933880602941,135.48887657091836 47.45647625834681,135.79831979729352 46.695323672378436,136.16965134622296 46.32884279766586,136.47909403478843 46.1878886151826,136.69570377128548 46.103316105669364,137.00514604424825 45.96236192295328,137.65497402177425 45.990552759496495,137.9644155369606 45.96236192295328,138.36668914117035 46.131506942096166,139.14029106503585 46.27246112469584,139.60445148599683 46.35703363432549,139.69728350423975 46.6107511628652,139.94483544523246 46.80808701843489,140.03766738271224 47.259140402660705,140.53277067799354 47.73838462342974,140.74937817291357 48.30220135382842,141.2135366872826 48.58410971891135,141.9561891661724 48.75325473805424,142.6988402372226 49.091544776340015,143.19394016903243 49.598979833419435,143.65809578684275 49.96546070824843,143.87470155360643 50.33194158284459,143.99847622364177 50.811185803613625,143.96753255982185 51.06490333226975,144.02941988495877 51.71329257218167,143.99847622364177 52.699971850262955,143.596208402887 53.09464356151875,143.37960248216405 53.37655192648526,143.16299644164974 54.16589534888044,142.2346834828786 54.36323120468296,141.9561891661724 54.89885709842201,140.84220991979237 55.12438379053492,140.74937817291357 55.26533797313459,140.84220991979237 55.349910482764244,140.93504164466867 55.378101319191046,141.08976113723475 55.237147136591375,141.4301438057155 55.15257462707814,141.89430151347187 54.70152124285232,142.575065156474 54.50418538716622,143.03922150761355 54.25046785862651,143.4414899002586 54.0531320029404,144.12225085453247 53.37655192648526,145.14339006791124 53.12283439794555,145.63848691017483 53.06645272485912,145.91697860896238 52.840926032862626,146.2883005659969" stroke="#4dd2ff" stroke-linecap="round" stroke-linejoin="round" stroke-width="0.5"><title>2024-02-17 6.9km</title><desc>10776935036</desc></polyline><polyline fill="none" points="186.70652173901908,96.49717742268695 185.23913043458015,97.84943409630796 184.24130434775725,99.84561843256233 183.53695652168244,102.29254742286867 182.48043478257023,104.03115041402634 181.18913043453358,105.57657219201792 178.31304347817786,109.95525136997458 177.25652173929848,110.79234913148684 175.26086956541985,110.7279570265091 171.68043478252366,109.82646702288184 169.27391304355115,108.86058377334848 168.04130434780382,108.92497602547519 167.3956521737855,108.08787635248154 167.57173913065344,107.25077582255471 167.45434782584198,106.67124418437015 167.9826086955145,106.67124418437015 168.04130434780382,107.12199104944011 164.87173913046718,107.18638343858765 164.40217391308397,107.57273766607977 165.45869565219618,108.53862243675394 165.81086956500076,109.18254498328315 164.93043478252366,109.44011385994963 163.40434782602824,109.76207484171027 162.87608695658855,109.89085919887293 161.7608695649542,110.01964353572112 161.52608695649542,109.89085919887293 160.99782608705573,109.82646702288184 160.1173913043458,109.31132943171542 159.58913043467328,109.31132943171542 159.0021739131771,108.73179925378645 159.58913043467328,107.8946993831778 159.2956521739252,106.80002902826527 160.6456521737855,105.70535720826592 160.8217391304206,105.38339462946169 161.4673913042061,105.31900209852029 161.99565217387863,105.44778715533903 161.93695652182214,106.02731966046849 161.17391304345801,107.18638343858765 162.40652173920535,108.21666097320849 161.70217391313054,110.27721214893973 160.58695652149618,109.89085919887293 159.53043478238396,109.18254498328315 158.70869565242901,109.31132943171542 158.06304347817786,109.76207484171027 157.71086956514046,109.89085919887293 158.53260869556107,110.79234913148684 158.76739130425267,110.79234913148684 159.0608695652336,110.85674123157514 159.47173913032748,111.11430958099663 159.0608695652336,111.75823009957094 158.4152173914481,112.40215011098189 157.59347826079465,112.59532601560932 157.41739130415954,113.43242107494734 157.24130434752442,114.52708255202742 157.00652173929848,114.65586615883512 157.00652173929848,114.46269074082375 157.12391304341145,114.39829892478883 156.53695652168244,116.07248449570034 156.36086956528015,116.13687618001131 156.18478260887787,116.78079274395714 155.89130434789695,117.03835922759026 154.89347826084122,116.78079274395714 154.77608695649542,117.5534919516067 154.3065217391122,118.51936493447283 153.6021739130374,119.3564539302024 152.95652173901908,119.61401960265357 153.1326086956542,119.67841100820806 153.07391304336488,119.8071938038338 153.0152173913084,119.54962819220964 152.95652173901908,119.74280240852386 152.3108695652336,119.67841100820806 151.95869565219618,118.58375642611645 151.78260869556107,117.68227508186828 151.78260869556107,116.33005120250164 151.72391304327175,115.49295910901856 151.43043478252366,115.49295910901856 151.19565217383206,115.75052599818446 151.01956521742977,115.6861342836055 150.60869565210305,115.42856737406692 150.49130434799008,115.17100038344506 150.49130434799008,115.17100038344506 149.72826086962596,115.55735083902255 148.90652173897251,115.10660862305667 149.08260869560763,114.01194792165188 149.49347826093435,113.81877235171851 150.19782608700916,112.53093405254185 150.19782608700916,112.65971797367092 149.49347826093435,113.94755607022671 149.43478260864504,113.81877235171851 149.14130434789695,114.07633976836223 149.31739130453207,114.07633976836223 148.84782608691603,114.72025795467198 148.0847826085519,114.97782508720411 147.67391304369085,115.04221685772063 146.79347826098092,115.36417563405121 145.913043478271,115.42856737406692 145.7956521739252,116.13687618001131 145.6782608695794,115.94370111188618 145.0326086957939,115.94370111188618 144.03478260850534,116.13687618001131 142.91956521733664,115.94370111188618 143.09565217397176,115.87930941249942 142.62608695658855,115.87930941249942 142.0391304346267,115.81491770793218 141.80434782616794,115.55735083902255 141.2173913042061,115.6861342836055 141.04130434803665,115.49295910901856 140.8652173911687,114.39829892478883 140.74782608705573,113.75438048498472 140.6304347824771,113.49681296705967 140.33695652149618,113.17485345556634 140.1021739130374,111.8870141422376 140.04347826098092,111.37187784921844 139.5739130435977,110.7279570265091 139.22173913032748,110.59917280089576 138.86956521729007,110.01964353572112 139.4565217392519,110.4059964249609 138.8108695652336,109.82646702288184 137.22608695644885,109.56889826786937 136.69782608700916,109.31132943171542 137.9304347827565,109.76207484171027 137.34347826079465,110.4059964249609 136.81521739135496,110.34160428942414 137.46086956514046,110.59917280089576 137.40217391308397,111.50066195288673 136.34565217373893,111.8226221234072 135.99347826093435,112.27336614922388 135.75869565224275,112.91728575510206 135.87608695658855,113.30363727541408 134.64347826084122,114.65586615883512 133.7043478260748,115.55735083902255 133.29347826098092,117.87544973928016 133.3521739130374,118.77693087043008 133.29347826098092,120.06475933437468 133.0,121.80332454375457 133.29347826098092,122.83358366473112 133.4695652173832,123.2843216219917 133.7043478260748,124.18579679139657 134.40869565238245,125.47361673833802 134.93695652182214,126.24630773323588 135.11304347822443,126.43948036787333 135.99347826093435,127.46973364870064 136.28695652168244,128.56437633762835 136.99130434775725,129.27267376764212 137.87173913046718,130.5604857049766 138.4000000001397,131.01121940399753 139.5152173913084,131.97707649401855 140.04347826098092,132.62098058703123 141.15869565214962,133.2004938372993 141.98043478257023,133.13610349653754 141.86304347822443,133.2648841732298 142.56739130429924,134.29512885661097 143.44782608700916,134.5526898248354 143.33043478266336,135.58293288608547 143.27173913060687,136.4843945003231 142.86086956504732,137.12829504499678 143.09565217397176,138.02975495619467 143.74130434775725,139.57511249225354 143.91739130439237,141.44241561956005 143.85869565210305,142.53703960892744 143.91739130439237,143.63166213349905 144.62173913046718,144.46872542839264 144.7978260871023,143.69605164817767 145.1500000001397,143.3741040241439 145.38478260859847,142.73020839615492 145.4434782608878,142.27948115504114 145.73695652163588,141.82875366555527 146.20652173901908,142.27948115504114 145.9717391305603,141.89314332208596 146.20652173901908,140.5409594696248 147.5565217391122,138.1585348622757 147.5565217391122,137.4502451273729 146.8521739130374,137.4502451273729 146.5,137.12829504499678 145.6195652175229,136.6131746498868 146.9108695650939,137.38585512107238 147.2043478260748,137.06390501343412 147.14565217401832,137.25707509322092 147.4391304347664,136.22683414048515 147.14565217401832,135.58293288608547 146.38260869542137,135.32537224248517 146.55869565205649,134.35951910633594 146.1478260869626,133.90878725249786 146.0304347826168,133.84439696726622 145.6782608695794,132.87854208232602 146.1478260869626,132.74976134480676 147.4391304347664,132.17024777497863 148.43695652182214,131.46195285458816 149.20000000018626,131.0756099120481 149.90434782602824,130.81804784905398 150.43260869570076,130.81804784905398 151.19565217383206,130.23853291064734 151.37173913023435,129.20828311744845 152.07608695630915,127.66290599439526 152.8978260869626,126.69704380974872 153.3673913043458,125.47361673833802 153.89565217401832,125.08727096713847 154.13043478270993,124.76531601854367 154.3652173911687,124.44336094299797 154.54130434780382,124.18579679139657 154.48260869574733,124.25018783687847 155.0695652172435,123.79945041186875 155.0695652172435,123.60627715371083 155.48043478257023,123.2843216219917 155.65652173920535,123.54188605764648 155.71521739126183,123.41310385003453 155.4217391302809,123.2843216219917 155.18695652182214,123.54188605764648 155.36304347822443,123.54188605764648 155.36304347822443,123.54188605764648 155.30434782616794,123.73505933093838 155.53913043485954,123.155539373809 155.4217391302809,123.34871273854515 155.36304347822443,123.155539373809 155.01086956541985,123.60627715371083 155.01086956541985,123.02675710542826 155.12826086953282,122.96236596361268 155.12826086953282,122.70480134553509 155.48043478257023,122.31845426640939 156.30217391299084,121.54575956077315 156.88913043471985,121.48136830242584 156.94782608677633,121.28819449676666 156.71304347831756,121.35258577030618 156.47826086962596,121.22380321798846 156.83043478266336,121.22380321798846 156.88913043471985,121.15941193414619 155.94999999995343,121.03062935150228 155.65652173920535,120.90184674842749 155.0695652172435,120.90184674842749 153.6021739130374,121.73893330572173 152.8391304349061,120.96623805252602 153.1326086956542,120.25793342903489 153.0152173913084,119.3564539302024 152.72173913032748,119.48523677670164 153.66086956532672,118.26179891719949 154.3065217391122,118.26179891719949 154.42391304345801,117.23153403715696 154.71739130443893,116.45883452543058 155.2456521736458,116.78079274395714 155.71521739126183,116.58761782798683 155.89130434789695,116.13687618001131 156.24347826070152,115.42856737406692 156.59565217373893,114.5914743579342 157.47608695644885,114.14073160971748 157.59347826079465,114.14073160971748 158.06304347817786,113.75438048498472 158.23913043458015,113.30363727541408 158.82608695654199,114.33390710363165 158.70869565242901,114.72025795467198 158.82608695654199,115.04221685772063 158.64999999990687,114.39829892478883 158.29782608686946,113.68998861312866 157.94565217383206,113.88316421350464 157.53478260873817,114.14073160971748 156.88913043471985,114.39829892478883 156.71304347831756,113.68998861312866 156.88913043471985,113.62559673620854 157.00652173929848,112.78850187460193 157.41739130415954,112.20897416077787 157.76956521719694,112.1445821672678 158.47391304350458,111.8870141422376 159.413043478271,111.69383807049599 160.58695652149618,111.62944603624055 161.0565217391122,112.20897416077787 161.93695652182214,112.33775813272223 162.11304347822443,111.17870165558998 163.58043478266336,109.63329046429135 165.81086956500076,108.86058377334848 167.2195652173832,108.79619151621591 168.4521739128977,108.73179925378645 170.97608695644885,108.98936827259604 172.32608695630915,109.37572164827725 173.8521739130374,109.63329046429135 176.37608695635572,110.7279570265091 177.55000000004657,110.34160428942414 178.54782608686946,107.76591471146094 179.663043478271,106.73563660896616 181.0130434781313,105.44778715533903 182.71521739126183,102.8720821638708 183.41956521733664,100.94029809633503 184.12391304364428,99.07290249335347 184.76956521742977,97.59186156903161 186.2956521739252,96.30399771535303 186.7652173913084,96.04642470128601 187.0,95.4668851227616" stroke="#4dd2ff" stroke-linecap="round" stroke-linejoin="round" stroke-width="0.5"><title>2024-02-16 5.2km</title><desc>10771329473</desc></polyline><polyline fill="none" points="29.897595249523874,206.9502872086814 29.983527453732677,207.0 29.53238338191295,206.70172294904478 29.1779130398063,206.58986886743514 29.328294397098944,206.56501239098725 29.23162066738587,206.29159081663238 29.29606982052792,206.1175949512035 29.23162066738587,206.09273837875662 29.339035922603216,206.01816863127897 29.34977744810749,205.93117053502647 29.328294397098944,206.01816863127897 29.371260499116033,205.81931574903865 29.306811345973983,205.5334641646259 28.973824054934084,205.03632938362716 28.995307106000837,204.6386201044079 28.866408799774945,204.4397649800012 28.984565580438357,204.27819495343283 28.973824054934084,204.04205376158643 28.522679983114358,203.37091314885038 28.458230830030516,202.97319845586753 28.31859099830035,202.8986268069857 28.2971079472336,202.74948337289243 28.028569809277542,202.6624829523571 27.802997773396783,202.3020519796337 28.554904559685383,201.7676178931797 27.71706556918798,202.35176665973268 27.512976584373973,202.17776519112522 27.394819803652354,202.16533650534257 26.889968104369473,201.74276043698774 26.610688440850936,201.86704766741605 26.471048609062564,201.7676178931797 26.202510471106507,201.7676178931797 26.062870639376342,201.59361559375975 25.41837910824688,201.38232675461768 25.22503164887894,201.20832390725263 24.88130283227656,201.1213223907398 24.77388757711742,201.00946320714866 24.784629102621693,200.84788865034352 24.48386638809461,200.52473889647808 24.48386638809461,200.43773689382215 24.2368113011471,200.12701495069632 23.59231977001764,199.99029704569693 23.581578244513366,199.92815249288105 23.36674773413688,199.84115006596403 23.313040106499102,199.72928971183137 23.24859095341526,199.75414757714316 23.259332478919532,199.67957396605198 23.345264683070127,199.67957396605198 23.19488332583569,199.716860777291 23.0230189175345,199.65471608558437 22.915603662317153,199.51799765277974 22.82967145816656,199.53042660755455 22.85115450923331,199.4185659692812 23.044501968543045,199.269418292497 23.001535866525955,199.0954124398122 22.66854857536964,198.84683222082094 22.62558247335255,198.73497095752828 22.410751962917857,198.62310959190654 22.185179927037098,198.5733933965821 22.067023146373685,198.69768384700728 21.884417212568223,198.8344031966335 21.551429921470117,198.98355140378408 21.465497717319522,199.1326994290721 21.250667206943035,199.25698931123043 20.46653584408341,199.50556869675347 20.520243471721187,199.4558528600828 20.326896012353245,199.72928971183137 20.16577312949812,199.81629221832554 19.456832445284817,199.86600790856755 19.284968036983628,199.72928971183137 18.661959556862712,199.75414757714316 18.447129046486225,199.79143436565937 17.96376039815368,200.10215716114908 17.89931124506984,200.0400126651948 17.942277347145136,199.59257136234373 17.748929887777194,199.33156317993416 17.587807004980277,198.89654830506333 17.351493443595245,198.7225419219758 17.31926886702422,198.53610623683198 17.44816717330832,198.25023763442005 17.38371802016627,197.92708101858443 17.534099377400707,197.5666360938485 17.37297649460379,197.21861929662555 17.394459545670543,196.9700352638538 17.25481971394038,196.77116767392 17.276302764948923,196.82088460172236 17.340751918090973,196.77116767392 17.26556123950286,196.2367094239744 17.31926886702422,196.01298202132602 17.20111208636081,195.50337918779405 16.997023101488594,195.34179735822545 17.09369683114346,194.496596617646 17.0399892036221,194.31015449156985 17.25481971394038,194.04913503761054 17.705963785760105,193.75082640824985 18.049692602362484,192.70674047603097 18.361196842393838,192.4208582498468 18.683442607871257,191.94852962956793 19.05939600110287,191.7620836194401 19.12384515418671,191.57563732514245 19.574989226006437,191.05358618898754 20.380603639932815,190.8671388146322 20.509501946158707,190.60611201303982 20.9284214413492,190.05919690802693 21.239925681438763,189.79816838211264 21.368823987664655,189.52470932884899 21.605137549049687,189.42526952150365 22.131472299457528,189.3258296333588 22.400010437413584,188.95292933263408 22.90486213687109,188.69189844558423 22.894120611308608,188.62974815229245 22.872637560241856,188.67946838946955 22.77596383058699,188.6421782134421 22.90486213687109,188.6670383320743 22.84041298372904,188.56759782738663 22.861896034737583,188.4060068348408 23.098209596180823,188.03310372953274 23.936048586620018,187.33701489071973 24.161620622500777,187.2872941077294 24.6986968984711,186.95167829411366 24.741663000546396,186.8025154146162 24.730921475042123,186.91438759130688 23.731959601747803,187.48617711827683 23.291557055490557,187.9460928413173 23.044501968543045,188.08282420926844 22.85115450923331,188.46815724186308 22.894120611308608,188.34385639625543 22.85115450923331,188.41843691880058 22.85115450923331,188.74161865750648 22.947828238888178,188.80376889396575 22.872637560241856,188.7789088031641 22.85115450923331,188.4557271629892 23.001535866525955,188.4060068348408 22.872637560241856,188.48058731947822 22.85115450923331,188.41843691880058 23.119692647247575,188.03310372953274 22.937086713383906,187.84665175046393 22.980052815459203,187.8715120307752 22.969311289896723,187.7472105787674 23.06598501955159,187.6726296468987 23.162658749264665,187.2127128954089 23.098209596180823,187.08841077381658 23.216366376902442,187.026259665603 23.227107902406715,186.67821287606785 23.173400274827145,186.72793390662264 23.259332478919532,186.5414799377395 23.184141800331417,186.52904966305505 23.13043417269364,186.24315299619047 23.07672654511407,186.25558329997148 23.495646040304564,185.98211632535822 23.52787061687559,185.8702432958744 23.334523157624062,185.29844621347002 23.43119688727893,185.0746988012761 23.409713836212177,184.55261991416046 23.85011638252763,184.01810826816654 23.903824010048993,183.85651126413723 23.82863333146088,183.6451917827435 23.989756214199588,183.6451917827435 24.021980790770613,183.30956597351906 24.11865452042548,183.1852598845071 24.269035877718125,183.0733842963018 24.086429943912663,182.82477151170315 23.936048586620018,182.5388661845791 23.936048586620018,182.3772672257037 24.52683249016991,181.61899233585427 25.23577317444142,181.23363772095036 25.267997750954237,181.10932952158328 25.52579436340602,181.05960620648693 25.858781654504128,180.81098932756868 25.68691724620294,180.68668069851265 25.600985042052343,180.4504939552353 25.063908766082022,180.3759085731217 25.214290123374667,179.48088043883035 25.096133342653047,179.46844944637996 25.05316724057775,179.29441541956476 25.074650291644502,179.13281217283657 24.838336730201263,178.90905347863736 24.784629102621693,178.75988078836235 25.182065546803642,178.4863970501392 25.69765877170721,178.32479273549689 26.202510471106507,178.27506828804326 26.943675731890835,178.29993051426572 27.405561329214834,178.17561933238903 27.749290145817213,178.22534382028243 27.813739298901055,178.08860142986669 27.760031671321485,177.8399785099973 27.48075200780295,177.88970313438767 27.14776471676305,177.8151161901842 27.02960793604143,177.88970313438767 27.040349461545702,177.9767211784565 27.287404548493214,178.01401460698253 27.298146073997486,177.8399785099973 27.137023191258777,177.8151161901842 27.287404548493214,177.57892390002235 27.416302854719106,177.61621744984586 27.62039183959132,177.55406152711657 27.534459635382518,177.61621744984586 27.663357941666618,177.67837334096112 27.62039183959132,177.62864863058348 27.695582518179435,177.6410798100551 27.921154554118402,177.4048871836858 27.760031671321485,177.54163033879013 27.824480824463535,177.46704318223055 27.9641206561937,177.6410798100551 27.84596387547208,177.72809803106065 27.899671502993442,177.7405292004987 27.9641206561937,177.88970313438767 27.73854862031294,177.55406152711657 27.824480824463535,177.51676795832464 27.856705400976352,177.60378626781312 27.813739298901055,177.55406152711657 27.910413028555922,177.57892390002235 27.921154554118402,177.52919914919767 27.910413028555922,177.57892390002235 27.770773196883965,177.52919914919767 27.770773196883965,177.70323568856838 27.856705400976352,177.69080451539776 27.835222349967808,177.60378626781312 27.921154554118402,177.6410798100551 27.835222349967808,177.8151161901842 27.73854862031294,177.85240966801211 27.84596387547208,178.05130802410713 27.79225624789251,178.0761702958771 27.931896079622675,178.21291270021902 27.996345232706517,178.43667266838747 28.20043421763694,178.5734146695686 29.091980835655704,178.7350186556214 28.89863337634597,178.25020605672034 28.995307106000837,178.1507570808535 28.920116427354515,177.86484082473908 28.973824054934084,177.67837334096112 29.521641856466886,177.38002477541886 29.693506264709868,177.11896918340062 29.596832534996793,177.0195192874453 29.650540162576362,176.9200693105886 30.305773219268303,176.0747412412893 30.391705423418898,175.86340831076814 30.63876051036641,175.5774867056898 31.04693848011084,175.26670159389323 31.28325204149587,174.96834714337456 31.401408822159283,173.79978520172153 31.50882407737663,173.65060627755884 31.487341026309878,173.48899557095865 31.938485098129604,173.09118369070347 31.755879164324142,172.8052556022376 31.68068848567782,172.40744149712555 32.185540185077116,171.87287675494008 32.28221391473198,171.31344603324396 32.71187493548496,171.17669591189042 33.044862226583064,170.89076334564743 33.25969273695955,170.81617213144636 33.17376053275075,170.6421257879265 33.30265883903485,170.46807919663115 33.31340036453912,170.10755332641565 33.24895121145528,170.05782553670724 33.36710799211869,170.02052968119096 33.25969273695955,170.05782553670724 32.90522239479469,169.9086420462918 32.926705445803236,169.66000249100034 32.90522239479469,169.9210740107883 33.01263764995383,169.9832338142587 33.109311379666906,169.93350597399694 33.066345277649816,169.74702639291354 33.12005290517118,169.8340502328283 33.12005290517118,169.95836989665986 32.980413073441014,169.97080185607774 32.872997818281874,169.8340502328283 33.08782832865836,169.27461018093163 33.21672663488425,169.13785777878365 33.463781721831765,169.02596933604946 33.89344274258474,169.2373140864147 33.979374946677126,169.18758594275278 34.033082574256696,168.96380904578837 34.29087918676669,168.83948837049684 34.602383426739834,168.71516756874917 34.74202325852821,168.76489590461279 34.860180039249826,168.75246382255864 34.849438513745554,168.4913898070081 35.246874957869295,168.26761163563788 36.020264795282856,167.5838424625399 35.52615462138783,166.68872067327902 35.665794453176204,166.48980382992886 34.903146141325124,165.22170134395128 36.020264795282856,164.9233223764677 36.245836831163615,165.24656622502516 36.51437496911967,165.2714311010568 36.63253174984129,165.19683645780606 36.761430056067184,165.2962959720171 36.954777515435126,165.2962959720171 37.12664192367811,165.22170134395128 37.2125741278287,165.3460256987455 37.22331565339118,165.69413321948377 37.48111226584297,165.9179161021675 37.395180061634164,166.1292662263004 37.51333684241399,166.21629264177318 37.84632413345389,166.78817897356203 37.94299786310876,166.83790809333732 38.08263769489713,166.78817897356203 38.19005295005627,166.55196537824668 38.43710803700378,166.4525068857547 38.566006343229674,166.5271007627016 38.49081566458335,166.66385608554992 38.619713970809244,166.80061125539214 38.71638770052232,166.75088212041737 38.694904649455566,166.80061125539214 38.81306143011898,166.81304353595624 38.748612277035136,166.71358525592223 38.87751058326103,166.70115296523727 38.87751058326103,166.61412689494318 38.96344278741162,166.55196537824668 38.89899363426957,166.55196537824668 38.83454448118573,166.601694594101 38.9312182108406,166.5892622920437 39.06011651706649,166.61412689494318 38.65193854738027,166.81304353595624 39.027891940495465,167.26060479474836 39.12456567020854,167.5341136462157 39.66164194612065,167.91951144362974 40.06981991586508,168.10599381262 40.16649364551995,168.23031523386453 42.48666315758601,167.02439211239107 42.89484112733044,166.68872067327902 43.109671637706924,166.65142378977907 43.46414197975537,166.40277760915342 44.49532842962071,165.96764557602728 45.74134538980434,165.9179161021675 47.631853881059214,165.45791750997887 48.20115473360056,165.40818782874703 48.66304033086635,165.23413378513214 49.13566745369462,165.24656622502516 49.737192882748786,165.13467422034591 50.12388780142646,165.17197156661132 50.8220869601937,165.48278234301688 51.07988357258728,165.5076471709399 51.33768018503906,165.4703499271127 51.573993746424094,165.3460256987455 51.81030730786733,165.3460256987455 52.519247992138844,165.14710667038162 52.84149375767447,165.022782113243 52.991875114967115,164.8487275207881 53.26041325292317,164.86115999991307 53.80823105433956,164.71197016717633 54.033803090278525,164.47575255957054 53.99083698820323,164.14007412136561 54.205667498579714,164.05304622765107 54.495688687602524,164.06547878772108 54.33456580480561,163.6800688384319 54.420498008897994,163.44384923657344 54.32382427924313,163.23249446901173 54.33456580480561,163.12060062056844 54.39901495788945,163.12060062056844 54.28085817722604,162.5984279733966 54.35604885587236,162.11355137491773 54.613845468265936,161.4421806013852 54.91460818279302,161.14379240710696 55.494650560838636,160.3729528668773 55.62354886706453,159.98753127357486 55.60206581605598,159.36588098124048 55.95653615810443,158.5204315091396 56.21433277061442,158.20960302693857 56.590286163729616,157.97337285173126 57.052171761053614,157.500911131443 57.535540409444366,156.6181488120419 57.71814634324983,156.1332484866216 58.08335821086075,155.9964813803308 58.41634550190065,155.5488788712173 58.9426802523667,155.1758755279734 59.22195991582703,155.10127472268505 59.619396360067185,155.08884125071927 59.93090060009854,154.91477251026663 60.21018026355887,154.9769399459983 60.27462941670092,155.07640777750203 60.33907856978476,154.889905527074 60.45723535050638,154.85260504284088 60.435752299497835,154.23092862939666 60.55390908016125,153.36057633715973 61.595837055530865,153.3108417331896 62.40145146945724,153.06216840988054 62.874078592227306,153.0 63.0029768984532,153.06216840988054" stroke="#4dd2ff" stroke-linecap="round" stroke-linejoin="round" stroke-width="0.5"><title>2024-01-21 12.0km</title><desc>10598850943</desc></polyline><polyline fill="none" points="186.4795180723304,187.3102775021689 185.19132530124625,186.0643704932154 184.81397590367123,185.88204173646227 184.78795180725865,185.65413046680624 185.17831325303996,184.72728759735764 183.7990361446864,183.5573299064854 183.2525301204878,182.6912512236304 183.5127710843226,182.32658496085787 184.3065060241497,181.82516734561068 184.64481927716406,181.38452618557494 183.70795180724235,180.88310529862065 183.00530120485928,180.6703807598824 182.08144578320207,180.07778932069778 181.5219277109136,179.91064770576486 180.5590361446375,179.19649498956278 179.77831325307488,178.9533783653169 179.29686746990774,178.6190923384711 178.98457831330597,178.13285673582868 178.64626506029163,177.0540156448842 178.6592771084397,176.0967273627757 178.90650602412643,175.6560687184101 179.51807228918187,173.84783467956004 179.6221686747158,172.69298428166076 179.5050602410338,171.40136433913722 179.3489156626747,170.793539190694 179.01060240971856,170.307277229178 178.6722891567042,169.38033582754724 178.08674698806135,168.42299665605242 177.83951807237463,168.22544968752482 177.52722891571466,167.73917907470604 176.6554216867662,166.93378976862004 176.5122891566716,166.62986810787697 176.06987951812334,166.2651612702757 175.7185542169027,165.79408024116128 174.70361445791787,165.04946515600022 173.8708433735883,165.2014277303242 173.74072289164178,165.15583897476608 173.5715662650764,164.92789498140337 173.5715662650764,164.82152099463565 173.40240963862743,165.0798576836387 173.55855421692831,164.4872022401105 173.38939759036293,164.82152099463565 173.1812048193533,164.44161325902678 173.46746987954248,165.1862314800237 173.4284337349818,165.30780143704033 172.7648192771594,165.41417506546713 172.54361445788527,165.99163053730445 172.17927710851654,166.37153419308015 172.15325301204575,166.73624076193664 171.840963855444,167.2984949168167 171.37253012054134,168.7725021688384 171.08626506029395,169.10681099783687 170.72192771086702,169.22837765286386 170.4746987952385,169.01563593946048 170.2144578314037,168.34701708474313 170.18843373499112,167.83035493940406 170.31855421687942,166.99457402399275 171.13831325306091,165.24701647133043 171.25542168680113,164.30484622943914 171.8279518072959,162.58764916205837 172.02313253015745,162.35970111266943 172.32240963861113,162.25332523307588 173.5845783132827,162.29891490534646 174.71662650606595,161.79742771814927 174.98987951810705,159.47232799083577 175.12000000005355,159.03161859083048 175.3412048193859,158.849255686815 176.20000000001164,158.758074148398 177.57927710848162,158.15019575331826 177.982650602411,157.60310300851415 178.16481927712448,157.1015995038033 177.90457831328968,157.73987638915423 177.55325301206904,158.11980176638463 176.2650602410431,158.6972864240961 175.54939759039553,158.758074148398 175.22409638558747,158.9100433470594 175.0419277109322,159.3507531183859 174.88578313257312,161.03759532640106 174.6515662650927,161.76703449928027 173.62361445790157,162.28371834951395 172.17927710851654,162.28371834951395 171.91903614456533,162.40529075133963 171.74987951811636,162.69402479525888 171.22939759038854,164.45680958766025 171.13831325306091,165.26221271518443 170.38361445785267,166.8426133375906 170.22746987949358,167.61761116552225 170.2144578314037,168.1190781309706 170.38361445785267,168.71171866217628 170.2014457831392,169.8514051525708 170.26650602417067,170.2312986497418 169.9412048193044,171.00627828377765 169.86313253012486,172.0243824601057 170.17542168678483,173.37677839607932 170.13638554222416,174.10615521467116 168.8742168674944,175.01787105566473 168.54891566274455,175.03306627087295 168.23662650608458,174.8963092762424 168.4838554217131,175.64087356872915 167.3778313252842,175.1850183352799 167.98939759039786,176.35504387377296 167.8072289157426,176.32465371995931 166.88337349402718,175.73204444270232 166.9614457830903,176.12711756449426 167.32578313257545,176.55257971733226 167.15662650601007,176.5981648736779 166.36289156635758,176.29426355983014 166.4409638554789,176.5373846620205 166.83132530126022,176.99323562522477 165.86843373498414,176.85648048740404 165.88144578319043,177.00843063255888 166.16771084343782,177.2211605670309 165.86843373498414,177.54025488102343 166.29783132532611,177.70739924021473 166.12867469881894,177.95051796268672 165.40000000002328,178.51272844034247 165.29590361448936,178.54311813348613 165.08771084342152,178.2544157900411 164.67132530122763,177.29713546767016 165.26987951807678,178.51272844034247 164.87951807229547,179.01415755976632 164.87951807229547,179.31805314820667 165.20481927716173,180.2145414071565 165.55614457844058,180.57921300447197 165.71228915662505,181.29335888109927 165.8944578313385,181.52127703432052 166.38891566271195,182.84319522799342 166.66216867475305,184.36262647688272 166.21975903620478,184.98558866718668 165.26987951807678,185.45660707542265 164.46313253015978,186.12514669424854 164.34602409641957,186.0491764389153 164.4240963855991,185.60854816970823 164.3069879518589,185.6237422703416 164.1638554217061,185.8516535879462 163.6433734940365,187.0367866406159 163.6303614458302,187.82686993846437 163.3701204819954,188.9967930355342 162.64144578319974,191.1390951757785 161.45734939764952,192.68882584899256 160.4163855421939,193.52445803595765 160.20819277112605,193.85870955682185 160.33831325301435,193.87390278937528 160.71566265064757,193.5548445697932 161.37927710846998,193.28136553481454 161.31421686755493,193.4484916732763 161.30120481929043,193.2509789433825 160.24722891574493,193.8283230869274 160.4293975904584,193.46368494900526 161.26216867472976,192.8863393477077 162.51132530125324,191.4581587327266 162.7065060241148,191.0935146100819 163.2139759036363,189.34624874549627 162.31614457833348,189.3158613260166 161.63951807230478,189.1639241327357 159.29734939761693,188.9967930355342 158.30843373498647,188.81446798155957 157.94409638555953,188.86004926661553 157.55373493977822,188.6017551276309 157.37156626506476,188.6017551276309 157.1893975904095,188.7081115937617 156.89012048195582,188.7081115937617 156.60385542176664,188.55617376101145 156.33060240966734,188.61694891327352 155.3026506024762,188.2067161390005 154.2096385541954,188.03958393384528 153.49397590366425,187.53818615776254 152.80433734948747,186.83926514069026 152.59614457836142,186.48980336349632 152.37493975908728,186.36825124271854 152.16674698796123,186.3986392825027 151.64626506029163,186.62654937701882 150.865542168729,187.29508357903978 149.74650602415204,187.84206380565593 149.48626506025903,187.84206380565593 147.72963855427224,188.69291781769425 147.1180722891586,188.79927421666798 146.53253012045752,189.01198677961656 146.10313253017375,189.5589605027053 145.60867469885852,189.95399579194782 144.89301204821095,190.04515762833762 144.2684337349492,190.51615953276632 143.43566265067784,191.42777175770607 143.01927710848395,191.54931961953116 142.3946987952222,191.92915602844732 141.70506024098722,191.91396259126486 141.69204819278093,192.1874442158005 141.23662650602637,193.02307930402458 141.3277108434704,193.66119738797715 140.88530120486394,193.85870955682185 140.35180722892983,194.55759660058538 139.8573493976728,195.04377689707326 139.4669879518333,195.18051481056318 138.71228915662505,195.1653217154817 138.07469879515702,195.40841104531137 137.74939759040717,196.13767657996505 137.0597590362304,196.9429029965686 136.98168674705084,197.4898466813902 136.3701204819954,198.2039089302998 135.75855421693996,198.1583305943641 135.05590361449867,198.37102937234158 134.18409638555022,198.4469931456988 133.63759036146803,198.34064385179954 133.6766265060869,198.5381496209593 133.0,199.85991204743914 133.18216867477167,200.17895633811713 133.07807228917954,200.39165214034438 133.22120481927413,200.40684468569816 133.29927710845368,200.5739625786664 133.35132530122064,200.84742780467786 133.36433734936872,200.78665779923904 133.49445783137344,200.95377525275399 133.8197590361815,202.01724542671582 133.87180722894846,201.74378241553495 133.62457831331994,201.1816623777995 133.89783132536104,201.04493014593027 134.1971084337565,201.1057000427245 135.2771084337146,200.84742780467786 135.34216867474606,199.98145281273173 137.1638554217061,199.6776007078006 137.64530120487325,199.3889406160597 138.81638554221718,199.20662868184445 139.38891566271195,199.22182135180628 139.36289156635758,199.64721546215878 139.40192771091824,199.29778467770666 139.7142168674618,199.28259201574838 139.8573493976728,199.32816999689385 140.85927710845135,200.55877005094953 142.47277108434355,202.00205305076088 144.034216867527,202.73128529262613 145.14024096389767,202.89840049618215 145.56963855429785,202.86801592806296 145.98602409643354,202.71609299180273 146.06409638555488,202.77686218549206 146.25927710847463,202.71609299180273 147.5084337349981,202.70090068939317 147.87277108436683,202.62493915334926 148.25012048194185,202.4122466398403 148.43228915665532,202.4426313037984 148.65349397592945,202.22993852185027 148.67951807234203,202.33628495197627 148.96578313258942,201.7893596200447 149.55132530123228,201.2120473006362 149.69445783132687,200.93858276498213 150.2019277108484,200.42203722934937 150.6183132530423,200.08780089841457 150.93060240964405,199.64721546215878 151.56819277111208,199.32816999689385 152.01060240966035,199.22182135180628 153.05156626511598,199.25220668695692 153.62409638555255,199.37374796361837 154.18361445784103,199.85991204743914 154.95132530125557,199.9662602226308 156.00530120485928,199.70798594706866 155.90120481926715,199.7535637939436 155.79710843379144,199.76875640641083 156.6559036144754,199.4649038540083 157.02024096390232,199.3889406160597 157.21542168682208,199.4649038540083 157.22843373497017,199.26739935214573 158.07421686750604,199.11547262845852 158.4125301205204,198.796425988563 158.6857831326197,198.94835304781736 158.99807228922145,198.76604055755888 159.3493975904421,198.88758224333287 159.6096385542769,199.20662868184445 159.92192771082046,199.32816999689385 159.93493975908495,199.52567441559222 160.09108433738584,199.60163758169801 160.1171084337402,199.76875640641083 160.32530120486626,200.13337862543995 160.72867469885387,200.69550274306675 160.89783132536104,200.54357752160286 161.0800000000163,200.5739625786664 161.1971084337565,200.3004968349269 161.30120481929043,200.3004968349269 161.3532530121156,200.1637637688109 161.58746987959603,200.1485711979476 161.7436144578387,199.9054898464383 161.84771084337262,199.93587503771414 162.06891566270497,199.85991204743914 162.12096385547193,199.66240808575822 162.21204819279956,199.73837117991934 162.26409638556652,199.5864449517103 162.39421686757123,199.6320228369441 162.52433734940132,199.4649038540083 162.64144578319974,199.52567441559222 162.84963855426759,199.37374796361837 163.46120481932303,199.31297733807878 164.21590361447306,199.29778467770666 164.6973493976402,199.40413326682756 165.15277108439477,199.1610506623838 165.73831325303763,199.11547262845852 165.9204819277511,199.25220668695692 166.29783132532611,199.31297733807878 168.23662650608458,199.22182135180628 169.05638554220786,199.4952891380235 169.5248192771105,199.4952891380235 170.27951807231875,198.94835304781736 170.96915662655374,198.70526967625483 171.6848192771431,198.3102583248692 171.9450602409779,197.94563150314207 172.28337349399226,197.73293209864642 172.56963855423965,197.91524589307664 172.86891566269333,197.97601710674644 173.77975903614424,198.03678829486307 174.13108433736488,197.93043869886606 174.9118072289275,197.30753234989243 175.41927710844902,196.4415361325373 175.66650602413574,195.90978149601142 176.59036144585116,195.48437637698953 177.058795180812,195.11974242056021 177.64433734945487,194.31450583851256 177.95662650605664,194.28411946448614 178.76337349397363,194.46643761274754 179.72626506024972,195.18051481056318 178.8284337350051,194.45124444254907 178.8284337350051,194.3600853875978 179.361927710881,194.08660787751433 179.94746987958206,193.99544859238085 180.11662650608923,194.07141466728353 181.00144578318577,193.91948247750406 181.28771084337495,193.99544859238085 182.09445783140836,192.719212558688 182.10746987955645,192.5065054565348 182.3156626506243,192.17225080578646 183.53879518073518,192.68882584899256 183.86409638560144,192.47611870204855 184.02024096396053,192.32418483385118 184.13734939770075,191.85318882658612 183.9291566265165,191.32141729466093 183.96819277113536,190.94157928718778 184.48867469886318,190.74406312846986 184.57975903624902,190.2578683560132 184.9831325301202,189.9995767173532 185.49060240969993,189.3158613260166 187.0,188.1155531419936 186.8698795181117,187.6445434072957 186.37542168679647,187.14314425943303" stroke="#4dd2ff" stroke-linecap="round" stroke-linejoin="round" stroke-width="0.5"><title>2024-01-14 17.6km</title><desc>10586205778</desc></polyline><polyline fill="none" points="18.10387873381842,259.1863973472209 18.031654034741223,259.27084975567413 17.574230940663256,259.35530213743914 17.068658047239296,259.4679052713618 15.335265269735828,260.1998244810093 14.372269282233901,260.3405779444729 13.625947391847149,260.14352307486115 13.337048595538363,260.31242725768243 13.288898796308786,260.7346872459748 13.120374498306774,261.15694656420965 13.072224699077196,260.9880429173354 13.144449398037978,259.97461878479226 13.240748996729963,259.4397544923995 13.312973695807159,258.7922857529484 13.746321890270337,258.6233806053642 13.312973695807159,258.34187178785214 13.264823896461166,258.0885135974677 13.674097191193141,258.0603626725788 13.987070887116715,257.91960800322704 13.962995987385511,257.6662494108605 13.385198394884355,257.32843757927185 13.40927329461556,257.0750784240954 13.818546589347534,257.1595315026643 14.10744538565632,257.10322945326334 14.10744538565632,256.73726584218093 13.385198394884355,256.3994528313342 13.361123495269567,256.06163939181715 13.987070887116715,256.25869728365797 14.564868479617871,256.0897905281163 14.492643780540675,255.8927325111872 13.842621489078738,255.44231363892322 13.57779759238474,254.87928897654638 13.746321890270337,254.76668390116538 14.227819884079508,255.07634774385951 14.733392777503468,254.9918940042553 14.275969683309086,254.56962490457227 14.01114578684792,253.58432773285313 14.300044583156705,252.57087540766224 14.974141774349846,251.10699301346904 15.624164065928198,250.3750487967627 16.27418635750655,248.96745810625725 16.803834150661714,247.78507617267314 17.11680784658529,247.25018738160725 17.76683013816364,246.2648631100892 18.850200624088757,245.08246916832286 19.37984841724392,244.37866075645434 19.47614801605232,243.98452723262017 19.88542131066788,242.9428858239844 20.70396790013183,240.24022964126198 21.329915291978978,239.19857357558794 23.20775746763684,238.18506646255264 24.07445385644678,237.28416801028652 24.531876950524747,235.48236195513164 24.604101649601944,234.13099940671236 24.844850646331906,232.32917199929943 24.796700846985914,231.5971761296678 24.70040124829393,230.72440919154906 24.339277753024362,230.1050244665239 24.820775746833533,229.99240890692454 24.917075345525518,229.90794720608392 24.387427552370355,229.682715872681 24.435577351716347,229.45748434856068 25.061524743563496,229.2604066085769 24.724476147908717,229.1196367049415 24.339277753024362,228.86625069059664 24.435577351716347,228.72548057849053 25.230049041332677,228.52840229630237 25.278198840795085,228.3313238681003 24.917075345525518,228.35947793824016 24.36335265263915,228.1060911999375 23.833704859483987,227.31777536010486 23.954079357907176,226.1916058229399 24.339277753024362,225.68482797592878 24.820775746833533,225.45959306746954 25.398573339218274,225.6003649076738 26.79491752118338,225.91006269375794 27.68568880960811,226.135297220957 28.889433793956414,226.36053155743866 31.008024966577068,225.4314386905462 32.669193044886924,224.812041643454 33.1025412393501,224.33341566484887 33.55996433342807,223.7421706202149 33.92108782869764,223.5169340671564 34.137761925929226,224.02371604341897 34.83593401685357,224.27710666964413 35.967454302241094,224.5304970544239 36.88230049039703,224.98096825377434 37.845296477898955,225.45959306746954 38.952741863555275,225.45959306746954 41.1917075344827,224.89650496200193 42.85287561302539,224.47418810092495 44.80294248776045,224.75573274947237 46.512260365416296,224.417879135377 47.86045474803541,223.99556151454453 48.751226036576554,223.88294336906984 49.3530985286925,223.68586149980547 49.641997325001284,223.79847972863354 51.08649130631238,223.4887794845854 51.80873829696793,223.62955236749258 52.48283548816107,223.99556151454453 54.28845296474174,224.08002509232028 55.10699955408927,223.93925244774437 55.85332144447602,223.5450886466715 56.28666963882279,223.12276964032208 56.88854213105515,222.64414062272408 57.70708872040268,222.8412232636474 58.67008470802102,222.784913952637 59.46455639763735,222.50336721842177 60.186803388176486,222.44705783581594 60.57200178341009,221.60241566674085 61.46277307183482,221.06747423947672 62.57021845737472,220.39175721482025 63.196165849338286,219.68788348912494 63.84618814091664,219.09662812043098 65.41105662053451,218.13935473750462 65.89255461434368,217.85780308692483 66.30182790895924,218.05488927356782 66.63887650473043,218.19566503178794 66.95185020053759,218.22382017452037 66.22960320988204,217.7451823433512 65.72403031634167,218.05488927356782 65.86847971461248,217.9704237829137 66.13330361119006,217.9704237829137 65.67588051711209,217.8014927210752 65.41105662053451,217.85780308692483 65.5073562192265,217.99857894942397 65.5795809184201,218.13935473750462 63.87026304053143,219.09662812043098 62.233169861719944,220.67330618365668 61.438698172103614,221.20824840350542 61.14979937579483,221.96842760255095 60.909050378832035,222.8412232636474 60.933125278679654,223.4324703105085 61.486847971449606,224.98096825377434 61.486847971449606,225.76929101749556 61.005349977640435,226.10714291542536 60.596076683024876,226.36053155743866 60.2831029871013,226.86730811724556 60.234953187638894,227.7119335719908 60.186803388176486,228.35947793824016 59.994204190792516,229.31671454917523 59.41640659829136,229.682715872681 59.103432902367786,229.34486851506517 58.9830584039446,229.48563829952036 58.21266161382664,230.16133222833741 57.514489522902295,230.4428708589112 57.4663397235563,230.41471700929105 57.87561301828828,230.83702444125083 58.06821221567225,231.65348357573384 58.26081141317263,232.3573256463278 58.52563530986663,233.11747299140552 58.59786000882741,233.6805436987488 58.790459206327796,234.0183855512878 59.07935800263658,235.25713534030365 59.24788230052218,235.82020151984761 59.32010699948296,236.41141972597688 59.44048149790615,237.1152492109686 59.729380294214934,238.1006073622557 60.01827909052372,238.83258534120978 60.25902808725368,239.45194975065533 59.897904591984116,239.81793713316438 60.04235399013851,240.21207682826207 60.49977708433289,240.43729924905347 59.92197949171532,240.38099366170354 59.80160499329213,240.80328527634265 59.80160499329213,241.3663397199707 59.63308069552295,242.46429245831678 59.80160499329213,242.88658076681895 61.5349977707956,243.05549590257579 61.58314757025801,243.39332585240481 61.02942487737164,244.40681312861852 60.49977708433289,244.63203199917916 60.427552385255694,245.0543168676959 60.186803388176486,246.20855875572306 60.114578689215705,246.63084112253273 59.97012929106131,247.86953219928546 59.65715559513774,248.65778715521446 59.63308069552295,249.05191375763388 59.17565760144498,249.27712869693642 58.188586714095436,248.99560999305686 57.80338831921108,249.16452125119395 57.58671422197949,249.53049527585972 57.10521622817032,250.3750487967627 56.40704413736239,250.90993130698917 55.612572447629645,251.33220621364308 54.119928666972555,251.92338995728642 53.25323227816261,252.9368447480665 52.96433348185383,253.66878191905562 52.84395898343064,254.06290110037662 52.86803388316184,254.11920379294315 52.699509585276246,254.17550647360622 51.61613909935113,255.04819650034187 50.629068212234415,255.21710391686065 49.49754792684689,255.18895268821507 48.534551939344965,255.72382552339695 47.78823004895821,256.0897905281163 47.09005795803387,256.8498700837663 46.19928666960914,257.80700421417714 45.47703967895359,258.45447535059066 43.551047703949735,259.6931113964238 41.98617922421545,260.5939339909237 41.119482835405506,261.0724947541894 40.27686134632677,261.49475353656453 39.26571555947885,261.8044095512014 38.47124386986252,261.9451621660264 36.954525189474225,262.2548176566488 36.08782880054787,261.57920521264896 35.02853321447037,260.76283788797446 33.43958983500488,259.6931113964238 32.50066874711774,259.1582465383108 31.995095853693783,258.76413490244886 32.09139545238577,258.67968233313877 32.476593847502954,258.1448154383979 32.59696834592614,258.0603626725788 32.476593847502954,258.2855699885986 32.23584485054016,258.39817357517313 32.25991975038778,258.9893416230043 33.89701292908285,259.97461878479226 35.31743201066274,260.84728979627835 36.20820329920389,261.4103018336755" stroke="#4dd2ff" stroke-linecap="round" stroke-linejoin="round" stroke-width="0.5"><title>2024-01-07 7.5km</title><desc>10586205581</desc></polyline><polyline fill="none" points="166.05802707909606,219.7604773528874 165.11798839480616,220.30915799777722 164.700193423545,221.40651773026912 164.75241779489443,221.28458897361998 165.0657640232239,222.26001830899622 165.5880077369511,223.78412336145993 165.74468085099943,224.3328001999762 165.27466150885448,225.49111626524245 167.52030947781168,227.01521282701287 169.0348162476439,225.91786370630143 169.60928433272056,225.97882760089124 171.1237911025528,228.53930538374698 170.96711798850447,229.57568603480468 171.3849129595328,230.85591839981498 171.2282398454845,230.6730282350327 171.54158607358113,230.61206483381102 171.07156673097052,230.4291745920782 171.43713733064942,230.18532084667822 170.8626692458056,230.55110142636113 171.1237911025528,230.4291745920782 170.653771760175,229.57568603480468 170.91489361715503,229.45375899551436 170.13152804644778,229.7585765456315 164.33462282409891,233.1725221631932 162.55899419728667,234.39178358536446 161.20116054150276,235.30622797005344 157.38878143159673,237.5008886110154 154.8297872338444,238.1714777063462 152.42746615083888,239.39072862034664 150.7040618956089,240.3661275060149 149.81624758220278,239.87842826818815 148.77176015498117,237.56185128813377 147.1005802708678,236.76933598669712 146.4738878144417,237.19607512984658 145.16827853024006,237.19607512984658 145.42940038698725,238.1714777063462 145.16827853024006,238.90302856225753 143.34042553207837,240.42708988208324 142.55705996137112,240.79286400298588 142.13926499034278,240.24420273513533 141.4081237912178,240.48805225157412 141.6170212768484,239.9393906952464 141.77369439066388,238.47629067505477 143.18375241779722,242.43884469236946 143.28820116072893,242.68269328621682 143.96711798850447,243.17039016628405 142.0348162476439,243.96289672190323 141.72147001954727,244.57251641259063 141.4081237912178,244.7554021947435 141.1470019344706,246.8890653932467 141.1470019344706,248.04733641451458 138.37911025155336,248.96175927110016 138.27466150885448,248.4740672602784 137.70019342377782,248.4740672602784 136.76015473902225,246.2794481375022 136.08123791124672,245.54790658463025 134.61895551276393,242.68269328621682 133.73114119959064,241.15863789303694 133.0,240.06131553056184 133.62669245665893,240.79286400298588 134.77562862681225,242.80461754469434 136.18568665371276,245.18213546229526 137.54352030949667,247.49868200853234 137.70019342377782,248.10829798306804 136.39458413957618,249.51041229313705 134.98452611221,250.36387151805684 135.97678916854784,250.48579416202847 136.23791102529503,249.69329651846783 135.92456479696557,250.05906479625264 135.87234042561613,251.03444574255263 136.13346228259616,251.8269415536779 137.28239845274948,252.4365529794013 139.47582205035724,250.8515619399259 140.36363636376336,249.57137370796409 141.98259187629446,248.53502878395375 143.18375241779722,249.20560512261 145.2727272727061,251.2782907228102 146.78723404277116,250.7296393730212 149.08510638331063,249.32752801000606 151.12185686663724,248.4740672602784 152.32301740837283,250.24194884853205 153.73307543527335,248.59599030134268 154.20309477765113,248.41310572990915 154.25531914900057,247.92541325796628 154.30754352011718,246.64521856798092 152.42746615083888,243.96289672190323 150.02514506760053,245.18213546229526 149.34622824005783,244.9992498146603 151.2785299809184,248.6569518125034 153.26305609289557,252.3146307457937 152.8974854934495,252.6194362823153 150.80851063830778,250.60771678038873 149.4506769827567,250.5467554743518 148.04061895562336,251.8269415536779 148.04061895562336,253.2900078992243 149.60735009680502,256.21612951986026 151.12185686663724,258.22782957175514 153.10638297884725,258.5326320011518 154.20309477765113,257.9230269819964 154.62088974867947,256.70381502143573 153.73307543527335,253.96057874098187 153.5241779498756,253.04616376472404 154.8297872338444,255.24075728625758 155.299806576455,255.85036512441002 152.79303675051779,251.88790272537153 151.80077369441278,249.99810343253193 152.11411992274225,250.36387151805684 153.88974854932167,249.38848944415804 153.5764023209922,249.69329651846783 153.94197292090394,249.38848944415804 154.1508704063017,249.26656656962587 153.99419729225338,249.26656656962587 154.5164410059806,248.83983630681178 153.94197292090394,249.08368220971897 153.94197292090394,249.20560512261 153.88974854932167,249.20560512261 153.68085106415674,249.51041229313705 153.83752417797223,249.44945087190717 153.68085106415674,249.02272074355278 153.73307543527335,248.4740672602784 153.73307543527335,249.1446436693659 153.83752417797223,248.77887481503421 154.30754352011718,249.02272074355278 153.62862669257447,248.59599030134268 153.7852998066228,248.6569518125034 153.83752417797223,248.9007977921283 153.5241779498756,249.20560512261 153.5764023209922,248.83983630681178 153.99419729225338,248.41310572990915 153.68085106415674,248.9007977921283 153.68085106415674,249.20560512261 153.73307543527335,248.4740672602784 153.7852998066228,249.1446436693659 153.7852998066228,248.41310572990915 153.83752417797223,248.53502878395375 153.62862669257447,248.4740672602784 153.7852998066228,248.4740672602784 154.25531914900057,249.1446436693659 154.04642166336998,248.53502878395375 154.04642166336998,248.77887481503421 153.7852998066228,248.9007977921283 153.7852998066228,248.96175927110016 153.5764023209922,248.53502878395375 153.1586073501967,249.1446436693659 154.04642166336998,248.83983630681178 154.5164410059806,248.77887481503421 154.09864603495225,246.4013716399204 153.5764023209922,245.1211735861143 152.6363636367023,243.231352247647 154.30754352011718,242.07307160948403 153.7852998066228,240.00035311619285 153.7852998066228,239.57361603615573 155.87427466153167,238.3543655067915 158.95551257254556,236.7083732264 161.41005802736618,235.30622797005344 162.45454545482062,234.75756151229143 163.23791102529503,234.26985755848 163.29013539664447,234.14793150592595 167.25918762106448,231.89229491149308 169.08704061922617,230.91688177542528 169.8704061897006,230.246284292778 169.97485493216664,229.69761304848362 171.75048355897889,230.0024304704275 171.9071566730272,230.55110142636113 172.69052224373445,229.94146699877456 173.2649903288111,229.14894128515152 173.36943907151,228.29545084369602 176.39845261117443,228.1735235353117 177.75628626695834,228.4173781267018 182.97872340446338,229.63664954493288 183.1876208896283,230.063393935794 183.7620889749378,230.73399162961869 186.73887814301997,230.91688177542528 187.0,232.68481687660096 186.68665377190337,234.8794874366722 186.21663442929275,235.73296818952076 185.11992263048887,235.97681960259797 183.34429400390945,237.25703783886274 182.97872340446338,238.1714777063462 181.7775628627278,238.65917837939924 181.04642166336998,240.00035311619285 181.5686653770972,240.30516512377653 180.9419729206711,240.48805225157412 180.88974854932167,241.64633605466224 179.9497098645661,242.49980685068294 177.70406189537607,241.70729829603806 177.23404255323112,240.60997697140556 177.18181818188168,240.60997697140556 176.9729206962511,240.30516512377653 177.49516441021115,240.42708988208324 177.86073500965722,240.30516512377653 177.0773694391828,240.60997697140556 177.28626692458056,240.48805225157412 177.18181818188168,240.7319016653928 177.9129593812395,242.19499599613482 175.82398452609777,243.41423845262034 175.0928433269728,242.9265417776769 175.19729206967168,243.04846598493168 175.66731141204946,243.2923143224907 173.52611218579113,241.34152475179872 175.66731141204946,243.901934717549 174.8317214702256,244.69444027362624 171.69825918786228,245.6698302407749 170.2359767893795,246.03560105565703 168.40812379098497,246.82810369657818 167.25918762106448,247.98637483932544 166.89361702138558,249.38848944415804 166.8413926498033,250.97348448139383 166.7891682786867,252.86328059632797 167.0502901354339,253.04616376472404 168.30367504851893,252.74135845230194 169.29593810462393,252.4365529794013 170.2359767893795,252.49751408677548 170.2882011604961,253.83865682739997 170.2882011604961,254.02153968811035 170.49709864589386,255.6065220659948 170.49709864589386,257.74014535121387 170.3926499034278,259.5079986996716 170.44487427477725,260.2395226471708" stroke="#4dd2ff" stroke-linecap="round" stroke-linejoin="round" stroke-width="0.5"><title>2024-01-01 6.1km</title><desc>10666129243</desc></polyline></svg>