<?xml version="1.0" encoding="utf-8" ?>
<svg baseProfile="full" height="300mm" version="1.1" viewBox="0,0,200,300" width="200mm" xmlns="http://www.w3.org/2000/svg" xmlns:ev="http://www.w3.org/2001/xml-events" xmlns:xlink="http://www.w3.org/1999/xlink"><defs /><rect fill="#222222" height="300" width="200" x="0" y="0" /><text fill="#FFFFFF" style="font-size:12px; font-family:Arial; font-weight:bold;" x="10" y="20">Over 10km Workouts</text><text fill="#FFFFFF" style="font-size:4px; font-family:Arial" x="10" y="280">ATHLETE</text><text fill="#FFFFFF" style="font-size:9px; font-family:Arial" x="10" y="290">Sayid × Nuo</text><text fill="#FFFFFF" style="font-size:4px; font-family:Arial" x="120" y="280">STATISTICS</text><text fill="#FFFFFF" style="font-size:3px; font-family:Arial" x="120" y="285">Number: 2</text><text fill="#FFFFFF" style="font-size:3px; font-family:Arial" x="120" y="290">Weekly: 1.0</text><text fill="#FFFFFF" style="font-size:3px; font-family:Arial" x="141" y="285">Total: 29.6 km</text><text fill="#FFFFFF" style="font-size:3px; font-family:Arial" x="141" y="290">Avg: 14.8 km</text><text fill="#FFFFFF" style="font-size:3px; font-family:Arial" x="167" y="285">Min: 12.0 km</text><text fill="#FFFFFF" style="font-size:3px; font-family:Arial" x="167" y="290">Max: 17.6 km</text><polyline fill="none" points="79.79519049904775,143.9005744173628 79.96705490746535,144.0 79.0647667638259,143.40344589808956 78.3558260796126,143.1797377348703 78.65658879419789,143.1300247819745 78.46324133477174,142.58318163326476 78.59213964105584,142.235189902407 78.46324133477174,142.18547675751324 78.67807184520643,142.03633726255794 78.69955489621498,141.86234107005293 78.65658879419789,142.03633726255794 78.74252099823207,141.6386314980773 78.61362269194797,141.06692832925182 77.94764810986817,140.07265876725432 77.99061421200167,139.27724020881578 77.73281759954989,138.8795299600024 77.96913116087671,138.55638990686566 77.94764810986817,138.08410752317286 77.04535996622872,136.74182629770075 76.91646166006103,135.94639691173506 76.6371819966007,135.7972536139714 76.5942158944672,135.49896674578486 76.05713961855508,135.3249659047142 75.60599554679357,134.60410395926738 77.10980911937077,133.5352357863594 75.43413113837596,134.70353331946535 75.02595316874795,134.35553038225044 74.78963960730471,134.33067301068513 73.77993620873895,133.48552087397547 73.22137688170187,133.7340953348321 72.94209721812513,133.5352357863594 72.40502094221301,133.5352357863594 72.12574127875268,133.1872311875195 70.83675821649376,132.76465350923536 70.45006329775788,132.41664781450527 69.76260566455312,132.2426447814796 69.54777515423484,132.0189264142973 69.56925820524339,131.69577730068704 68.96773277618922,131.04947779295617 68.96773277618922,130.8754737876443 68.4736226022942,130.25402990139264 67.18463954003528,129.98059409139387 67.16315648902673,129.8563049857621 66.73349546827376,129.68230013192806 66.6260802129982,129.45857942366274 66.49718190683052,129.50829515428632 66.51866495783906,129.35914793210395 66.69052936614025,129.35914793210395 66.38976665167138,129.433721554582 66.046037835069,129.30943217116874 65.8312073246343,129.03599530555948 65.65934291633312,129.0608532151091 65.70230901846662,128.83713193856238 66.08900393708609,128.538836584994 66.00307173305191,128.19082487962442 65.33709715073928,127.69366444164189 65.2511649467051,127.46994191505655 64.82150392583571,127.24621918381308 64.3703598540742,127.14678679316421 64.13404629274737,127.39536769401457 63.76883442513645,127.668806393267 63.102859842940234,127.96710280756815 62.930995434639044,128.26539885814418 62.50133441388607,128.51397862246085 60.93307168816682,129.01113739350694 61.040486943442374,128.91170572016563 60.65379202470649,129.45857942366274 60.33154625899624,129.6325844366511 58.913664890569635,129.7320158171351 58.569936073967256,129.45857942366274 57.323919113725424,129.50829515428632 56.89425809297245,129.58286873131874 55.92752079630736,130.20431432229816 55.79862249013968,130.08002533038962 55.88455469429027,129.18514272468747 55.49785977555439,128.66312635986833 55.175614009960555,127.79309661012667 54.70298688719049,127.44508384395158 54.63853773404844,127.07221247366397 54.89633434661664,126.50047526884009 54.76743604033254,125.85416203716886 55.068198754801415,125.133272187697 54.74595298920758,124.4372385932511 54.788919091341086,123.94007052770758 54.50963942788076,123.54233534783998 54.552605529897846,123.64176920344471 54.681503836181946,123.54233534783998 54.53112247900572,122.47341884794878 54.63853773404844,122.02596404265205 54.40222417272162,121.0067583755881 53.99404620297719,120.6835947164509 54.18739366228692,118.99319323529198 54.0799784072442,118.6203089831397 54.50963942788076,118.09827007522108 55.41192757152021,117.5016528164997 56.09938520472497,115.41348095206195 56.722393684787676,114.84171649969358 57.36688521574251,113.89705925913586 58.11879200220574,113.52416723888018 58.24769030837342,113.1512746502849 59.149978452012874,112.10717237797508 60.76120727986563,111.7342776292644 61.019003892317414,111.21222402607964 61.8568428826984,110.11839381605387 62.479851362877525,109.59633676422527 62.73764797532931,109.04941865769797 63.21027509809937,108.8505390430073 64.26294459891506,108.65165926671762 64.80002087482717,107.90585866526817 65.80972427374218,107.38379689116846 65.78824122261722,107.2594963045849 65.74527512048371,107.3589367789391 65.55192766117398,107.28435642688419 65.80972427374218,107.3340766641486 65.68082596745808,107.13519565477327 65.72379206947517,106.81201366968162 66.19641919236165,106.06620745906548 67.87209717324004,104.67402978143946 68.32324124500155,104.57458821545879 69.3973937969422,103.90335658822733 69.48332600109279,103.60503082923242 69.46184295008425,103.82877518261375 67.4639192034956,104.97235423655366 66.58311411098111,105.89218568263459 66.08900393708609,106.16564841853688 65.70230901846662,106.93631448372616 65.78824122261722,106.68771279251087 65.70230901846662,106.83687383760116 65.70230901846662,107.48323731501296 65.89565647777636,107.6075377879315 65.74527512048371,107.55781760632817 65.70230901846662,106.91145432597841 66.00307173305191,106.81201366968162 65.74527512048371,106.96117463895644 65.70230901846662,106.83687383760116 66.23938529449515,106.06620745906548 65.87417342676781,105.69330350092787 65.9601056309184,105.74302406155039 65.93862257979345,105.49442115753482 66.13197003910318,105.34525929379743 66.32531749852933,104.42542579081783 66.19641919236165,104.17682154763315 66.43273275380488,104.05251933120599 66.45421580481343,103.35642575213569 66.34680054965429,103.45586781324528 66.51866495783906,103.08295987547899 66.36828360066283,103.0580993261101 66.26086834538728,102.48630599238095 66.15345309022814,102.51116659994295 66.99129208060913,101.96423265071644 67.05574123375118,101.74048659174878 66.66904631524812,100.59689242694003 66.86239377455786,100.1493976025522 66.81942767242435,99.10523982832092 67.70023276505526,98.03621653633309 67.80764802009799,97.71302252827445 67.65726666292176,97.29038356548699 67.97951242839918,97.29038356548699 68.04396158154123,96.61913194703811 68.23730904085096,96.37051976901421 68.53807175543625,96.14676859260362 68.17285988782533,95.6495430234063 67.87209717324004,95.07773236915818 67.87209717324004,94.75453445140738 69.05366498033982,93.23798467170855 70.47154634888284,92.46727544190071 70.53599550190847,92.21865904316655 71.05158872681204,92.11921241297387 71.71756330900826,91.62197865513735 71.37383449240588,91.37336139702529 71.20197008410469,90.90098791047058 70.12781753216404,90.75181714624341 70.42858024674933,88.96176087766071 70.1922666853061,88.93689889275993 70.1063344811555,88.58883083912951 70.149300583289,88.26562434567313 69.67667346040253,87.81810695727472 69.56925820524339,87.5197615767247 70.36413109360728,86.9727941002784 71.39531754341442,86.64958547099377 72.40502094221301,86.55013657608652 73.88735146378167,86.59986102853145 74.81112265842967,86.35123866477807 75.49858029163443,86.45068764056487 75.62747859780211,86.17720285973337 75.52006334264297,85.67995701999462 74.9615040156059,85.77940626877535 74.2955294335261,85.6302323803684 74.05921587208286,85.77940626877535 74.0806989230914,85.953442356913 74.57480909698643,86.02802921396506 74.59629214799497,85.67995701999462 74.27404638251755,85.6302323803684 74.57480909698643,85.15784780004469 74.83260570943821,85.23243489969173 75.24078367918264,85.10812305423315 75.06891927076504,85.23243489969173 75.32671588333324,85.35674668192223 75.24078367918264,85.25729726116697 75.39116503635887,85.28215962011018 75.8423091082368,84.80977436737157 75.52006334264297,85.08326067758026 75.64896164892707,84.93408636446111 75.9282413123874,85.28215962011018 75.69192775094416,85.45619606212131 75.79934300598688,85.48105840099743 75.9282413123874,85.77940626877535 75.47709724062588,85.10812305423315 75.64896164892707,85.03353591664927 75.7134108019527,85.20757253562624 75.62747859780211,85.10812305423315 75.82082605711184,85.15784780004469 75.8423091082368,85.05839829839533 75.82082605711184,85.15784780004469 75.54154639376793,85.05839829839533 75.54154639376793,85.40647137713677 75.7134108019527,85.38160903079552 75.67044469993562,85.20757253562624 75.8423091082368,85.28215962011018 75.67044469993562,85.6302323803684 75.47709724062588,85.70481933602423 75.69192775094416,86.10261604821426 75.58451249578502,86.15234059175418 75.86379215924535,86.42582540043804 75.99269046541303,86.87334533677495 76.40086843527388,87.14682933913718 78.18396167131141,87.47003731124278 77.79726675269194,86.50041211344069 77.99061421200167,86.30151416170702 77.84023285470903,85.72968164947815 77.94764810986817,85.35674668192223 79.04328371293377,84.76004955083772 79.38701252941974,84.23793836680125 79.19366506999359,84.03903857489058 79.30108032515272,83.84013862117718 80.6115464385366,82.1494824825786 80.7834108468378,81.72681662153627 81.27752102073282,81.15497341137961 82.09387696022168,80.53340318778646 82.56650408299174,79.93669428674912 82.80281764431857,77.59957040344307 83.01764815475326,77.30121255511767 82.97468205261976,76.9779911419173 83.87697019625921,76.18236738140695 83.51175832864828,75.61051120447519 83.36137697135564,74.8148829942511 84.37108037015423,73.74575350988016 84.56442782946397,72.62689206648793 85.42374987096991,72.35339182378084 86.08972445316613,71.78152669129486 86.5193854739191,71.63234426289273 86.3475210655015,71.28425157585298 86.6053176780697,70.9361583932623 86.62680072907824,70.21510665283131 86.49790242291056,70.11565107341448 86.73421598423738,70.04105936238193 86.5193854739191,70.11565107341448 85.81044478958938,69.81728409258358 85.85341089160647,69.32000498200068 85.81044478958938,69.84214802157658 86.02527529990766,69.96646762851742 86.21862275933381,69.86701194799389 86.13269055529963,69.49405278582708 86.24010581034236,69.66810046565661 86.24010581034236,69.91673979331972 85.96082614688203,69.94160371215548 85.74599563656375,69.66810046565661 86.17565665731672,68.54922036186326 86.4334532697685,68.27571555756731 86.92756344366353,68.05193867209891 87.78688548516948,68.4746281728294 87.95874989335425,68.37517188550555 88.06616514851339,67.92761809157673 88.58175837353338,67.67897674099368 89.20476685347967,67.43033513749833 89.48404651705641,67.52979180922557 89.72036007849965,67.50492764511728 89.69887702749111,66.98277961401618 90.49374991573859,66.53522327127575 92.04052959056571,65.16768492507981 91.05230924277566,63.377441346558044 91.33158890635241,62.97960765985772 89.80629228265025,60.44340268790256 92.04052959056571,59.84664475293539 92.49167366232723,60.493132450050325 93.02874993823934,60.54286220211361 93.26506349968258,60.393672915612115 93.52286011213437,60.59259194403421 93.90955503087025,60.59259194403421 94.25328384735622,60.44340268790256 94.4251482556574,60.692051397491014 94.44663130678236,61.38826643896755 94.96222453168593,61.83583220433502 94.79036012326833,62.258532452600775 95.02667368482798,62.43258528354636 95.69264826690778,63.57635794712405 95.88599572621752,63.67581618667464 96.16527538979426,63.57635794712405 96.38010590011254,63.103930756493355 96.87421607400756,62.9050137715094 97.13201268645935,63.05420152540319 96.9816313291667,63.32771217109985 97.23942794161849,63.60122251078428 97.43277540104464,63.501764240834746 97.38980929891113,63.60122251078428 97.62612286023796,63.62608707191248 97.49722455407027,63.42717051184445 97.75502116652206,63.40230593047454 97.75502116652206,63.22825378988637 97.92688557482325,63.103930756493355 97.79798726853915,63.103930756493355 97.66908896237146,63.20338918820198 97.8624364216812,63.17852458408743 98.12023303413298,63.22825378988637 97.30387709476054,63.62608707191248 98.05578388099093,64.52120958949672 98.24913134041708,65.0682272924314 99.3232838922413,65.83902288725949 100.13963983173016,66.21198762524 100.3329872910399,66.46063046772906 104.97332631517202,64.04878422478214 105.78968225466087,63.377441346558044 106.21934327541385,63.30284757955815 106.92828395951074,62.805555218306836 108.99065685924143,61.93529115205456 111.48269077960867,61.83583220433502 115.26370776211843,60.91583501995774 116.40230946720112,60.81637565749406 117.3260806617327,60.46826757026429 118.27133490738925,60.493132450050325 119.47438576549757,60.26934844069183 120.24777560285293,60.34394313322264 121.6441739203874,60.96556468603376 122.15976714517456,61.01529434187978 122.67536037007812,60.940699854225386 123.14798749284819,60.692051397491014 123.62061461573467,60.692051397491014 125.03849598427769,60.294213340763235 125.68298751534894,60.04556422648602 125.98375022993423,59.69745504157618 126.52082650584634,59.72231999982614 127.61646210867912,59.423940334352665 128.06760618055705,58.951505119141075 127.98167397640646,58.28014824273123 128.41133499715943,58.10609245530213 128.99137737520505,58.13095757544215 128.6691316096112,57.360137676863815 128.840996017796,56.887698473146884 128.64764855848625,56.46498893802345 128.6691316096112,56.24120124113688 128.7980299157789,56.24120124113688 128.56171635445207,55.19685594679322 128.71209771174472,54.22710274983547 129.22769093653187,52.88436120277038 129.82921636558603,52.287584814213915 130.98930112167727,50.745905733754626 131.24709773412906,49.97506254714972 131.20413163211197,48.73176196248096 131.91307231620885,47.0408630182792 132.42866554122884,46.41920605387713 133.18057232745923,45.94674570346251 134.10434352210723,45.00182226288598 135.07108081888873,43.23629762408382 135.43629268649966,42.26649697324319 136.1667164217215,41.99296276066161 136.8326910038013,41.097757742434624 137.8853605047334,40.351751055946806 138.44391983165406,40.202549445370096 139.23879272013437,40.17768250143854 139.86180120019708,39.82954502053326 140.42036052711774,39.95387989199662 140.54925883340184,40.152815555004054 140.67815713956952,39.77981105414801 140.91447070101276,39.705210085681756 140.87150459899567,38.461857258793316 141.1078181603225,36.721152674319455 143.19167411106173,36.62168346637918 144.80290293891449,36.12433681976108 145.7481571844546,36.0 146.0059537969064,36.12433681976108" stroke="#4dd2ff" stroke-linecap="round" stroke-linejoin="round" stroke-width="0.5"><title>2024-01-21 12.0km</title><desc>10598850943</desc></polyline><polyline fill="none" points="152.9590361446608,224.6205550043378 150.3826506024925,222.12874098643078 149.62795180734247,221.76408347292454 149.5759036145173,221.30826093361247 150.35662650607992,219.4545751947153 147.5980722893728,217.11465981297079 146.50506024097558,215.38250244726078 147.0255421686452,214.65316992171574 148.61301204829942,213.65033469122136 149.28963855432812,212.76905237114988 147.4159036144847,211.7662105972413 146.01060240971856,211.34076151976478 144.16289156640414,210.15557864139555 143.04385542182717,209.82129541152972 141.118072289275,208.39298997912556 139.55662650614977,207.9067567306338 138.59373493981548,207.23818467694218 137.96915662661195,206.26571347165736 137.29253012058325,204.1080312897684 137.31855421687942,202.19345472555142 137.81301204825286,201.3121374368202 139.03614457836375,197.69566935912007 139.2443373494316,195.3859685633215 139.01012048206758,192.80272867827443 138.6978313253494,191.58707838138798 138.02120481943712,190.614554458356 137.34457831340842,188.76067165509448 136.1734939761227,186.84599331210484 135.67903614474926,186.45089937504963 135.05445783142932,185.4783581494121 133.3108433735324,183.8675795372401 133.02457831334323,183.25973621575395 132.1397590362467,182.53032254055142 131.4371084338054,181.58816048232256 129.40722891583573,180.09893031200045 127.74168674717657,180.40285546064842 127.48144578328356,180.31167794953217 127.1431325301528,179.85578996280674 127.1431325301528,179.6430419892713 126.80481927725486,180.15971536727739 127.11710843385663,178.97440448022098 126.77879518072587,179.6430419892713 126.3624096387066,178.88322651805356 126.93493975908495,180.37246296004741 126.85686746996362,180.61560287408065 125.52963855431881,180.82835013093427 125.08722891577054,181.9832610746089 124.35855421703309,182.7430683861603 124.3065060240915,183.47248152387328 123.68192771088798,184.59698983363342 122.74506024108268,187.5450043376768 122.17253012058791,188.21362199567375 121.44385542173404,188.4567553057277 120.94939759047702,188.03127187892096 120.42891566280741,186.69403416948626 120.37686746998224,185.66070987880812 120.63710843375884,183.9891480479855 122.27662650612183,180.49403294266085 122.51084337360226,178.60969245887827 123.65590361459181,175.17529832411674 124.04626506031491,174.71940222533885 124.64481927722227,174.50665046615177 127.16915662656538,174.59782981069293 129.4332530121319,173.59485543629853 129.9797590362141,168.94465598167153 130.2400000001071,168.06323718166095 130.6824096387718,167.69851137363003 132.40000000002328,167.51614829679602 135.15855421696324,166.30039150663652 135.96530120482203,165.2062060170283 136.32963855424896,164.2031990076066 135.80915662657935,165.47975277830847 135.10650602413807,166.23960353276925 132.5301204820862,167.39457284819218 131.09879518079106,167.51614829679602 130.44819277117494,167.8200866941188 130.08385542186443,168.70150623677182 129.77156626514625,172.07519065280212 129.3031325301854,173.53406899856054 127.24722891580313,174.5674366990279 124.35855421703309,174.5674366990279 123.83807228913065,174.81058150267927 123.49975903623272,175.38804959051777 122.45879518077709,178.9136191753205 122.27662650612183,180.52442543036886 120.76722891570535,183.68522667518118 120.45493975898717,185.2352223310445 120.42891566280741,186.23815626194119 120.76722891570535,187.42343732435256 120.40289156627841,189.7028103051416 120.53301204834133,190.4625972994836 119.8824096386088,192.0125565675553 119.72626506024972,194.0487649202114 120.35084337356966,196.75355679215863 120.27277108444832,198.21231042934232 117.7484337349888,200.03574211132945 117.0978313254891,200.0661325417459 116.47325301216915,199.79261855248478 116.96771084342618,201.2817471374583 114.75566265056841,200.37003667055978 115.97879518079571,202.7100877475459 115.6144578314852,202.64930743991863 113.76674698805436,201.46408888540464 113.92289156618062,202.2542351289885 114.6515662651509,203.10515943466453 114.31325301202014,203.19632974735578 112.72578313271515,202.58852711966028 112.88192771095783,203.07476932404097 113.66265060252044,203.98647125044954 111.73686746996827,203.71296097480808 111.76289156638086,204.01686126511777 112.33542168687563,204.44232113406179 111.73686746996827,205.08050976204686 112.59566265065223,205.41479848042945 112.25734939763788,205.90103592537344 110.80000000004657,207.02545688068494 110.59180722897872,207.08623626697226 110.17542168684304,206.5088315800822 109.34265060245525,204.59427093534032 110.53975903615355,207.02545688068494 109.75903614459094,208.02831511953264 109.75903614459094,208.63610629641335 110.40963855432346,210.429082814313 111.11228915688116,211.15842600894393 111.4245783132501,212.58671776219853 111.78891566267703,213.04255406864104 112.7778313254239,215.68639045598684 113.3243373495061,218.72525295376545 112.43951807240956,219.97117733437335 110.53975903615355,220.9132141508453 108.92626506031957,222.25029338849708 108.69204819283914,222.09835287783062 108.84819277119823,221.21709633941646 108.6139759037178,221.24748454068322 108.3277108434122,221.7033071758924 107.28674698807299,224.0735732812318 107.26072289166041,225.65373987692874 106.7402409639908,227.99358607106842 105.28289156639948,232.278190351557 102.91469879529905,235.37765169798513 100.83277108438779,237.0489160719153 100.4163855422521,237.7174191136437 100.6766265060287,237.74780557875056 101.43132530129515,237.1096891395864 102.75855421693996,236.56273106962908 102.62843373510987,236.8969833465526 102.60240963858087,236.501957886765 100.49445783148985,237.65664617385482 100.85879518091679,236.9273698980105 102.52433734945953,235.77267869541538 105.02265060250647,232.91631746545318 105.41301204822958,232.18702922016382 106.42795180727262,228.69249749099254 104.63228915666696,228.6317226520332 103.27903614460956,228.3278482654714 98.59469879523385,227.99358607106842 96.61686746997293,227.62893596311915 95.88819277111907,227.72009853323107 95.10746987955645,227.2035102552618 94.74313253012951,227.2035102552618 94.378795180819,227.41622318752343 93.78024096391164,227.41622318752343 93.20771084353328,227.1123475220229 92.66120481933467,227.23389782654704 90.60530120495241,226.41343227800098 88.41927710839082,226.07916786769056 86.9879518073285,225.07637231552508 85.60867469897494,223.67853028138052 85.19228915672284,222.97960672699264 84.74987951817457,222.7365024854371 84.33349397592247,222.7972785650054 83.29253012058325,223.25309875403764 81.73108433745801,224.59016715807957 79.49301204830408,225.68412761131185 78.97253012051806,225.68412761131185 75.45927710854448,227.3858356353885 74.23614457831718,227.59854843333596 73.06506024091505,228.02397355923313 72.2062650603475,229.1179210054106 71.21734939771704,229.90799158389564 69.7860240964219,230.09031525667524 68.53686746989843,231.03231906553265 66.87132530135568,232.85554351541214 66.0385542169679,233.09863923906232 64.78939759044442,233.85831205689465 63.410120481974445,233.82792518252973 63.38409638556186,234.374888431601 62.47325301205274,236.04615860804915 62.65542168694083,237.3223947759543 61.77060240972787,237.7174191136437 60.70361445785966,239.11519320117077 59.71469879534561,240.08755379414652 58.93397590366658,240.36102962112636 57.424578313250095,240.3306434309634 56.14939759031404,240.81682209062274 55.49879518081434,242.2753531599301 54.11951807246078,243.88580599313718 53.96337349410169,244.97969336278038 52.7402409639908,246.4078178605996 51.51710843387991,246.31666118872818 50.11180722899735,246.74205874468316 48.36819277110044,246.8939862913976 47.27518072293606,246.68128770359908 47.35325301217381,247.0762992419186 46.0,249.71982409487828 46.36433734954335,250.35791267623426 46.15614457835909,250.78330428068875 46.44240963854827,250.81368937139632 46.59855421690736,251.1479251573328 46.70265060244128,251.69485560935573 46.72867469873745,251.57331559847808 46.98891566274688,251.90755050550797 47.63951807236299,254.03449085343163 47.74361445789691,253.4875648310699 47.24915662663989,252.36332475559902 47.79566265072208,252.08986029186053 48.39421686751302,252.211400085449 50.554216867429204,251.69485560935573 50.684337349492125,249.96290562546346 54.327710843412206,249.3552014156012 55.2906024097465,248.7778812321194 57.63277108443435,248.4132573636889 58.777831325423904,248.44364270361257 58.72578313271515,249.29443092431757 58.80385542183649,248.59556935541332 59.4284337349236,248.56518403149676 59.71469879534561,248.6563399937877 61.7185542169027,251.11754010189907 64.9455421686871,254.00410610152176 68.06843373505399,255.46257058525225 70.28048192779534,255.7968009923643 71.1392771085957,255.73603185612592 71.97204819286708,255.43218598360545 72.12819277110975,255.55372437098413 72.51855421694927,255.43218598360545 75.01686746999621,255.40180137878633 75.74554216873366,255.24987830669852 76.5002409638837,254.8244932796806 76.86457831331063,254.88526260759681 77.3069879518589,254.45987704370054 77.35903614468407,254.67256990395254 77.93156626517884,253.5787192400894 79.10265060246456,252.42409460127237 79.38891566265374,251.87716552996426 80.40385542169679,250.84407445869874 81.23662650608458,250.17560179682914 81.8612048192881,249.29443092431757 83.13638554222416,248.6563399937877 84.0212048193207,248.44364270361257 86.10313253023196,248.50441337391385 87.2481927711051,248.74749592723674 88.36722891568206,249.71982409487828 89.90265060251113,249.93252044526162 92.01060240971856,249.41597189413733 91.8024096385343,249.50712758788723 91.59421686758287,249.53751281282166 93.31180722895078,248.9298077080166 94.04048192780465,248.7778812321194 94.43084337364417,248.9298077080166 94.45686746994033,248.53479870429146 96.14843373501208,248.23094525691704 96.82506024104077,247.59285197712597 97.37156626523938,247.89670609563473 97.99614457844291,247.53208111511776 98.69879518088419,247.77516448666574 99.2192771085538,248.4132573636889 99.84385542164091,248.6563399937877 99.86987951816991,249.05134883118444 100.18216867477167,249.20327516339603 100.23421686748043,249.53751281282166 100.65060240973253,250.2667572508799 101.45734939770773,251.3910054861335 101.79566265072208,251.0871550432057 102.1600000000326,251.1479251573328 102.39421686751302,250.60099366985378 102.60240963858087,250.60099366985378 102.7065060242312,250.3275275376218 103.17493975919206,250.2971423958952 103.4872289156774,249.81097969287657 103.69542168674525,249.87175007542828 104.13783132540993,249.71982409487828 104.24192771094386,249.32481617151643 104.42409638559911,249.47674235983868 104.52819277113304,249.17288990342058 104.78843373514246,249.26404567388818 105.04867469880264,248.9298077080166 105.28289156639948,249.05134883118444 105.69927710853517,248.74749592723674 106.92240963864606,248.62595467615756 108.43180722894613,248.59556935541332 109.39469879528042,248.80826653365511 110.30554216878954,248.32210132476757 111.47662650607526,248.23094525691704 111.8409638555022,248.50441337391385 112.59566265065223,248.62595467615756 116.47325301216915,248.44364270361257 118.11277108441573,248.99057827604702 119.04963855422102,248.99057827604702 120.5590361446375,247.89670609563473 121.93831325310748,247.41053935250966 123.36963855428621,246.62051664973842 123.89012048195582,245.89126300628413 124.56674698798452,245.46586419729283 125.13927710847929,245.8304917861533 125.73783132538665,245.95203421349288 127.55951807228848,246.07357658972614 128.26216867472976,245.8608773977321 129.823614457855,244.61506469978485 130.83855421689805,242.8830722650746 131.33301204827148,241.81956299202284 133.18072289170232,240.96875275397906 134.11759036162402,240.23948484112043 135.28867469890974,238.62901167702512 135.91325301211327,238.56823892897228 137.52674698794726,238.93287522549508 139.45253012049943,240.36102962112636 137.65686747001018,238.90248888509814 137.65686747001018,238.72017077519558 138.72385542176198,238.17321575502865 139.89493975916412,237.9908971847617 140.23325301217847,238.14282933456707 142.00289156637155,237.83896495500812 142.5754216867499,237.9908971847617 144.18891566281673,235.43842511737603 144.2149397591129,235.0130109130696 144.63132530124858,234.34450161157292 147.07759036147036,235.37765169798513 147.72819277120288,234.9522374040971 148.04048192792106,234.64836966770235 148.2746987954015,233.70637765317224 147.85831325303297,232.64283458932186 147.93638554227073,231.88315857437556 148.97734939772636,231.48812625693972 149.15951807249803,230.5157367120264 149.9662650602404,229.9991534347064 150.98120481939986,228.6317226520332 154.0,226.23110628398717 153.7397590362234,225.28908681459143 152.75084337359294,224.28628851886606" stroke="#4dd2ff" stroke-linecap="round" stroke-linejoin="round" stroke-width="0.5"><title>2024-01-14 17.6km</title><desc>10586205778</desc></polyline></svg>