<?xml version="1.0" encoding="utf-8" ?>
<svg baseProfile="full" height="300mm" version="1.1" viewBox="0,0,200,300" width="200mm" xmlns="http://www.w3.org/2000/svg" xmlns:ev="http://www.w3.org/2001/xml-events" xmlns:xlink="http://www.w3.org/1999/xlink"><defs /><rect fill="#222222" height="300" width="200" x="0" y="0" /><text fill="#FFFFFF" style="font-size:12px; font-family:Arial; font-weight:bold;" x="10" y="20">Over 5km Hikings</text><text fill="#FFFFFF" style="font-size:4px; font-family:Arial" x="10" y="280">ATHLETE</text><text fill="#FFFFFF" style="font-size:9px; font-family:Arial" x="10" y="290">Sayid × Nuo</text><text fill="#FFFFFF" style="font-size:4px; font-family:Arial" x="120" y="280">STATISTICS</text><text fill="#FFFFFF" style="font-size:3px; font-family:Arial" x="120" y="285">Number: 7</text><text fill="#FFFFFF" style="font-size:3px; font-family:Arial" x="120" y="290">Weekly: 1.4</text><text fill="#FFFFFF" style="font-size:3px; font-family:Arial" x="141" y="285">Total: 69.5 km</text><text fill="#FFFFFF" style="font-size:3px; font-family:Arial" x="141" y="290">Avg: 9.9 km</text><text fill="#FFFFFF" style="font-size:3px; font-family:Arial" x="167" y="285">Min: 5.2 km</text><text fill="#FFFFFF" style="font-size:3px; font-family:Arial" x="167" y="290">Max: 17.6 km</text><polyline fill="none" points="59.50660676730331,83.2151957572787 60.158378831110895,82.61615688443999 61.11275935312733,81.06409512920072 60.85670604230836,80.21998743331642 60.135101257357746,80.24721675712499 59.55316191469319,79.9476940369641 59.622994635719806,78.6679112103302 60.088546109967865,78.15055038681021 60.717040600138716,78.45007520104991 61.15931450051721,78.39561616987339 61.694698695791885,78.58622272851062 61.950752006610855,78.34115712714265 62.27663803845644,78.31392760144081 62.136972596286796,77.60595892134006 61.22914722166024,76.89798829128267 61.11275935312733,76.54400224500569 61.392090237583034,76.29893469656236 61.3688126639463,75.59096046659397 60.97309391084127,75.07359345001169 60.85670604230836,74.33838589821244 61.0429266319843,73.63040626826114 60.69376302638557,72.84073438035557 60.39115456829313,71.37030440039234 60.414432141929865,67.8575765081041 60.50754243670963,66.85004104362451 59.3902188987704,66.46881037837011 59.064332866924815,66.22373322368367 58.691891687572934,65.40680768658058 58.31945050822105,63.99079727122444 57.92373175511602,63.52786909713177 56.94607365934644,61.921229553670855 56.620187627500854,61.185984378884314 56.15463615336921,60.75028254193603 55.78219497401733,60.66858836528263 54.874369599390775,60.04226548151928 54.3389854041161,59.57933019514894 53.151829145033844,57.9998976480565 51.545676559209824,56.36599169491092 51.475843838066794,56.148136782925576 50.54474088968709,55.412875091598835 50.19557728408836,54.65037926385412 49.10153131990228,54.62314722809242 47.91437506082002,54.45975495339371 47.3091581442859,54.269130501576 46.65738608059473,54.35082671252894 45.0512334946543,55.14055541277048 44.14340812002774,55.76689024269581 42.81658641877584,56.1753686570446 42.46742281306069,56.638310075126356 42.397590091917664,56.502150921092834 41.3733768487582,57.42803174603614 41.09404596418608,57.918202597124036 40.04655514738988,58.40837251316407 39.674113968154415,58.10882434225641 38.09123895596713,59.06193094703485 38.51023528270889,58.680688729305984 38.60334557748865,58.299445945973275 39.48789337836206,57.863739215332316 39.32495036243927,57.2101777344069 39.95344485261012,55.95751358347479 39.62755882064812,55.440107043628814 39.743946689297445,54.97716346703237 39.83705698407721,54.895467455207836 39.93016727885697,55.16778739367146 39.65083639428485,55.30394725466613 39.83705698407721,55.195019371662056 40.55866176902782,55.440107043628814 41.210433832835406,55.30394725466613 41.86220589664299,54.895467455207836 42.0949816335924,54.35082671252894 43.70113421953283,53.75172056237352 44.14340812002774,53.01645201462088 44.259795988560654,51.89992908597924 44.67879231530242,50.756168860796606 44.39946143084671,49.231147308280924 44.492571725626476,48.14184065829613 44.236518414807506,47.243159195786575 44.2830735623138,46.807433718960965 45.540062542422675,45.06452442330192 46.35477762226947,43.56670230222517 46.89016181754414,43.18543709552614 47.728154471027665,41.95993795673712 48.89203315647319,41.00676791893784 49.35758463060483,40.353163563704584 50.42835302115418,38.71914540187572 50.21885485784151,36.56767230684636 50.21885485784151,34.66128868769738 49.846413678489625,33.32681173805031 49.613637941423804,33.08170297340257 49.217919188318774,33.0 48.89203315647319,33.32681173805031 48.030762929236516,34.960864193184534 47.867819913313724,36.295332655805396 45.656450411072,39.69955754597322 44.53912687301636,42.313971641648095 43.81752208818216,43.593935509677976 42.07170406007208,45.881514627544675 41.97859376529232,46.53510492076748 40.83799265359994,47.02529654974933 40.04655514738988,47.106995063630166 38.58006800385192,48.74095988718909 38.463680135202594,48.6864945605339 37.742075350368395,49.99365921583376 37.13685843395069,50.157054330280516 36.15920033818111,50.89233105935273 35.996257322258316,50.72893641245901 35.97297974862158,50.919563490344444 35.64709371654317,51.13742283481406 34.97204407909885,51.40974675572943 34.669435620773584,51.40974675572943 34.18060657312162,51.05572560231667 32.458066118648276,49.06775160518009 33.01672788755968,49.50347324926406 33.36589149327483,50.157054330280516 33.92455326218624,50.67447150708176 33.831442967406474,50.59277412731899 33.73833267262671,50.6200065901503 33.877998114796355,50.6200065901503 34.04094113083556,49.74856634938624 34.25043929414824,49.36731031481759 34.320272015291266,48.63202922217897 34.62288047350012,48.57756387235713 34.85565621056594,48.27800424201996 35.32120768469758,47.46102165710181 35.879869453725405,47.352090449479874 35.949702174868435,46.18107705167495 36.22903305932414,45.74534977390431 36.46180879638996,45.091757471935125 36.48508637014311,44.49262973477016 36.78769482835196,44.274764756672084 36.99719299178105,44.35646414506482 37.20669115497731,44.19306534231873 37.50929961318616,44.30199788900791 37.85846321878489,43.621168714162195 38.16107167711016,43.158203844883246 38.74301101977471,42.72247144122957 38.9525091832038,42.313971641648095 39.76722426293418,41.6331371992419 40.90782537451014,39.34552025879384 41.675985307083465,38.47404178135912 42.257924649631605,37.03064905104111 42.86314156616572,36.785543819802115 43.14247245050501,36.295332655805396 43.51491362985689,35.28767343718209 43.37524818768725,34.49788371930481 43.74768936703913,33.6808573185408 42.700198550126515,33.626388799457345 42.79330884502269,33.789794322132366 42.53725553420372,34.11660505569307 42.653643402736634,34.44341537350556 42.02514891256578,34.44341537350556 41.39665442251135,34.198307674058015 41.140601111692376,34.906395945406985 40.884547800873406,34.906395945406985 40.74488235870376,35.17873706869432 40.53538419527467,35.12426886710455 40.37244117935188,35.17873706869432 40.11638786853291,35.56001415618812 39.441338231088594,35.96852469354053 38.81284374091774,36.84001166917733 38.92923160945065,37.08511684846599 38.04468380857725,38.77361284138169 36.717862107325345,40.16252864696435 35.90314702747855,41.333569473121315 34.85565621056594,42.34120498178527 33.691777525120415,43.02203754810034 31.73646133369766,43.893500600534026 30.316529337549582,44.438163507467834 29.082817930961028,45.28238873180817 29.059540357324295,45.66365082710399 28.128437408944592,46.3989404134918 27.56977563991677,47.379323255765485 27.01111387088895,47.67888393372414 26.54556239687372,47.62441838189261 27.267167181824334,48.82265785563504 26.824893281329423,49.231147308280924 26.010178201599047,49.50347324926406 25.684292169637047,50.075356786022894 26.359341807081364,50.72893641245901 26.731782986433245,50.837866188550834 27.080946592148393,51.16465523993247 27.360277476604097,51.082958016049815 27.802551377099007,51.2463524377672 28.45432344090659,51.02849318564404 28.640544030466117,50.837866188550834 28.47760101465974,50.59277412731899 28.15171498269774,50.59277412731899 27.872384098242037,50.89233105935273 27.034391444642097,51.21912004140904 26.75506056030281,50.919563490344444 26.2662315123016,50.756168860796606 26.03345577523578,50.42937929002801 25.940345480456017,50.51107672165381 25.38168371131178,50.211519345262786 24.264360173372552,50.456611770088784 23.519477814785205,50.26598434874904 22.914260898367502,50.64723905001301 22.65820758754853,51.13742283481406 21.401218607323244,51.79099976006546 19.888176316278987,52.7713620311406 19.213126678718254,53.778952690423466 19.02690608915873,54.84100343286991 18.119080714532174,56.58384642214514 18.049247993389145,57.645885573059786 17.723361961427145,58.789615134941414 18.119080714532174,60.232885651203105 17.956137698492967,60.66858836528263 18.188913435675204,60.12395985730109 18.421689172741026,60.09672840157873 18.654464909806848,59.824413685943 18.980350941768847,59.089162512362236 19.236404252471402,58.98023623373592 19.911453890032135,58.76238353783265 20.307172643137164,58.73515193790081 21.5874391971156,59.06193094703485 22.146100966027007,58.653457120701205 22.029713097494096,58.816846729110694 22.192656113300472,58.789615134941414 22.49526457162574,59.14362563440227 22.844428177340887,58.98023623373592 23.077203914290294,59.089162512362236 22.844428177340887,58.98023623373592 23.496200241148472,59.60656170564471 23.147036635433324,59.36147800710751 23.05392634065356,59.034699378855294 23.356534798745997,58.89854149435996 24.124694731086493,58.10882434225641 24.636801352724433,58.43560414778767 24.729911647504196,58.680688729305984 24.520413484191522,58.98023623373592 24.241082599852234,59.11639407486655 24.2876377471257,59.27978338903631 24.66007892647758,59.497635646228446 24.59024620533455,59.60656170564471 24.985964958323166,59.22532029583817 25.195463121752255,59.198088744917186 25.335128564038314,59.715487718902295 25.474794006207958,59.769950708170654 24.985964958323166,60.53243134645163 25.172185547999106,61.07705898882705 25.451516432571225,61.240447056421544 25.986900627729483,61.32214105137973 26.5921175442636,61.73061063623754 26.941281149862334,61.757841918763006 28.54743373580277,63.52786909713177 29.71131242113188,64.6715724831447 29.57164697884582,64.56264857036876 30.549305074615404,65.3795767906413 31.061411696253344,65.95142499980284 31.55024074402172,66.82281030050945 31.480408022762276,66.71388729949831 31.666628612671047,66.44157959497534 31.20107713842299,66.0875791478611 30.642415369395167,66.16927160188789 30.735525664291345,66.46881037837011 31.410575301735662,67.12234831534442 31.852849202230573,67.88480714149773 31.643351038801484,67.0134254412551 32.10890251304954,68.15711331690545 32.85378487163689,68.8378774934099 33.97110840969253,70.17217004895792 35.08843194763176,72.43228245194769 37.439466892159544,75.01913370346301 39.348227936192416,78.23223900710582 39.95344485261012,78.96743542174227 39.88361213146709,78.58622272851062 40.27933088457212,78.2594685414224 40.55866176902782,78.23223900710582 40.37244117935188,78.2866980729159 40.11638786853291,78.04163218601025 40.02327757375315,77.60595892134006 39.557726099621505,77.27920348822954 39.48789337836206,77.06136630199035 40.06983272114303,76.97967730954406 40.698327211197466,76.73461017664522 41.024213243159465,76.95244763969094 41.79237317549996,78.01440262864344 42.234647075878456,78.34115712714265 43.468358482583426,78.77682914579054 43.88735480920877,79.0763532302517 44.53912687301636,79.04912378246081 44.585682020522654,79.40310637888615 44.818457757588476,79.13081211716053 45.47022982139606,79.13081211716053 46.378055196022615,78.77682914579054 48.14715079776943,78.42284568687319 49.68347066245042,77.60595892134006 49.986079120775685,76.68015078199096 49.962801547022536,75.61819028083119 50.19557728408836,73.68486630902044 50.0559118418023,72.75904404668836 49.590360367670655,71.8059882344387 49.334307056851685,70.11770926389727 49.42741735174786,68.97403011238202 49.12480889353901,66.71388729949831 49.26447433582507,66.46881037837011 49.89296882587951,66.19650241424097 51.73189714876935,66.14204078676994 52.26728134404402,66.25096403015777 52.52333465486299,67.47634733733139 52.40694678633008,68.59280259764637 52.52333465486299,71.04354104030062 52.75611039204523,71.53368592468905 52.59316737600602,72.86796448589303 53.17510671867058,74.96467394536012 52.22072619665414,74.93744406208862 51.848285017418675,74.55622539206524 51.848285017418675,74.22946608212078 51.61550928023644,74.14777618966764 51.219790527247824,73.46702607671614 50.89390449540224,73.52148615207989 51.28962324839085,72.78627416078234 51.196512953494675,72.32336182810832 50.52146331605036,71.75152779556811 51.010292363818735,70.96185013529612 51.0335699376883,70.3083219610271 50.87062692164909,70.17217004895792 50.940459642675705,69.08295215552789 51.0335699376883,69.43694847720326 50.89390449540224,69.27356562015484 50.73096147936303,67.09511760118767 50.47490816854406,66.85004104362451 49.962801547022536,67.3674246132432 49.613637941423804,68.02096026527579 49.26447433582507,68.2660357063578 49.17136404092889,68.48388034661184 50.19557728408836,68.8378774934099 50.987014790182,68.86510802299017 50.87062692164909,66.7683488058392 51.080125084961765,68.1843439185759 51.056847511208616,69.68202256812947 51.33617839589715,69.51863986684475 51.406011116923764,69.92709642535192 51.149957806104794,70.33555233484367 51.17323537985794,71.45199517553556 51.475843838066794,71.64260688319337 51.219790527247824,72.05106006652932 51.219790527247824,72.37782214579056 51.638786854106,73.35810589129687 51.406011116923764,73.76655634853523 51.98795045958832,74.22946608212078 52.0345056069782,74.6379151546571 51.7551747225225,75.75433930809959 51.42928869067691,76.08109667969984 50.77751662675291,76.43508336343803 50.3817978737643,77.11582561585237 50.311965152737685,78.06886174049578 49.24119676207192,78.77682914579054 49.078253746032715,79.10358267521951 49.008421024889685,80.21998743331642 49.148086467175744,80.51950983627466 50.45163059490733,81.44530414775363 52.26728134404402,81.55422090640059 53.17510671867058,81.8537417545449 54.17604238819331,80.62842698709574 54.7812593044946,80.92794891408994 55.61925195809454,80.95517816283973 55.92186041630339,81.20024127216311 56.06152585847303,81.58145008879364 57.31851483869832,82.77953126086504 59.134165588067845,84.08652253486798 59.59971706219949,87.0" stroke="#4dd2ff" stroke-linecap="round" stroke-linejoin="round" stroke-width="0.5"><title>2024-03-03 14.3km</title><desc>10880728755</desc></polyline><polyline fill="none" points="172.53082683112007,87.0 172.67178101371974,86.53584834191133 172.69997185026295,86.41207447345369 172.67178101371974,86.4739614125865 172.64359017717652,86.41207447345369 172.7845443597762,86.31924404660822 172.89730770571623,85.85509158187779 173.15102523448877,85.42188211868051 173.37655192648526,85.23622077348409 173.6302694552578,84.6482925999153 173.71484196477104,84.36979999920004 173.91217782034073,84.09130720054964 174.02494116639718,83.75092684433912 174.81428458879236,82.32751487771748 175.18076546362136,81.73958233863232 175.2653379731346,81.33731219821493 175.23714713659137,80.99692944900016 175.15257462707814,80.8731538305583 175.0680021174485,80.84220991979237 174.84247542533558,80.96598554810043 174.72971207939554,81.12070502838469 174.53237622370943,81.7086384963768 174.0531320029404,82.38940246208222 173.6020786187146,83.16299644164974 173.12283439794555,83.50337730863248 172.27710930246394,83.90564522476052 172.05158261046745,84.06036354400567 171.23404835141264,84.27696908829967 170.24736907344777,84.21508180213277 169.79631568910554,84.09130720054964 169.57078899710905,83.87470155360643 169.37345314130653,83.78187052535941 169.17611728573684,83.62715209607268 168.80963641102426,83.2248838939704 168.61230055545457,82.88450278498931 168.4995372093981,82.57506515647401 168.38677386322524,81.95618916617241 168.0484838252887,81.39919993901276 167.76657545997296,81.08976113723475 167.31552207586356,80.90409773879219 167.06180454709101,80.74937817291357 166.77989618189167,80.53277067799354 166.55436948977876,80.22333119178074 166.30065196112264,80.06861135701183 166.15969777863938,79.88294747463078 165.9905527594965,79.32595529948594 165.79321690404322,78.42857735123835 165.79321690404322,78.05724794382695 166.04693443258293,77.22175548988162 166.10331610566936,76.72664800961502 166.24427028815262,76.51003829020192 166.638941999292,76.10776277919649 166.8644686914049,75.98398561574868 167.2309495662339,75.86020841324353 167.76657545997296,75.61265389082837 167.8793388060294,75.55076523576281 167.93572047911584,75.36509921195102 167.93572047911584,74.99376690023928 167.8229571330594,74.80810061236843 167.59743044083007,74.65337863864261 167.40009458526038,74.3748789318197 167.2591404026607,74.06543458093074 167.2309495662339,73.69410103716655 167.28733123920392,73.10615553957177 167.6256212774897,72.5491537276539 167.93572047911584,72.23970793435001 168.75325473805424,71.71364952466683 169.31707146845292,71.52798168204026 169.7399340160191,71.24947975287796 169.8808881987352,71.09475637337891 170.44470492901746,70.01169100552215 170.44470492901746,69.82602235599188 170.3037507464178,69.29996070443303 170.02184238121845,68.86673293143394 169.9372698717052,68.40255978575442 169.9372698717052,68.15500054971199 170.1064148908481,67.62893665372394 170.07822405418847,67.16476204103674 169.909079035162,66.70058687819983 169.57078899710905,66.36019140918506 169.37345314130653,66.01979564430076 169.09154477634002,65.7722349021642 168.86601808399428,64.37970281211892 168.78144557459746,64.22497671871679 168.55591888248455,63.97741484202561 168.18943800777197,63.85363384510856 167.59743044083007,63.91552434847108 166.83627785509452,64.10119579988532 166.6107511628652,64.03930532588856 166.4134153072955,63.884579097968526 166.27246112469584,63.66796227620216 165.93417108652648,63.35850946587743 164.72196511633229,62.677712422359036 163.9608125303639,62.027859595022164 163.79166751133744,61.71840548867476 163.3124232905684,61.254223870753776 163.14327827154193,61.254223870753776 162.97413325239904,61.34706023830222 162.41031652211677,61.87313257239293 161.81830895517487,62.08975038694916 161.28268306143582,61.935023388738045 161.0571563693229,61.68746006465517 160.91620218660682,61.43989658393548 160.54972131201066,60.66625969816232 160.35238545632455,59.366546289558755 160.6342938216403,58.50006828736514 160.74705716758035,58.252502791787265 161.00077469623648,57.943045702180825 161.11353804240935,57.44791385016288 161.0571563693229,56.457648268085904 160.97258385980967,55.77683922779397 161.0853472057497,55.281704636872746 161.0289655327797,54.87940732075367 160.8316296770936,54.291433576872805 160.46514880249742,53.73440500514698 158.9710344671039,52.03236834870768 158.91465279401746,51.475336563336896 158.9992253036471,50.76357257348718 158.88646195770707,50.299377970048226 158.7736986115342,50.05180728979758 158.6045535923913,49.928021891013486 157.9561643525958,49.77329008752713 157.47692013182677,49.4947726870887 157.1104392572306,49.12341584509704 156.85672172845807,48.597326382558094 156.85672172845807,47.69987802117248 157.27958427614067,46.431068207282806 157.39234762219712,45.812135098763974 157.39234762219712,45.40982805355452 157.5333018049132,44.97657385029015 157.56149264134,44.852786847011885 157.47692013182677,44.605212723021396 156.94129423808772,43.80059573912877 156.7157675459748,43.15071158343926 156.37747750780545,42.62461409592652 156.15195081557613,40.860635008401005 156.2929049981758,40.241693094198126 156.2929049981758,39.62275020146626 155.98280579654966,39.18948959442787 155.92642412346322,39.00380633032182 155.4753707392374,38.50865052890731 155.33441655663773,38.44675600974006 154.96793568192516,38.292019668908324 154.68602731684223,38.3539142125519 154.31954644212965,38.632439537963364 153.55839385616127,39.344225580542115 152.96638628921937,40.02506319305394 152.7690504337661,40.17979884892702 152.68447792425286,40.36548155528726 152.43076039559674,40.64400544972159 152.20523370348383,41.32484080194263 151.9797070112545,41.57241700019222 151.04940940625966,42.28419769793982 150.40102016634773,42.71745488041779 149.97815761866514,42.90313638330554 149.4989133978961,43.24355224316241 148.93509666749742,43.46018036350142 147.6101273513632,43.76964889897499 145.41124210308772,44.04817037182511 145.24209708406124,44.017223551287316 144.81923453637864,44.233851243625395 144.62189868069254,44.20290443772683 144.7628528631758,44.07911718991818 145.24209708406124,43.924383075063815 145.27028792060446,43.95532990293577 145.10114290146157,44.14101081874105 145.1857154109748,44.20290443772683 145.07295206503477,44.14101081874105 145.07295206503477,44.07911718991818 144.96018871897832,44.07911718991818 145.21390624763444,43.9862767283048 145.5803871222306,44.017223551287316 145.7495321413735,43.95532990293577 145.97505883336999,43.9862767283048 146.3697305447422,43.924383075063815 146.70802058279514,43.95532990293577 147.6665090243332,43.7077552115079 147.97660822595935,43.67680836401996 148.34308910078835,43.55302094982471 148.6531883024145,43.522074090258684 148.93509666749742,43.33639288088307 149.668058417039,43.11976469203364 150.03453929175157,42.779348724434385 150.2882568204077,42.71745488041779 150.7393102046335,42.43893246096559 151.27493609837256,41.97472798835952 151.50046279048547,41.60336401392124 151.83875282865483,41.355787835345836 152.2334245397942,40.891582078445936 152.65628708759323,40.21074597284314 153.24829465453513,39.43706714292057 153.55839385616127,39.15854238992324 154.06582891347352,38.81812297820579 154.34773727855645,38.44675600974006 154.85517233598512,38.044441396341426 154.91155400883872,37.704021015932085 155.13708070095163,37.27075828559464 155.10888986452483,37.116021479916526 154.99612651846837,36.96128461314947 155.0525081914384,36.71370549907442 154.91155400883872,36.62086329088197 154.85517233598512,36.49707364581991 155.0525081914384,36.1257044756494 155.02431735489517,35.90907229704317 154.93974484549835,35.69243999858736 155.0525081914384,35.259175042039715 155.19346237403806,34.91875223984243 155.19346237403806,34.330748520529596 155.55994324875064,33.18568611165392 155.4753707392374,33.0 155.5035615756642,33.061895380407805 155.58813408541027,33.09284306681366 155.6445157583803,33.21663378842641 155.8418516140664,33.30947680378449 155.8418516140664,33.46421511401422 155.8700424503768,33.46421511401422 155.8700424503768,33.40231979722739 155.95461496000644,33.43326745685772 155.98280579654966,33.5880057180766 156.0955691426061,33.49516276863869 155.6445157583803,33.649901005410356 155.53175241220742,33.86653443411342 155.30622572009452,34.60927670818637 155.33441655663773,35.69243999858736 155.78546994086355,35.94001975853462 156.01099663297646,36.156651919998694 156.15195081557613,36.187599361815955 156.2929049981758,36.156651919998694 156.34928667114582,36.249494238203624 156.2929049981758,36.00191467397963 156.23652332520578,36.187599361815955 156.01099663297646,36.187599361815955 155.72908826789353,36.00191467397963 155.4753707392374,35.94001975853462 155.2780348835513,36.00191467397963 155.19346237403806,36.187599361815955 155.19346237403806,36.280441672715824 155.55994324875064,36.62086329088197 155.81366077740677,37.08507411144092 156.1237599790329,37.827810279413825 156.63119503634516,38.41580874644569 156.82853089203127,38.5395977848093 157.05405758414418,38.60149228936643 157.7306376604829,38.75622850796208 157.9561643525958,38.910964665265055 158.04073686210904,39.0657007615373 157.47692013182677,40.52021707672975 157.02586674760096,41.170105598605005 156.9131034014281,41.541469983931165 156.8849125650013,42.06756892692647 157.05405758414418,42.655561026535 157.1104392572306,43.64586151417461 157.36415678577032,44.07911718991818 157.70244682382327,44.38858523618546 157.78701933345292,44.66710626872373 157.39234762219712,46.18349508126266 157.1104392572306,46.988107168406714 156.99767591105774,47.39041259200894 156.94129423808772,47.97839669830864 157.02586674760096,48.69016575082787 157.16682093020063,48.99963015274261 157.47692013182677,49.37098711222643 157.98435518913902,49.55666545990971 158.29445439076517,49.711397349019535 158.801889447961,49.80423645305564 159.08379781316034,50.05180728979758 159.1965611593332,50.299377970048226 159.05560697673354,51.351551614614436 159.11198864981998,51.87763737665955 159.3657061784761,52.279937776649604 160.0422862546984,52.96075289664441 160.46514880249742,53.579674705746584 160.57791214855388,53.82724315545056 160.97258385980967,54.38427159516141 161.11353804240935,54.87940732075367 161.0571563693229,55.77683922779397 161.16991971526295,56.828998154815054 161.14172887883615,57.107510338770226 161.00077469623648,57.72642559398082 160.60610298498068,58.53101396333659 160.46514880249742,59.304655067273416 160.46514880249742,59.83073014495312 160.74705716758035,60.759096205147216 161.00077469623648,61.09949654247612 161.2263013884658,61.68746006465517 161.31087389786262,61.81124174623983 161.4800189170055,61.904077981831506 162.0438356474042,61.965968793287175 162.52307986817323,61.656514638103545 162.80498823325615,61.34706023830222 163.05870576191228,61.161387481115526 163.19965994451195,61.13044201300363 163.48156830959488,61.192332946753595 163.59433165565133,61.22327840994694 163.90443085727748,61.71840548867476 164.3272934050765,62.18258655644604 165.00387348153163,62.73960311160772 165.53949937527068,62.98716577063897 166.0187435960397,63.32756417139899 166.72351450892165,63.946469596470706 167.0336137105478,64.0083600851649 167.8229571330594,63.76079807165661 168.0766746615991,63.729852808930445 168.55591888248455,63.884579097968526 168.78144557459746,64.10119579988532 169.06335393968038,64.59631924022688 169.09154477634002,65.21522266033571 169.20430812228005,65.40089349562186 169.23249895882327,65.6484544724517 169.34526230487972,65.92696038435679 169.57078899710905,66.14357595669571 169.909079035162,66.39113646405167 170.1346057272749,66.70058687819983 170.1627965637017,67.2575970076141 169.99365154479165,67.84555128469947 169.99365154479165,68.49539445887785 170.05003321787808,68.68106373914634 170.5292774385307,69.36185034722439 170.5574682749575,69.8879119156336 169.82450652564876,71.28042442147853 169.6835523430491,71.40420307128807 168.75325473805424,71.83742803765927 168.16124717122875,72.20876334156492 167.6538121139165,72.73482108631288 167.37190374883357,73.16804458084516 167.34371291229036,73.35371164610842 167.40009458526038,73.9416567721637 167.4564762583468,74.06543458093074 168.10486549825873,74.65337863864261 168.16124717122875,74.96282252509263 168.10486549825873,75.14848873962183 167.8793388060294,75.48887657091836 167.4564762583468,75.79831979729352 166.69532367237844,76.16965134622296 166.32884279766586,76.47909403478843 166.1878886151826,76.69570377128548 166.10331610566936,77.00514604424825 165.96236192295328,77.65497402177425 165.9905527594965,77.96441553696059 165.96236192295328,78.36668914117035 166.13150694209617,79.14029106503585 166.27246112469584,79.60445148599683 166.3570336343255,79.69728350423975 166.6107511628652,79.94483544523246 166.8080870184349,80.03766738271224 167.2591404026607,80.53277067799354 167.73838462342974,80.74937817291357 168.30220135382842,81.21353668728261 168.58410971891135,81.95618916617241 168.75325473805424,82.69884023722261 169.09154477634002,83.19394016903243 169.59897983341943,83.65809578684275 169.96546070824843,83.87470155360643 170.3319415828446,83.99847622364177 170.81118580361363,83.96753255982185 171.06490333226975,84.02941988495877 171.71329257218167,83.99847622364177 172.69997185026295,83.59620840288699 173.09464356151875,83.37960248216405 173.37655192648526,83.16299644164974 174.16589534888044,82.23468348287861 174.36323120468296,81.95618916617241 174.898857098422,80.84220991979237 175.12438379053492,80.74937817291357 175.2653379731346,80.84220991979237 175.34991048276424,80.93504164466867 175.37810131919105,81.08976113723475 175.23714713659137,81.43014380571549 175.15257462707814,81.89430151347187 174.70152124285232,82.57506515647401 174.50418538716622,83.03922150761355 174.2504678586265,83.4414899002586 174.0531320029404,84.12225085453247 173.37655192648526,85.14339006791124 173.12283439794555,85.63848691017483 173.06645272485912,85.91697860896238 172.84092603286263,86.2883005659969" stroke="#4dd2ff" stroke-linecap="round" stroke-linejoin="round" stroke-width="0.5"><title>2024-02-17 6.9km</title><desc>10776935036</desc></polyline><polyline fill="none" points="66.70652173901908,96.49717742268695 65.23913043458015,97.84943409630796 64.24130434775725,99.84561843256233 63.53695652168244,102.29254742286867 62.48043478257023,104.03115041402634 61.18913043453358,105.57657219201792 58.31304347817786,109.95525136997458 57.25652173929848,110.79234913148684 55.26086956541985,110.7279570265091 51.68043478252366,109.82646702288184 49.27391304355115,108.86058377334848 48.041304347803816,108.92497602547519 47.39565217378549,108.08787635248154 47.57173913065344,107.25077582255471 47.45434782584198,106.67124418437015 47.9826086955145,106.67124418437015 48.041304347803816,107.12199104944011 44.871739130467176,107.18638343858765 44.40217391308397,107.57273766607977 45.458695652196184,108.53862243675394 45.81086956500076,109.18254498328315 44.93043478252366,109.44011385994963 43.40434782602824,109.76207484171027 42.87608695658855,109.89085919887293 41.76086956495419,110.01964353572112 41.52608695649542,109.89085919887293 40.99782608705573,109.82646702288184 40.1173913043458,109.31132943171542 39.58913043467328,109.31132943171542 39.0021739131771,108.73179925378645 39.58913043467328,107.8946993831778 39.29565217392519,106.80002902826527 40.64565217378549,105.70535720826592 40.82173913042061,105.38339462946169 41.4673913042061,105.31900209852029 41.995652173878625,105.44778715533903 41.93695652182214,106.02731966046849 41.173913043458015,107.18638343858765 42.406521739205346,108.21666097320849 41.70217391313054,110.27721214893973 40.58695652149618,109.89085919887293 39.53043478238396,109.18254498328315 38.708695652429014,109.31132943171542 38.06304347817786,109.76207484171027 37.710869565140456,109.89085919887293 38.532608695561066,110.79234913148684 38.76739130425267,110.79234913148684 39.06086956523359,110.85674123157514 39.47173913032748,111.11430958099663 39.06086956523359,111.75823009957094 38.415217391448095,112.40215011098189 37.593478260794654,112.59532601560932 37.41739130415954,113.43242107494734 37.24130434752442,114.52708255202742 37.00652173929848,114.65586615883512 37.00652173929848,114.46269074082375 37.12391304341145,114.39829892478883 36.53695652168244,116.07248449570034 36.360869565280154,116.13687618001131 36.18478260887787,116.78079274395714 35.89130434789695,117.03835922759026 34.89347826084122,116.78079274395714 34.77608695649542,117.5534919516067 34.30652173911221,118.51936493447283 33.602173913037404,119.3564539302024 32.95652173901908,119.61401960265357 33.1326086956542,119.67841100820806 33.07391304336488,119.8071938038338 33.0152173913084,119.54962819220964 32.95652173901908,119.74280240852386 32.31086956523359,119.67841100820806 31.958695652196184,118.58375642611645 31.782608695561066,117.68227508186828 31.782608695561066,116.33005120250164 31.72391304327175,115.49295910901856 31.430434782523662,115.49295910901856 31.19565217383206,115.75052599818446 31.019565217429772,115.6861342836055 30.60869565210305,115.42856737406692 30.49130434799008,115.17100038344506 30.49130434799008,115.17100038344506 29.728260869625956,115.55735083902255 28.906521738972515,115.10660862305667 29.082608695607632,114.01194792165188 29.493478260934353,113.81877235171851 30.19782608700916,112.53093405254185 30.19782608700916,112.65971797367092 29.493478260934353,113.94755607022671 29.434782608645037,113.81877235171851 29.14130434789695,114.07633976836223 29.317391304532066,114.07633976836223 28.84782608691603,114.72025795467198 28.084782608551905,114.97782508720411 27.673913043690845,115.04221685772063 26.79347826098092,115.36417563405121 25.913043478270993,115.42856737406692 25.79565217392519,116.13687618001131 25.67826086957939,115.94370111188618 25.032608695793897,115.94370111188618 24.03478260850534,116.13687618001131 22.91956521733664,115.94370111188618 23.095652173971757,115.87930941249942 22.62608695658855,115.87930941249942 22.039130434626713,115.81491770793218 21.80434782616794,115.55735083902255 21.217391304206103,115.6861342836055 21.041304348036647,115.49295910901856 20.8652173911687,114.39829892478883 20.747826087055728,113.75438048498472 20.630434782477096,113.49681296705967 20.336956521496177,113.17485345556634 20.102173913037404,111.8870141422376 20.04347826098092,111.37187784921844 19.573913043597713,110.7279570265091 19.221739130327478,110.59917280089576 18.869565217290074,110.01964353572112 19.45652173925191,110.4059964249609 18.810869565233588,109.82646702288184 17.226086956448853,109.56889826786937 16.69782608700916,109.31132943171542 17.930434782756492,109.76207484171027 17.343478260794654,110.4059964249609 16.815217391354963,110.34160428942414 17.460869565140456,110.59917280089576 17.40217391308397,111.50066195288673 16.345652173738927,111.8226221234072 15.993478260934353,112.27336614922388 15.75869565224275,112.91728575510206 15.876086956588551,113.30363727541408 14.64347826084122,114.65586615883512 13.704347826074809,115.55735083902255 13.293478260980919,117.87544973928016 13.352173913037404,118.77693087043008 13.293478260980919,120.06475933437468 13.0,121.80332454375457 13.293478260980919,122.83358366473112 13.469565217383206,123.2843216219917 13.704347826074809,124.18579679139657 14.408695652382448,125.47361673833802 14.93695652182214,126.24630773323588 15.113043478224427,126.43948036787333 15.993478260934353,127.46973364870064 16.28695652168244,128.56437633762835 16.99130434775725,129.27267376764212 17.871739130467176,130.5604857049766 18.4000000001397,131.01121940399753 19.515217391308397,131.97707649401855 20.04347826098092,132.62098058703123 21.158695652149618,133.2004938372993 21.980434782570228,133.13610349653754 21.863043478224427,133.2648841732298 22.567391304299235,134.29512885661097 23.44782608700916,134.5526898248354 23.33043478266336,135.58293288608547 23.271739130606875,136.4843945003231 22.860869565047324,137.12829504499678 23.095652173971757,138.02975495619467 23.74130434775725,139.57511249225354 23.917391304392368,141.44241561956005 23.85869565210305,142.53703960892744 23.917391304392368,143.63166213349905 24.621739130467176,144.46872542839264 24.797826087102294,143.69605164817767 25.1500000001397,143.3741040241439 25.38478260859847,142.73020839615492 25.443478260887787,142.27948115504114 25.736956521635875,141.82875366555527 26.20652173901908,142.27948115504114 25.97173913056031,141.89314332208596 26.20652173901908,140.5409594696248 27.556521739112213,138.1585348622757 27.556521739112213,137.4502451273729 26.852173913037404,137.4502451273729 26.5,137.12829504499678 25.619565217522904,136.6131746498868 26.91086956509389,137.38585512107238 27.20434782607481,137.06390501343412 27.145652174018323,137.25707509322092 27.439130434766412,136.22683414048515 27.145652174018323,135.58293288608547 26.382608695421368,135.32537224248517 26.558695652056485,134.35951910633594 26.147826086962596,133.90878725249786 26.030434782616794,133.84439696726622 25.67826086957939,132.87854208232602 26.147826086962596,132.74976134480676 27.439130434766412,132.17024777497863 28.43695652182214,131.46195285458816 29.200000000186265,131.0756099120481 29.904347826028243,130.81804784905398 30.432608695700765,130.81804784905398 31.19565217383206,130.23853291064734 31.371739130234346,129.20828311744845 32.076086956309155,127.66290599439526 32.897826086962596,126.69704380974872 33.3673913043458,125.47361673833802 33.89565217401832,125.08727096713847 34.130434782709926,124.76531601854367 34.3652173911687,124.44336094299797 34.541304347803816,124.18579679139657 34.48260869574733,124.25018783687847 35.06956521724351,123.79945041186875 35.06956521724351,123.60627715371083 35.48043478257023,123.2843216219917 35.656521739205346,123.54188605764648 35.71521739126183,123.41310385003453 35.42173913028091,123.2843216219917 35.18695652182214,123.54188605764648 35.36304347822443,123.54188605764648 35.36304347822443,123.54188605764648 35.30434782616794,123.73505933093838 35.539130434859544,123.155539373809 35.42173913028091,123.34871273854515 35.36304347822443,123.155539373809 35.01086956541985,123.60627715371083 35.01086956541985,123.02675710542826 35.128260869532824,122.96236596361268 35.128260869532824,122.70480134553509 35.48043478257023,122.31845426640939 36.30217391299084,121.54575956077315 36.889130434719846,121.48136830242584 36.94782608677633,121.28819449676666 36.71304347831756,121.35258577030618 36.478260869625956,121.22380321798846 36.83043478266336,121.22380321798846 36.889130434719846,121.15941193414619 35.949999999953434,121.03062935150228 35.656521739205346,120.90184674842749 35.06956521724351,120.90184674842749 33.602173913037404,121.73893330572173 32.83913043490611,120.96623805252602 33.1326086956542,120.25793342903489 33.0152173913084,119.3564539302024 32.72173913032748,119.48523677670164 33.66086956532672,118.26179891719949 34.30652173911221,118.26179891719949 34.423913043458015,117.23153403715696 34.717391304438934,116.45883452543058 35.245652173645794,116.78079274395714 35.71521739126183,116.58761782798683 35.89130434789695,116.13687618001131 36.24347826070152,115.42856737406692 36.59565217373893,114.5914743579342 37.47608695644885,114.14073160971748 37.593478260794654,114.14073160971748 38.06304347817786,113.75438048498472 38.23913043458015,113.30363727541408 38.826086956541985,114.33390710363165 38.708695652429014,114.72025795467198 38.826086956541985,115.04221685772063 38.64999999990687,114.39829892478883 38.29782608686946,113.68998861312866 37.94565217383206,113.88316421350464 37.53478260873817,114.14073160971748 36.889130434719846,114.39829892478883 36.71304347831756,113.68998861312866 36.889130434719846,113.62559673620854 37.00652173929848,112.78850187460193 37.41739130415954,112.20897416077787 37.76956521719694,112.1445821672678 38.47391304350458,111.8870141422376 39.41304347827099,111.69383807049599 40.58695652149618,111.62944603624055 41.05652173911221,112.20897416077787 41.93695652182214,112.33775813272223 42.11304347822443,111.17870165558998 43.58043478266336,109.63329046429135 45.81086956500076,108.86058377334848 47.219565217383206,108.79619151621591 48.452173912897706,108.73179925378645 50.97608695644885,108.98936827259604 52.326086956309155,109.37572164827725 53.852173913037404,109.63329046429135 56.37608695635572,110.7279570265091 57.550000000046566,110.34160428942414 58.54782608686946,107.76591471146094 59.66304347827099,106.73563660896616 61.013043478131294,105.44778715533903 62.71521739126183,102.8720821638708 63.41956521733664,100.94029809633503 64.12391304364428,99.07290249335347 64.76956521742977,97.59186156903161 66.29565217392519,96.30399771535303 66.7652173913084,96.04642470128601 67.0,95.4668851227616" stroke="#4dd2ff" stroke-linecap="round" stroke-linejoin="round" stroke-width="0.5"><title>2024-02-16 5.2km</title><desc>10771329473</desc></polyline><polyline fill="none" points="149.89759524952387,146.9502872086814 149.98352745373268,147.0 149.53238338191295,146.70172294904478 149.1779130398063,146.58986886743514 149.32829439709894,146.56501239098725 149.23162066738587,146.29159081663238 149.29606982052792,146.1175949512035 149.23162066738587,146.09273837875662 149.33903592260322,146.01816863127897 149.3497774481075,145.93117053502647 149.32829439709894,146.01816863127897 149.37126049911603,145.81931574903865 149.30681134597398,145.5334641646259 148.97382405493408,145.03632938362716 148.99530710600084,144.6386201044079 148.86640879977494,144.4397649800012 148.98456558043836,144.27819495343283 148.97382405493408,144.04205376158643 148.52267998311436,143.37091314885038 148.45823083003052,142.97319845586753 148.31859099830035,142.8986268069857 148.2971079472336,142.74948337289243 148.02856980927754,142.6624829523571 147.80299777339678,142.3020519796337 148.55490455968538,141.7676178931797 147.71706556918798,142.35176665973268 147.51297658437397,142.17776519112522 147.39481980365235,142.16533650534257 146.88996810436947,141.74276043698774 146.61068844085094,141.86704766741605 146.47104860906256,141.7676178931797 146.2025104711065,141.7676178931797 146.06287063937634,141.59361559375975 145.41837910824688,141.38232675461768 145.22503164887894,141.20832390725263 144.88130283227656,141.1213223907398 144.77388757711742,141.00946320714866 144.7846291026217,140.84788865034352 144.4838663880946,140.52473889647808 144.4838663880946,140.43773689382215 144.2368113011471,140.12701495069632 143.59231977001764,139.99029704569693 143.58157824451337,139.92815249288105 143.36674773413688,139.84115006596403 143.3130401064991,139.72928971183137 143.24859095341526,139.75414757714316 143.25933247891953,139.67957396605198 143.34526468307013,139.67957396605198 143.1948833258357,139.716860777291 143.0230189175345,139.65471608558437 142.91560366231715,139.51799765277974 142.82967145816656,139.53042660755455 142.8511545092333,139.4185659692812 143.04450196854305,139.269418292497 143.00153586652596,139.0954124398122 142.66854857536964,138.84683222082094 142.62558247335255,138.73497095752828 142.41075196291786,138.62310959190654 142.1851799270371,138.5733933965821 142.06702314637369,138.69768384700728 141.88441721256822,138.8344031966335 141.55142992147012,138.98355140378408 141.46549771731952,139.1326994290721 141.25066720694304,139.25698931123043 140.4665358440834,139.50556869675347 140.5202434717212,139.4558528600828 140.32689601235325,139.72928971183137 140.16577312949812,139.81629221832554 139.45683244528482,139.86600790856755 139.28496803698363,139.72928971183137 138.6619595568627,139.75414757714316 138.44712904648622,139.79143436565937 137.96376039815368,140.10215716114908 137.89931124506984,140.0400126651948 137.94227734714514,139.59257136234373 137.7489298877772,139.33156317993416 137.58780700498028,138.89654830506333 137.35149344359525,138.7225419219758 137.31926886702422,138.53610623683198 137.44816717330832,138.25023763442005 137.38371802016627,137.92708101858443 137.5340993774007,137.5666360938485 137.3729764946038,137.21861929662555 137.39445954567054,136.9700352638538 137.25481971394038,136.77116767392 137.27630276494892,136.82088460172236 137.34075191809097,136.77116767392 137.26556123950286,136.2367094239744 137.31926886702422,136.01298202132602 137.2011120863608,135.50337918779405 136.9970231014886,135.34179735822545 137.09369683114346,134.496596617646 137.0399892036221,134.31015449156985 137.25481971394038,134.04913503761054 137.7059637857601,133.75082640824985 138.04969260236248,132.70674047603097 138.36119684239384,132.4208582498468 138.68344260787126,131.94852962956793 139.05939600110287,131.7620836194401 139.1238451541867,131.57563732514245 139.57498922600644,131.05358618898754 140.38060363993281,130.8671388146322 140.5095019461587,130.60611201303982 140.9284214413492,130.05919690802693 141.23992568143876,129.79816838211264 141.36882398766465,129.52470932884899 141.6051375490497,129.42526952150365 142.13147229945753,129.3258296333588 142.40001043741358,128.95292933263408 142.9048621368711,128.69189844558423 142.8941206113086,128.62974815229245 142.87263756024186,128.67946838946955 142.775963830587,128.6421782134421 142.9048621368711,128.6670383320743 142.84041298372904,128.56759782738663 142.86189603473758,128.4060068348408 143.09820959618082,128.03310372953274 143.93604858662002,127.33701489071973 144.16162062250078,127.2872941077294 144.6986968984711,126.95167829411366 144.7416630005464,126.80251541461621 144.73092147504212,126.91438759130688 143.7319596017478,127.48617711827683 143.29155705549056,127.9460928413173 143.04450196854305,128.08282420926844 142.8511545092333,128.46815724186308 142.8941206113086,128.34385639625543 142.8511545092333,128.41843691880058 142.8511545092333,128.74161865750648 142.94782823888818,128.80376889396575 142.87263756024186,128.7789088031641 142.8511545092333,128.4557271629892 143.00153586652596,128.4060068348408 142.87263756024186,128.48058731947822 142.8511545092333,128.41843691880058 143.11969264724758,128.03310372953274 142.9370867133839,127.84665175046393 142.9800528154592,127.8715120307752 142.96931128989672,127.74721057876741 143.0659850195516,127.67262964689871 143.16265874926466,127.21271289540891 143.09820959618082,127.08841077381658 143.21636637690244,127.02625966560299 143.22710790240671,126.67821287606785 143.17340027482715,126.72793390662264 143.25933247891953,126.5414799377395 143.18414180033142,126.52904966305505 143.13043417269364,126.24315299619047 143.07672654511407,126.25558329997148 143.49564604030456,125.98211632535822 143.5278706168756,125.87024329587439 143.33452315762406,125.29844621347002 143.43119688727893,125.0746988012761 143.40971383621218,124.55261991416046 143.85011638252763,124.01810826816654 143.903824010049,123.85651126413723 143.82863333146088,123.6451917827435 143.9897562141996,123.6451917827435 144.0219807907706,123.30956597351906 144.11865452042548,123.1852598845071 144.26903587771812,123.07338429630181 144.08642994391266,122.82477151170315 143.93604858662002,122.53886618457909 143.93604858662002,122.37726722570369 144.5268324901699,121.61899233585427 145.23577317444142,121.23363772095036 145.26799775095424,121.10932952158328 145.52579436340602,121.05960620648693 145.85878165450413,120.81098932756868 145.68691724620294,120.68668069851265 145.60098504205234,120.45049395523529 145.06390876608202,120.3759085731217 145.21429012337467,119.48088043883035 145.09613334265305,119.46844944637996 145.05316724057775,119.29441541956476 145.0746502916445,119.13281217283657 144.83833673020126,118.90905347863736 144.7846291026217,118.75988078836235 145.18206554680364,118.4863970501392 145.6976587717072,118.32479273549689 146.2025104711065,118.27506828804326 146.94367573189083,118.29993051426572 147.40556132921483,118.17561933238903 147.7492901458172,118.22534382028243 147.81373929890106,118.08860142986669 147.76003167132149,117.83997850999731 147.48075200780295,117.88970313438767 147.14776471676305,117.8151161901842 147.02960793604143,117.88970313438767 147.0403494615457,117.9767211784565 147.2874045484932,118.01401460698253 147.2981460739975,117.83997850999731 147.13702319125878,117.8151161901842 147.2874045484932,117.57892390002235 147.4163028547191,117.61621744984586 147.62039183959132,117.55406152711657 147.53445963538252,117.61621744984586 147.66335794166662,117.67837334096112 147.62039183959132,117.62864863058348 147.69558251817944,117.64107981005509 147.9211545541184,117.40488718368579 147.76003167132149,117.54163033879013 147.82448082446354,117.46704318223055 147.9641206561937,117.64107981005509 147.84596387547208,117.72809803106065 147.89967150299344,117.74052920049871 147.9641206561937,117.88970313438767 147.73854862031294,117.55406152711657 147.82448082446354,117.51676795832464 147.85670540097635,117.60378626781312 147.81373929890106,117.55406152711657 147.91041302855592,117.57892390002235 147.9211545541184,117.52919914919767 147.91041302855592,117.57892390002235 147.77077319688397,117.52919914919767 147.77077319688397,117.70323568856838 147.85670540097635,117.69080451539776 147.8352223499678,117.60378626781312 147.9211545541184,117.64107981005509 147.8352223499678,117.8151161901842 147.73854862031294,117.85240966801211 147.84596387547208,118.05130802410713 147.7922562478925,118.07617029587709 147.93189607962267,118.21291270021902 147.99634523270652,118.43667266838747 148.20043421763694,118.57341466956859 149.0919808356557,118.73501865562139 148.89863337634597,118.25020605672034 148.99530710600084,118.15075708085351 148.92011642735451,117.86484082473908 148.97382405493408,117.67837334096112 149.52164185646689,117.38002477541886 149.69350626470987,117.11896918340062 149.5968325349968,117.01951928744529 149.65054016257636,116.92006931058859 150.3057732192683,116.0747412412893 150.3917054234189,115.86340831076814 150.6387605103664,115.57748670568981 151.04693848011084,115.26670159389323 151.28325204149587,114.96834714337456 151.40140882215928,113.79978520172153 151.50882407737663,113.65060627755884 151.48734102630988,113.48899557095865 151.9384850981296,113.09118369070347 151.75587916432414,112.8052556022376 151.68068848567782,112.40744149712555 152.18554018507712,111.87287675494008 152.28221391473198,111.31344603324396 152.71187493548496,111.17669591189042 153.04486222658306,110.89076334564743 153.25969273695955,110.81617213144636 153.17376053275075,110.64212578792649 153.30265883903485,110.46807919663115 153.31340036453912,110.10755332641565 153.24895121145528,110.05782553670724 153.3671079921187,110.02052968119096 153.25969273695955,110.05782553670724 152.9052223947947,109.90864204629179 152.92670544580324,109.66000249100034 152.9052223947947,109.92107401078829 153.01263764995383,109.98323381425871 153.1093113796669,109.93350597399694 153.06634527764982,109.74702639291354 153.12005290517118,109.8340502328283 153.12005290517118,109.95836989665986 152.980413073441,109.97080185607774 152.87299781828187,109.8340502328283 153.08782832865836,109.27461018093163 153.21672663488425,109.13785777878365 153.46378172183177,109.02596933604946 153.89344274258474,109.2373140864147 153.97937494667713,109.18758594275278 154.0330825742567,108.96380904578837 154.2908791867667,108.83948837049684 154.60238342673983,108.71516756874917 154.7420232585282,108.76489590461279 154.86018003924983,108.75246382255864 154.84943851374555,108.49138980700809 155.2468749578693,108.26761163563788 156.02026479528286,107.5838424625399 155.52615462138783,106.68872067327902 155.6657944531762,106.48980382992886 154.90314614132512,105.22170134395128 156.02026479528286,104.9233223764677 156.24583683116361,105.24656622502516 156.51437496911967,105.2714311010568 156.6325317498413,105.19683645780606 156.76143005606718,105.2962959720171 156.95477751543513,105.2962959720171 157.1266419236781,105.22170134395128 157.2125741278287,105.3460256987455 157.22331565339118,105.69413321948377 157.48111226584297,105.91791610216751 157.39518006163416,106.12926622630039 157.513336842414,106.21629264177318 157.8463241334539,106.78817897356203 157.94299786310876,106.83790809333732 158.08263769489713,106.78817897356203 158.19005295005627,106.55196537824668 158.43710803700378,106.4525068857547 158.56600634322967,106.5271007627016 158.49081566458335,106.66385608554992 158.61971397080924,106.80061125539214 158.71638770052232,106.75088212041737 158.69490464945557,106.80061125539214 158.81306143011898,106.81304353595624 158.74861227703514,106.71358525592223 158.87751058326103,106.70115296523727 158.87751058326103,106.61412689494318 158.96344278741162,106.55196537824668 158.89899363426957,106.55196537824668 158.83454448118573,106.60169459410099 158.9312182108406,106.58926229204371 159.0601165170665,106.61412689494318 158.65193854738027,106.81304353595624 159.02789194049546,107.26060479474836 159.12456567020854,107.5341136462157 159.66164194612065,107.91951144362974 160.06981991586508,108.10599381262 160.16649364551995,108.23031523386453 162.486663157586,107.02439211239107 162.89484112733044,106.68872067327902 163.10967163770692,106.65142378977907 163.46414197975537,106.40277760915342 164.4953284296207,105.96764557602728 165.74134538980434,105.91791610216751 167.63185388105921,105.45791750997887 168.20115473360056,105.40818782874703 168.66304033086635,105.23413378513214 169.13566745369462,105.24656622502516 169.7371928827488,105.13467422034591 170.12388780142646,105.17197156661132 170.8220869601937,105.48278234301688 171.07988357258728,105.50764717093989 171.33768018503906,105.4703499271127 171.5739937464241,105.3460256987455 171.81030730786733,105.3460256987455 172.51924799213884,105.14710667038162 172.84149375767447,105.02278211324301 172.99187511496712,104.84872752078809 173.26041325292317,104.86115999991307 173.80823105433956,104.71197016717633 174.03380309027852,104.47575255957054 173.99083698820323,104.14007412136561 174.20566749857971,104.05304622765107 174.49568868760252,104.06547878772108 174.3345658048056,103.68006883843191 174.420498008898,103.44384923657344 174.32382427924313,103.23249446901173 174.3345658048056,103.12060062056844 174.39901495788945,103.12060062056844 174.28085817722604,102.59842797339661 174.35604885587236,102.11355137491773 174.61384546826594,101.44218060138519 174.91460818279302,101.14379240710696 175.49465056083864,100.37295286687731 175.62354886706453,99.98753127357486 175.60206581605598,99.36588098124048 175.95653615810443,98.5204315091396 176.21433277061442,98.20960302693857 176.59028616372962,97.97337285173126 177.05217176105361,97.50091113144299 177.53554040944437,96.61814881204191 177.71814634324983,96.1332484866216 178.08335821086075,95.9964813803308 178.41634550190065,95.54887887121731 178.9426802523667,95.1758755279734 179.22195991582703,95.10127472268505 179.61939636006719,95.08884125071927 179.93090060009854,94.91477251026663 180.21018026355887,94.97693994599831 180.27462941670092,95.07640777750203 180.33907856978476,94.889905527074 180.45723535050638,94.85260504284088 180.43575229949784,94.23092862939666 180.55390908016125,93.36057633715973 181.59583705553086,93.31084173318959 182.40145146945724,93.06216840988054 182.8740785922273,93.0 183.0029768984532,93.06216840988054" stroke="#4dd2ff" stroke-linecap="round" stroke-linejoin="round" stroke-width="0.5"><title>2024-01-21 12.0km</title><desc>10598850943</desc></polyline><polyline fill="none" points="66.4795180723304,187.3102775021689 65.19132530124625,186.0643704932154 64.81397590367123,185.88204173646227 64.78795180725865,185.65413046680624 65.17831325303996,184.72728759735764 63.7990361446864,183.5573299064854 63.25253012048779,182.6912512236304 63.512771084322594,182.32658496085787 64.30650602414971,181.82516734561068 64.64481927716406,181.38452618557494 63.70795180724235,180.88310529862065 63.00530120485928,180.6703807598824 62.08144578320207,180.07778932069778 61.52192771091359,179.91064770576486 60.5590361446375,179.19649498956278 59.778313253074884,178.9533783653169 59.29686746990774,178.6190923384711 58.984578313305974,178.13285673582868 58.646265060291626,177.0540156448842 58.65927710843971,176.0967273627757 58.90650602412643,175.6560687184101 59.51807228918187,173.84783467956004 59.622168674715795,172.69298428166076 59.50506024103379,171.40136433913722 59.3489156626747,170.793539190694 59.01060240971856,170.307277229178 58.67228915670421,169.38033582754724 58.08674698806135,168.42299665605242 57.83951807237463,168.22544968752482 57.52722891571466,167.73917907470604 56.6554216867662,166.93378976862004 56.51228915667161,166.62986810787697 56.069879518123344,166.2651612702757 55.7185542169027,165.79408024116128 54.703614457917865,165.04946515600022 53.870843373588286,165.2014277303242 53.74072289164178,165.15583897476608 53.5715662650764,164.92789498140337 53.5715662650764,164.82152099463565 53.40240963862743,165.0798576836387 53.558554216928314,164.4872022401105 53.38939759036293,164.82152099463565 53.1812048193533,164.44161325902678 53.46746987954248,165.1862314800237 53.42843373498181,165.30780143704033 52.764819277159404,165.41417506546713 52.54361445788527,165.99163053730445 52.179277108516544,166.37153419308015 52.15325301204575,166.73624076193664 51.84096385544399,167.2984949168167 51.37253012054134,168.7725021688384 51.086265060293954,169.10681099783687 50.72192771086702,169.22837765286386 50.47469879523851,169.01563593946048 50.214457831403706,168.34701708474313 50.18843373499112,167.83035493940406 50.31855421687942,166.99457402399275 51.138313253060915,165.24701647133043 51.25542168680113,164.30484622943914 51.827951807295904,162.58764916205837 52.023132530157454,162.35970111266943 52.322409638611134,162.25332523307588 53.58457831328269,162.29891490534646 54.71662650606595,161.79742771814927 54.989879518107045,159.47232799083577 55.12000000005355,159.03161859083048 55.341204819385894,158.849255686815 56.20000000001164,158.758074148398 57.57927710848162,158.15019575331826 57.98265060241101,157.60310300851415 58.16481927712448,157.1015995038033 57.904578313289676,157.73987638915423 57.553253012069035,158.11980176638463 56.2650602410431,158.6972864240961 55.54939759039553,158.758074148398 55.22409638558747,158.9100433470594 55.041927710932214,159.3507531183859 54.885783132573124,161.03759532640106 54.6515662650927,161.76703449928027 53.62361445790157,162.28371834951395 52.179277108516544,162.28371834951395 51.919036144565325,162.40529075133963 51.74987951811636,162.69402479525888 51.229397590388544,164.45680958766025 51.138313253060915,165.26221271518443 50.38361445785267,166.8426133375906 50.22746987949358,167.61761116552225 50.214457831403706,168.1190781309706 50.38361445785267,168.71171866217628 50.20144578313921,169.8514051525708 50.26650602417067,170.2312986497418 49.9412048193044,171.00627828377765 49.86313253012486,172.0243824601057 50.17542168678483,173.37677839607932 50.13638554222416,174.10615521467116 48.8742168674944,175.01787105566473 48.54891566274455,175.03306627087295 48.236626506084576,174.8963092762424 48.48385542171309,175.64087356872915 47.377831325284205,175.1850183352799 47.98939759039786,176.35504387377296 47.8072289157426,176.32465371995931 46.88337349402718,175.73204444270232 46.96144578309031,176.12711756449426 47.32578313257545,176.55257971733226 47.15662650601007,176.5981648736779 46.362891566357575,176.29426355983014 46.44096385547891,176.5373846620205 46.83132530126022,176.99323562522477 45.86843373498414,176.85648048740404 45.88144578319043,177.00843063255888 46.16771084343782,177.2211605670309 45.86843373498414,177.54025488102343 46.297831325326115,177.70739924021473 46.12867469881894,177.95051796268672 45.40000000002328,178.51272844034247 45.29590361448936,178.54311813348613 45.08771084342152,178.2544157900411 44.671325301227625,177.29713546767016 45.26987951807678,178.51272844034247 44.87951807229547,179.01415755976632 44.87951807229547,179.31805314820667 45.20481927716173,180.2145414071565 45.55614457844058,180.57921300447197 45.71228915662505,181.29335888109927 45.894457831338514,181.52127703432052 46.38891566271195,182.84319522799342 46.66216867475305,184.36262647688272 46.21975903620478,184.98558866718668 45.26987951807678,185.45660707542265 44.46313253015978,186.12514669424854 44.34602409641957,186.0491764389153 44.424096385599114,185.60854816970823 44.3069879518589,185.6237422703416 44.1638554217061,185.8516535879462 43.643373494036496,187.0367866406159 43.630361445830204,187.82686993846437 43.3701204819954,188.9967930355342 42.64144578319974,191.1390951757785 41.45734939764952,192.68882584899256 40.41638554219389,193.52445803595765 40.20819277112605,193.85870955682185 40.33831325301435,193.87390278937528 40.71566265064757,193.5548445697932 41.37927710846998,193.28136553481454 41.31421686755493,193.4484916732763 41.30120481929043,193.2509789433825 40.24722891574493,193.8283230869274 40.42939759045839,193.46368494900526 41.262168674729764,192.8863393477077 42.51132530125324,191.4581587327266 42.70650602411479,191.0935146100819 43.21397590363631,189.34624874549627 42.31614457833348,189.3158613260166 41.63951807230478,189.1639241327357 39.29734939761693,188.9967930355342 38.308433734986465,188.81446798155957 37.94409638555953,188.86004926661553 37.553734939778224,188.6017551276309 37.37156626506476,188.6017551276309 37.1893975904095,188.7081115937617 36.89012048195582,188.7081115937617 36.60385542176664,188.55617376101145 36.330602409667335,188.61694891327352 35.302650602476206,188.2067161390005 34.20963855419541,188.03958393384528 33.49397590366425,187.53818615776254 32.80433734948747,186.83926514069026 32.59614457836142,186.48980336349632 32.37493975908728,186.36825124271854 32.16674698796123,186.3986392825027 31.646265060291626,186.62654937701882 30.865542168729007,187.29508357903978 29.74650602415204,187.84206380565593 29.48626506025903,187.84206380565593 27.729638554272242,188.69291781769425 27.11807228915859,188.79927421666798 26.532530120457523,189.01198677961656 26.103132530173752,189.5589605027053 25.608674698858522,189.95399579194782 24.89301204821095,190.04515762833762 24.268433734949213,190.51615953276632 23.43566265067784,191.42777175770607 23.019277108483948,191.54931961953116 22.39469879522221,191.92915602844732 21.705060240987223,191.91396259126486 21.69204819278093,192.1874442158005 21.23662650602637,193.02307930402458 21.327710843470413,193.66119738797715 20.885301204863936,193.85870955682185 20.35180722892983,194.55759660058538 19.857349397672806,195.04377689707326 19.46698795183329,195.18051481056318 18.712289156625047,195.1653217154817 18.07469879515702,195.40841104531137 17.74939759040717,196.13767657996505 17.05975903623039,196.9429029965686 16.981686747050844,197.4898466813902 16.3701204819954,198.2039089302998 15.758554216939956,198.1583305943641 15.055903614498675,198.37102937234158 14.18409638555022,198.4469931456988 13.637590361468028,198.34064385179954 13.676626506086905,198.5381496209593 13.0,199.85991204743914 13.182168674771674,200.17895633811713 13.078072289179545,200.39165214034438 13.221204819274135,200.40684468569816 13.29927710845368,200.5739625786664 13.35132530122064,200.84742780467786 13.364337349368725,200.78665779923904 13.494457831373438,200.95377525275399 13.819759036181495,202.01724542671582 13.871807228948455,201.74378241553495 13.624578313319944,201.1816623777995 13.89783132536104,201.04493014593027 14.197108433756512,201.1057000427245 15.277108433714602,200.84742780467786 15.342168674746063,199.98145281273173 17.163855421706103,199.6776007078006 17.64530120487325,199.3889406160597 18.816385542217176,199.20662868184445 19.388915662711952,199.22182135180628 19.362891566357575,199.64721546215878 19.401927710918244,199.29778467770666 19.7142168674618,199.28259201574838 19.857349397672806,199.32816999689385 20.85927710845135,200.55877005094953 22.47277108434355,202.00205305076088 24.034216867526993,202.73128529262613 25.140240963897668,202.89840049618215 25.569638554297853,202.86801592806296 25.98602409643354,202.71609299180273 26.064096385554876,202.77686218549206 26.259277108474635,202.71609299180273 27.508433734998107,202.70090068939317 27.872771084366832,202.62493915334926 28.25012048194185,202.4122466398403 28.432289156655315,202.4426313037984 28.65349397592945,202.22993852185027 28.679518072342034,202.33628495197627 28.965783132589422,201.7893596200447 29.551325301232282,201.2120473006362 29.694457831326872,200.93858276498213 30.201927710848395,200.42203722934937 30.618313253042288,200.08780089841457 30.930602409644052,199.64721546215878 31.56819277111208,199.32816999689385 32.01060240966035,199.22182135180628 33.05156626511598,199.25220668695692 33.62409638555255,199.37374796361837 34.18361445784103,199.85991204743914 34.951325301255565,199.9662602226308 36.00530120485928,199.70798594706866 35.90120481926715,199.7535637939436 35.797108433791436,199.76875640641083 36.65590361447539,199.4649038540083 37.020240963902324,199.3889406160597 37.21542168682208,199.4649038540083 37.22843373497017,199.26739935214573 38.07421686750604,199.11547262845852 38.41253012052039,198.796425988563 38.68578313261969,198.94835304781736 38.998072289221454,198.76604055755888 39.349397590442095,198.88758224333287 39.6096385542769,199.20662868184445 39.921927710820455,199.32816999689385 39.934939759084955,199.52567441559222 40.09108433738584,199.60163758169801 40.11710843374021,199.76875640641083 40.325301204866264,200.13337862543995 40.728674698853865,200.69550274306675 40.89783132536104,200.54357752160286 41.0800000000163,200.5739625786664 41.19710843375651,200.3004968349269 41.30120481929043,200.3004968349269 41.3532530121156,200.1637637688109 41.58746987959603,200.1485711979476 41.7436144578387,199.9054898464383 41.847710843372624,199.93587503771414 42.06891566270497,199.85991204743914 42.12096385547193,199.66240808575822 42.21204819279956,199.73837117991934 42.26409638556652,199.5864449517103 42.39421686757123,199.6320228369441 42.52433734940132,199.4649038540083 42.64144578319974,199.52567441559222 42.849638554267585,199.37374796361837 43.46120481932303,199.31297733807878 44.21590361447306,199.29778467770666 44.69734939764021,199.40413326682756 45.15277108439477,199.1610506623838 45.73831325303763,199.11547262845852 45.9204819277511,199.25220668695692 46.297831325326115,199.31297733807878 48.236626506084576,199.22182135180628 49.05638554220786,199.4952891380235 49.52481927711051,199.4952891380235 50.27951807231875,198.94835304781736 50.96915662655374,198.70526967625483 51.684819277143106,198.3102583248692 51.94506024097791,197.94563150314207 52.28337349399226,197.73293209864642 52.569638554239646,197.91524589307664 52.868915662693325,197.97601710674644 53.77975903614424,198.03678829486307 54.13108433736488,197.93043869886606 54.9118072289275,197.30753234989243 55.41927710844902,196.4415361325373 55.66650602413574,195.90978149601142 56.59036144585116,195.48437637698953 57.05879518081201,195.11974242056021 57.64433734945487,194.31450583851256 57.95662650605664,194.28411946448614 58.76337349397363,194.46643761274754 59.726265060249716,195.18051481056318 58.82843373500509,194.45124444254907 58.82843373500509,194.3600853875978 59.36192771088099,194.08660787751433 59.94746987958206,193.99544859238085 60.11662650608923,194.07141466728353 61.00144578318577,193.91948247750406 61.28771084337495,193.99544859238085 62.09445783140836,192.719212558688 62.10746987955645,192.5065054565348 62.31566265062429,192.17225080578646 63.53879518073518,192.68882584899256 63.86409638560144,192.47611870204855 64.02024096396053,192.32418483385118 64.13734939770075,191.85318882658612 63.92915662651649,191.32141729466093 63.968192771135364,190.94157928718778 64.48867469886318,190.74406312846986 64.57975903624902,190.2578683560132 64.9831325301202,189.9995767173532 65.49060240969993,189.3158613260166 67.0,188.1155531419936 66.8698795181117,187.6445434072957 66.37542168679647,187.14314425943303" stroke="#4dd2ff" stroke-linecap="round" stroke-linejoin="round" stroke-width="0.5"><title>2024-01-14 17.6km</title><desc>10586205778</desc></polyline><polyline fill="none" points="138.10387873381842,199.18639734722092 138.03165403474122,199.27084975567413 137.57423094066326,199.35530213743914 137.0686580472393,199.46790527136181 135.33526526973583,200.19982448100927 134.3722692822339,200.3405779444729 133.62594739184715,200.14352307486115 133.33704859553836,200.31242725768243 133.28889879630879,200.73468724597478 133.12037449830677,201.15694656420965 133.0722246990772,200.9880429173354 133.14444939803798,199.97461878479226 133.24074899672996,199.43975449239952 133.31297369580716,198.79228575294837 133.74632189027034,198.62338060536422 133.31297369580716,198.34187178785214 133.26482389646117,198.08851359746768 133.67409719119314,198.06036267257878 133.98707088711672,197.91960800322704 133.9629959873855,197.66624941086047 133.38519839488436,197.32843757927185 133.40927329461556,197.0750784240954 133.81854658934753,197.15953150266432 134.10744538565632,197.10322945326334 134.10744538565632,196.73726584218093 133.38519839488436,196.3994528313342 133.36112349526957,196.06163939181715 133.98707088711672,196.25869728365797 134.56486847961787,196.08979052811628 134.49264378054067,195.8927325111872 133.84262148907874,195.44231363892322 133.57779759238474,194.87928897654638 133.74632189027034,194.76668390116538 134.2278198840795,195.07634774385951 134.73339277750347,194.9918940042553 134.27596968330909,194.56962490457227 134.01114578684792,193.58432773285313 134.3000445831567,192.57087540766224 134.97414177434985,191.10699301346904 135.6241640659282,190.3750487967627 136.27418635750655,188.96745810625725 136.80383415066171,187.78507617267314 137.1168078465853,187.25018738160725 137.76683013816364,186.2648631100892 138.85020062408876,185.08246916832286 139.37984841724392,184.37866075645434 139.47614801605232,183.98452723262017 139.88542131066788,182.9428858239844 140.70396790013183,180.24022964126198 141.32991529197898,179.19857357558794 143.20775746763684,178.18506646255264 144.07445385644678,177.28416801028652 144.53187695052475,175.48236195513164 144.60410164960194,174.13099940671236 144.8448506463319,172.32917199929943 144.7967008469859,171.5971761296678 144.70040124829393,170.72440919154906 144.33927775302436,170.1050244665239 144.82077574683353,169.99240890692454 144.91707534552552,169.90794720608392 144.38742755237035,169.682715872681 144.43557735171635,169.45748434856068 145.0615247435635,169.2604066085769 144.72447614790872,169.1196367049415 144.33927775302436,168.86625069059664 144.43557735171635,168.72548057849053 145.23004904133268,168.52840229630237 145.27819884079508,168.3313238681003 144.91707534552552,168.35947793824016 144.36335265263915,168.1060911999375 143.833704859484,167.31777536010486 143.95407935790718,166.1916058229399 144.33927775302436,165.68482797592878 144.82077574683353,165.45959306746954 145.39857333921827,165.6003649076738 146.79491752118338,165.91006269375794 147.6856888096081,166.135297220957 148.8894337939564,166.36053155743866 151.00802496657707,165.4314386905462 152.66919304488692,164.812041643454 153.1025412393501,164.33341566484887 153.55996433342807,163.7421706202149 153.92108782869764,163.5169340671564 154.13776192592923,164.02371604341897 154.83593401685357,164.27710666964413 155.9674543022411,164.5304970544239 156.88230049039703,164.98096825377434 157.84529647789896,165.45959306746954 158.95274186355527,165.45959306746954 161.1917075344827,164.89650496200193 162.8528756130254,164.47418810092495 164.80294248776045,164.75573274947237 166.5122603654163,164.417879135377 167.8604547480354,163.99556151454453 168.75122603657655,163.88294336906984 169.3530985286925,163.68586149980547 169.64199732500128,163.79847972863354 171.08649130631238,163.4887794845854 171.80873829696793,163.62955236749258 172.48283548816107,163.99556151454453 174.28845296474174,164.08002509232028 175.10699955408927,163.93925244774437 175.85332144447602,163.5450886466715 176.2866696388228,163.12276964032208 176.88854213105515,162.64414062272408 177.70708872040268,162.8412232636474 178.67008470802102,162.784913952637 179.46455639763735,162.50336721842177 180.1868033881765,162.44705783581594 180.5720017834101,161.60241566674085 181.46277307183482,161.06747423947672 182.57021845737472,160.39175721482025 183.19616584933829,159.68788348912494 183.84618814091664,159.09662812043098 185.4110566205345,158.13935473750462 185.89255461434368,157.85780308692483 186.30182790895924,158.05488927356782 186.63887650473043,158.19566503178794 186.9518502005376,158.22382017452037 186.22960320988204,157.7451823433512 185.72403031634167,158.05488927356782 185.86847971461248,157.9704237829137 186.13330361119006,157.9704237829137 185.6758805171121,157.8014927210752 185.4110566205345,157.85780308692483 185.5073562192265,157.99857894942397 185.5795809184201,158.13935473750462 183.87026304053143,159.09662812043098 182.23316986171994,160.67330618365668 181.4386981721036,161.20824840350542 181.14979937579483,161.96842760255095 180.90905037883203,162.8412232636474 180.93312527867965,163.4324703105085 181.4868479714496,164.98096825377434 181.4868479714496,165.76929101749556 181.00534997764044,166.10714291542536 180.59607668302488,166.36053155743866 180.2831029871013,166.86730811724556 180.2349531876389,167.7119335719908 180.1868033881765,168.35947793824016 179.99420419079252,169.31671454917523 179.41640659829136,169.682715872681 179.10343290236779,169.34486851506517 178.9830584039446,169.48563829952036 178.21266161382664,170.16133222833741 177.5144895229023,170.4428708589112 177.4663397235563,170.41471700929105 177.87561301828828,170.83702444125083 178.06821221567225,171.65348357573384 178.26081141317263,172.3573256463278 178.52563530986663,173.11747299140552 178.5978600088274,173.6805436987488 178.7904592063278,174.0183855512878 179.07935800263658,175.25713534030365 179.24788230052218,175.82020151984761 179.32010699948296,176.41141972597688 179.44048149790615,177.1152492109686 179.72938029421493,178.1006073622557 180.01827909052372,178.83258534120978 180.25902808725368,179.45194975065533 179.89790459198412,179.81793713316438 180.0423539901385,180.21207682826207 180.4997770843329,180.43729924905347 179.92197949171532,180.38099366170354 179.80160499329213,180.80328527634265 179.80160499329213,181.3663397199707 179.63308069552295,182.46429245831678 179.80160499329213,182.88658076681895 181.5349977707956,183.05549590257579 181.583147570258,183.39332585240481 181.02942487737164,184.40681312861852 180.4997770843329,184.63203199917916 180.4275523852557,185.0543168676959 180.1868033881765,186.20855875572306 180.1145786892157,186.63084112253273 179.9701292910613,187.86953219928546 179.65715559513774,188.65778715521446 179.63308069552295,189.05191375763388 179.17565760144498,189.27712869693642 178.18858671409544,188.99560999305686 177.80338831921108,189.16452125119395 177.5867142219795,189.53049527585972 177.10521622817032,190.3750487967627 176.4070441373624,190.90993130698917 175.61257244762965,191.33220621364308 174.11992866697256,191.92338995728642 173.2532322781626,192.9368447480665 172.96433348185383,193.66878191905562 172.84395898343064,194.06290110037662 172.86803388316184,194.11920379294315 172.69950958527625,194.17550647360622 171.61613909935113,195.04819650034187 170.62906821223442,195.21710391686065 169.4975479268469,195.18895268821507 168.53455193934496,195.72382552339695 167.7882300489582,196.08979052811628 167.09005795803387,196.8498700837663 166.19928666960914,197.80700421417714 165.4770396789536,198.45447535059066 163.55104770394973,199.69311139642377 161.98617922421545,200.5939339909237 161.1194828354055,201.0724947541894 160.27686134632677,201.49475353656453 159.26571555947885,201.8044095512014 158.47124386986252,201.94516216602642 156.95452518947423,202.2548176566488 156.08782880054787,201.57920521264896 155.02853321447037,200.76283788797446 153.43958983500488,199.69311139642377 152.50066874711774,199.15824653831078 151.99509585369378,198.76413490244886 152.09139545238577,198.67968233313877 152.47659384750295,198.14481543839793 152.59696834592614,198.06036267257878 152.47659384750295,198.28556998859858 152.23584485054016,198.39817357517313 152.25991975038778,198.9893416230043 153.89701292908285,199.97461878479226 155.31743201066274,200.84728979627835 156.2082032992039,201.41030183367548" stroke="#4dd2ff" stroke-linecap="round" stroke-linejoin="round" stroke-width="0.5"><title>2024-01-07 7.5km</title><desc>10586205581</desc></polyline><polyline fill="none" points="46.058027079096064,219.7604773528874 45.11798839480616,220.30915799777722 44.70019342354499,221.40651773026912 44.75241779489443,221.28458897361998 45.06576402322389,222.26001830899622 45.58800773695111,223.78412336145993 45.74468085099943,224.3328001999762 45.27466150885448,225.49111626524245 47.52030947781168,227.01521282701287 49.0348162476439,225.91786370630143 49.60928433272056,225.97882760089124 51.12379110255279,228.53930538374698 50.96711798850447,229.57568603480468 51.38491295953281,230.85591839981498 51.228239845484495,230.6730282350327 51.54158607358113,230.61206483381102 51.07156673097052,230.4291745920782 51.43713733064942,230.18532084667822 50.86266924580559,230.55110142636113 51.12379110255279,230.4291745920782 50.653771760175005,229.57568603480468 50.91489361715503,229.45375899551436 50.131528046447784,229.7585765456315 44.334622824098915,233.1725221631932 42.558994197286665,234.39178358536446 41.20116054150276,235.30622797005344 37.388781431596726,237.5008886110154 34.8297872338444,238.1714777063462 32.42746615083888,239.39072862034664 30.704061895608902,240.3661275060149 29.816247582202777,239.87842826818815 28.771760154981166,237.56185128813377 27.100580270867795,236.76933598669712 26.473887814441696,237.19607512984658 25.16827853024006,237.19607512984658 25.429400386987254,238.1714777063462 25.16827853024006,238.90302856225753 23.34042553207837,240.42708988208324 22.557059961371124,240.79286400298588 22.13926499034278,240.24420273513533 21.408123791217804,240.48805225157412 21.61702127684839,239.9393906952464 21.773694390663877,238.47629067505477 23.183752417797223,242.43884469236946 23.28820116072893,242.68269328621682 23.96711798850447,243.17039016628405 22.034816247643903,243.96289672190323 21.72147001954727,244.57251641259063 21.408123791217804,244.7554021947435 21.14700193447061,246.8890653932467 21.14700193447061,248.04733641451458 18.379110251553357,248.96175927110016 18.27466150885448,248.4740672602784 17.70019342377782,248.4740672602784 16.760154739022255,246.2794481375022 16.081237911246717,245.54790658463025 14.618955512763932,242.68269328621682 13.731141199590638,241.15863789303694 13.0,240.06131553056184 13.62669245665893,240.79286400298588 14.77562862681225,242.80461754469434 16.185686653712764,245.18213546229526 17.54352030949667,247.49868200853234 17.70019342377782,248.10829798306804 16.39458413957618,249.51041229313705 14.984526112210006,250.36387151805684 15.976789168547839,250.48579416202847 16.237911025295034,249.69329651846783 15.92456479696557,250.05906479625264 15.87234042561613,251.03444574255263 16.133462282596156,251.8269415536779 17.282398452749476,252.4365529794013 19.475822050357237,250.8515619399259 20.363636363763362,249.57137370796409 21.982591876294464,248.53502878395375 23.183752417797223,249.20560512261 25.272727272706106,251.2782907228102 26.78723404277116,250.7296393730212 29.08510638331063,249.32752801000606 31.121856866637245,248.4740672602784 32.323017408372834,250.24194884853205 33.73307543527335,248.59599030134268 34.20309477765113,248.41310572990915 34.25531914900057,247.92541325796628 34.30754352011718,246.64521856798092 32.42746615083888,243.96289672190323 30.025145067600533,245.18213546229526 29.346228240057826,244.9992498146603 31.278529980918393,248.6569518125034 33.26305609289557,252.3146307457937 32.897485493449494,252.6194362823153 30.80851063830778,250.60771678038873 29.450676982756704,250.5467554743518 28.04061895562336,251.8269415536779 28.04061895562336,253.2900078992243 29.60735009680502,256.21612951986026 31.121856866637245,258.22782957175514 33.10638297884725,258.5326320011518 34.20309477765113,257.9230269819964 34.620889748679474,256.70381502143573 33.73307543527335,253.96057874098187 33.52417794987559,253.04616376472404 34.8297872338444,255.24075728625758 35.29980657645501,255.85036512441002 32.793036750517786,251.88790272537153 31.800773694412783,249.99810343253193 32.11411992274225,250.36387151805684 33.889748549321666,249.38848944415804 33.5764023209922,249.69329651846783 33.941972920903936,249.38848944415804 34.15087040630169,249.26656656962587 33.994197292253375,249.26656656962587 34.516441005980596,248.83983630681178 33.941972920903936,249.08368220971897 33.941972920903936,249.20560512261 33.889748549321666,249.20560512261 33.68085106415674,249.51041229313705 33.83752417797223,249.44945087190717 33.68085106415674,249.02272074355278 33.73307543527335,248.4740672602784 33.73307543527335,249.1446436693659 33.83752417797223,248.77887481503421 34.30754352011718,249.02272074355278 33.62862669257447,248.59599030134268 33.78529980662279,248.6569518125034 33.83752417797223,248.9007977921283 33.52417794987559,249.20560512261 33.5764023209922,248.83983630681178 33.994197292253375,248.41310572990915 33.68085106415674,248.9007977921283 33.68085106415674,249.20560512261 33.73307543527335,248.4740672602784 33.78529980662279,249.1446436693659 33.78529980662279,248.41310572990915 33.83752417797223,248.53502878395375 33.62862669257447,248.4740672602784 33.78529980662279,248.4740672602784 34.25531914900057,249.1446436693659 34.04642166336998,248.53502878395375 34.04642166336998,248.77887481503421 33.78529980662279,248.9007977921283 33.78529980662279,248.96175927110016 33.5764023209922,248.53502878395375 33.15860735019669,249.1446436693659 34.04642166336998,248.83983630681178 34.516441005980596,248.77887481503421 34.09864603495225,246.4013716399204 33.5764023209922,245.1211735861143 32.6363636367023,243.231352247647 34.30754352011718,242.07307160948403 33.78529980662279,240.00035311619285 33.78529980662279,239.57361603615573 35.87427466153167,238.3543655067915 38.95551257254556,236.7083732264 41.410058027366176,235.30622797005344 42.45454545482062,234.75756151229143 43.237911025295034,234.26985755848 43.29013539664447,234.14793150592595 47.259187621064484,231.89229491149308 49.08704061922617,230.91688177542528 49.87040618970059,230.246284292778 49.974854932166636,229.69761304848362 51.750483558978885,230.0024304704275 51.9071566730272,230.55110142636113 52.69052224373445,229.94146699877456 53.26499032881111,229.14894128515152 53.36943907150999,228.29545084369602 56.398452611174434,228.1735235353117 57.75628626695834,228.4173781267018 62.97872340446338,229.63664954493288 63.187620889628306,230.063393935794 63.7620889749378,230.73399162961869 66.73887814301997,230.91688177542528 67.0,232.68481687660096 66.68665377190337,234.8794874366722 66.21663442929275,235.73296818952076 65.11992263048887,235.97681960259797 63.344294003909454,237.25703783886274 62.97872340446338,238.1714777063462 61.77756286272779,238.65917837939924 61.04642166336998,240.00035311619285 61.568665377097204,240.30516512377653 60.941972920671105,240.48805225157412 60.889748549321666,241.64633605466224 59.9497098645661,242.49980685068294 57.70406189537607,241.70729829603806 57.23404255323112,240.60997697140556 57.18181818188168,240.60997697140556 56.972920696251094,240.30516512377653 57.495164410211146,240.42708988208324 57.86073500965722,240.30516512377653 57.0773694391828,240.60997697140556 57.28626692458056,240.48805225157412 57.18181818188168,240.7319016653928 57.91295938123949,242.19499599613482 55.823984526097775,243.41423845262034 55.0928433269728,242.9265417776769 55.197292069671676,243.04846598493168 55.66731141204946,243.2923143224907 53.526112185791135,241.34152475179872 55.66731141204946,243.901934717549 54.8317214702256,244.69444027362624 51.69825918786228,245.6698302407749 50.23597678937949,246.03560105565703 48.40812379098497,246.82810369657818 47.259187621064484,247.98637483932544 46.89361702138558,249.38848944415804 46.84139264980331,250.97348448139383 46.7891682786867,252.86328059632797 47.0502901354339,253.04616376472404 48.303675048518926,252.74135845230194 49.29593810462393,252.4365529794013 50.23597678937949,252.49751408677548 50.2882011604961,253.83865682739997 50.2882011604961,254.02153968811035 50.49709864589386,255.6065220659948 50.49709864589386,257.74014535121387 50.39264990342781,259.5079986996716 50.44487427477725,260.2395226471708" stroke="#4dd2ff" stroke-linecap="round" stroke-linejoin="round" stroke-width="0.5"><title>2024-01-01 6.1km</title><desc>10666129243</desc></polyline></svg>