<?xml version="1.0" encoding="utf-8" ?>
<svg baseProfile="full" height="300mm" version="1.1" viewBox="0,0,200,300" width="200mm" xmlns="http://www.w3.org/2000/svg" xmlns:ev="http://www.w3.org/2001/xml-events" xmlns:xlink="http://www.w3.org/1999/xlink"><defs /><rect fill="#222222" height="300" width="200" x="0" y="0" /><text fill="#FFFFFF" style="font-size:12px; font-family:Arial; font-weight:bold;" x="10" y="20">Over 5km Hikings</text><text fill="#FFFFFF" style="font-size:4px; font-family:Arial" x="10" y="280">ATHLETE</text><text fill="#FFFFFF" style="font-size:9px; font-family:Arial" x="10" y="290">Sayid × Nuo</text><text fill="#FFFFFF" style="font-size:4px; font-family:Arial" x="120" y="280">STATISTICS</text><text fill="#FFFFFF" style="font-size:3px; font-family:Arial" x="120" y="285">Number: 6</text><text fill="#FFFFFF" style="font-size:3px; font-family:Arial" x="120" y="290">Weekly: 1.5</text><text fill="#FFFFFF" style="font-size:3px; font-family:Arial" x="141" y="285">Total: 55.2 km</text><text fill="#FFFFFF" style="font-size:3px; font-family:Arial" x="141" y="290">Avg: 9.2 km</text><text fill="#FFFFFF" style="font-size:3px; font-family:Arial" x="167" y="285">Min: 5.2 km</text><text fill="#FFFFFF" style="font-size:3px; font-family:Arial" x="167" y="290">Max: 17.6 km</text><polyline fill="none" points="66.70776910847053,106.0 66.8957080184482,105.38113112252904 66.93329580058344,105.21609929794795 66.8957080184482,105.2986152167723 66.8581202365458,105.21609929794795 67.04605914652348,105.09232539546792 67.19641027459875,104.47345544249401 67.53470031288452,103.89584282488795 67.83540256880224,103.64829436462605 68.17369260708801,102.86439013321069 68.28645595326088,102.49306666560005 68.5495704272762,102.12174293407588 68.69992155535147,101.66790245909942 69.75237945187837,99.77001983695664 70.24102061847225,98.98610978483339 70.35378396441229,98.44974959761021 70.31619618227705,97.99590593200992 70.20343283633702,97.83087177408743 70.09066949016415,97.78961322637042 69.7899672340136,97.95464739744784 69.63961610593833,98.16094003786566 69.37650163192302,98.94485132850241 68.7375093374867,99.85253661609022 68.13610482518561,100.88399525554269 67.49711253074929,101.33783641151967 66.36947907018475,101.87419363300432 66.06877681403421,102.0804847253603 64.97873113537207,102.36929211774259 63.66315876482986,102.28677573619643 63.06175425252877,102.12174293407588 62.76105199637823,101.83293540478917 62.49793752213009,101.70916070046951 62.234823047881946,101.50286946143024 61.7461818815209,100.9665118586272 61.48306740750559,100.51267037997604 61.332716279430315,100.10008687528898 61.18236515112221,99.27491888822988 60.73131176712923,98.53226658533094 60.35543394694105,98.119681516313 59.75402943463996,97.87213031839929 59.415739396354184,97.66583756386535 59.03986157593317,97.37702757064835 58.73915932001546,96.96444158902159 58.40086928172968,96.75814847601578 58.21293037175201,96.51059663281194 57.98740367940627,95.76794039929518 57.72428920562379,94.5714364683081 57.72428920562379,94.07633059174987 58.06257924367674,92.96234065317549 58.13775480771437,92.30219734614366 58.32569371769205,92.01338438692619 58.8519226659555,91.47701703893836 59.15262492210604,91.31198082098854 59.64126608846709,91.14694455097197 60.35543394694105,90.81687185441842 60.50578507501632,90.73435364768375 60.580960639053956,90.48679894927773 60.580960639053956,89.99168920030934 60.430609510978684,89.74413414983428 60.12990725459531,89.53783818485681 59.86679278058,89.16650524243596 59.678853870369494,88.75391277455492 59.64126608846709,88.25880138287903 59.71644165250473,87.47487405277207 60.16749503673054,86.7322049702052 60.580960639053956,86.31961057911394 61.67100631771609,85.61819936623215 62.42276195809245,85.37064224272035 62.986578688258305,84.99930633718031 63.17451759846881,84.79300849782885 63.92627323884517,83.3489213406865 63.92627323884517,83.10136314132251 63.738334328634664,82.39994760588161 63.362456508446485,81.82231057522586 63.249693162506446,81.20341304768226 63.249693162506446,80.87333406627295 63.475219854619354,80.17191553828889 63.43763207248412,79.55301605470595 63.21210538037121,78.93411583759007 62.76105199637823,78.48025521225645 62.49793752213009,78.02639419242041 62.12205970194191,77.6963132028759 61.82135744555853,75.8396037494822 61.708594099618495,75.63330229162239 61.40789184346795,75.30321978937718 60.91925067733973,75.13817846015445 60.12990725459531,75.22069913128507 59.11503714020364,75.46826106650406 58.814334884053096,75.38574043451808 58.551220409804955,75.17943879726226 58.36328149982728,74.89061636826955 57.912228115601465,74.47801262116991 56.29595348867588,73.57028322981205 55.28108337405138,72.70381279333378 55.05555668193847,72.29120731822331 54.41656438750215,71.67229849434807 54.19103769562207,71.67229849434807 53.965511003509164,71.7960803177557 53.213755362899974,72.49751009652391 52.42441194038838,72.78633384924615 51.710244082147256,72.58003118500346 51.40954182599671,72.24994675285416 51.22160291578621,71.91986211188487 50.73296174965799,70.88834626419703 50.46984727540985,69.1553950527159 50.84572509559803,68.00009104982018 50.9960762236733,67.67000372239272 51.334366261726245,67.25739426957443 51.48471739003435,66.59721846689354 51.40954182599671,65.27686435746728 51.29677848005667,64.36911897038226 51.447129607899114,63.708939515810926 51.37195404386148,63.172543094318826 51.10883956961334,62.388578102516476 50.62019840348512,61.64587334016687 48.62804595637135,59.37649113161024 48.552870392333716,58.633782084449194 48.665633738273755,57.68476343131624 48.51528261043131,57.06583729336853 48.36493148235604,56.73574305305374 48.1394047900103,56.57069585469435 47.274885803693905,56.364386783359805 46.635893509257585,55.993030249432195 46.14725234312937,55.49788779346272 45.80896230484359,54.79643517671502 45.80896230484359,53.599837361543905 46.372779035242274,51.90809094303404 46.523130163084716,51.08284679832286 46.523130163084716,50.54643740472966 46.71106907329522,49.9687651337299 46.748656855430454,49.80371579603525 46.635893509257585,49.473616964009125 45.92172565101646,48.40079431884806 45.621023394865915,47.53428211127175 45.1699700106401,46.83281879458809 44.869267754256725,44.480846677848604 45.05720666446723,43.655590792244766 45.05720666446723,42.83033360194531 44.64374106237665,42.25265279255109 44.56856549810618,42.00507510709576 43.967160985805094,41.34486737186671 43.77922207582742,41.26234134630067 43.29058090946637,41.0560262252111 42.91470308927819,41.13855228340253 42.42606192291714,41.509919383970555 41.41119180852547,42.45896744073252 40.62184838601388,43.36675092406222 40.35873391199857,43.573065131902695 40.2459705658257,43.820642073696945 39.907680527539924,44.192007266305154 39.60697827162221,45.099787735933205 39.306276015238836,45.42988933357992 38.06587920850143,46.378930263919756 37.2013602219522,46.95660650721402 36.637543491786346,47.20418184439768 35.998551197582856,47.658069657569285 35.246795556973666,47.94690715134493 33.48016980197281,48.35953186530969 30.548322804272175,48.730893829109846 30.322796112392098,48.68963140170672 29.758979382226244,48.97846832484356 29.495864907745272,48.937205916969106 29.683803817955777,48.772156253195135 30.322796112392098,48.56584410005598 30.3603838942945,48.607106537237996 30.134857202181593,48.85468109167414 30.247620548354462,48.937205916969106 30.09726942027919,48.85468109167414 30.09726942027919,48.772156253195135 29.946918292203918,48.772156253195135 30.285208330489695,48.648368971043965 30.773849496617913,48.68963140170672 30.99937618873082,48.607106537237996 31.300078444881365,48.648368971043965 31.826307393144816,48.56584410005598 32.27736077737063,48.607106537237996 33.55534536601044,48.2770069486578 33.968810968333855,48.23574448536965 34.457452134694904,48.070694599766284 34.870917736785486,48.02943212035461 35.246795556973666,47.781857174501056 36.224077889695764,47.49301958936849 36.71271905582398,47.03913163259858 37.05100909410976,46.95660650721402 37.652413606410846,46.58524328129715 38.36658146465197,45.966303984459955 38.667283720802516,45.47115201855195 39.11833710502833,45.14105044709868 39.64456605329178,44.52210943790851 40.20838278369047,43.61432796376175 40.99772620620206,42.582756190531654 41.41119180852547,42.211389853211585 42.087771884864196,41.75749730429379 42.463649705052376,41.26234134630067 43.1402297813911,40.725921861769166 43.215405345428735,40.27202802122338 43.51610760157928,39.69434438078315 43.478519819444045,39.4880286398984 43.328168691601604,39.28171281752293 43.40334425540641,38.951607332070125 43.215405345428735,38.82781772114686 43.1402297813911,38.66276486107381 43.40334425540641,38.16760596752283 43.36575647350401,37.87876306270482 43.25299312756397,37.58991999810678 43.40334425540641,37.012233389366884 43.591283165616915,36.55833631978021 43.591283165616915,35.77433136070613 44.07992433197796,34.24758148219553 43.967160985805094,34.0 44.0047487677075,34.082527173886774 44.1175121141132,34.12379075575154 44.192687677918,34.28884505122551 44.45580215216614,34.41263573837932 44.45580215216614,34.618953485362 44.493389934068546,34.618953485362 44.493389934068546,34.53642639628379 44.606153280241415,34.57768994246726 44.64374106237665,34.78400762408273 44.79409219045192,34.66021702485159 44.192687677918,34.866534673870774 44.04233654984273,35.15537924549426 43.74163429369219,36.14570227760123 43.77922207582742,37.58991999810678 44.38062658812851,37.92002634468372 44.68132884404622,38.208869226655224 44.869267754256725,38.25013248244068 45.05720666446723,38.208869226655224 45.132382228504866,38.3326589842909 45.05720666446723,38.0025528986298 44.982031100429595,38.25013248244068 44.68132884404622,38.25013248244068 44.30545102409087,38.0025528986298 43.967160985805094,37.92002634468372 43.704046511789784,38.0025528986298 43.591283165616915,38.25013248244068 43.591283165616915,38.37392223029747 44.07992433197796,38.82781772114686 44.41821437003091,39.446765481930925 44.83167997235432,40.43708037256147 45.508260048693046,41.221078328584554 45.77137452294119,41.38613037974574 46.07207677909173,41.46865638581221 46.97418354754336,41.67497134394944 47.274885803693905,41.88128622036311 47.387649149633944,42.087601015373366 46.635893509257585,44.02695610228693 46.0344889969565,44.89347413147334 45.884137868881226,45.38862664523185 45.84655008697882,46.090091902558925 46.07207677909173,46.87408136870363 46.14725234312937,48.194482018909184 46.48554238118231,48.772156253195135 46.93659576540813,49.18478031491395 47.04935911134817,49.55614169163164 46.523130163084716,51.57799344169325 46.14725234312937,52.650809557846515 45.996901214821264,53.18721678931615 45.92172565101646,53.971195597725455 46.0344889969565,54.92022100111353 46.222427907167,55.332840203656815 46.635893509257585,55.827982816292206 47.31247358582914,56.07555394654628 47.72593918791972,56.28186313202605 48.402519264258444,56.405648604093585 48.778397084446624,56.73574305305374 48.928748212754726,57.06583729336853 48.74080930254422,58.46873548615258 48.81598486658186,59.1701831688988 49.154274904867634,59.70658370220917 50.056381673086435,60.61433719552588 50.62019840348512,61.43956627428997 50.77054953156039,61.76965754060075 51.29677848005667,62.512362126872176 51.48471739003435,63.172543094318826 51.40954182599671,64.36911897038226 51.559892954071984,65.771997539734 51.52230517193675,66.14334711837 51.334366261726245,66.9685674586508 50.808137313462794,68.04135195113486 50.62019840348512,69.07287342302152 50.62019840348512,69.7743068599375 50.9960762236733,71.01212827351992 51.334366261726245,71.46599538993905 51.63506851810962,72.24994675285416 51.74783186404966,72.41498899497674 51.973358556162566,72.5387706424226 52.725114196771756,72.6212917243538 53.364106490975246,72.20868618410896 53.739984311163425,71.7960803177557 54.0782743494492,71.54851664148737 54.26621325942688,71.50725601732847 54.64209107984789,71.58977726232843 54.79244220769033,71.63103787993896 55.20590781001374,72.29120731822331 55.769724540412426,72.91011540859472 56.67183130886406,73.65280414879089 57.385999167338014,73.98288769420469 58.024991461541504,74.43675222853199 58.96468601212837,75.26195946193184 59.37815161421895,75.34448011353379 60.430609510978684,75.01439742886578 60.76889954903163,74.97313707857393 61.40789184346795,75.17943879726226 61.708594099618495,75.46826106650406 62.084471919806674,76.12842565364554 62.12205970194191,76.95363021377125 62.27241082978435,77.20119132750551 62.30999861191958,77.5312726299162 62.460349739994854,77.90261384582845 62.76105199637823,78.19143460894702 63.21210538037121,78.52151528539252 63.51280763652176,78.93411583759007 63.55039541865699,79.67679601014243 63.32486872654408,80.46073504624655 63.32486872654408,81.32719261181774 63.40004429058172,81.57475165216601 64.03903658501804,82.48246712962282 64.07662436692044,83.18388255417813 63.099342034431174,85.040565895295 62.91140312422067,85.20560409504105 61.67100631771609,85.78323738352628 60.8816628952045,86.27835112210596 60.205082818865776,86.97976144839777 59.8292049986776,87.55739277446992 59.79161721654236,87.80494886144879 59.86679278058,88.58887569623766 59.941968344617635,88.75391277455492 60.80648733116686,89.53783818485681 60.8816628952045,89.95043003343744 60.80648733116686,90.19798498615273 60.50578507501632,90.65183542788145 59.941968344617635,91.06442639639135 58.927098230225965,91.55953512829728 58.43845706386492,91.9721253796888 58.25051815388724,92.26093836172367 58.13775480771437,92.67352805900737 57.94981589750387,93.53996536237537 57.98740367940627,93.95255404926138 57.94981589750387,94.4889188548841 58.175342589616776,95.52038808670477 58.36328149982728,96.13926864799578 58.47604484600015,96.26304467229056 58.814334884053096,96.59311392699601 59.07744935806841,96.71688984360662 59.678853870369494,97.37702757064835 60.317846164805815,97.66583756386535 61.069601805182174,98.28471558302408 61.445479625603184,99.27491888822988 61.67100631771609,100.26512031629682 62.12205970194191,100.92525355872931 62.7986397780478,101.54412771578063 63.28728094464168,101.83293540478917 63.7759221107699,101.99796829817933 64.41491440497339,101.95671007977217 64.75320444325916,102.03922651329776 65.6177234298084,101.99796829817933 66.93329580058344,101.46161120384932 67.45952474884689,101.17280330954236 67.83540256880224,100.88399525554269 68.88786046532914,99.64624464380904 69.15097493981011,99.27491888822988 69.86514279828407,97.78961322637042 70.16584505420178,97.66583756386535 70.35378396441229,97.78961322637042 70.46654731058516,97.91338885953883 70.50413509248756,98.119681516313 70.31619618227705,98.57352507428732 70.20343283633702,99.1924020179431 69.60202832403593,100.10008687528898 69.33891384978779,100.7189620101417 69.00062381173484,101.25531986699207 68.7375093374867,102.16300113938632 67.83540256880224,103.52452009051922 67.49711253074929,104.18464921353734 67.42193696671166,104.55597147863591 67.12123471056111,105.05106742132921" stroke="#4dd2ff" stroke-linecap="round" stroke-linejoin="round" stroke-width="0.5"><title>2024-02-17 6.9km</title><desc>10776935036</desc></polyline><polyline fill="none" points="185.60869565233588,38.66290323022986 183.65217391308397,40.46591212839121 182.32173913065344,43.127491243358236 181.38260869588703,46.39006323047215 179.9739130437374,48.708200551976915 178.2521739131771,50.76876292267116 174.41739130439237,56.60700182657456 173.0086956527084,57.72313217521878 170.3478260873817,57.63727603526786 165.57391304383054,56.43528936378425 162.36521739140153,55.1474450310925 160.72173913102597,55.23330136726145 159.86086956551298,54.11716846993659 160.0956521742046,53.00103442999534 159.9391304347664,52.2283255791408 160.64347826084122,52.2283255791408 160.72173913102597,52.82932139921468 156.49565217411146,52.91517791803926 155.86956521775573,53.43031688808696 157.27826086990535,54.71816324896645 157.74782608728856,55.57672664435813 156.57391304383054,55.92015181318857 154.53913043485954,56.34943312226096 153.8347826092504,56.52114559849724 152.34782608691603,56.69285804760875 152.034782608971,56.52114559849724 151.3304347828962,56.43528936378425 150.15652173943818,55.74843924224842 149.4521739128977,55.74843924224842 148.66956521756947,54.97573233838193 149.4521739128977,53.85959917755099 149.0608695652336,52.40003870433429 150.86086956551298,50.940476277668495 151.0956521742046,50.51119283924345 151.9565217392519,50.42533613136038 152.66086956532672,50.597049540432636 152.5826086960733,51.369759547233116 151.5652173915878,52.91517791803926 153.20869565242901,54.288881297572516 152.2695652176626,57.03628286521416 150.7826086957939,56.52114559849724 149.37391304364428,55.57672664435813 148.27826086990535,55.74843924224842 147.41739130485803,56.34943312226096 146.94782608700916,56.52114559849724 148.04347826121375,57.72313217521878 148.35652173915878,57.72313217521878 148.74782608728856,57.80898830870865 149.29565217439085,58.15241277462337 148.74782608728856,59.010973466036376 147.88695652224123,59.86953348125098 146.79130434803665,60.12710135412635 146.55652173934504,61.243228099890985 146.32173913065344,62.70277673599776 146.0086956527084,62.874488211702555 146.0086956527084,62.61692098772619 146.16521739168093,62.53106523305178 145.38260869588703,64.76331266091438 145.1478260876611,64.84916823997628 144.91304347896948,65.70772365859011 144.5217391308397,66.0511456367094 143.19130434840918,65.70772365859011 143.034782608971,66.73798926878953 142.40869565261528,68.02581991255283 141.4695652173832,69.1419385735644 140.60869565233588,69.48535947012715 140.84347826102749,69.57121467759134 140.7652173913084,69.74292507173959 140.68695652205497,69.39950425626012 140.60869565233588,69.65706987801241 139.74782608728856,69.57121467759134 139.27826086990535,68.11167523480253 139.04347826121375,66.9097001090995 139.04347826121375,65.10673493659124 138.96521739149466,63.99061214533867 138.57391304383054,63.99061214533867 138.26086956541985,64.33403466420714 138.02608695672825,64.24817904480733 137.47826087009162,63.90475649869768 137.3217391311191,63.56133384455461 137.3217391311191,63.56133384455461 136.3043478266336,64.076467785344 135.20869565242901,63.47547816403676 135.44347826112062,62.0159305621637 135.9913043482229,61.75836313556647 136.93043478298932,60.04124540335033 136.93043478298932,60.212957298208494 135.9913043482229,61.93007476028288 135.91304347850382,61.75836313556647 135.5217391308397,62.1017863577581 135.7565217395313,62.1017863577581 135.13043478270993,62.96034393948503 134.1130434786901,63.30376678291941 133.56521739205346,63.38962247688323 132.39130434812978,63.818900845362805 131.21739130467176,63.90475649869768 131.06086956569925,64.84916823997628 130.90434782626107,64.59160148247611 130.04347826121375,64.59160148247611 128.71304347831756,64.84916823997628 127.22608695691451,64.59160148247611 127.46086956560612,64.50574588327436 126.8347826092504,64.50574588327436 126.0521739134565,64.4198902772041 125.73913043551147,64.076467785344 124.95652173925191,64.24817904480733 124.72173913102597,63.99061214533867 124.4869565218687,62.53106523305178 124.33043478289619,61.672507313254755 124.17391304392368,61.32908395607956 123.7826086957939,60.899804607382976 123.46956521784887,59.182685522944666 123.39130434859544,58.495837132271845 122.76521739177406,57.63727603526786 122.29565217439085,57.46556373446947 121.82608695654199,56.69285804760875 122.60869565280154,57.2079952332424 121.74782608728856,56.43528936378425 119.63478260906413,56.09186435712036 118.93043478298932,55.74843924224842 120.57391304383054,56.34943312226096 119.79130434803665,57.2079952332424 119.08695652196184,57.12213905254612 119.94782608700916,57.46556373446947 119.86956521775573,58.66754927049624 118.46086956560612,59.09682949783746 117.99130434822291,59.697821532259695 117.67826087027788,60.55638100678334 117.83478260878474,61.071516367199365 116.19130434840918,62.874488211702555 114.93913043523207,64.076467785344 114.39130434812978,67.167266318982 114.46956521784887,68.36924116057344 114.39130434812978,70.08634577906923 114.0,72.40443272492848 114.39130434812978,73.77811155293602 114.62608695682138,74.37909549591132 114.93913043523207,75.58106238848995 115.87826086999848,77.29815565102035 116.5826086960733,78.32841031096177 116.8173913047649,78.58597382385051 117.99130434822291,79.95964486489538 118.38260869588703,81.41916845017113 119.32173913065344,82.36356502346462 120.49565217411146,84.08064760657726 121.20000000018626,84.6816258719773 122.68695652205497,85.96943532529986 123.39130434859544,86.82797411602223 124.87826086999848,87.60065844975179 125.97391304373741,87.51480466203066 125.81739130429924,87.68651223089546 126.75652173953131,89.06017180875642 127.93043478298932,89.40358643303625 127.77391304401681,90.77724384807516 127.69565217429772,91.97919266700046 127.14782608719543,92.83772672666237 127.46086956560612,94.03967327484861 128.32173913065344,96.10014998959377 128.55652173934504,98.58988749264972 128.47826086962596,100.04938614519779 128.55652173934504,101.50888284458779 129.49565217457712,102.62496723787626 129.73043478326872,101.59473553084536 130.20000000065193,101.16547203215305 130.51304347859696,100.30694452812895 130.59130434831604,99.70597487332998 130.98260869598016,99.10500488732941 131.60869565233588,99.70597487332998 131.29565217439085,99.19085776276188 131.60869565233588,97.38794595946092 133.40869565214962,94.2113798163482 133.40869565214962,93.26699350314448 132.46956521784887,93.26699350314448 132.00000000046566,92.83772672666237 130.82608695700765,92.15089953312417 132.5478260871023,93.18114016135223 132.93913043523207,92.7518733512261 132.86086956551298,93.00943345762789 133.2521739131771,91.6357788539608 132.86086956551298,90.77724384807516 131.84347826102749,90.4338296566275 132.0782608697191,89.14602547505638 131.5304347826168,88.54504966997774 131.37391304364428,88.45919595635496 130.90434782626107,87.17138944304315 131.5304347826168,86.99968179303687 133.2521739131771,86.22699703328544 134.5826086960733,85.28260380611755 135.6000000005588,84.76747988263378 136.53913043485954,84.42406379873864 137.24347826093435,84.42406379873864 138.26086956541985,83.65137721417705 138.49565217411146,82.27771082322579 139.43478260887787,80.21720799250761 140.53043478308246,78.92939174629282 141.15652173943818,77.29815565102035 141.86086956551298,76.78302795614582 142.17391304392368,76.35375469137216 142.4869565218687,75.92448125727242 142.7217391305603,75.58106238848995 142.64347826130688,75.66691711579915 143.42608695663512,75.06593388243346 143.42608695663512,74.8083695382229 143.9739130437374,74.37909549591132 144.20869565242901,74.72251474345103 144.2869565221481,74.55080513335997 143.89565217401832,74.37909549591132 143.5826086960733,74.72251474345103 143.8173913047649,74.72251474345103 143.8173913047649,74.72251474345103 143.7391304350458,74.98007910791785 144.0521739134565,74.20738583174534 143.89565217401832,74.46495031804079 143.8173913047649,74.20738583174534 143.3478260873817,74.8083695382229 143.3478260873817,74.03567614057101 143.5043478263542,73.94982128479751 143.5043478263542,73.60640179400798 143.9739130437374,73.09127235523192 145.06956521747634,72.06101274769753 145.85217391327024,71.97515773650957 145.93043478298932,71.71759266231675 145.61739130457863,71.80344769370276 145.3043478266336,71.63173762394581 145.7739130440168,71.63173762394581 145.85217391327024,71.54588257882278 144.60000000009313,71.3741724686115 144.20869565242901,71.20246233115904 143.42608695663512,71.20246233115904 141.4695652173832,72.3185777409235 140.45217391336337,71.28831740334863 140.84347826102749,70.34391123871319 140.68695652205497,69.1419385735644 140.2956521739252,69.31364903552458 141.54782608756796,67.68239855626598 142.40869565261528,67.68239855626598 142.5652173915878,66.30871204950381 142.9565217392519,65.27844603382982 143.66086956532672,65.70772365859011 144.2869565221481,65.45015710400185 144.5217391308397,64.84916823997628 144.99130434775725,63.90475649869768 145.46086956514046,62.7886324772262 146.63478260906413,62.18764214630937 146.79130434803665,62.18764214630937 147.41739130485803,61.672507313254755 147.65217391308397,61.071516367199365 148.43478260887787,62.44520947145065 148.27826086990535,62.96034393948503 148.43478260887787,63.38962247688323 148.20000000018626,62.53106523305178 147.73043478280306,61.586651484132744 147.26086956541985,61.84421895130072 146.71304347831756,62.18764214630937 145.85217391327024,62.53106523305178 145.61739130457863,61.586651484132744 145.85217391327024,61.500795648258645 146.0086956527084,60.38466916611651 146.55652173934504,59.61196554766502 147.02608695672825,59.52610955637647 147.96521739149466,59.182685522944666 149.21739130467176,58.92511742725037 150.7826086957939,58.83926138159586 151.40869565261528,59.61196554766502 152.5826086960733,59.7836775102769 152.81739130429924,58.23826887411997 154.77391304355115,56.17772061901633 157.74782608728856,55.1474450310925 159.62608695682138,55.061588688229676 161.26956521719694,54.97573233838193 164.63478260859847,55.31915769679472 166.43478260887787,55.83429553103633 168.4695652173832,56.17772061901633 171.83478260878474,57.63727603526786 173.40000000037253,57.12213905254612 174.73043478280306,53.68788628192851 176.21739130467176,52.314182145230006 178.0173913044855,50.597049540432636 180.28695652168244,47.16277621843619 181.22608695691451,44.5870641284273 182.16521739168093,42.097203324432485 183.02608695672825,40.12248209200334 185.06086956569925,38.40533028711798 185.68695652205497,38.061899601714686 186.0,37.28918016364332" stroke="#4dd2ff" stroke-linecap="round" stroke-linejoin="round" stroke-width="0.5"><title>2024-02-16 5.2km</title><desc>10771329473</desc></polyline><polyline fill="none" points="36.53012699942337,185.93371627824672 36.64470327162417,186.0 36.04317784257,185.60229726540274 35.57055071979994,185.45315848992323 35.77105919609312,185.42001652132603 35.64216088986723,185.05545442218136 35.72809309401782,184.82345993495255 35.64216088986723,184.7903178383567 35.78538123011822,184.6908915083768 35.799703264201526,184.57489404670196 35.77105919609312,184.6908915083768 35.828347332193516,184.42575433205639 35.742415127984714,184.04461888616788 35.29843207326485,183.38177251150773 35.327076141373254,182.85149347255356 35.15521173301386,182.58635330667312 35.31275410728995,182.37092660459166 35.29843207326485,182.0560716821201 34.696906644210685,181.1612175318005 34.61097444006009,180.63093127449974 34.42478799779201,180.53150240931427 34.3961439296836,180.3326444971899 34.03809307911433,180.21664393648098 33.73733036452904,179.73606930617825 34.73987274628598,179.02349052425416 33.62275409227004,179.80235554631508 33.35063544585137,179.57035358817666 33.19309307157528,179.55378200711857 32.519957472453825,178.99034724931698 32.14758458780125,179.15606355655473 31.96139814541675,179.02349052425416 31.60334729484748,179.02349052425416 31.417160852462985,178.79148745835118 30.557838810957037,178.50976900615206 30.30004219856346,178.27776520968473 29.84173710970208,178.16176318765793 29.698516769509297,178.0126176095364 29.71283880347619,177.79718486712954 29.311821850773413,177.3663185286423 29.311821850773413,177.25031585844408 28.982415068196133,176.83601993427146 28.123093026690185,176.65372939426743 28.108770992723294,176.57086999050807 27.82233031222131,176.4548667546187 27.750720142037608,176.30571961577516 27.664787937887013,176.33886343619088 27.679109971912112,176.23943195474567 27.793686244112905,176.23943195474567 27.593177767761517,176.28914770306437 27.36402522341814,176.20628811411734 27.22080488310894,176.0239968703827 27.106228610908147,176.04056881008728 27.134872679016553,175.89142129238462 27.39266929141013,175.69255772333418 27.33538115536794,175.4605499197496 26.89139810053166,175.1291096277564 26.83410996448947,174.97996127670922 26.54766928392928,174.83081278920872 26.2469065694022,174.76452452878584 26.089364195184316,174.9302451293479 25.84588961675763,175.1125375955162 25.40190656197956,175.31140187171695 25.287330289720558,175.51026590543916 25.000889609276783,175.6759857483121 23.955381125444546,176.00742492900463 24.02699129562825,175.9411371467868 23.769194683118258,176.30571961577516 23.55436417274177,176.42172295776254 22.60910992702702,176.4880105447519 22.379957382683642,176.30571961577516 21.549279409227893,176.33886343619088 21.26283872872591,176.38857915422705 20.61834719759645,176.8028762148606 20.532414993445855,176.72001688693126 20.58970312960446,176.12342848312983 20.331906517094467,175.7754175732407 20.117076006659772,175.195397740099 19.8019912581658,174.9633892293059 19.7590251560905,174.71480831578083 19.93088956439169,174.33365017923643 19.844957360241096,173.90277469145076 20.045465836592484,173.42218145847437 19.83063532615779,172.9581590621674 19.859279394266196,172.62671368513838 19.673092951939907,172.3615568985697 19.701737019931898,172.42784613564436 19.7876692241407,172.3615568985697 19.687414985965006,171.64894589863252 19.7590251560905,171.35064269510622 19.60148278181441,170.67117225039692 19.329364135337528,170.45572981097212 19.458262441505212,169.32879549020436 19.386652271496132,169.08020598876465 19.673092951939907,168.73218005015224 20.27461838099407,168.33443521101435 20.73292346985545,166.94232063471281 21.148262456525117,166.56114433312905 21.577923477219883,165.93137283941905 22.079194668098353,165.6827781592583 22.165126872307155,165.4341831001948 22.76665230136132,164.7381149186549 23.840804853243753,164.4895184195193 24.012669261544943,164.1414826840628 24.5712285884656,163.4122625440359 24.986567575251684,163.06422450949322 25.158431983552873,162.69961243847501 25.473516732105054,162.56702602867153 26.17529639933491,162.43443951115478 26.533347249904182,161.93723911017878 27.20648284914205,161.5891979274602 27.19216081511695,161.50633086972812 27.163516747008543,161.57262451929273 27.03461844078265,161.52290428458946 27.20648284914205,161.55605110943725 27.120550644991454,161.4234637698537 27.149194713041652,161.20800911312108 27.464279461593833,160.71080497271032 28.581398115551565,159.7826865209645 28.88216083002044,159.71639214364404 29.598262531275395,159.2689043921564 29.655550667375792,159.07002055282646 29.6412286334089,159.21918345507584 28.309279469016474,159.98156949103577 27.722076074045617,160.59479045509943 27.39266929141013,160.7770989457058 27.134872679016553,161.2908763224841 27.19216081511695,161.1251418616739 27.134872679016553,161.22458255841048 27.134872679016553,161.65549154335167 27.263770985184237,161.73835852528282 27.163516747008543,161.70521173755697 27.134872679016553,161.27430288399046 27.33538115536794,161.20800911312108 27.163516747008543,161.3074497593043 27.134872679016553,161.22458255841048 27.49292352964403,160.71080497271032 27.24944895115914,160.4622023339616 27.306737087259535,160.49534937436692 27.292415053234436,160.3296141050232 27.421313359460328,160.23017286254617 27.55021166568622,159.61695052721188 27.464279461593833,159.45121436509362 27.621821835869923,159.3683462208137 27.636143869836815,158.90428383476683 27.564533699769527,158.97057854216837 27.679109971912112,158.72197325031448 27.578855733852834,158.70539955074491 27.507245563610923,158.32420399492548 27.435635393543635,158.340777733305 27.994194720464293,157.97615510049218 28.03716082253959,157.8269910611707 27.779364210146014,157.0645949512982 27.908262516371906,156.76626506837783 27.8796184482635,156.07015988555213 28.466821843350772,155.35747769089357 28.538432013476267,155.14201501884963 28.438177775300574,154.8602557103295 28.653008285618853,154.8602557103295 28.69597438769415,154.41275463136844 28.82487269397825,154.2470131793525 29.02538117027143,154.09784572840726 28.781906591844745,153.76636201560905 28.581398115551565,153.38515491277212 28.581398115551565,153.16968963427644 29.369109986932017,152.1586564478057 30.31436423258856,151.64485029460047 30.357330334663857,151.47910602878255 30.701059151208028,151.4128082753159 31.1450422059861,151.08131910343945 30.915889661642723,150.91557426468353 30.80131338944193,150.60065860698523 30.085211688128766,150.5012114308338 30.285720164480153,149.307840585112 30.128177790204063,149.29126592852117 30.070889654161874,149.05922055942938 30.099533722212072,148.8437495637918 29.78444897365989,148.54540463819285 29.71283880347619,148.34650771782617 30.242754062404856,147.9818627335335 30.930211695667822,147.766390313991 31.60334729484748,147.70009105073404 32.59156764257932,147.73324068570219 33.20741510565858,147.56749244319508 33.66572019440355,147.63379176038143 33.75165239855414,147.45146857317013 33.68004222842865,147.11997134666308 33.30766934377607,147.18627084586478 32.863686288998,147.08682158692682 32.706143914721906,147.18627084586478 32.720465948747005,147.30229490461352 33.049872731324285,147.3520194759767 33.064194765349384,147.11997134666308 32.8493642549729,147.08682158692682 33.049872731324285,146.77189853336313 33.221737139625475,146.82162326647085 33.493855786160566,146.7387487028318 33.37927951384336,146.82162326647085 33.55114392226096,146.904497787953 33.493855786160566,146.8381981741113 33.59411002427805,146.8547730800783 33.89487273886334,146.53984957825742 33.68004222842865,146.7221737850632 33.76597443257924,146.62272424297407 33.95216087490553,146.8547730800783 33.79461850062944,146.97079737475724 33.86622867069673,146.98737226733647 33.95216087490553,147.18627084586478 33.651398160436656,146.7387487028318 33.76597443257924,146.68902394443285 33.80894053465454,146.80504835708416 33.75165239855414,146.7387487028318 33.880550704780035,146.77189853336313 33.89487273886334,146.7055988656066 33.880550704780035,146.77189853336313 33.694364262511954,146.7055988656066 33.694364262511954,146.93764758476755 33.80894053465454,146.921072687197 33.78029646666255,146.80504835708416 33.89487273886334,146.8547730800783 33.78029646666255,147.08682158692682 33.651398160436656,147.136546224021 33.79461850062944,147.4017440321477 33.723008330503944,147.43489372784097 33.90919477283023,147.61721693363506 33.99512697698083,147.91556355784996 34.26724562351592,148.0978862260963 35.45597444754094,148.31335820749518 35.198177835089155,147.6669414089556 35.327076141373254,147.53434277448105 35.22682190313935,147.15312109964725 35.29843207326485,146.904497787953 36.02885580860311,146.50669970056333 36.25800835294649,146.15862557788205 36.1291100467206,146.02602571660827 36.200720216787886,145.89342574746115 37.07436429237714,144.76632165505725 37.18894056457793,144.48454441437207 37.51834734715521,144.1033156075864 38.06258464016719,143.68893545852916 38.37766938866116,143.2911295244994 38.53521176293725,141.73304693562386 38.67843210318824,141.53414170342148 38.64978803507984,141.3186607612879 39.25131346419221,140.78824492094282 39.00783888582373,140.40700746965013 38.90758464758983,139.8765886628389 39.580720246827696,139.1638356732583 39.70961855299538,138.41792804433499 40.282499913999345,138.23559454920178 40.72648296877742,137.85435112753476 41.0129236492794,137.75489617527637 40.8983473770204,137.5228343839117 41.0702117853798,137.29077226217487 41.084533819404896,136.8100711018924 40.9986016152543,136.74376738227147 41.15614398953039,136.69403957492614 41.0129236492794,136.74376738227147 40.54029652645113,136.54485606172238 40.56894059444312,136.21333665467682 40.54029652645113,136.5614320143941 40.68351686664391,136.6443117523595 40.812415172869805,136.5780079653341 40.755127036827616,136.32936852388957 40.82673720695311,136.44540031044744 40.82673720695311,136.61115986222285 40.64055076462682,136.6277358080988 40.49733042437583,136.44540031044744 40.783771104877815,135.69948024123732 40.955635513179004,135.51714370505942 41.285042295756284,135.36795911473746 41.85792365676025,135.6497521152196 41.97249992896104,135.58344792368007 42.04411009902833,135.28507872772752 42.38783891568892,135.11931782733882 42.803177902358584,134.95355675833707 42.98936434474308,135.01986120616493 43.14690671896096,135.00328509675455 43.13258468505228,134.65518640934897 43.66249994386453,134.35681551418384 44.69368639372988,133.44512328339624 44.03487282857532,132.25162756437203 44.221059270901605,131.98640510656696 43.20419485511957,130.2956017919496 44.69368639372988,129.89776316862844 44.99444910825696,130.32875496670022 45.35249995882623,130.3619081347424 45.51004233310232,130.26244861040323 45.68190674140351,130.3950612960325 45.9397033539135,130.3950612960325 46.16885589825688,130.2956017919496 46.28343217045767,130.46136759832734 46.29775420454098,130.9255109593214 46.64148302108515,131.2238881362282 46.52690674888436,131.5056883017387 46.684449123218656,131.62172352237394 47.12843217793852,132.38423863142089 47.25733048416441,132.4505441244546 47.44351692654891,132.38423863142089 47.5867372667999,132.06928717099072 47.91614404937718,131.93667584766808 48.08800845762016,132.03613435027364 47.98775421944447,132.21847478073323 48.159618627803866,132.40081500720407 48.28851693402976,132.33450949389953 48.25987286597956,132.40081500720407 48.41741524019744,132.4173913812847 48.33148303604685,132.28478034122963 48.503347444406245,132.2682039536594 48.503347444406245,132.15216919325758 48.61792371654883,132.06928717099072 48.531991512398235,132.06928717099072 48.44605930824764,132.1355927921395 48.57495761447353,132.11901638939162 48.74682202277472,132.15216919325758 48.20258472987916,132.4173913812847 48.703855920699425,133.014139726336 48.832754226983525,133.37881819496397 49.54885592823848,133.8926819248445 50.09309322113404,134.14132508350303 50.22199152741814,134.30708697848604 53.315550876781344,132.69918948320264 53.85978816979332,132.25162756437203 54.1462288502953,132.20189838636725 54.618855973065365,131.8703701455379 55.99377123953309,131.2901941013697 57.65512718638638,131.2238881362282 60.17580517480383,130.61055667996698 60.93487297819229,130.54425043833908 61.55072044121334,130.31217838019074 62.180889938317705,130.32875496670022 62.98292384366505,130.1795656271279 63.49851706856862,130.22929542214843 64.42944928025827,130.64370979070372 64.77317809686065,130.67686289460107 65.11690691340482,130.6271332361648 65.431991661957,130.46136759832734 65.74707641050918,130.46136759832734 66.69233065622393,130.1961422271852 67.1219916769769,130.03037615098583 67.32250015327008,129.79830336106534 67.68055100389756,129.81487999988894 68.41097473917762,129.61596022290178 68.7117374537047,129.30100341276557 68.65444931766251,128.85343216182082 68.9408899981645,128.73739497020142 69.32758491684217,128.75397171695658 69.11275440640748,128.24009178458073 69.22733067860827,127.92513231543126 69.09843237232417,127.64332595867745 69.11275440640748,127.49413416076277 69.19868661055807,127.49413416076277 69.04114423628198,126.79790396454337 69.14139847445767,126.1514018332382 69.48512729106005,125.25624080184207 69.88614424376283,124.85838987615716 70.65953408111818,123.83060382249823 70.83139848941937,123.31670836477133 70.80275442142738,122.48784130832064 71.27538154419744,121.36057534551946 71.61911036085803,120.94613736926112 72.12038155167829,120.63116380230349 72.73622901475755,120.00121484193369 73.38072054594522,118.82419841607043 73.62419512437191,118.1776646488288 74.11114428122528,117.99530850711744 74.55512733588694,117.39850516163278 75.256907003175,116.9011673706409 75.62927988782758,116.80169963024673 76.15919514675625,116.7851216676354 76.57453413348412,116.55303001370339 76.94690701807849,116.6359199280123 77.0328392222873,116.76854370335059 77.11877142643789,116.51987403610838 77.27631380065577,116.47014005713572 77.24766973266378,115.64123817253858 77.40521210693987,114.4807684495463 78.79444940737449,114.41445564426249 79.86860195925692,114.08289121318376 80.49877145630307,114.0 80.67063586466247,114.08289121318376" stroke="#4dd2ff" stroke-linecap="round" stroke-linejoin="round" stroke-width="0.5"><title>2024-01-21 12.0km</title><desc>10598850943</desc></polyline><polyline fill="none" points="185.30602409649873,159.74703666957794 183.5884337350144,158.08582732429204 183.08530120493378,157.84272231528303 183.0506024096976,157.53884062240832 183.57108433742542,156.3030501298199 181.7320481928764,154.74310654198052 181.00337349396432,153.58833496485022 181.35036144580226,153.10211328114383 182.40867469884688,152.43355646083364 182.85975903621875,151.84603491412417 181.61060240969528,151.17747373149905 180.67373493983177,150.89384101318137 179.4419277108973,150.1037190942734 178.69590361451264,149.88086360770103 177.4120481928112,148.9286599860934 176.37108433741378,148.6045044870989 175.72915662656305,148.15878978464752 175.31277108442737,147.51047564779583 174.8616867470555,146.072020859865 174.87903614458628,144.7956364837155 175.20867469883524,144.20809162456135 176.02409638557583,141.79711290608975 176.16289156628773,140.25731237555738 176.00674698804505,138.53515245218296 175.798554216919,137.72471892094472 175.34746987960534,137.07636963891855 174.89638554223347,135.8404477700824 174.11566265072906,134.56399554142263 173.7860240964801,134.30059958338097 173.36963855434442,133.65223876628443 172.20722891570767,132.5783863581746 172.01638554222882,132.17315747718385 171.42650602414506,131.6868816937058 170.9580722892424,131.0587736548914 169.60481927718502,130.06595354132878 168.49445783143165,130.2685703071038 168.32096385548357,130.2077852996881 168.09542168676853,129.90385997520934 168.09542168676853,129.76202799286693 167.8698795181699,130.1064769115328 168.07807228923775,129.31626965350006 167.85253012052272,129.76202799286693 167.57493975909892,129.2554843453836 167.95662650605664,130.2483086400316 167.90457831328968,130.41040191605862 167.01975903619314,130.55223342063255 166.72481927718036,131.3221740497538 166.23903614463052,131.82871225745475 166.20433734939434,132.3149876825919 165.78795180725865,133.06465988908894 165.16337349411333,135.03000289178453 164.7816867470392,135.47574799713038 164.29590361448936,135.63783687049 163.9662650602986,135.35418125263823 163.61927710851887,134.46268944634357 163.5845783132827,133.77380658588663 163.75807228923077,132.6594320320146 164.85108433739515,130.3293552951218 165.00722891575424,129.07312830592855 165.77060240972787,126.78353221609723 166.03084337356267,126.47960148357379 166.42987951810937,126.33776697744906 168.11277108441573,126.39855320713832 169.622168674774,125.72990362420387 169.98650602414273,122.62977065447194 170.1600000000326,122.04215812111215 170.4549397591618,121.79900758243457 171.59999999997672,121.67743219787371 173.43903614464216,120.86692767110071 173.97686746990075,120.13747067803342 174.21975903620478,119.46879933842865 173.87277108436683,120.31983518555353 173.40433734946419,120.82640235517465 171.68674698803807,121.59638189880934 170.73253012052737,121.67743219787371 170.2987951808027,121.88005779609375 170.05590361455688,122.4676708245097 169.84771084343083,124.716793768559 169.53542168677086,125.68937933236884 168.1648192771827,126.37829113268526 166.23903614463052,126.37829113268526 165.89204819279257,126.5403876684577 165.66650602413574,126.92536639369791 164.97253012051806,129.27574611688033 164.85108433739515,130.3496169535938 163.8448192771175,132.45681778347353 163.63662650599144,133.49014822070603 163.61927710851887,134.15877084129897 163.8448192771175,134.9489582162496 163.60192771087168,136.468540203452 163.68867469887482,136.9750648663321 163.25493975909194,138.0083710450417 163.1508433734998,139.36584328014578 163.5672289157519,141.16903786144394 163.51518072292674,142.14154028623307 161.8322891566786,143.35716140756267 161.39855421695393,143.37742169451667 160.98216867481824,143.1950790349947 161.31180722895078,144.18783142497705 159.83710843377048,143.5800244470447 160.65253012056928,145.1400584983785 160.40963855432346,145.0995382932888 159.17783132538898,144.30939259027946 159.28192771080649,144.836156752659 159.76771084347274,145.4034396231291 159.5421686746995,145.46421983157052 158.4838554217713,145.05901807978807 158.58795180736342,145.3831795493752 159.10843373497482,145.99098083363788 157.82457831333159,145.8086406498769 157.84192771092057,146.01124084342155 158.22361445787828,146.29488075604604 157.82457831333159,146.72033984136942 158.39710843382636,146.94319898696267 158.17156626511132,147.267357283592 157.20000000001164,148.01697125378996 157.06120481935795,148.05749084464333 156.78361445787596,147.67255438672146 156.22843373497017,146.3961806235602 157.02650602412177,148.01697125378996 156.50602409639396,148.68554341304116 156.50602409639396,149.09073753096163 156.93975903623505,150.2860552095517 157.4081927711959,150.77228400595777 157.61638554220553,151.7244785081566 157.85927710845135,152.02836937911343 158.51855421694927,153.7909269706579 158.8828915663762,155.81683530252485 158.29301204823423,156.6474515562586 157.02650602412177,157.2754761005781 155.95084337354638,158.16686225900776 155.7946987952455,158.06556858522526 155.89879518077942,157.47806422627764 155.74265060242033,157.4983230271173 155.55180722899968,157.80220478394767 154.857831325382,159.38238218749757 154.840481927793,160.435826584624 154.49349397595506,161.99572404738865 153.5219277109136,164.852126901038 151.94313253019936,166.91843446533312 150.555180722964,168.0326107146102 150.277590361482,168.47827940910065 150.45108433737187,168.49853705251007 150.9542168675107,168.073126093077 151.83903614460723,167.70848737975757 151.7522891567205,167.93132223104476 151.7349397590733,167.6679719245294 150.32963855430717,168.43776411590807 150.5725301206112,167.951579932007 151.68289156630635,167.18178579695814 153.3484337349655,165.27754497698334 153.60867469880031,164.7913528134668 154.28530120488722,162.46166499399988 153.0881927710725,162.42114843470335 152.18602409644518,162.21856551032397 149.0631325301365,161.99572404738865 147.7445783133153,161.75262397542247 147.25879518076545,161.81339902215404 146.73831325303763,161.46900683686545 146.49542168679181,161.46900683686545 146.252530120546,161.61081545834895 145.8534939759411,161.61081545834895 145.47180722898338,161.4082316813583 145.10746987955645,161.48926521772228 143.73686746996827,160.94228818533884 142.27951807231875,160.71944524513674 141.32530120492447,160.05091487702157 140.40578313259175,159.119020187587 140.12819277116796,158.65307115134783 139.83325301209697,158.49100165697746 139.55566265061498,158.5315190433612 138.8616867470555,158.83539916937298 137.82072289159987,159.72677810539608 136.3286746988888,160.4560850742273 135.98168674699264,160.4560850742273 133.63951807230478,161.5905570902687 132.82409638550598,161.73236562222883 132.04337349400157,162.0159823728318 131.470843373565,162.74528067029314 130.8115662651253,163.271994389288 129.8573493976146,163.393543504455 129.0245783132268,164.02154604368843 127.91421686753165,165.23702901028446 127.35903614462586,165.39909282606095 126.52626506029628,165.90554137127765 125.60674698802177,165.88528345503437 125.58939759037457,166.24992562108673 124.98216867476003,167.36410573869944 125.10361445794115,168.2149298506556 124.51373493979918,168.47827940910065 123.80240963859251,169.4101288007805 123.143132530211,170.05836919610738 122.62265060248319,170.2406864141085 121.61638554220553,170.220428953995 120.76626506022876,170.54454806042486 120.33253012050409,171.5169021066249 119.41301204828778,172.59053732876782 119.30891566269565,173.31979557518207 118.49349397595506,174.27187857373792 117.67807228921447,174.21110745916667 116.74120481935097,174.49470582978392 115.57879518071422,174.59599086093658 114.85012048197677,174.45419180240424 114.90216867474373,174.71753282795544 114.0,176.47988272993825 114.24289156636223,176.90527511750406 114.10409638559213,177.18886952046887 114.29493975907099,177.2091262476024 114.3990361446049,177.43195010488853 114.46843373496085,177.7965704062517 114.48578313254984,177.71554373232357 114.65927710849792,177.93836700369138 115.09301204822259,179.35632723562594 115.16240963857854,178.9917098873848 114.83277108438779,178.24221650372783 115.19710843375651,178.0599068612355 115.59614457836142,178.14093339031388 117.03614457830554,177.7965704062517 117.12289156630868,176.64193708363746 119.55180722899968,176.23680094374868 120.1937349397922,175.85192082141293 121.75518072297564,175.60883824247867 122.51855421694927,175.6290951357514 122.4838554217713,176.19628728287353 122.53590361453826,175.7303795702901 122.95228915667394,175.71012268766935 123.143132530211,175.77089332918695 124.479036144563,177.41169340128545 126.630361445772,179.33607073436724 128.71228915674146,180.30838039018272 130.18698795186356,180.5312006615859 130.75951807235833,180.49068790409365 131.3146987952059,180.2881239890703 131.41879518079804,180.36914958065609 131.67903614469105,180.2881239890703 133.344578313292,180.26786758587696 133.83036144578364,180.16658553780871 134.33349397592247,179.88299551978707 134.5763855422265,179.92350840507424 134.87132530123927,179.6399180291337 134.90602409641724,179.7817132693017 135.28771084343316,179.05247949340264 136.06843373499578,178.28272973418643 136.25927710847463,177.9181103533192 136.93590361444512,177.22938297248038 137.4910843373509,176.78373453122913 137.9074698795448,176.19628728287353 138.75759036146337,175.77089332918695 139.34746987954713,175.6290951357514 140.7354216868407,175.66960891596682 141.49879518075613,175.83166395151056 142.24481927714078,176.47988272993825 143.26843373500742,176.62168029685563 144.67373493983177,176.2773145960964 144.53493975906167,176.3380850586109 144.39614457834978,176.35834187522414 145.54120481928112,175.95320513869228 146.02698795183096,175.85192082141293 146.28722891572397,175.95320513869228 146.30457831331296,175.68986580288038 147.43228915665532,175.48729683794954 147.88337349402718,175.06190131809853 148.24771084345412,175.26447073044255 148.664096385648,175.0213874100882 149.13253012055065,175.18344299112505 149.4795180723886,175.60883824247867 149.89590361446608,175.77089332918695 149.91325301211327,176.03423255414236 150.12144578323932,176.1355167756119 150.1561445783591,176.35834187522414 150.4337349398411,176.84450483391993 150.97156626509968,177.59400365743204 151.1971084337565,177.39143669547047 151.44000000006054,177.43195010488853 151.59614457836142,177.0673291132407 151.7349397590733,177.0673291132407 151.80433734948747,176.88501835842908 152.11662650614744,176.86476159727317 152.32481927715708,176.54065312858438 152.46361445781076,176.5811667169619 152.75855421693996,176.47988272993825 152.8279518072959,176.21654411435884 152.9493975904188,176.31782823990216 153.01879518077476,176.11525993561372 153.19228915672284,176.1760304492782 153.3657831325545,175.95320513869228 153.5219277109136,176.03423255414236 153.79951807233738,175.83166395151056 154.61493975907797,175.7506364507717 155.62120481929742,175.7303795702901 156.26313253014814,175.8721776891034 156.8703614458791,175.54806754985475 157.6510843373835,175.48729683794954 157.89397590362933,175.66960891596682 158.39710843382636,175.7506364507717 160.98216867481824,175.6290951357514 162.07518072292442,175.99371885070286 162.69975903612794,175.99371885070286 163.7060240964056,175.26447073044255 164.62554216873832,174.94035956835432 165.5797590361908,174.41367776649713 165.92674698797055,173.9275086708658 166.3778313253424,173.64390946486674 166.75951807230012,173.8869945241022 167.15855421690503,173.96802280901466 168.37301204819232,174.04905105983198 168.84144578315318,173.90725159850263 169.8824096386088,173.07670979987597 170.5590361445793,171.9220481767261 170.88867469888646,171.2130419946916 172.12048192776274,170.64583516934363 172.74506024102448,170.15965656074695 173.5257831325871,169.08600778470282 173.94216867472278,169.04549261933425 175.01783132529818,169.28858348367794 176.30168674699962,170.2406864141085 175.10457831335953,169.2683259234036 175.10457831335953,169.14678051680676 175.815903614508,168.78214383669547 176.5966265060706,168.66059812318417 176.82216867478564,168.76188622305926 178.00192771089496,168.55930997001997 178.38361445785267,168.66059812318417 179.45927710854448,166.9589500782604 179.47662650607526,166.67534060872276 179.75421686749905,166.22966774106317 181.38506024098024,166.91843446533312 181.81879518082133,166.63482493607444 182.02698795194738,166.43224644513975 182.18313253024826,165.8042517688009 181.90554216870805,165.0952230595576 181.957590361475,164.58877238293644 182.6515662650927,164.32541750463133 182.77301204833202,163.677157808037 183.3108433735324,163.33276895649033 183.9874698795611,162.42114843470335 186.0,160.82073752266297 185.82650602416834,160.19272454307065 185.16722891572863,159.52419234592526" stroke="#4dd2ff" stroke-linecap="round" stroke-linejoin="round" stroke-width="0.5"><title>2024-01-14 17.6km</title><desc>10586205778</desc></polyline><polyline fill="none" points="20.805171645013615,255.5818631296279 20.70887204632163,255.69446634090855 20.098974587628618,255.80706951659522 19.42487739631906,255.95720702852122 17.113687026314437,256.93309930805117 15.829692376311868,257.12077059264993 14.83459652250167,256.85803076651064 14.4493981275009,257.0832363436057 14.38519839500077,257.6462496613385 14.160499331192113,258.20926208564197 14.096299598691985,257.9840572231333 14.19259919738397,256.6328250463994 14.320998662384227,255.9196726565424 14.417298261076212,255.05638100396027 14.995095853693783,254.83117414050503 14.417298261076212,254.45582905047922 14.353098528692499,254.118018129986 14.898796255001798,254.08048356344807 15.316094516194426,253.8928106709791 15.283994649886154,253.55499921450973 14.513597859884612,253.10458343903883 14.545697726192884,252.76677123215632 15.091395452502184,252.87937533689546 15.476593847502954,252.80430593772326 15.476593847502954,252.31635445624124 14.513597859884612,251.865937108465 14.481497993692756,251.41551918908954 15.316094516194426,251.678263044887 16.086491306195967,251.45305403752718 15.990191707503982,251.19031001493568 15.123495318810456,250.5897515185643 14.770396789885126,249.8390519687382 14.995095853693783,249.6889118682593 15.637093178695068,250.1017969918321 16.31119037012104,249.98919200568344 15.701292911195196,249.4261665394588 15.348194382386282,248.1124369771569 15.733392777503468,246.76116721023573 16.632189032505266,244.80932401795872 17.498885421198793,243.83339839568362 18.365581810008734,241.9566108083527 19.071778867510147,240.3801015635836 19.48907712881919,239.66691650883877 20.35577351762913,238.35315081346198 21.800267498823814,236.77662555780262 22.506464556325227,235.83821434192942 22.634864021325484,235.3127029768366 23.180561747634783,233.92384776534163 24.271957200253382,230.3203061883687 25.106553722638637,228.93143143411726 27.610343290143646,227.58008861675626 28.765938475262374,226.37889068041113 29.375835933955386,223.97648260684218 29.472135532763787,222.1746658756456 29.793134195148014,219.77222933238954 29.7289344627643,218.79623483956675 29.600534997764044,217.63254558874178 29.119037004071288,216.80669928871794 29.761034329072572,216.65654520923272 29.88943379407283,216.5439296081313 29.183236736455,216.24362116359407 29.24743646895513,215.94331246474758 30.0820329914568,215.68054214477888 29.6326348639559,215.49284893993172 29.119037004071288,215.15500092081493 29.24743646895513,214.96730743799708 30.30673205514904,214.70453639506013 30.370931787765585,214.44176515750587 29.88943379407283,214.47930391767295 29.15113687014673,214.14145493326942 28.444939812645316,213.09036714682588 28.60543914383743,211.58880776393926 29.119037004071288,210.91310396790504 29.761034329072572,210.61279075665516 30.5314311189577,210.80048654356506 32.39322336157784,211.2134169250494 33.58091841277201,211.51372962794267 35.18591172527522,211.814042076614 38.010699955397286,210.57525158740464 40.22559072659351,209.74938885794836 40.80338831921108,209.11122088646516 41.41328577790409,208.32289416028652 41.894783771713264,208.02257875620853 42.18368256802205,208.69828805790166 43.114578689215705,209.03614222622127 44.623272402910516,209.3739960725652 45.84306732052937,209.97462433838518 47.12706197053194,210.61279075665516 48.60365581815131,210.61279075665516 51.588943379349075,209.86200661602197 53.803834150661714,209.29891746793874 56.403923316975124,209.67431033265893 58.68301382055506,209.22383884718874 60.48060633079149,208.66074868605938 61.66830138210207,208.51059115875978 62.47079803829547,208.24781533310306 62.85599643329624,208.39797297152109 64.78198840841651,207.98503931279993 65.74498439591844,208.1727364900289 66.64378065092023,208.66074868605938 69.05127061961684,208.77336678977008 70.14266607211903,208.58566993032582 71.13776192592923,208.0601181955717 71.71555951843038,207.4970261871058 72.5180561747402,206.8588541636709 73.60945162724238,207.12163101820624 74.89344627736136,207.04655193685903 75.95274186343886,206.67115629123873 76.91573785094079,206.59607711443095 77.42933571117464,205.46988755566417 78.61703076236881,204.7566323193314 80.09362460987177,203.8556762864464 80.92822113237344,202.91717798550962 81.79491752118338,202.12883749394678 83.88140882737935,200.8524729833589 84.52340615238063,200.47707078259555 85.06910387868993,200.7398523647862 85.51850200630724,200.92755337574636 85.93580026738346,200.96509356604656 84.97280427988153,200.32690979112522 84.29870708857197,200.7398523647862 84.49130628618877,200.62723171059042 84.84440481488127,200.62723171059042 84.23450735607184,200.40199029477662 83.88140882737935,200.47707078259555 84.0098082923796,200.6647719325847 84.10610789130442,200.8524729833589 81.82701738737524,202.12883749394678 79.64422648237087,204.23107491157134 78.58493089606054,204.9443312046933 78.19973250105977,205.95790347008733 77.87873383855913,207.12163101820624 77.9108337048674,207.90996041405015 78.64913062867709,209.97462433838518 78.64913062867709,211.02572135668015 78.00713330344297,211.47619055391988 77.4614355773665,211.814042076614 77.04413731605746,212.4897441563371 76.97993758355733,213.61591142934049 76.91573785094079,214.47930391767295 76.65893892105669,215.7556193989294 75.88854213105515,216.24362116359407 75.4712438697461,215.7931580200966 75.31074453855399,215.98085106606595 74.28354881855194,216.8817763044499 73.35265269724187,217.25716114521492 73.28845296474174,217.21962267905474 73.83415069105104,217.7826992550108 74.09094962093513,218.8713114343118 74.34774855093565,219.80976752843708 74.70084707974456,220.82329732188373 74.79714667843655,221.5740582649887 75.05394560855348,222.02451406838372 75.43914400355425,223.6761804537673 75.66384306724649,224.42693535980652 75.76014266605489,225.2152263013122 75.920641997247,226.15366561463452 76.30584039236419,227.46747648302699 76.69103878736496,228.44344712162274 77.01203744974919,229.2692663342459 76.53053945594002,229.75724951087614 76.7231386534404,230.28276910437853 77.33303611236624,230.58306566541432 76.56263932224829,230.50799154897686 76.40213999105617,231.07104703513323 76.40213999105617,231.82178629332338 76.17744092736393,233.285723277746 76.40213999105617,233.8487743557489 78.7133303610608,234.07399453679682 78.77753009356093,234.5244344699022 78.03923316986766,235.87575083816773 77.33303611236624,236.17604266558192 77.23673651367426,236.73908915693755 76.91573785094079,238.27807834098348 76.81943825236522,238.8411214967491 76.62683905486483,240.49270959905698 76.20954079355579,241.54371620697202 76.17744092736393,242.06921834350214 75.5675434685545,242.36950492925826 74.25144895212725,241.99414665740915 73.73785109224264,242.219361668278 73.44895229593385,242.70732703449903 72.80695497093257,243.83339839568362 71.87605884973891,244.54657507600496 70.81676326342858,245.10960828489624 68.82657155604102,245.8978532763722 67.67097637092229,247.24912633077474 67.28577797592152,248.22504255876993 67.12527864461299,248.75053480052156 67.15737851092126,248.82560505729634 66.93267944699619,248.90067529815133 65.48818546580151,250.06426200046553 64.1720909497235,250.28947188917664 62.663397235795856,250.2519369176298 61.37940258579329,250.9651006978529 60.38430673198309,251.45305403752718 59.45341061067302,252.46649344501202 58.26571555947885,253.74267228558892 57.30271957197692,254.60596713414998 54.734730271971785,256.25748186191777 52.6482389656594,257.4585786545649 51.492643780540675,258.0966596722719 50.36914846173022,258.65967138210544 49.02095407922752,259.0725460682879 47.961658493150026,259.26021622138796 45.93936691933777,259.6730902088748 44.78377173410263,258.7722736168653 43.37137761921622,257.6837838506617 41.25278644671198,256.25748186191777 40.00089166290127,255.5443287177477 39.32679447159171,255.01884653660818 39.45519393659197,254.9062431108614 39.968791796592996,254.19308725121664 40.129291127901524,254.08048356344807 39.968791796592996,254.3807599848078 39.64779313409235,254.53089810025995 39.67989300051704,255.31912216401543 41.86268390552141,256.6328250463994 43.75657601421699,257.7963863950572 44.94427106552757,258.547069111577" stroke="#4dd2ff" stroke-linecap="round" stroke-linejoin="round" stroke-width="0.5"><title>2024-01-07 7.5km</title><desc>10586205581</desc></polyline><polyline fill="none" points="158.0773694384843,203.01396980381105 156.82398452609777,203.74554399697809 156.26692456472665,205.2086903070449 156.3365570595488,205.0461186314933 156.75435203080997,206.34669107868103 157.45067698229104,208.37883114855504 157.6595744676888,209.11040026659612 157.03288201149553,210.65482168697054 160.02707930328324,212.68695043597836 162.04642166336998,211.22381827502977 162.81237911013886,211.30510346783558 164.83172146975994,214.71907384495717 164.62282398436219,216.1009147130535 165.1798839457333,217.8078911997727 164.97098646033555,217.56403764669085 165.38878143113106,217.48275311174802 164.76208897447214,217.23889945610426 165.24951644055545,216.9137611289043 164.48355899425223,217.4014685684815 164.83172146975994,217.23889945610426 164.205029013101,216.1009147130535 164.55319148907438,215.93834532733308 163.50870406161994,216.34476872748928 155.77949709817767,220.89669621759094 153.4119922630489,222.5223781138193 151.6015473883599,223.74163729336578 146.5183752416633,226.66785148129566 143.10638297814876,227.56197027507005 139.9032882009633,229.18763816042338 137.60541586065665,230.48817000794224 136.4216634426266,229.83790435752599 135.02901353966445,226.74913505080622 132.80077369417995,225.69244798226282 131.96518375212327,226.2614335065009 130.22437137318775,226.2614335065009 130.57253384916112,227.56197027507005 130.22437137318775,228.53737141628517 127.7872340423055,230.56945317605278 126.74274661485106,231.05715200398117 126.18568665347993,230.3256036468083 125.2108317213133,230.65073633543216 125.48936170199886,229.91918759368127 125.69825918739662,227.96838756668149 127.57833655690774,233.25179292313987 127.71760154748335,233.5769243815448 128.62282398436219,234.22718688839814 126.04642166336998,235.28386229585158 125.62862669210881,236.09668855008204 125.2108317213133,236.3405362596386 124.86266924580559,239.18542052432895 124.86266924580559,240.72978188598063 121.17214700160548,241.94901236146688 121.03288201149553,241.29875634703785 120.26692456472665,241.29875634703785 119.01353965187445,238.37259751663078 118.10831721452996,237.3972087794682 116.15860735019669,233.5769243815448 114.97485493216664,231.54485052404925 114.0,230.08175404072972 114.83558994205669,231.05715200398117 116.36750483559445,233.73949005955365 118.24758220463991,236.90951394970762 120.0580270793289,239.99824267806252 120.26692456472665,240.81106397736585 118.52611218579113,242.68054972414393 116.64603481581435,243.8184953573509 117.96905222442001,243.98105888266582 118.31721470039338,242.9243953578989 117.8994197291322,243.41208639496472 117.8297872338444,244.7125943233259 118.17794970981777,245.76925540488446 119.70986460335553,246.58207063918235 122.6344294003211,244.4687492531957 123.81818181788549,242.76183161057997 125.97678916808218,241.3800383785856 127.57833655690774,242.2741401634412 130.3636363632977,245.03772096370813 132.38297872338444,244.30618583073374 135.44680851092562,242.43670401332201 138.16247582202777,241.29875634703785 139.76402321085334,243.65593179804273 141.6441005798988,241.46132040175144 142.27079303655773,241.21747430658434 142.34042553184554,240.56721767724957 142.41005802666768,238.86029142391635 139.9032882009633,235.28386229585158 136.70019342331216,236.90951394970762 135.79497098643333,236.66566641954705 138.37137330742553,241.54260241659358 141.01740812370554,246.41950766101945 140.52998065762222,246.82591504306765 137.7446808507666,244.14362237381283 135.93423597654328,244.06234063243028 134.05415860703215,245.76925540488446 134.05415860703215,247.72001053224085 136.14313346194103,251.62150602642214 138.16247582202777,254.30377276235959 140.80851063830778,254.71017600153573 142.27079303655773,253.8973693093285 142.82785299792886,252.2717533618561 141.6441005798988,248.61410498799523 141.3655705996789,247.39488501957385 143.10638297814876,250.3210097150295 143.7330754348077,251.13382016582182 140.3907156670466,245.85053696716204 139.0676982589066,243.33080457663164 139.48549322970212,243.8184953573509 141.85299806529656,242.51798592548585 141.43520309450105,242.9243953578989 141.92263056058437,242.51798592548585 142.20116054126993,242.35542209277628 141.99226305633783,242.35542209277628 142.68858800735325,241.78644840908237 141.92263056058437,242.1115762796253 141.92263056058437,242.2741401634412 141.85299806529656,242.2741401634412 141.57446808507666,242.68054972414393 141.78336557047442,242.59926782915136 141.57446808507666,242.03029432467883 141.6441005798988,241.29875634703785 141.6441005798988,242.1928582257824 141.78336557047442,241.70516642002622 142.41005802666768,242.03029432467883 141.50483558978885,241.46132040175144 141.7137330751866,241.54260241659358 141.78336557047442,241.86773038946558 141.3655705996789,242.2741401634412 141.43520309450105,241.78644840908237 141.99226305633783,241.21747430658434 141.57446808507666,241.86773038946558 141.57446808507666,242.2741401634412 141.6441005798988,241.29875634703785 141.7137330751866,242.1928582257824 141.7137330751866,241.21747430658434 141.78336557047442,241.3800383785856 141.50483558978885,241.29875634703785 141.7137330751866,241.29875634703785 142.34042553184554,242.1928582257824 142.06189555115998,241.3800383785856 142.06189555115998,241.70516642002622 141.7137330751866,241.86773038946558 141.7137330751866,241.94901236146688 141.43520309450105,241.3800383785856 140.87814313312992,242.1928582257824 142.06189555115998,241.78644840908237 142.68858800735325,241.70516642002622 142.13152804644778,238.53516218654113 141.43520309450105,236.8282314480748 140.18181818164885,234.30846966349054 142.41005802666768,232.76409547933144 141.7137330751866,230.00047082151286 141.7137330751866,229.43148804816883 144.49903288204223,227.8058206756832 148.6073500965722,225.61116430186667 151.88007736951113,223.74163729336578 153.27272727247328,223.01008201640798 154.31721469992772,222.35981007793453 154.38684719521552,222.19724200788187 159.67891682777554,219.18972654861864 162.1160541586578,217.88917570048943 163.16054158611223,216.9950457236846 163.29980657622218,216.26348406460602 165.66731141181663,216.66990729392273 165.87620889721438,217.4014685684815 166.92069632466882,216.58862266497454 167.6866537714377,215.53192171355477 167.82591876154765,214.39393445826136 171.86460348125547,214.23136471374892 173.6750483554788,214.55650416889694 180.63829787215218,216.18219939322444 180.91682785237208,216.7511919143144 181.68278529960662,217.64532217284432 185.65183752402663,217.88917570048943 186.0,220.24642250215402 185.58220502873883,223.17264991556294 184.9555125720799,224.31062425271375 183.49323017336428,224.63575947011122 181.1257253382355,226.34271711844485 180.63829787215218,227.56197027507005 179.0367504833266,228.21223783917958 178.06189555069432,230.00047082151286 178.75822050264105,230.40688683168264 177.92263056058437,230.65073633543216 177.85299806576222,232.19511473953025 176.59961315244436,233.33307580085238 173.605415860191,232.27639772801194 172.97872340399772,230.81330262846313 172.90909090917557,230.81330262846313 172.63056092802435,230.40688683168264 173.3268858799711,230.56945317605278 173.8143133460544,230.40688683168264 172.76982591859996,230.81330262846313 173.04835589928553,230.65073633543216 172.90909090917557,230.9758688871516 173.8839458413422,232.92666132817976 171.0986460344866,234.5523179367883 170.12379110231996,233.9020557035692 170.2630560924299,234.06462131324224 170.88974854908884,234.3897524299682 168.03481624741107,231.78869966900675 170.88974854908884,235.20257962337928 169.77562862681225,236.25925369816832 165.59767891699448,237.55977365438594 163.64796905219555,238.04746807418996 161.2108317213133,239.10413826204604 159.67891682777554,240.64849978574784 159.19148936169222,242.51798592548585 159.1218568664044,244.63131264183903 159.05222437158227,247.15104079508455 159.40038684708998,247.39488501957385 161.07156673120335,246.98847793636378 162.39458413934335,246.58207063918235 163.64796905219555,246.66335211566184 163.7176015470177,248.4515424364945 163.7176015470177,248.6953862507944 163.99613152770326,250.80869608797366 163.99613152770326,253.65352713491302 163.8568665375933,256.01066493283724 163.92649903241545,256.98603019618895" stroke="#4dd2ff" stroke-linecap="round" stroke-linejoin="round" stroke-width="0.5"><title>2024-01-01 6.1km</title><desc>10666129243</desc></polyline></svg>