<?xml version="1.0" encoding="utf-8" ?>
<svg baseProfile="full" height="200mm" version="1.1" viewBox="0,0,200,200" width="200mm" xmlns="http://www.w3.org/2000/svg" xmlns:ev="http://www.w3.org/2001/xml-events" xmlns:xlink="http://www.w3.org/1999/xlink"><defs /><rect fill="#1a1a1a" height="200" width="200" x="0" y="0" /><text alignment-baseline="middle" fill="#e1ed5e" style="dominant-baseline: central; font-size:9.0px; font-family:Arial;" text-anchor="middle" x="100.0" y="100.0">2024</text><line stroke="#e1ed5e" stroke-width="0.3" x1="100.0" x2="100.0" y1="15.0" y2="10.0" /><path d="M 100.0 14.0 a86.0,86.0 0 0,1 42.35913384403234,11.155469271406648" fill="none" id="id1" stroke="none" /><text fill="#e1ed5e" style="font-size:6.75px; font-family:Arial;" text-anchor="middle"><textPath startOffset="22.145653131862478" xlink:href="#id1">January</textPath></text><path d="M 100.0 79.0 l 0.0 -16.96397012459925 a37.96397012459925,37.96397012459925 0 0,0 0.6517020299567298,0.005594078124149563 l -0.291209105107875 16.961470444669533" fill="#ff9d0e" stroke="none" /><path d="M 102.15924093988457 79.11130261209362 l 2.162107757412945 -20.9164312469262 a42.027881635154216,42.027881635154216 0 0,0 0.7170038629355696,0.080341778368872 l -2.520847521949311 20.876233708050357" fill="#ffd714" stroke="none" /><path d="M 104.64783097203109 79.52079915486377 l 10.884805632907828 -47.96046200001501 a70.18012717471424,70.18012717471424 0 0,0 1.1725690510501408,0.27672310330783456 l -11.706506837697853 47.76654275306095" fill="#3aff94" stroke="none" /><path d="M 107.06938296918511 80.22567764915836 l 11.32036107907792 -31.665064699615748 a54.62776973561514,54.62776973561514 0 0,0 0.8803157094986978,0.32326412217104433 l -11.862265940230742 31.46606972843598" fill="#85ff25" stroke="none" /><line stroke="#e1ed5e" stroke-width="0.3" x1="143.13028292997686" x2="145.6673583964461" y1="26.7553504044142" y2="22.446841604673864" /><path d="M 143.63769802327073 25.89364864446614 a86.0,86.0 0 0,1 29.32050498858742,28.57503671076993" fill="none" id="id2" stroke="none" /><text fill="#e1ed5e" style="font-size:6.75px; font-family:Arial;" text-anchor="middle"><textPath startOffset="20.669276256404974" xlink:href="#id2">February</textPath></text><path d="M 113.86319453409587 84.22622945171908 l 4.393091601012504 -4.99853181324997 a27.654665589115552,27.654665589115552 0 0,0 0.3538940864428327,0.31645427431640694 l -4.478250714278712 4.922382009050176" fill="#ff0000" stroke="none" /><path d="M 114.39649973595853 84.71141617570332 l 6.639079953012125 -7.050472839888221 a30.684345609719273,30.684345609719273 0 0,0 0.3803799721632306,0.3643954087892959 l -6.759132411040667 6.935465300793345" fill="#ff3004" stroke="none" /><path d="M 114.91283532996326 85.21462403516908 l 10.301088583110955 -10.213045619990643 a35.505816999849024,35.505816999849024 0 0,0 0.42541581871837614,0.436514107093163 l -10.474891202980144 10.034708820829739" fill="#ff790b" stroke="none" /><path d="M 115.16444852881244 85.47280134310134 l 13.882821594553924 -13.299429045453152 a40.22518006056785,40.22518006056785 0 0,0 0.47340088518466006,0.5027353348650693 l -14.109078313474845 13.059152250643589" fill="#ffbe11" stroke="none" /><line stroke="#e1ed5e" stroke-width="0.3" x1="172.87174338648825" x2="177.1583165268699" y1="56.24261187166439" y2="53.66864786411523" /><path d="M 173.72905801456457 55.72781907015455 a86.0,86.0 0 0,1 12.242430191666344,42.057860355516425" fill="none" id="id3" stroke="none" /><text fill="#e1ed5e" style="font-size:6.75px; font-family:Arial;" text-anchor="middle"><textPath startOffset="22.145653131862474" xlink:href="#id3">March</textPath></text><path d="M 118.36410011445183 89.81374322990088 l 34.87688378900349 -19.345619518601808 a60.882953970213414,60.882953970213414 0 0,0 0.4991087454822552,0.9183038758977766 l -35.20383788410109 18.744060809229428" fill="#3fff2d" stroke="none" /><path d="M 119.4528033332814 92.08871423366111 l 35.08496144922738 -14.26874838398933 a58.87547623910978,58.87547623910978 0 0,0 0.37271351539179576,0.9394815332758377 l -35.324733639585304 13.664365833499927" fill="#55ff2b" stroke="none" /><path d="M 120.16314734710363 94.1308016681162 l 16.594158707792065 -4.830317753977955 a38.28288381097859,38.28288381097859 0 0,0 0.17825514794147893,0.6325646348833899 l -16.674632347808124 4.544745195191552" fill="#ffa20f" stroke="none" /><path d="M 120.26092885502905 94.47779374421319 l 34.53656977327905 -9.41309566901126 a56.79638280299464,56.79638280299464 0 0,0 0.2483097806455346,0.9428726822014023 l -34.69306903472931 8.818842482437061" fill="#6cff28" stroke="none" /><path d="M 120.99303781780057 99.45929381324524 l 34.33981171696325 -0.8844717381307998 a55.35120025577037,55.35120025577037 0 0,0 0.01631165185136997,0.9500719446193444 l -34.34993480041328 0.294852877542389" fill="#7dff26" stroke="none" /><line stroke="#e1ed5e" stroke-width="0.3" x1="184.99686870605535" x2="189.99668451229388" y1="99.2704041080226" y2="99.22748670261217" /><path d="M 185.99683186730306 99.26182062694052 a86.0,86.0 0 0,1 -10.086455211305974,41.156179273409016" fill="none" id="id4" stroke="none" /><text fill="#e1ed5e" style="font-size:6.75px; font-family:Arial;" text-anchor="middle"><textPath startOffset="21.40746469413373" xlink:href="#id4">April</textPath></text><path d="M 120.96210409425399 101.26102812881392 l 40.165622418165185 2.416264104637705 a61.2382350067939,61.2382350067939 0 0,0 -0.07213292187194588,1.0487968530178624 l -40.11822553512817 -3.1054043818099113" fill="#3bff2e" stroke="none" /><path d="M 120.93736805541906 101.62068470465957 l 22.38818833456762 1.7329873698943925 a43.45516025612561,43.45516025612561 0 0,0 -0.06395436088599794,0.7432466165199123 l -22.35514035098388 -2.117055033789962" fill="#ffea16" stroke="none" /><path d="M 119.83427380445688 106.89939002012753 l 15.174934246739005 5.278629857096976 a37.06681557002158,37.06681557002158 0 0,0 -0.21421059212334936,0.5991851506808435 l -15.082083484571712 -5.5383499641587415" fill="#ff900d" stroke="none" /><path d="M 118.8641267826498 109.22738970284198 l 24.279473592942477 11.87630719424538 a48.02849441834442,48.02849441834442 0 0,0 -0.3686303285075516,0.737507592682544 l -24.072023351223194 -12.29134664309167" fill="#d7ff1c" stroke="none" /><path d="M 118.70294669586154 109.54985784667822 l 32.064472268948734 16.372348008935543 a57.00255770375041,57.00255770375041 0 0,0 -0.45246982938119235,0.8676705582217229 l -31.778694370592593 -16.92036481026177" fill="#6aff28" stroke="none" /><line stroke="#e1ed5e" stroke-width="0.3" x1="174.33088141563837" x2="178.70328620479359" y1="141.23008692659167" y2="143.65538615756765" /><path d="M 175.20536237346943 141.71514677278685 a86.0,86.0 0 0,1 -30.301960400862466,31.631185727798858" fill="none" id="id5" stroke="none" /><text fill="#e1ed5e" style="font-size:6.75px; font-family:Arial;" text-anchor="middle"><textPath startOffset="22.145653131862474" xlink:href="#id5">May</textPath></text><path d="M 118.18653347947321 110.5 l 16.97316652212343 9.799462260548303 a40.59892452109661,40.59892452109661 0 0,0 -0.3536481254936141,0.6005718319531919 l -16.802444686500053 -10.089385260795044" fill="#ffc312" stroke="none" /><line stroke="#e1ed5e" stroke-width="0.3" x1="143.1302829299769" x2="145.66735839644613" y1="173.24464959558577" y2="177.55315839532614" /><path d="M 143.63769802327073 174.10635135553383 a86.0,86.0 0 0,1 -40.68552437913181,11.842963189579606" fill="none" id="id6" stroke="none" /><text fill="#e1ed5e" style="font-size:6.75px; font-family:Arial;" text-anchor="middle"><textPath startOffset="21.407464694133747" xlink:href="#id6">June</textPath></text><path d="M 101.08105385017728 120.97215588758144 l 0.7197248905912468 13.962470601419938 a34.98100816156162,34.98100816156162 0 0,0 -0.5999646670479347,0.025765064292114493 l -0.4799344629424825 -13.972768234137883" fill="#ff720a" stroke="none" /><line stroke="#e1ed5e" stroke-width="0.3" x1="101.45913802915013" x2="101.54496967792366" y1="184.9874750549273" y2="189.98673829345242" /><path d="M 101.47630435890484 185.9873277026323 a86.0,86.0 0 0,1 -42.54439059252881,-10.42667462771756" fill="none" id="id7" stroke="none" /><text fill="#e1ed5e" style="font-size:6.75px; font-family:Arial;" text-anchor="middle"><textPath startOffset="22.145653131862474" xlink:href="#id7">July</textPath></text><line stroke="#e1ed5e" stroke-width="0.3" x1="58.13341422392154" x2="55.67067388415222" y1="173.97424548756322" y2="178.32567169271397" /><path d="M 57.64086615596768 174.84453072859336 a86.0,86.0 0 0,1 -31.369924170532247,-30.572349798747897" fill="none" id="id8" stroke="none" /><text fill="#e1ed5e" style="font-size:6.75px; font-family:Arial;" text-anchor="middle"><textPath startOffset="22.145653131862474" xlink:href="#id8">August</textPath></text><line stroke="#e1ed5e" stroke-width="0.3" x1="26.387840678322732" x2="22.057713659400548" y1="142.50000000000003" y2="145.00000000000006" /><path d="M 25.521815274538298 143.00000000000003 a86.0,86.0 0 0,1 -11.493303480769221,-40.785679425670985" fill="none" id="id9" stroke="none" /><text fill="#e1ed5e" style="font-size:6.75px; font-family:Arial;" text-anchor="middle"><textPath startOffset="21.40746469413373" xlink:href="#id9">September</textPath></text><line stroke="#e1ed5e" stroke-width="0.3" x1="15.003131293944662" x2="10.003315487706104" y1="100.72959589197737" y2="100.7725132973878" /><path d="M 14.003168132696942 100.73817937305945 a86.0,86.0 0 0,1 10.791469493833604,-42.45332614584628" fill="none" id="id10" stroke="none" /><text fill="#e1ed5e" style="font-size:6.75px; font-family:Arial;" text-anchor="middle"><textPath startOffset="22.145653131862435" xlink:href="#id10">October</textPath></text><path d="M 79.01933749520258 99.09900007780938 l -30.05369365024556 -1.290634918426448 a51.08139359330734,51.08139359330734 0 0,0 0.04514235587786263,-0.8757496441531788 l 30.027109704911126 1.806356355956339" fill="#b0ff20" stroke="none" /><path d="M 79.06263194458094 98.37931529534042 l -11.745089770255547 -0.9091442293569572 a32.780223976696476,32.780223976696476 0 0,0 0.048243712870298494,-0.5606650721304972 l 11.727752434687504 1.110630348863135" fill="#ff5007" stroke="none" /><path d="M 79.34024301695615 96.23510406497455 l -24.26087109665031 -4.4211388859472365 a45.660420422553976,45.660420422553976 0 0,0 0.1471433307595069,-0.7699160833869916 l 24.181401473608645 4.836957534367543" fill="#f6ff19" stroke="none" /><path d="M 79.407916724674 95.88100663000787 l -32.802568157433996 -6.56143232098728 a54.4523672081065,54.4523672081065 0 0,0 0.19121153375990266,-0.9150164083955544 l 32.685098912849725 7.123565180668244" fill="#88ff25" stroke="none" /><line stroke="#e1ed5e" stroke-width="0.3" x1="26.387840678322718" x2="22.05771365940052" y1="57.49999999999999" y2="54.99999999999999" /><path d="M 25.521815274538284 56.99999999999999 a86.0,86.0 0 0,1 29.574782752854787,-30.34633250058573" fill="none" id="id11" stroke="none" /><text fill="#e1ed5e" style="font-size:6.75px; font-family:Arial;" text-anchor="middle"><textPath startOffset="21.40746469413373" xlink:href="#id11">November</textPath></text><path d="M 82.576782715395 88.27688183743585 l -31.179777360262992 -20.97914571723671 a58.58062095363274,58.58062095363274 0 0,0 0.5685396082896313,-0.8295162795066131 l 30.815048015158048 21.51129673181336" fill="#58ff2a" stroke="none" /><path d="M 82.78059297857968 87.97951657250589 l -41.59206838816143 -29.034493937751076 a71.72378131632934,71.72378131632934 0 0,0 0.7134292853961556,-1.0035276351068465 l 41.0875240042353 29.744198799567442" fill="#3cffa6" stroke="none" /><path d="M 82.98947788004972 87.6856937992154 l -23.345374646277186 -16.90025089994891 a49.82056553671814,49.82056553671814 0 0,0 0.5074532548331434,-0.6884577994006053 l 23.051819371860223 17.298515008618377" fill="#c0ff1e" stroke="none" /><path d="M 83.2033758604659 87.39550010848427 l -40.34980188061817 -30.27924356715647 a71.44738945480057,71.44738945480057 0 0,0 0.7445771383514219,-0.9746753753492449 l 39.824072764912444 30.967439855746598" fill="#3cffa3" stroke="none" /><path d="M 83.42222388311158 87.10902102172516 l -13.872427807052064 -10.787283769393142 a38.57298336604471,38.57298336604471 0 0,0 0.41095577377565967,-0.5192291952995963 l 13.685205602634843 11.023832908607421" fill="#ffa60f" stroke="none" /><path d="M 83.64595745247003 86.82634096563983 l -49.06212764258992 -39.520977103080504 a84.0,84.0 0 0,0 0.9142127230454804,-1.1151908732060285 l 48.376468100305814 40.357370257985025" fill="#4dd2ff" stroke="none" /><line stroke="#e1ed5e" stroke-width="0.3" x1="56.869717070023135" x2="54.33264160355391" y1="26.7553504044142" y2="22.446841604673864" /><path d="M 56.362301976729285 25.89364864446614 a86.0,86.0 0 0,1 42.16139366436587,-11.88097634709845" fill="none" id="id12" stroke="none" /><text fill="#e1ed5e" style="font-size:6.75px; font-family:Arial;" text-anchor="middle"><textPath startOffset="22.145653131862474" xlink:href="#id12">December</textPath></text></svg>