<?xml version="1.0" encoding="utf-8" ?>
<svg baseProfile="full" height="200mm" version="1.1" viewBox="0,0,200,200" width="200mm" xmlns="http://www.w3.org/2000/svg" xmlns:ev="http://www.w3.org/2001/xml-events" xmlns:xlink="http://www.w3.org/1999/xlink"><defs /><rect fill="#1a1a1a" height="200" width="200" x="0" y="0" /><rect fill="#1a1a1a" height="200" width="180" x="10" y="0" /><text alignment-baseline="middle" fill="#e1ed5e" style="dominant-baseline: central; font-size:9.0px; font-family:Arial;" text-anchor="middle" x="100.0" y="100.0">2025</text><line stroke="#e1ed5e" stroke-width="0.3" x1="100.0" x2="100.0" y1="15.0" y2="10.0" /><path d="M 100.0 14.0 a86.0,86.0 0 0,1 42.46469731375804,11.215312516191453" fill="none" id="id13" stroke="none" /><text fill="#e1ed5e" style="font-size:6.75px; font-family:Arial;" text-anchor="middle"><textPath startOffset="22.20632615414155" xlink:href="#id13">January</textPath></text><path d="M 100.0 79.0 l 0.0 -27.41739354616938 a48.41739354616938,48.41739354616938 0 0,0 0.8334258392474252,0.007173559320330503 l -0.47194535997489684 27.41333136345761" fill="#ccff1d" stroke="none" /><path d="M 100.72285384407766 79.0124445844662 l 0.6080259034788934 -17.65360653179606 a38.6640742491299,38.6640742491299 0 0,0 0.6649468986787064,0.028634012210062242 l -0.9118136345469313 17.640524793061804" fill="#ffb110" stroke="none" /><path d="M 108.43124777332544 80.76684994638697 l 4.726795227193039 -10.782646213402485 a32.77319211102995,32.77319211102995 0 0,0 0.5147230853876729,0.23094124459563986 l -4.911700431047492 10.699684638290314" fill="#ff5b08" stroke="none" /><path d="M 109.73455568895987 81.39251694778311 l 5.252301627906548 -10.039709736032641 a32.330597688308345,32.330597688308345 0 0,0 0.49089386769606896,0.2622185033920058 l -5.4243405421309285 9.947812506138881" fill="#ff5507" stroke="none" /><path d="M 110.05341064243156 81.56283822128135 l 12.557583782730433 -23.02961770753024 a47.23082542001461,47.23082542001461 0 0,0 0.7104323811155617,0.3953548509219913 l -12.95214025291803 22.810047459048068" fill="#dbff1b" stroke="none" /><line stroke="#e1ed5e" stroke-width="0.3" x1="143.23703022742887" x2="145.7803849466894" y1="26.81831364943548" y2="22.513508569990506" /><path d="M 143.74570117128098 25.957352633546492 a86.0,86.0 0 0,1 28.547481713284135,27.462654790039103" fill="none" id="id14" stroke="none" /><text fill="#e1ed5e" style="font-size:6.75px; font-family:Arial;" text-anchor="middle"><textPath startOffset="19.985693538727396" xlink:href="#id14">February</textPath></text><path d="M 110.68208982089419 81.91981866633111 l 2.9788494365833085 -5.041910233124697 a26.856142310832297,26.856142310832297 0 0,0 0.39598478164243783,0.23857640023560583 l -3.0651962844433838 4.989887223430476" fill="#ff0000" stroke="none" /><path d="M 111.2981086023043 82.29822771554956 l 23.43169371836125 -36.71256145978471 a64.55291539552272,64.55291539552272 0 0,0 0.9315077117429038,0.6058785272903092 l -24.060168455888434 36.30378400833487" fill="#33ff51" stroke="none" /><path d="M 114.16331599549186 84.49514656593476 l 12.44607554903978 -13.624957409591659 a39.45384136123405,39.45384136123405 0 0,0 0.49747934030778884,0.4623528295589696 l -12.678762773142415 13.408699993958049" fill="#ffbc11" stroke="none" /><line stroke="#e1ed5e" stroke-width="0.3" x1="172.23445277983987" x2="176.4835382374775" y1="55.19839476539836" y2="52.563006222186495" /><path d="M 173.08426987136738 54.67131705675599 a86.0,86.0 0 0,1 12.851231095245387,41.99856678651699" fill="none" id="id15" stroke="none" /><text fill="#e1ed5e" style="font-size:6.75px; font-family:Arial;" text-anchor="middle"><textPath startOffset="22.20632615414155" xlink:href="#id15">March</textPath></text><path d="M 117.84615892207809 88.93136811851018 l 11.724841294990096 -7.2720383545718095 a34.79689984101749,34.79689984101749 0 0,0 0.3113232261306568,0.5117335268281707 l -11.848280319406976 7.069137054536557" fill="#ff790b" stroke="none" /><path d="M 118.56541770881063 90.18545643968196 l 12.301892658531175 -6.503352807096407 a34.915105487045075,34.915105487045075 0 0,0 0.2763124367698263,0.5337476793570942 l -12.412014528461118 6.290632405478968" fill="#ff7b0b" stroke="none" /><path d="M 119.04729006885535 91.15688171328212 l 37.97242966107355 -17.629525560489746 a62.865326773514376,62.865326773514376 0 0,0 0.44723496015738656,0.9854229514663214 l -38.27026693819428 16.973280600181365" fill="#31ff3b" stroke="none" /><path d="M 119.47837535516314 92.15188598940014 l 25.310463571921414 -10.197945164914396 a48.287683152150564,48.287683152150564 0 0,0 0.3039972939991928,0.773639954658006 l -25.482254415802306 9.760756205360606" fill="#cdff1d" stroke="none" /><path d="M 120.37134235888165 94.90015583598534 l 14.85944690776328 -3.7199739839433095 a36.31800799209384,36.31800799209384 0 0,0 0.1465988494092845,0.6077468745301664 l -14.921278557433384 3.463641877753737" fill="#ff8f0d" stroke="none" /><path d="M 120.67395015179393 96.31383870115 l 29.50010922972487 -5.259863749116344 a50.9653568512869,50.9653568512869 0 0,0 0.14655728700984588,0.8649894040644491 l -29.58627837825494 4.751288556736058" fill="#acff20" stroke="none" /><line stroke="#e1ed5e" stroke-width="0.3" x1="184.98032266829074" x2="189.97916517819016" y1="98.17113171792111" y2="98.06355123074" /><path d="M 185.9800911702706 98.14961562048488 a86.0,86.0 0 0,1 -9.607161424134198,41.387399972396054" fill="none" id="id16" stroke="none" /><text fill="#e1ed5e" style="font-size:6.75px; font-family:Arial;" text-anchor="middle"><textPath startOffset="21.466115282336823" xlink:href="#id16">April</textPath></text><path d="M 120.9904718944345 100.63252640178507 l 62.97141568330351 1.8975792053552112 a84.0,84.0 0 0,0 -0.05599146859518722,1.4448910119439753 l -62.92942208185712 -2.9812474643131925" fill="#4dd2ff" stroke="none" /><path d="M 120.9764740272857 100.99374915477107 l 31.605767981815863 1.4973062287286614 a52.641215142010054,52.641215142010054 0 0,0 -0.05067005008260336,0.9047477824392102 l -31.57531158084573 -2.041125727503295" fill="#98ff23" stroke="none" /><path d="M 120.95626037817324 101.35467743843564 l 23.463798988928957 1.5167724840543255 a44.512772311261976,44.512772311261976 0 0,0 -0.05600860132639643,0.7641928660577472 l -23.434213828938223 -1.920438486608843" fill="#feff18" stroke="none" /><path d="M 120.92983693683757 101.71520430193887 l 49.145501826401045 4.027483654458147 a70.31025222360677,70.31025222360677 0 0,0 -0.10923335069789677,1.2053809226829852 l -49.06889387942608 -4.872845965689702" fill="#3bff98" stroke="none" /><path d="M 120.89721153311464 102.0752229133903 l 9.93275271685276 0.9863840445118163 a30.981609590512612,30.981609590512612 0 0,0 -0.057268322861744665,0.5302335447980787 l -9.914302092489962 -1.1572139111946864" fill="#ff4006" stroke="none" /><path d="M 118.64920377521936 109.65438752849418 l 13.355059185268324 6.913695533311831 a36.03851029089503,36.03851029089503 0 0,0 -0.289934091474195,0.5484460365539944 l -13.234072585569237 -7.142556584951959" fill="#ff8b0c" stroke="none" /><line stroke="#e1ed5e" stroke-width="0.3" x1="174.80103733775053" x2="179.2010983576182" y1="140.37084112569926" y2="142.7455964860345" /><path d="M 175.68104954172406 140.8457921977663 a86.0,86.0 0 0,1 -30.038265399797805,32.042727171017184" fill="none" id="id17" stroke="none" /><text fill="#e1ed5e" style="font-size:6.75px; font-family:Arial;" text-anchor="middle"><textPath startOffset="22.206326154141568" xlink:href="#id17">May</textPath></text><path d="M 118.30583269289576 110.29060199501025 l 14.264438443074143 8.01873704204489 a37.36381214282645,37.36381214282645 0 0,0 -0.3199908109535628,0.5579309510032607 l -14.1242956359682 -8.263087838906467" fill="#ff9e0e" stroke="none" /><path d="M 118.12598468904814 110.60418214915192 l 16.299211299791814 9.535471229595538 a39.88357753620075,39.88357753620075 0 0,0 -0.3517714907274742,0.5895892523175893 l -16.132658933366113 -9.814622575799232" fill="#ffc212" stroke="none" /><path d="M 117.94076556474637 110.91462005526583 l 10.269513756806594 6.247662085731855 a33.02065698448846,33.02065698448846 0 0,0 -0.2996001322352432,0.48305080792208377 l -10.160448984903388 -6.423509225019213" fill="#ff5f08" stroke="none" /><line stroke="#e1ed5e" stroke-width="0.3" x1="143.8653032363475" x2="146.44561519142675" y1="172.8068346515853" y2="177.08958963109032" /><path d="M 144.38136562736335 173.6633856474863 a86.0,86.0 0 0,1 -40.68145358897372,12.25698825130547" fill="none" id="id18" stroke="none" /><text fill="#e1ed5e" style="font-size:6.75px; font-family:Arial;" text-anchor="middle"><textPath startOffset="21.466115282336833" xlink:href="#id18">June</textPath></text><path d="M 110.8373102113329 117.98757091392108 l 8.748591311623644 14.520753170854304 a37.95258454002492,37.95258454002492 0 0,0 -0.562479223160346,0.33232263954104535 l -8.497344217434915 -14.6691943826891" fill="#ffa70f" stroke="none" /><path d="M 103.41894727170886 120.7198165907248 l 5.55301646258656 33.65289765716709 a55.107968461307095,55.107968461307095 0 0,0 -0.9372661887510392,0.14638170283019147 l -4.972914410227003 -33.743497667344386" fill="#7bff26" stroke="none" /><path d="M 103.06178313531738 120.77559828337769 l 7.480930920599824 50.76153624315075 a72.3098225411421,72.3098225411421 0 0,0 -1.232956191825573,0.17087649346461797 l -6.60604613758742 -50.88278730210797" fill="#3dffaf" stroke="none" /><path d="M 102.70371172650421 120.8252237178851 l 4.48631081813022 34.55561683579676 a55.845625832509775,55.845625832509775 0 0,0 -0.9543554120867233,0.1155591496930284 l -3.890827982992117 -34.62772151421514" fill="#73ff27" stroke="none" /><path d="M 102.34483914955558 120.86867818915974 l 4.8408591156757845 43.082840485346246 a64.35395093026253,64.35395093026253 0 0,0 -1.1018849063888077,0.11421487588276277 l -4.098541612681375 -43.159784729684766" fill="#33ff4e" stroke="none" /><path d="M 101.98527174616119 120.90594882070398 l 1.6557650887691855 17.436071546301267 a38.514512525243845,38.514512525243845 0 0,0 -0.6605343112086255,0.05699367975451124 l -1.3553864598190184 -17.461989478334445" fill="#ffaf10" stroke="none" /><line stroke="#e1ed5e" stroke-width="0.3" x1="102.19456741930631" x2="102.32365962044197" y1="184.97166512339345" y2="189.96999836594603" /><path d="M 102.22038585953345 185.97133177190398 a86.0,86.0 0 0,1 -42.740103519485714,-10.115201625700543" fill="none" id="id19" stroke="none" /><text fill="#e1ed5e" style="font-size:6.75px; font-family:Arial;" text-anchor="middle"><textPath startOffset="22.20632615414155" xlink:href="#id19">July</textPath></text><path d="M 96.22490169976321 120.6578951692458 l -2.78444522181454 15.23689528644701 a36.48922571219869,36.48922571219869 0 0,0 -0.6168979450968448,-0.11822995940729106 l 3.0463107814830797 -15.18670812869125" fill="#ff920d" stroke="none" /><line stroke="#e1ed5e" stroke-width="0.3" x1="58.666819895761336" x2="56.23545636021788" y1="174.27360380694188" y2="178.64263932499728" /><path d="M 58.180547188652646 175.14741091055294 a86.0,86.0 0 0,1 -31.652253787137756,-30.449443065178592" fill="none" id="id20" stroke="none" /><text fill="#e1ed5e" style="font-size:6.75px; font-family:Arial;" text-anchor="middle"><textPath startOffset="22.20632615414155" xlink:href="#id20">August</textPath></text><line stroke="#e1ed5e" stroke-width="0.3" x1="26.63291911575756" x2="22.317208475507996" y1="142.92168965132927" y2="145.44649492493687" /><path d="M 25.769776987707644 143.4266507060508 a86.0,86.0 0 0,1 -11.730757126820373,-40.83630448921669" fill="none" id="id21" stroke="none" /><text fill="#e1ed5e" style="font-size:6.75px; font-family:Arial;" text-anchor="middle"><textPath startOffset="21.46611528233685" xlink:href="#id21">September</textPath></text><path d="M 80.32549172779594 107.34259656027581 l -18.446806444407535 6.884413865536818 a40.68958664546899,40.68958664546899 0 0,0 -0.23924651335434458,-0.6583036524623127 l 18.562577218767103 -6.565862416068388" fill="#ffcd13" stroke="none" /><path d="M 80.20201598880116 107.00284435728193 l -9.715244119791016 3.4364277911029206 a31.305096034030854,31.305096034030854 0 0,0 -0.1753222062764192,-0.5095683979448924 l 9.772957157010664 -3.2686866900687317" fill="#ff4506" stroke="none" /><path d="M 80.0844068197444 106.66101706037122 l -11.879784399299552 3.973341182512076 a33.52664031280884,33.52664031280884 0 0,0 -0.17834216763484506,-0.5488807533139143 l 11.946418817950647 -3.7682615292203585" fill="#ff6609" stroke="none" /><path d="M 79.97269907076064 106.31721596034903 l -12.16929816056539 3.8385644095422067 a33.760344605336655,33.760344605336655 0 0,0 -0.1700447909624623,-0.5557162155910887 l 12.233569724033982 -3.6285212213990703" fill="#ff6a09" stroke="none" /><line stroke="#e1ed5e" stroke-width="0.3" x1="15.007084014347285" x2="10.007500721073583" y1="101.09737516637583" y2="101.16192664675087" /><path d="M 14.007167355692545 101.11028546245083 a86.0,86.0 0 0,1 10.666146001902534,-42.60595125391555" fill="none" id="id22" stroke="none" /><text fill="#e1ed5e" style="font-size:6.75px; font-family:Arial;" text-anchor="middle"><textPath startOffset="22.20632615414155" xlink:href="#id22">October</textPath></text><path d="M 79.00019446554 99.90962569577889 l -14.421180853483573 -0.06206267879680312 a35.42131439865939,35.42131439865939 0 0,0 0.007871953437128716,-0.6096914689026622 l 14.41797589292873 0.31029040575993727" fill="#ff820c" stroke="none" /><path d="M 79.00486145842228 99.54816195383935 l -14.683425964507785 -0.31600317785991466 a35.68682593563357,35.68682593563357 0 0,0 0.018503288795018502,-0.6140340740091602 l 14.67581098125712 0.5687073992940692" fill="#ff860c" stroke="none" /><path d="M 79.03285615573316 98.82574320788736 l -20.959711242680672 -1.1738405321317686 a41.99255575129979,41.99255575129979 0 0,0 0.046630551539740064,-0.7213539931491171 l 20.936400100136517 1.5344535895338975" fill="#ffdf14" stroke="none" /><line stroke="#e1ed5e" stroke-width="0.3" x1="26.266209847984243" x2="21.928928074336255" y1="57.711370442889674" y2="55.22380399835377" /><path d="M 25.398753493254645 57.213857153982495 a86.0,86.0 0 0,1 29.58750427330803,-30.492523968695096" fill="none" id="id23" stroke="none" /><text fill="#e1ed5e" style="font-size:6.75px; font-family:Arial;" text-anchor="middle"><textPath startOffset="21.46611528233685" xlink:href="#id23">November</textPath></text><line stroke="#e1ed5e" stroke-width="0.3" x1="56.762969772571076" x2="54.21961505331055" y1="26.818313649435495" y2="22.513508569990535" /><path d="M 56.25429882871897 25.957352633546506 a86.0,86.0 0 0,1 42.265352541879196,-11.944610805530505" fill="none" id="id24" stroke="none" /><text fill="#e1ed5e" style="font-size:6.75px; font-family:Arial;" text-anchor="middle"><textPath startOffset="22.20632615414155" xlink:href="#id24">December</textPath></text><path d="M 98.55514903715128 79.0497635885617 l -1.6369814366714308 -23.736114645198402 a44.792495595754744,44.792495595754744 0 0,0 0.7696586827682073,-0.0464279135912669 l 1.2281607050636005 23.760775828169972" fill="#faff18" stroke="none" /></svg>