<?xml version="1.0" encoding="utf-8" ?>
<svg baseProfile="full" height="200mm" version="1.1" viewBox="0,0,200,200" width="200mm" xmlns="http://www.w3.org/2000/svg" xmlns:ev="http://www.w3.org/2001/xml-events" xmlns:xlink="http://www.w3.org/1999/xlink"><defs /><rect fill="#1a1a1a" height="200" width="200" x="0" y="0" /><text alignment-baseline="middle" fill="#e1ed5e" style="dominant-baseline: central; font-size:9.0px; font-family:Arial;" text-anchor="middle" x="100.0" y="100.0">2024</text><line stroke="#e1ed5e" stroke-width="0.3" x1="100.0" x2="100.0" y1="15.0" y2="10.0" /><path d="M 100.0 14.0 a86.0,86.0 0 0,1 42.35913384403234,11.155469271406648" fill="none" id="id1" stroke="none" /><text fill="#e1ed5e" style="font-size:6.75px; font-family:Arial;" text-anchor="middle"><textPath startOffset="22.145653131862478" xlink:href="#id1">January</textPath></text><path d="M 100.0 79.0 l 0.0 -14.994053903425971 a35.99405390342597,35.99405390342597 0 0,0 0.6178857985149222,0.005303806448054961 l -0.25739287366606745 14.991844495172352" fill="#ff8a0c" stroke="none" /><path d="M 102.15924093988457 79.11130261209362 l 1.9110361561327611 -18.487541258336407 a39.586049633225926,39.586049633225926 0 0,0 0.6753457324301809,0.07567389795519809 l -2.228117790163739 18.45201159987424" fill="#ffbd11" stroke="none" /><path d="M 104.64783097203109 79.52079915486377 l 9.620823497647498 -42.39112349170247 a64.46915683173134,64.46915683173134 0 0,0 1.0771502003692932,0.254204514359215 l -10.347105851756677 42.21972283369703" fill="#33ff4f" stroke="none" /><path d="M 107.06938296918511 80.22567764915836 l 10.005800704624239 -27.988005371043744 a50.72279415516368,50.72279415516368 0 0,0 0.8173878000248642,0.3001561221698836 l -10.484777656303228 27.81211839986514" fill="#afff20" stroke="none" /><line stroke="#e1ed5e" stroke-width="0.3" x1="143.13028292997686" x2="145.6673583964461" y1="26.7553504044142" y2="22.446841604673864" /><path d="M 143.63769802327073 25.89364864446614 a86.0,86.0 0 0,1 29.32050498858742,28.57503671076993" fill="none" id="id2" stroke="none" /><text fill="#e1ed5e" style="font-size:6.75px; font-family:Arial;" text-anchor="middle"><textPath startOffset="20.669276256404974" xlink:href="#id2">February</textPath></text><path d="M 113.86319453409587 84.22622945171908 l 3.882950263673932 -4.418084616712337 a26.881902279925743,26.881902279925743 0 0,0 0.3440051089586897,0.30761148967162516 l -3.9582203994559975 4.350777597157324" fill="#ff0000" stroke="none" /><path d="M 114.39649973595853 84.71141617570332 l 5.868126503021076 -6.231746992564465 a29.559765138997367,29.559765138997367 0 0,0 0.36643905604954247,0.3510403265086633 l -5.97423804493593 6.130094535750222" fill="#ff2a04" stroke="none" /><path d="M 114.91283532996326 85.21462403516908 l 9.104889736581066 -9.027070633791618 a33.82135021527617,33.82135021527617 0 0,0 0.4052332436697294,0.41580500710543317 l -9.258509781401608 8.869442934618444" fill="#ff6a09" stroke="none" /><path d="M 115.16444852881244 85.47280134310134 l 12.270699240299747 -11.755052297760658 a37.992684142565025,37.992684142565025 0 0,0 0.44712715459694524,0.47483354346893136 l -12.47068222863295 11.542677294347232" fill="#ffa70f" stroke="none" /><line stroke="#e1ed5e" stroke-width="0.3" x1="172.87174338648825" x2="177.1583165268699" y1="56.24261187166439" y2="53.66864786411523" /><path d="M 173.72905801456457 55.72781907015455 a86.0,86.0 0 0,1 12.242430191666344,42.057860355516425" fill="none" id="id3" stroke="none" /><text fill="#e1ed5e" style="font-size:6.75px; font-family:Arial;" text-anchor="middle"><textPath startOffset="22.145653131862474" xlink:href="#id3">March</textPath></text><path d="M 118.36410011445183 89.81374322990088 l 30.82685666591244 -17.09913774467565 a56.251604268630125,56.251604268630125 0 0,0 0.4611416793543902,0.848448750542284 l -31.115843694882173 16.567434160658763" fill="#6eff28" stroke="none" /><path d="M 119.4528033332814 92.08871423366111 l 31.01077161215321 -12.611810845723971 a54.477241953145544,54.477241953145544 0 0,0 0.3448703204496288,0.8692984935004551 l -31.222700607568964 12.077611335009951" fill="#83ff25" stroke="none" /><path d="M 120.16314734710363 94.1308016681162 l 14.667186296552003 -4.269404169062807 a36.27593420438088,36.27593420438088 0 0,0 0.16891026418607663,0.5994029391398009 l -14.738315052812663 4.016993306019993" fill="#ff8e0d" stroke="none" /><path d="M 120.26092885502905 94.47779374421319 l 30.526061117559973 -8.320013700955197 a52.639580201657054,52.639580201657054 0 0,0 0.2301365327873893,0.8738658999966333 l -30.664387131152093 7.794767296585766" fill="#98ff23" stroke="none" /><path d="M 120.99303781780057 99.45929381324524 l 30.352151302778207 -0.7817637510666958 a51.36221736417192,51.36221736417192 0 0,0 0.015136123590588637,0.8816033167420447 l -30.361098857967463 0.2606135183555847" fill="#a8ff21" stroke="none" /><line stroke="#e1ed5e" stroke-width="0.3" x1="184.99686870605535" x2="189.99668451229388" y1="99.2704041080226" y2="99.22748670261217" /><path d="M 185.99683186730306 99.26182062694052 a86.0,86.0 0 0,1 -10.086455211305974,41.156179273409016" fill="none" id="id4" stroke="none" /><text fill="#e1ed5e" style="font-size:6.75px; font-family:Arial;" text-anchor="middle"><textPath startOffset="21.40746469413373" xlink:href="#id4">April</textPath></text><path d="M 120.96210409425399 101.26102812881392 l 35.501448256461764 2.1356789692358014 a56.56562881443077,56.56562881443077 0 0,0 -0.0666290281464865,0.968771446188313 l -35.45955526715021 -2.744793839578458" fill="#6bff28" stroke="none" /><path d="M 120.93736805541906 101.62068470465957 l 19.78839270659761 1.5317467460328233 a40.84758761171008,40.84758761171008 0 0,0 -0.06011671212450479,0.6986473207431001 l -19.759182371775363 -1.8712151141515807" fill="#ffcf13" stroke="none" /><path d="M 119.83427380445688 106.89939002012753 l 13.41276720044475 4.665656684856698 a35.20108010942388,35.20108010942388 0 0,0 -0.20342843315948636,0.5690255330849645 l -13.33069859724132 -4.8952171743225845" fill="#ff7f0b" stroke="none" /><path d="M 118.8641267826498 109.22738970284198 l 21.460055230319327 10.497188390230535 a44.889850032772216,44.889850032772216 0 0,0 -0.3445404725806927,0.6893117436740891 l -21.276694844526904 -10.864031990068371" fill="#f9ff18" stroke="none" /><path d="M 118.70294669586154 109.54985784667822 l 28.341032320515378 14.471133040705455 a52.821813343590186,52.821813343590186 0 0,0 -0.4192842888803734,0.8040329086338717 l -28.088439962660054 -14.95551219244383" fill="#96ff23" stroke="none" /><line stroke="#e1ed5e" stroke-width="0.3" x1="174.33088141563837" x2="178.70328620479359" y1="141.23008692659167" y2="143.65538615756765" /><path d="M 175.20536237346943 141.71514677278685 a86.0,86.0 0 0,1 -30.301960400862466,31.631185727798858" fill="none" id="id5" stroke="none" /><text fill="#e1ed5e" style="font-size:6.75px; font-family:Arial;" text-anchor="middle"><textPath startOffset="22.145653131862474" xlink:href="#id5">May</textPath></text><path d="M 118.18653347947321 110.5 l 15.002182382737253 8.66151403710521 a38.32302807421043,38.32302807421043 0 0,0 -0.33382330200991217,0.5669049475574749 l -14.851285370597575 -8.917770152956233" fill="#ffac0f" stroke="none" /><line stroke="#e1ed5e" stroke-width="0.3" x1="143.1302829299769" x2="145.66735839644613" y1="173.24464959558577" y2="177.55315839532614" /><path d="M 143.63769802327073 174.10635135553383 a86.0,86.0 0 0,1 -40.68552437913181,11.842963189579606" fill="none" id="id6" stroke="none" /><text fill="#e1ed5e" style="font-size:6.75px; font-family:Arial;" text-anchor="middle"><textPath startOffset="21.407464694133747" xlink:href="#id6">June</textPath></text><path d="M 101.08105385017728 120.97215588758144 l 0.6361478902579385 12.341099122728892 a33.35748403581002,33.35748403581002 0 0,0 -0.5721193543270402,0.0245692667528728 l -0.4242027753300688 -12.350200957907596" fill="#ff6409" stroke="none" /><line stroke="#e1ed5e" stroke-width="0.3" x1="101.45913802915013" x2="101.54496967792366" y1="184.9874750549273" y2="189.98673829345242" /><path d="M 101.47630435890484 185.9873277026323 a86.0,86.0 0 0,1 -42.54439059252881,-10.42667462771756" fill="none" id="id7" stroke="none" /><text fill="#e1ed5e" style="font-size:6.75px; font-family:Arial;" text-anchor="middle"><textPath startOffset="22.145653131862474" xlink:href="#id7">July</textPath></text><line stroke="#e1ed5e" stroke-width="0.3" x1="58.13341422392154" x2="55.67067388415222" y1="173.97424548756322" y2="178.32567169271397" /><path d="M 57.64086615596768 174.84453072859336 a86.0,86.0 0 0,1 -31.369924170532247,-30.572349798747897" fill="none" id="id8" stroke="none" /><text fill="#e1ed5e" style="font-size:6.75px; font-family:Arial;" text-anchor="middle"><textPath startOffset="22.145653131862474" xlink:href="#id8">August</textPath></text><line stroke="#e1ed5e" stroke-width="0.3" x1="26.387840678322732" x2="22.057713659400548" y1="142.50000000000003" y2="145.00000000000006" /><path d="M 25.521815274538298 143.00000000000003 a86.0,86.0 0 0,1 -11.493303480769221,-40.785679425670985" fill="none" id="id9" stroke="none" /><text fill="#e1ed5e" style="font-size:6.75px; font-family:Arial;" text-anchor="middle"><textPath startOffset="21.40746469413373" xlink:href="#id9">September</textPath></text><line stroke="#e1ed5e" stroke-width="0.3" x1="15.003131293944662" x2="10.003315487706104" y1="100.72959589197737" y2="100.7725132973878" /><path d="M 14.003168132696942 100.73817937305945 a86.0,86.0 0 0,1 10.791469493833604,-42.45332614584628" fill="none" id="id10" stroke="none" /><text fill="#e1ed5e" style="font-size:6.75px; font-family:Arial;" text-anchor="middle"><textPath startOffset="22.145653131862435" xlink:href="#id10">October</textPath></text><path d="M 79.01933749520258 99.09900007780938 l -26.563752428176258 -1.1407618260579262 a47.58823575586073,47.58823575586073 0 0,0 0.04205533410451343,-0.8158622464547033 l 26.540255504615175 1.5965958658893415" fill="#d6ff1c" stroke="none" /><path d="M 79.06263194458094 98.37931529534042 l -10.381208397698057 -0.8035711853323554 a31.41226269579927,31.41226269579927 0 0,0 0.0462304401330467,-0.5372677911731981 l 10.365884334867266 0.9816600238812342" fill="#ff4606" stroke="none" /><path d="M 79.34024301695615 96.23510406497455 l -21.443612921703227 -3.9077405986643443 a42.79676516647108,42.79676516647108 0 0,0 0.1379150370068968,-0.7216297509675716 l 21.37337159241417 4.27527291466523" fill="#ffe915" stroke="none" /><path d="M 79.407916724674 95.88100663000787 l -28.993417903404186 -5.799495588706645 a50.56775998963848,50.56775998963848 0 0,0 0.1775705895295207,-0.8497395521757777 l 28.8895896030503 6.296351592167832" fill="#b1ff20" stroke="none" /><line stroke="#e1ed5e" stroke-width="0.3" x1="26.387840678322718" x2="22.05771365940052" y1="57.49999999999999" y2="54.99999999999999" /><path d="M 25.521815274538284 56.99999999999999 a86.0,86.0 0 0,1 29.574782752854787,-30.34633250058573" fill="none" id="id11" stroke="none" /><text fill="#e1ed5e" style="font-size:6.75px; font-family:Arial;" text-anchor="middle"><textPath startOffset="21.40746469413373" xlink:href="#id11">November</textPath></text><path d="M 82.576782715395 88.27688183743585 l -27.559071314248047 -18.542973102501055 a54.216626306473195,54.216626306473195 0 0,0 0.5261859465003861,-0.767721021201587 l 27.236695630932346 19.013328858772677" fill="#86ff25" stroke="none" /><path d="M 82.78059297857968 87.97951657250589 l -36.76225027434752 -25.66290579173127 a65.83355639372186,65.83355639372186 0 0,0 0.6548398067011478,-0.9211141959608833 l 36.3162953691164 26.290197214401672" fill="#35ff61" stroke="none" /><path d="M 82.98947788004972 87.6856937992154 l -20.63442715773018 -14.937733980549767 a46.47381951340128,46.47381951340128 0 0,0 0.47336457791155473,-0.6422099622365064 l 20.374960560234804 15.289750252055136" fill="#e5ff1a" stroke="none" /><path d="M 83.2033758604659 87.39550010848427 l -35.66424014819703 -26.763110690849174 a65.58926013289427,65.58926013289427 0 0,0 0.6835276136608529,-0.8947595878132203 l 35.19956055718187 27.37139119190328" fill="#34ff5e" stroke="none" /><path d="M 83.42222388311158 87.10902102172516 l -12.261512416170783 -9.534626217909224 a36.532346372881086,36.532346372881086 0 0,0 0.3892148690973088,-0.4917602724578217 l 12.096031116431913 9.743706434281728" fill="#ff920d" stroke="none" /><path d="M 83.64595745247003 86.82634096563983 l -43.364859822702456 -34.93166143580741 a76.68421713653258,76.68421713653258 0 0,0 0.8345915114642898,-1.0180659413048865 l 42.758821491999534 35.67092965881079" fill="#43ffe0" stroke="none" /><path d="M 83.8745106332314 86.54754324733833 l -48.376468100305814 -40.357370257985025 a84.0,84.0 0 0,0 0.933221745971542,-1.0993328702017733 l 47.676551790827155 41.18186991063636" fill="#4dd2ff" stroke="none" /><path d="M 84.10781606972428 86.27271002978789 l -10.847258047884559 -9.369603149467514 a35.33361330355706,35.33361330355706 0 0,0 0.40042900174343166,-0.4556146982460266 l 10.684817982182535 9.55443012552484" fill="#ff810b" stroke="none" /><line stroke="#e1ed5e" stroke-width="0.3" x1="56.869717070023135" x2="54.33264160355391" y1="26.7553504044142" y2="22.446841604673864" /><path d="M 56.362301976729285 25.89364864446614 a86.0,86.0 0 0,1 42.16139366436587,-11.88097634709845" fill="none" id="id12" stroke="none" /><text fill="#e1ed5e" style="font-size:6.75px; font-family:Arial;" text-anchor="middle"><textPath startOffset="22.145653131862474" xlink:href="#id12">December</textPath></text></svg>