<?xml version="1.0" encoding="utf-8" ?>
<svg baseProfile="full" height="200mm" version="1.1" viewBox="0,0,200,200" width="200mm" xmlns="http://www.w3.org/2000/svg" xmlns:ev="http://www.w3.org/2001/xml-events" xmlns:xlink="http://www.w3.org/1999/xlink"><defs /><rect fill="#1a1a1a" height="200" width="200" x="0" y="0" /><rect fill="#1a1a1a" height="200" width="180" x="10" y="0" /><text alignment-baseline="middle" fill="#e1ed5e" style="dominant-baseline: central; font-size:9.0px; font-family:Arial;" text-anchor="middle" x="100.0" y="100.0">2026</text><line stroke="#e1ed5e" stroke-width="0.3" x1="100.0" x2="100.0" y1="15.0" y2="10.0" /><path d="M 100.0 14.0 a86.0,86.0 0 0,1 42.46469731375804,11.215312516191453" fill="none" id="id25" stroke="none" /><text fill="#e1ed5e" style="font-size:6.75px; font-family:Arial;" text-anchor="middle"><textPath startOffset="22.20632615414155" xlink:href="#id25">January</textPath></text><path d="M 100.0 79.0 l 0.0 -17.46271198958631 a38.46271198958631,38.46271198958631 0 0,0 0.662072360196042,0.005698665827911219 l -0.3005918809235137 17.460124700366958" fill="#ff770b" stroke="none" /><path d="M 100.36148047927253 79.00311137660856 l 0.284408205075028 -16.520082682077128 a37.52253067328908,37.52253067328908 0 0,0 0.6456972935909647,0.01667645610088062 l -0.5687321338608605 16.512739433833886" fill="#ff6809" stroke="none" /><path d="M 102.88285421437855 79.19881850522331 l 2.1866725607470237 -15.777895593500183 a36.92870133586905,36.92870133586905 0 0,0 0.6288975766758338,0.09268315491297587 l -2.457939117851513 15.737917954426239" fill="#ff5f08" stroke="none" /><path d="M 110.36928655335952 81.73862282372117 l 20.08718405814645 -35.375591426422915 a61.6807993057543,61.6807993057543 0 0,0 0.9187597889042978,0.5322049715743523 l -20.693140579516072 35.024582297458515" fill="#46ff2c" stroke="none" /><line stroke="#e1ed5e" stroke-width="0.3" x1="143.23703022742887" x2="145.7803849466894" y1="26.81831364943548" y2="22.513508569990506" /><path d="M 143.74570117128098 25.957352633546492 a86.0,86.0 0 0,1 28.547481713284135,27.462654790039103" fill="none" id="id26" stroke="none" /><text fill="#e1ed5e" style="font-size:6.75px; font-family:Arial;" text-anchor="middle"><textPath startOffset="19.985693538727396" xlink:href="#id26">February</textPath></text><path d="M 113.6212207817346 84.01681056812373 l 13.243653453775917 -15.540150571942112 a41.4178999067569,41.4178999067569 0 0,0 0.5386421576934722,0.4671051712838175 l -13.509189410116152 15.309880407238623" fill="#ffa60f" stroke="none" /><path d="M 115.19652480421416 85.50635884689758 l 8.554016473218418 -8.158368230753242 a32.82075166868232,32.82075166868232 0 0,0 0.3863982061900347,0.41218266552772115 l -8.693182001378915 8.009916148347466" fill="#ff1b02" stroke="none" /><path d="M 115.4437574822437 85.77008943001954 l 7.532750847583352 -6.940692446789372 a31.242829051228316,31.242829051228316 0 0,0 0.36101291211555336,0.39863947438526603 l -7.651107400314941 6.810000185134557" fill="#ff0000" stroke="none" /><path d="M 115.9244219780498 86.31012108654704 l 8.63671175098996 -7.4247930784818745 a32.38948383940029,32.38948383940029 0 0,0 0.35981537211250597,0.4259079089706226 l -8.763237736589582 7.275026219882145" fill="#ff1402" stroke="none" /><path d="M 116.15771136456269 86.58626213691792 l 19.797555851741254 -16.435447974854387 a46.73066590348877,46.73066590348877 0 0,0 0.5084775059628919,0.6233332992534364 l -20.077531849780556 16.092230505992852" fill="#fff517" stroke="none" /><path d="M 116.38621287248628 86.86637796730983 l 9.828414749203718 -7.8775178560812416 a33.59575420747976,33.59575420747976 0 0,0 0.35778825418433385,0.4543547488480221 l -9.962557083982016 7.707170713280181" fill="#ff2803" stroke="none" /><path d="M 116.60985879189232 87.15038557335679 l 18.455560518723363 -14.27747458087553 a44.33353797579372,44.33353797579372 0 0,0 0.46175292429971615,0.6076127223090371 l -18.698589383247192 13.95767708268546" fill="#ffd213" stroke="none" /><line stroke="#e1ed5e" stroke-width="0.3" x1="172.23445277983987" x2="176.4835382374775" y1="55.19839476539836" y2="52.563006222186495" /><path d="M 173.08426987136738 54.67131705675599 a86.0,86.0 0 0,1 12.851231095245387,41.99856678651699" fill="none" id="id27" stroke="none" /><text fill="#e1ed5e" style="font-size:6.75px; font-family:Arial;" text-anchor="middle"><textPath startOffset="22.20632615414155" xlink:href="#id27">March</textPath></text><path d="M 120.94382443527127 98.46500227214037 l 62.831473305813795 -4.6049931835789 a84.0,84.0 0 0,0 0.09327763598233796,1.442963742987859 l -62.90143153280055 3.5227703763380056" fill="#4dd2ff" stroke="none" /><line stroke="#e1ed5e" stroke-width="0.3" x1="184.98032266829074" x2="189.97916517819016" y1="98.17113171792111" y2="98.06355123074" /><path d="M 185.9800911702706 98.14961562048488 a86.0,86.0 0 0,1 -9.607161424134198,41.387399972396054" fill="none" id="id28" stroke="none" /><text fill="#e1ed5e" style="font-size:6.75px; font-family:Arial;" text-anchor="middle"><textPath startOffset="21.466115282336823" xlink:href="#id28">April</textPath></text><path d="M 120.9764740272857 100.99374915477107 l 49.325282344786004 2.3367586742755275 a70.38060266435252,70.38060266435252 0 0,0 -0.06774518126578297,1.2096357201392043 l -49.27775081263269 -3.185466110750155" fill="#39ff8b" stroke="none" /><path d="M 120.95626037817324 101.35467743843564 l 48.588521059798545 3.1409121693878186 a69.68993436054618,69.68993436054618 0 0,0 -0.08768799486962142,1.1964330215596986 l -48.527256506264585 -3.9768183274442874" fill="#38ff82" stroke="none" /><path d="M 120.92983693683757 101.71520430193887 l 40.57038633445259 3.3247512334746996 a61.7063903839585,61.7063903839585 0 0,0 -0.09586647136004962,1.0578785230339323 l -40.50714526681546 -4.022611145057202" fill="#46ff2c" stroke="none" /><line stroke="#e1ed5e" stroke-width="0.3" x1="174.80103733775053" x2="179.2010983576182" y1="140.37084112569926" y2="142.7455964860345" /><path d="M 175.68104954172406 140.8457921977663 a86.0,86.0 0 0,1 -30.038265399797805,32.042727171017184" fill="none" id="id29" stroke="none" /><text fill="#e1ed5e" style="font-size:6.75px; font-family:Arial;" text-anchor="middle"><textPath startOffset="22.206326154141568" xlink:href="#id29">May</textPath></text><line stroke="#e1ed5e" stroke-width="0.3" x1="143.8653032363475" x2="146.44561519142675" y1="172.8068346515853" y2="177.08958963109032" /><path d="M 144.38136562736335 173.6633856474863 a86.0,86.0 0 0,1 -40.68145358897372,12.25698825130547" fill="none" id="id30" stroke="none" /><text fill="#e1ed5e" style="font-size:6.75px; font-family:Arial;" text-anchor="middle"><textPath startOffset="21.466115282336833" xlink:href="#id30">June</textPath></text><line stroke="#e1ed5e" stroke-width="0.3" x1="102.19456741930631" x2="102.32365962044197" y1="184.97166512339345" y2="189.96999836594603" /><path d="M 102.22038585953345 185.97133177190398 a86.0,86.0 0 0,1 -42.740103519485714,-10.115201625700543" fill="none" id="id31" stroke="none" /><text fill="#e1ed5e" style="font-size:6.75px; font-family:Arial;" text-anchor="middle"><textPath startOffset="22.20632615414155" xlink:href="#id31">July</textPath></text><line stroke="#e1ed5e" stroke-width="0.3" x1="58.666819895761336" x2="56.23545636021788" y1="174.27360380694188" y2="178.64263932499728" /><path d="M 58.180547188652646 175.14741091055294 a86.0,86.0 0 0,1 -31.652253787137756,-30.449443065178592" fill="none" id="id32" stroke="none" /><text fill="#e1ed5e" style="font-size:6.75px; font-family:Arial;" text-anchor="middle"><textPath startOffset="22.20632615414155" xlink:href="#id32">August</textPath></text><line stroke="#e1ed5e" stroke-width="0.3" x1="26.63291911575756" x2="22.317208475507996" y1="142.92168965132927" y2="145.44649492493687" /><path d="M 25.769776987707644 143.4266507060508 a86.0,86.0 0 0,1 -11.730757126820373,-40.83630448921669" fill="none" id="id33" stroke="none" /><text fill="#e1ed5e" style="font-size:6.75px; font-family:Arial;" text-anchor="middle"><textPath startOffset="21.46611528233685" xlink:href="#id33">September</textPath></text><line stroke="#e1ed5e" stroke-width="0.3" x1="15.007084014347285" x2="10.007500721073583" y1="101.09737516637583" y2="101.16192664675087" /><path d="M 14.007167355692545 101.11028546245083 a86.0,86.0 0 0,1 10.666146001902534,-42.60595125391555" fill="none" id="id34" stroke="none" /><text fill="#e1ed5e" style="font-size:6.75px; font-family:Arial;" text-anchor="middle"><textPath startOffset="22.20632615414155" xlink:href="#id34">October</textPath></text><line stroke="#e1ed5e" stroke-width="0.3" x1="26.266209847984243" x2="21.928928074336255" y1="57.711370442889674" y2="55.22380399835377" /><path d="M 25.398753493254645 57.213857153982495 a86.0,86.0 0 0,1 29.58750427330803,-30.492523968695096" fill="none" id="id35" stroke="none" /><text fill="#e1ed5e" style="font-size:6.75px; font-family:Arial;" text-anchor="middle"><textPath startOffset="21.46611528233685" xlink:href="#id35">November</textPath></text><line stroke="#e1ed5e" stroke-width="0.3" x1="56.762969772571076" x2="54.21961505331055" y1="26.818313649435495" y2="22.513508569990535" /><path d="M 56.25429882871897 25.957352633546506 a86.0,86.0 0 0,1 42.265352541879196,-11.944610805530505" fill="none" id="id36" stroke="none" /><text fill="#e1ed5e" style="font-size:6.75px; font-family:Arial;" text-anchor="middle"><textPath startOffset="22.20632615414155" xlink:href="#id36">December</textPath></text></svg>