<?xml version="1.0" encoding="utf-8" ?>
<svg baseProfile="full" height="200mm" version="1.1" viewBox="0,0,200,200" width="200mm" xmlns="http://www.w3.org/2000/svg" xmlns:ev="http://www.w3.org/2001/xml-events" xmlns:xlink="http://www.w3.org/1999/xlink"><defs /><rect fill="#1a1a1a" height="200" width="200" x="0" y="0" /><text alignment-baseline="middle" fill="#e1ed5e" style="dominant-baseline: central; font-size:9.0px; font-family:Arial;" text-anchor="middle" x="100.0" y="100.0">2025</text><line stroke="#e1ed5e" stroke-width="0.3" x1="100.0" x2="100.0" y1="15.0" y2="10.0" /><path d="M 100.0 14.0 a86.0,86.0 0 0,1 42.46469731375804,11.215312516191453" fill="none" id="id13" stroke="none" /><text fill="#e1ed5e" style="font-size:6.75px; font-family:Arial;" text-anchor="middle"><textPath startOffset="22.20632615414155" xlink:href="#id13">January</textPath></text><path d="M 100.0 79.0 l 0.0 -35.029141314790245 a56.029141314790245,56.029141314790245 0 0,0 0.9644495645570761,0.008301321889737033 l -0.6029690852845477 35.023951369509064" fill="#7aff26" stroke="none" /><path d="M 100.72285384407766 79.0124445844662 l 0.7768289593301221 -22.554685108073908 a43.568058923098036,43.568058923098036 0 0,0 0.7492858997656496,0.03226582700866748 l -1.1649556914851034 22.53797155454105" fill="#ffe415" stroke="none" /><path d="M 107.76421540070413 80.48803036053334 l 10.830830071252617 -27.218568343858415 a50.2943227046068,50.2943227046068 0 0,0 0.8016343370170902,0.32700677390876665 l -11.297748277858094 27.02810068376607" fill="#c1ff1e" stroke="none" /><path d="M 108.43124777332544 80.76684994638697 l 6.0390706979713755 -13.776175963649719 a36.0417219451942,36.0417219451942 0 0,0 0.5660573513701574,0.25397343338404377 l -6.275310167808313 13.670182199749142" fill="#ff770a" stroke="none" /><path d="M 109.41281617654863 81.2277094730956 l 13.85336248215213 -27.628218846703604 a51.90686216203852,51.90686216203852 0 0,0 0.7952613582291403,0.4073637558036994 l -14.326884327970026 27.385662565587403" fill="#acff20" stroke="none" /><path d="M 109.73455568895987 81.39251694778311 l 6.710470695984395 -12.826981912439962 a35.47625234457203,35.47625234457203 0 0,0 0.538656132889448,0.28773145134631617 l -6.930271875402154 12.709571734591892" fill="#ff6e0a" stroke="none" /><path d="M 110.05341064243156 81.56283822128135 l 16.04388017981529 -29.423210187511845 a54.513152477240496,54.513152477240496 0 0,0 0.8199710331573042,0.45631299218823873 l -16.54797530204463 29.142681797763426" fill="#8cff24" stroke="none" /><line stroke="#e1ed5e" stroke-width="0.3" x1="143.23703022742887" x2="145.7803849466894" y1="26.81831364943548" y2="22.513508569990506" /><path d="M 143.74570117128098 25.957352633546492 a86.0,86.0 0 0,1 28.547481713284135,27.462654790039103" fill="none" id="id14" stroke="none" /><text fill="#e1ed5e" style="font-size:6.75px; font-family:Arial;" text-anchor="middle"><textPath startOffset="19.985693538727396" xlink:href="#id14">February</textPath></text><path d="M 110.68208982089419 81.91981866633111 l 3.805851847070953 -6.441669437147775 a28.481952513838692,28.481952513838692 0 0,0 0.4199568060224942,0.25301927669977825 l -3.9161707193110846 6.375203550989382" fill="#ff0000" stroke="none" /><path d="M 111.2981086023043 82.29822771554956 l 29.93691246117872 -46.904878147412205 a76.64428381902192,76.64428381902192 0 0,0 1.105987870586285,0.7193652760834143 l -30.739867357549286 46.38261394716926" fill="#43ffdd" stroke="none" /><path d="M 114.16331599549186 84.49514656593476 l 15.901414497614866 -17.407583171787913 a44.577084953566036,44.577084953566036 0 0,0 0.5620790790053164,0.5223912463444642 l -16.198701460415027 17.13128733936881" fill="#fff216" stroke="none" /><line stroke="#e1ed5e" stroke-width="0.3" x1="172.23445277983987" x2="176.4835382374775" y1="55.19839476539836" y2="52.563006222186495" /><path d="M 173.08426987136738 54.67131705675599 a86.0,86.0 0 0,1 12.851231095245387,41.99856678651699" fill="none" id="id15" stroke="none" /><text fill="#e1ed5e" style="font-size:6.75px; font-family:Arial;" text-anchor="middle"><textPath startOffset="22.20632615414155" xlink:href="#id15">March</textPath></text><path d="M 117.84615892207809 88.93136811851018 l 14.979947744634494 -9.290936380947878 a38.6272610823917,38.6272610823917 0 0,0 0.3455929577549892,0.5680639549993557 l -15.137656500675707 9.03170465274144" fill="#ff9d0e" stroke="none" /><path d="M 118.56541770881063 90.18545643968196 l 15.717202864284511 -8.30884467978707 a38.77828354453543,38.77828354453543 0 0,0 0.30688499634971783,0.5928041334151749 l -15.857897293794345 8.03706782411155" fill="#ff9f0e" stroke="none" /><path d="M 119.04729006885535 91.15688171328212 l 48.50013936211454 -22.517243542312215 a74.47232718788601,74.47232718788601 0 0,0 0.5298091967722719,1.1673643362173785 l -48.88055087585016 21.679057197252774" fill="#40ffc5" stroke="none" /><path d="M 119.47837535516314 92.15188598940014 l 32.337275376329764 -13.029147416975308 a55.863420101559996,55.863420101559996 0 0,0 0.35169068871878595,0.8950144420521287 l -32.55675961493025 12.470583970027395" fill="#7cff26" stroke="none" /><path d="M 120.37134235888165 94.90015583598534 l 18.98479754157326 -4.752730931605984 a40.570666544672676,40.570666544672676 0 0,0 0.16376484735923616,0.678911018343792 l -19.063795189193314 4.425234681602785" fill="#ffba11" stroke="none" /><path d="M 120.67395015179393 96.31383870115 l 37.69007047550502 -6.720132249408556 a59.28448236424356,59.28448236424356 0 0,0 0.1704799776530398,1.0061824784264515 l -37.80016231467828 6.070363982666266" fill="#54ff2b" stroke="none" /><line stroke="#e1ed5e" stroke-width="0.3" x1="184.98032266829074" x2="189.97916517819016" y1="98.17113171792111" y2="98.06355123074" /><path d="M 185.9800911702706 98.14961562048488 a86.0,86.0 0 0,1 -9.607161424134198,41.387399972396054" fill="none" id="id16" stroke="none" /><text fill="#e1ed5e" style="font-size:6.75px; font-family:Arial;" text-anchor="middle"><textPath startOffset="21.466115282336823" xlink:href="#id16">April</textPath></text><path d="M 120.92983693683757 101.71520430193887 l 62.789510810512716 5.145612905816612 a84.0,84.0 0 0,0 -0.13050161489169865,1.4400744458057178 l -62.69163459934395 -6.2256687401709" fill="#4dd2ff" stroke="none" /><path d="M 120.89721153311464 102.0752229133903 l 12.690330974663855 1.2602286948857775 a33.75275172697745,33.75275172697745 0 0,0 -0.06239067333560291,0.5776601484373883 l -12.6667579998272 -1.4784851652079571" fill="#ff5407" stroke="none" /><line stroke="#e1ed5e" stroke-width="0.3" x1="174.80103733775053" x2="179.2010983576182" y1="140.37084112569926" y2="142.7455964860345" /><path d="M 175.68104954172406 140.8457921977663 a86.0,86.0 0 0,1 -30.038265399797805,32.042727171017184" fill="none" id="id17" stroke="none" /><text fill="#e1ed5e" style="font-size:6.75px; font-family:Arial;" text-anchor="middle"><textPath startOffset="22.206326154141568" xlink:href="#id17">May</textPath></text><line stroke="#e1ed5e" stroke-width="0.3" x1="143.8653032363475" x2="146.44561519142675" y1="172.8068346515853" y2="177.08958963109032" /><path d="M 144.38136562736335 173.6633856474863 a86.0,86.0 0 0,1 -40.68145358897372,12.25698825130547" fill="none" id="id18" stroke="none" /><text fill="#e1ed5e" style="font-size:6.75px; font-family:Arial;" text-anchor="middle"><textPath startOffset="21.466115282336833" xlink:href="#id18">June</textPath></text><line stroke="#e1ed5e" stroke-width="0.3" x1="102.19456741930631" x2="102.32365962044197" y1="184.97166512339345" y2="189.96999836594603" /><path d="M 102.22038585953345 185.97133177190398 a86.0,86.0 0 0,1 -42.740103519485714,-10.115201625700543" fill="none" id="id19" stroke="none" /><text fill="#e1ed5e" style="font-size:6.75px; font-family:Arial;" text-anchor="middle"><textPath startOffset="22.20632615414155" xlink:href="#id19">July</textPath></text><line stroke="#e1ed5e" stroke-width="0.3" x1="58.666819895761336" x2="56.23545636021788" y1="174.27360380694188" y2="178.64263932499728" /><path d="M 58.180547188652646 175.14741091055294 a86.0,86.0 0 0,1 -31.652253787137756,-30.449443065178592" fill="none" id="id20" stroke="none" /><text fill="#e1ed5e" style="font-size:6.75px; font-family:Arial;" text-anchor="middle"><textPath startOffset="22.20632615414155" xlink:href="#id20">August</textPath></text><line stroke="#e1ed5e" stroke-width="0.3" x1="26.63291911575756" x2="22.317208475507996" y1="142.92168965132927" y2="145.44649492493687" /><path d="M 25.769776987707644 143.4266507060508 a86.0,86.0 0 0,1 -11.730757126820373,-40.83630448921669" fill="none" id="id21" stroke="none" /><text fill="#e1ed5e" style="font-size:6.75px; font-family:Arial;" text-anchor="middle"><textPath startOffset="21.46611528233685" xlink:href="#id21">September</textPath></text><line stroke="#e1ed5e" stroke-width="0.3" x1="15.007084014347285" x2="10.007500721073583" y1="101.09737516637583" y2="101.16192664675087" /><path d="M 14.007167355692545 101.11028546245083 a86.0,86.0 0 0,1 10.666146001902534,-42.60595125391555" fill="none" id="id22" stroke="none" /><text fill="#e1ed5e" style="font-size:6.75px; font-family:Arial;" text-anchor="middle"><textPath startOffset="22.20632615414155" xlink:href="#id22">October</textPath></text><line stroke="#e1ed5e" stroke-width="0.3" x1="26.266209847984243" x2="21.928928074336255" y1="57.711370442889674" y2="55.22380399835377" /><path d="M 25.398753493254645 57.213857153982495 a86.0,86.0 0 0,1 29.58750427330803,-30.492523968695096" fill="none" id="id23" stroke="none" /><text fill="#e1ed5e" style="font-size:6.75px; font-family:Arial;" text-anchor="middle"><textPath startOffset="21.46611528233685" xlink:href="#id23">November</textPath></text><line stroke="#e1ed5e" stroke-width="0.3" x1="56.762969772571076" x2="54.21961505331055" y1="26.818313649435495" y2="22.513508569990535" /><path d="M 56.25429882871897 25.957352633546506 a86.0,86.0 0 0,1 42.265352541879196,-11.944610805530505" fill="none" id="id24" stroke="none" /><text fill="#e1ed5e" style="font-size:6.75px; font-family:Arial;" text-anchor="middle"><textPath startOffset="22.20632615414155" xlink:href="#id24">December</textPath></text></svg>