<?xml version="1.0" encoding="utf-8" ?>
<svg baseProfile="full" height="200mm" version="1.1" viewBox="0,0,200,200" width="200mm" xmlns="http://www.w3.org/2000/svg" xmlns:ev="http://www.w3.org/2001/xml-events" xmlns:xlink="http://www.w3.org/1999/xlink"><defs /><rect fill="#1a1a1a" height="200" width="200" x="0" y="0" /><text alignment-baseline="middle" fill="#e1ed5e" style="dominant-baseline: central; font-size:9.0px; font-family:Arial;" text-anchor="middle" x="100.0" y="100.0">2024</text><line stroke="#e1ed5e" stroke-width="0.3" x1="100.0" x2="100.0" y1="15.0" y2="10.0" /><path d="M 100.0 14.0 a86.0,86.0 0 0,1 42.35913384403234,11.155469271406648" fill="none" id="id1" stroke="none" /><text fill="#e1ed5e" style="font-size:6.75px; font-family:Arial;" text-anchor="middle"><textPath startOffset="22.145653131862478" xlink:href="#id1">January</textPath></text><path d="M 100.0 79.0 l 0.0 -21.069606604933846 a42.069606604933846,42.069606604933846 0 0,0 0.7221807396311096,0.006199053081852109 l -0.3616878147822548 21.06650195004643" fill="#ffc612" stroke="none" /><path d="M 102.15924093988457 79.11130261209362 l 2.6853831710130214 -25.9786461963185 a47.11706991545287,47.11706991545287 0 0,0 0.80382640821295,0.09007042566170184 l -3.130945480826768 25.928720010149828" fill="#f1ff19" stroke="none" /><path d="M 104.64783097203109 79.52079915486377 l 13.519156834871739 -59.5678994662853 a82.08274918789536,82.08274918789536 0 0,0 1.371437972507907,0.32365562727986785 l -14.53972696111953 59.3270476953592" fill="#4ae6ff" stroke="none" /><path d="M 107.06938296918511 80.22567764915836 l 14.060125831989508 -39.32867432802335 a62.76639513785097,62.76639513785097 0 0,0 1.0114680488672652,0.3714250778363727 l -14.733183032510897 39.08151840117825" fill="#31ff2f" stroke="none" /><line stroke="#e1ed5e" stroke-width="0.3" x1="143.13028292997686" x2="145.6673583964461" y1="26.7553504044142" y2="22.446841604673864" /><path d="M 143.63769802327073 25.89364864446614 a86.0,86.0 0 0,1 29.32050498858742,28.57503671076993" fill="none" id="id2" stroke="none" /><text fill="#e1ed5e" style="font-size:6.75px; font-family:Arial;" text-anchor="middle"><textPath startOffset="20.669276256404974" xlink:href="#id2">February</textPath></text><path d="M 113.86319453409587 84.22622945171908 l 5.456311885302796 -6.2082813241167205 a29.265234200497467,29.265234200497467 0 0,0 0.3745043775180152,0.33488412368519643 l -5.562081289644186 6.113701670548137" fill="#ff0000" stroke="none" /><path d="M 114.39649973595853 84.71141617570332 l 8.245876513648527 -8.756835105468857 a33.02816031414248,33.02816031414248 0 0,0 0.4094351843344126,0.39222964479379874 l -8.394984183848251 8.61399333036948" fill="#ff3d05" stroke="none" /><path d="M 114.91283532996326 85.21462403516908 l 12.794168019312666 -12.684816812982273 a39.01652888004015,39.01652888004015 0 0,0 0.4674796971189827,0.4796753519576173 l -13.01003451758246 12.463318768956913" fill="#ff9a0e" stroke="none" /><path d="M 115.16444852881244 85.47280134310134 l 17.24275552334136 -16.51816974445116 a44.87807675974388,44.87807675974388 0 0,0 0.5281597554431918,0.5608873574695845 l -17.523771112520812 16.21974092703708" fill="#ffee16" stroke="none" /><line stroke="#e1ed5e" stroke-width="0.3" x1="172.87174338648825" x2="177.1583165268699" y1="56.24261187166439" y2="53.66864786411523" /><path d="M 173.72905801456457 55.72781907015455 a86.0,86.0 0 0,1 12.242430191666344,42.057860355516425" fill="none" id="id3" stroke="none" /><text fill="#e1ed5e" style="font-size:6.75px; font-family:Arial;" text-anchor="middle"><textPath startOffset="22.145653131862474" xlink:href="#id3">March</textPath></text><path d="M 118.36410011445183 89.81374322990088 l 43.31782098429378 -24.027665092065167 a70.53546511948555,70.53546511948555 0 0,0 0.578238492255444,1.063893697391322 l -43.72390482616457 23.280516561199242" fill="#3aff93" stroke="none" /><path d="M 119.4528033332814 92.08871423366111 l 43.57625780138266 -17.722084688152727 a68.04213568351909,68.04213568351909 0 0,0 0.43074341313817976,1.0857547835316104 l -43.874059889486965 16.97142888740755" fill="#37ff74" stroke="none" /><path d="M 120.16314734710363 94.1308016681162 l 20.61029307084303 -5.9993559352927335 a42.46570409058069,42.46570409058069 0 0,0 0.19773145624245567,0.7016791821576619 l -20.710243019160067 5.644668829232059" fill="#ffcc13" stroke="none" /><path d="M 120.26092885502905 94.47779374421319 l 42.89514384086603 -11.691262200059972 a65.4598580402495,65.4598580402495 0 0,0 0.28618588348209323,1.0866944139914279 l -43.089519205152854 10.953187281695746" fill="#33ff52" stroke="none" /><path d="M 120.99303781780057 99.45929381324524 l 42.650766209186884 -1.0985324448653058 a63.664911013186696,63.664911013186696 0 0,0 0.018761650312854587,1.0927720723456236 l -42.6633392910984 0.36621345655061566" fill="#30ff3a" stroke="none" /><line stroke="#e1ed5e" stroke-width="0.3" x1="184.99686870605535" x2="189.99668451229388" y1="99.2704041080226" y2="99.22748670261217" /><path d="M 185.99683186730306 99.26182062694052 a86.0,86.0 0 0,1 -10.086455211305974,41.156179273409016" fill="none" id="id4" stroke="none" /><text fill="#e1ed5e" style="font-size:6.75px; font-family:Arial;" text-anchor="middle"><textPath startOffset="21.40746469413373" xlink:href="#id4">April</textPath></text><path d="M 120.96210409425399 101.26102812881392 l 49.886545258994566 3.00105068356113 a70.97673161665352,70.97673161665352 0 0,0 -0.08360396141172492,1.2155832503791313 l -49.82767733641778 -3.8569773580946047" fill="#3bff99" stroke="none" /><path d="M 120.93736805541906 101.62068470465957 l 27.806599359809486 2.152406651674435 a48.88977989068988,48.88977989068988 0 0,0 -0.07195266588219362,0.8361990445320305 l -27.76555307122955 -2.629426743582123" fill="#d9ff1c" stroke="none" /><path d="M 119.83427380445688 106.89939002012753 l 18.847586531108803 6.556168967829919 a40.955321836101014,40.955321836101014 0 0,0 -0.23668242351546656,0.66204286254883 l -18.73226393754939 -6.87874678675967" fill="#ffb610" stroke="none" /><path d="M 118.8641267826498 109.22738970284198 l 30.15561530825689 14.750622564422084 a54.569956816439536,54.569956816439536 0 0,0 -0.41883763693836873,0.8379558420867527 l -29.89795775810679 -15.266110262672584" fill="#90ff24" stroke="none" /><path d="M 118.70294669586154 109.54985784667822 l 39.82474690414018 20.334799531810248 a65.71593159018084,65.71593159018084 0 0,0 -0.521634073137018,1.0003021152708946 l -39.46980476202821 -21.015447890185644" fill="#33ff55" stroke="none" /><line stroke="#e1ed5e" stroke-width="0.3" x1="174.33088141563837" x2="178.70328620479359" y1="141.23008692659167" y2="143.65538615756765" /><path d="M 175.20536237346943 141.71514677278685 a86.0,86.0 0 0,1 -30.301960400862466,31.631185727798858" fill="none" id="id5" stroke="none" /><text fill="#e1ed5e" style="font-size:6.75px; font-family:Arial;" text-anchor="middle"><textPath startOffset="22.145653131862474" xlink:href="#id5">May</textPath></text><path d="M 118.18653347947321 110.5 l 21.081028723494178 12.17113760830359 a45.34227521660719,45.34227521660719 0 0,0 -0.3949663895070973,0.6707392772833985 l -20.868988623857316 -12.531228053880538" fill="#fff517" stroke="none" /><line stroke="#e1ed5e" stroke-width="0.3" x1="143.1302829299769" x2="145.66735839644613" y1="173.24464959558577" y2="177.55315839532614" /><path d="M 143.63769802327073 174.10635135553383 a86.0,86.0 0 0,1 -40.68552437913181,11.842963189579606" fill="none" id="id6" stroke="none" /><text fill="#e1ed5e" style="font-size:6.75px; font-family:Arial;" text-anchor="middle"><textPath startOffset="21.407464694133747" xlink:href="#id6">June</textPath></text><path d="M 101.08105385017728 120.97215588758144 l 0.8939134057155065 17.34168125999466 a38.36470529839674,38.36470529839674 0 0,0 -0.6579989786011129,0.028257307336481595 l -0.5960886665135641 -17.354471135756974" fill="#ff900d" stroke="none" /><line stroke="#e1ed5e" stroke-width="0.3" x1="101.45913802915013" x2="101.54496967792366" y1="184.9874750549273" y2="189.98673829345242" /><path d="M 101.47630435890484 185.9873277026323 a86.0,86.0 0 0,1 -42.54439059252881,-10.42667462771756" fill="none" id="id7" stroke="none" /><text fill="#e1ed5e" style="font-size:6.75px; font-family:Arial;" text-anchor="middle"><textPath startOffset="22.145653131862474" xlink:href="#id7">July</textPath></text><line stroke="#e1ed5e" stroke-width="0.3" x1="58.13341422392154" x2="55.67067388415222" y1="173.97424548756322" y2="178.32567169271397" /><path d="M 57.64086615596768 174.84453072859336 a86.0,86.0 0 0,1 -31.369924170532247,-30.572349798747897" fill="none" id="id8" stroke="none" /><text fill="#e1ed5e" style="font-size:6.75px; font-family:Arial;" text-anchor="middle"><textPath startOffset="22.145653131862474" xlink:href="#id8">August</textPath></text><line stroke="#e1ed5e" stroke-width="0.3" x1="26.387840678322732" x2="22.057713659400548" y1="142.50000000000003" y2="145.00000000000006" /><path d="M 25.521815274538298 143.00000000000003 a86.0,86.0 0 0,1 -11.493303480769221,-40.785679425670985" fill="none" id="id9" stroke="none" /><text fill="#e1ed5e" style="font-size:6.75px; font-family:Arial;" text-anchor="middle"><textPath startOffset="21.40746469413373" xlink:href="#id9">September</textPath></text><line stroke="#e1ed5e" stroke-width="0.3" x1="15.003131293944662" x2="10.003315487706104" y1="100.72959589197737" y2="100.7725132973878" /><path d="M 14.003168132696942 100.73817937305945 a86.0,86.0 0 0,1 10.791469493833604,-42.45332614584628" fill="none" id="id10" stroke="none" /><text fill="#e1ed5e" style="font-size:6.75px; font-family:Arial;" text-anchor="middle"><textPath startOffset="22.145653131862435" xlink:href="#id10">October</textPath></text><path d="M 79.01933749520258 99.09900007780938 l -37.32731769656021 -1.6029956314532563 a58.36172160667111,58.36172160667111 0 0,0 0.05157622807609294,-1.0005650459760667 l 37.29429987902754 2.2435324708060347" fill="#63ff29" stroke="none" /><path d="M 79.06263194458094 98.37931529534042 l -14.587647772385074 -1.1291761963150329 a35.63128519349875,35.63128519349875 0 0,0 0.052439711616885286,-0.6094289379266332 l 14.566114438070445 1.3794261816173468" fill="#ff6609" stroke="none" /><path d="M 79.34024301695615 96.23510406497455 l -30.13251061779429 -5.49114720130317 a51.628759258544335,51.628759258544335 0 0,0 0.1663766458998807,-0.8705529154268126 l 30.03380767961225 6.007602681763298" fill="#b5ff1f" stroke="none" /><path d="M 79.407916724674 95.88100663000787 l -40.74147747445359 -8.14943652651392 a62.548541520745204,62.548541520745204 0 0,0 0.21964155411128058,-1.0510643475601191 l 40.59557820951794 8.847617325359447" fill="#33ff2f" stroke="none" /><line stroke="#e1ed5e" stroke-width="0.3" x1="26.387840678322718" x2="22.05771365940052" y1="57.49999999999999" y2="54.99999999999999" /><path d="M 25.521815274538284 56.99999999999999 a86.0,86.0 0 0,1 29.574782752854787,-30.34633250058573" fill="none" id="id11" stroke="none" /><text fill="#e1ed5e" style="font-size:6.75px; font-family:Arial;" text-anchor="middle"><textPath startOffset="21.40746469413373" xlink:href="#id11">November</textPath></text><path d="M 82.576782715395 88.27688183743585 l -38.72593727676606 -26.056538883476865 a67.67591923626316,67.67591923626316 0 0,0 0.6568117576575424,-0.9583079834795394 l 38.2729357822932 26.71748160202644" fill="#36ff6f" stroke="none" /><path d="M 82.78059297857968 87.97951657250589 l -51.65822106426094 -36.061450282482355 a84.0,84.0 0 0,0 0.8355396058801108,-1.1752910931619187 l 51.03156635985086 36.94291860235379" fill="#4dd2ff" stroke="none" /><path d="M 82.98947788004972 87.6856937992154 l -28.99544482978019 -20.990465991817153 a56.795746722626966,56.795746722626966 0 0,0 0.5784997866761359,-0.7848460647271418 l 28.630843023520235 21.485118365813157" fill="#75ff27" stroke="none" /><path d="M 83.2033758604659 87.39550010848427 l -50.11530001334097 -37.60745542282259 a83.65671551243938,83.65671551243938 0 0,0 0.8718146081395548,-1.141233307679561 l 49.462333427847106 38.46220964374304" fill="#4dd6ff" stroke="none" /><line stroke="#e1ed5e" stroke-width="0.3" x1="56.869717070023135" x2="54.33264160355391" y1="26.7553504044142" y2="22.446841604673864" /><path d="M 56.362301976729285 25.89364864446614 a86.0,86.0 0 0,1 42.16139366436587,-11.88097634709845" fill="none" id="id12" stroke="none" /><text fill="#e1ed5e" style="font-size:6.75px; font-family:Arial;" text-anchor="middle"><textPath startOffset="22.145653131862474" xlink:href="#id12">December</textPath></text></svg>