<?xml version="1.0" encoding="utf-8" ?>
<svg baseProfile="full" height="200mm" version="1.1" viewBox="0,0,200,200" width="200mm" xmlns="http://www.w3.org/2000/svg" xmlns:ev="http://www.w3.org/2001/xml-events" xmlns:xlink="http://www.w3.org/1999/xlink"><defs /><rect fill="#1a1a1a" height="200" width="200" x="0" y="0" /><text alignment-baseline="middle" fill="#e1ed5e" style="dominant-baseline: central; font-size:9.0px; font-family:Arial;" text-anchor="middle" x="100.0" y="100.0">2024</text><line stroke="#e1ed5e" stroke-width="0.3" x1="100.0" x2="100.0" y1="15.0" y2="10.0" /><path d="M 100.0 14.0 a86.0,86.0 0 0,1 42.35913384403234,11.155469271406648" fill="none" id="id1" stroke="none" /><text fill="#e1ed5e" style="font-size:6.75px; font-family:Arial;" text-anchor="middle"><textPath startOffset="22.145653131862478" xlink:href="#id1">January</textPath></text><path d="M 100.0 79.0 l 0.0 -7.497056376281456 a28.497056376281456,28.497056376281456 0 0,0 0.4891898667937338,0.004199106657022628 l -0.128696941944879 7.4959516678188685" fill="#ff4306" stroke="none" /><path d="M 102.15924093988457 79.11130261209362 l 0.9555218283139509 -9.243806909411497 a30.293061290170648,30.293061290170648 0 0,0 0.5168055376607045,0.057909138448077185 l -1.114063267575452 9.226042010456448" fill="#ff5d08" stroke="none" /><path d="M 104.64783097203109 79.52079915486377 l 4.8104306288799075 -21.195644934862276 a42.73466372042638,42.73466372042638 0 0,0 0.7140104485826799,0.16850452171585525 l -5.1735732312024725 21.109944269500193" fill="#fbff18" stroke="none" /><path d="M 107.06938296918511 80.22567764915836 l 5.0029199878536375 -13.994057609626168 a35.86145540606308,35.86145540606308 0 0,0 0.5779002641373134,0.21221298174395425 l -5.242409403645076 13.906113778873493" fill="#ffaa0f" stroke="none" /><line stroke="#e1ed5e" stroke-width="0.3" x1="143.13028292997686" x2="145.6673583964461" y1="26.7553504044142" y2="22.446841604673864" /><path d="M 143.63769802327073 25.89364864446614 a86.0,86.0 0 0,1 29.32050498858742,28.57503671076993" fill="none" id="id2" stroke="none" /><text fill="#e1ed5e" style="font-size:6.75px; font-family:Arial;" text-anchor="middle"><textPath startOffset="20.669276256404974" xlink:href="#id2">February</textPath></text><path d="M 113.86319453409587 84.22622945171908 l 1.9414827517999629 -2.209050978475281 a23.940962682700913,23.940962682700913 0 0,0 0.3063701887789617,0.2739581119784786 l -1.9791179674023 2.1753973366134156" fill="#ff0000" stroke="none" /><path d="M 114.39649973595853 84.71141617570332 l 2.9340747672147764 -3.1158857255610695 a25.279899367317142,25.279899367317142 0 0,0 0.31338349332708293,0.3002142975859302 l -2.9871307464071712 3.065059297669559" fill="#ff1402" stroke="none" /><path d="M 114.91283532996326 85.21462403516908 l 4.552462735870123 -4.513553031761962 a27.410700268458484,27.410700268458484 0 0,0 0.32842352272586384,0.3369914668499349 l -4.629273059746799 4.434738872844284" fill="#ff3404" stroke="none" /><path d="M 115.16444852881244 85.47280134310134 l 6.135373700364091 -5.877549217180833 a29.496375417994567,29.496375417994567 0 0,0 0.3471360528801211,0.3686464585302831 l -6.235365586980471 5.771361298706054" fill="#ff5207" stroke="none" /><line stroke="#e1ed5e" stroke-width="0.3" x1="172.87174338648825" x2="177.1583165268699" y1="56.24261187166439" y2="53.66864786411523" /><path d="M 173.72905801456457 55.72781907015455 a86.0,86.0 0 0,1 12.242430191666344,42.057860355516425" fill="none" id="id3" stroke="none" /><text fill="#e1ed5e" style="font-size:6.75px; font-family:Arial;" text-anchor="middle"><textPath startOffset="22.145653131862474" xlink:href="#id3">March</textPath></text><path d="M 118.36410011445183 89.81374322990088 l 15.413488828067186 -8.549602427956112 a38.62587131262069,38.62587131262069 0 0,0 0.3166487319822397,0.5825980019573611 l -15.557982909664766 8.283749592524147" fill="#ffcf13" stroke="none" /><path d="M 119.4528033332814 92.08871423366111 l 15.505446662105172 -6.305930172479012 a37.73868667284174,37.73868667284174 0 0,0 0.2389062386345639,0.6021997864650117 l -15.61141157570586 6.038829368800435" fill="#ffc312" stroke="none" /><path d="M 120.16314734710363 94.1308016681162 l 7.333621931394312 -2.1347104628776536 a28.63799707992527,28.63799707992527 0 0,0 0.1333460256399433,0.4731980029534627 l -7.369186449108836 2.008504536021178" fill="#ff4506" stroke="none" /><path d="M 120.26092885502905 94.47779374421319 l 15.263090463605012 -4.160023177804045 a36.81985219084101,36.81985219084101 0 0,0 0.16097379744448584,0.6112437285637667 l -15.33225374185423 3.8973989448674797" fill="#ffb711" stroke="none" /><path d="M 120.99303781780057 99.45929381324524 l 15.176135214930762 -0.3908834096788946 a36.181168265381416,36.181168265381416 0 0,0 0.01066236355478509,0.6210292230999465 l -15.180609010084213 0.13030727060988173" fill="#ffae10" stroke="none" /><line stroke="#e1ed5e" stroke-width="0.3" x1="184.99686870605535" x2="189.99668451229388" y1="99.2704041080226" y2="99.22748670261217" /><path d="M 185.99683186730306 99.26182062694052 a86.0,86.0 0 0,1 -10.086455211305974,41.156179273409016" fill="none" id="id4" stroke="none" /><text fill="#e1ed5e" style="font-size:6.75px; font-family:Arial;" text-anchor="middle"><textPath startOffset="21.40746469413373" xlink:href="#id4">April</textPath></text><path d="M 120.96210409425399 101.26102812881392 l 17.750793796834298 1.0678436757080798 a38.78288420176774,38.78288420176774 0 0,0 -0.045682615702174856,0.6642152063536378 l -17.72984721996706 -1.372402306216061" fill="#ffd113" stroke="none" /><path d="M 120.93736805541906 101.62068470465957 l 9.89423518635355 0.7658763789404465 a30.923832755074805,30.923832755074805 0 0,0 -0.04551160203620493,0.5289138028618148 l -9.879629961619605 -0.9356112291779185" fill="#ff6609" stroke="none" /><path d="M 119.83427380445688 106.89939002012753 l 6.706409921648816 2.332837498386802 a28.100567923136097,28.100567923136097 0 0,0 -0.16239429261049618,0.4542457388451559 l -6.665375458994377 -2.44761819361288" fill="#ff3e05" stroke="none" /><path d="M 118.8641267826498 109.22738970284198 l 10.730069728711381 5.24861479496375 a32.944971898205566,32.944971898205566 0 0,0 -0.2528606395138006,0.5058906636548527 l -10.638389175985848 -5.432037314782348" fill="#ff820c" stroke="none" /><path d="M 118.70294669586154 109.54985784667822 l 14.170571777147654 7.23559491873303 a36.91096911942478,36.91096911942478 0 0,0 -0.2929886056439492,0.561844283317991 l -14.044275102528756 -7.477785445155524" fill="#ffb811" stroke="none" /><line stroke="#e1ed5e" stroke-width="0.3" x1="174.33088141563837" x2="178.70328620479359" y1="141.23008692659167" y2="143.65538615756765" /><path d="M 175.20536237346943 141.71514677278685 a86.0,86.0 0 0,1 -30.301960400862466,31.631185727798858" fill="none" id="id5" stroke="none" /><text fill="#e1ed5e" style="font-size:6.75px; font-family:Arial;" text-anchor="middle"><textPath startOffset="22.145653131862474" xlink:href="#id5">May</textPath></text><path d="M 118.18653347947321 110.5 l 7.501120631888551 4.330774016044709 a29.66154803208942,29.66154803208942 0 0,0 -0.25837509206275605,0.43877739251301645 l -7.42567182969603 -4.4589025768512744" fill="#ff5407" stroke="none" /><line stroke="#e1ed5e" stroke-width="0.3" x1="143.1302829299769" x2="145.66735839644613" y1="173.24464959558577" y2="177.55315839532614" /><path d="M 143.63769802327073 174.10635135553383 a86.0,86.0 0 0,1 -40.68552437913181,11.842963189579606" fill="none" id="id6" stroke="none" /><text fill="#e1ed5e" style="font-size:6.75px; font-family:Arial;" text-anchor="middle"><textPath startOffset="21.407464694133747" xlink:href="#id6">June</textPath></text><path d="M 101.08105385017728 120.97215588758144 l 0.31807519351564817 6.170573779732507 a27.178766268427083,27.178766268427083 0 0,0 -0.4661472127875502,0.020018367025106214 l -0.2121022201272684 -6.175124715183444" fill="#ff3004" stroke="none" /><line stroke="#e1ed5e" stroke-width="0.3" x1="101.45913802915013" x2="101.54496967792366" y1="184.9874750549273" y2="189.98673829345242" /><path d="M 101.47630435890484 185.9873277026323 a86.0,86.0 0 0,1 -42.54439059252881,-10.42667462771756" fill="none" id="id7" stroke="none" /><text fill="#e1ed5e" style="font-size:6.75px; font-family:Arial;" text-anchor="middle"><textPath startOffset="22.145653131862474" xlink:href="#id7">July</textPath></text><line stroke="#e1ed5e" stroke-width="0.3" x1="58.13341422392154" x2="55.67067388415222" y1="173.97424548756322" y2="178.32567169271397" /><path d="M 57.64086615596768 174.84453072859336 a86.0,86.0 0 0,1 -31.369924170532247,-30.572349798747897" fill="none" id="id8" stroke="none" /><text fill="#e1ed5e" style="font-size:6.75px; font-family:Arial;" text-anchor="middle"><textPath startOffset="22.145653131862474" xlink:href="#id8">August</textPath></text><line stroke="#e1ed5e" stroke-width="0.3" x1="26.387840678322732" x2="22.057713659400548" y1="142.50000000000003" y2="145.00000000000006" /><path d="M 25.521815274538298 143.00000000000003 a86.0,86.0 0 0,1 -11.493303480769221,-40.785679425670985" fill="none" id="id9" stroke="none" /><text fill="#e1ed5e" style="font-size:6.75px; font-family:Arial;" text-anchor="middle"><textPath startOffset="21.40746469413373" xlink:href="#id9">September</textPath></text><line stroke="#e1ed5e" stroke-width="0.3" x1="15.003131293944662" x2="10.003315487706104" y1="100.72959589197737" y2="100.7725132973878" /><path d="M 14.003168132696942 100.73817937305945 a86.0,86.0 0 0,1 10.791469493833604,-42.45332614584628" fill="none" id="id10" stroke="none" /><text fill="#e1ed5e" style="font-size:6.75px; font-family:Arial;" text-anchor="middle"><textPath startOffset="22.145653131862435" xlink:href="#id10">October</textPath></text><path d="M 79.01933749520258 99.09900007780938 l -13.281928343215931 -0.5703831516780088 a34.29417005510464,34.29417005510464 0 0,0 0.030306918434705885,-0.5879461210749233 l 13.270179835324655 0.798301066129644" fill="#ff950d" stroke="none" /><path d="M 79.06263194458094 98.37931529534042 l -5.190624571096537 -0.40178716960697797 a26.20615178108859,26.20615178108859 0 0,0 0.03856843878983499,-0.44822372138311145 l 5.182962509608958 0.4908319383657701" fill="#ff2203" stroke="none" /><path d="M 79.34024301695615 96.23510406497455 l -10.721848542136685 -1.9538779679441138 a31.898425357552163,31.898425357552163 0 0,0 0.10279451020506405,-0.537864314218357 l 10.686727739649463 2.1376448471957854" fill="#ff740a" stroke="none" /><path d="M 79.407916724674 95.88100663000787 l -14.49676584884384 -2.899759175375169 a35.78393801905898,35.78393801905898 0 0,0 0.12565664310687533,-0.601312525483262 l 14.444851494912598 3.14818815214384" fill="#ffa90f" stroke="none" /><line stroke="#e1ed5e" stroke-width="0.3" x1="26.387840678322718" x2="22.05771365940052" y1="57.49999999999999" y2="54.99999999999999" /><path d="M 25.521815274538284 56.99999999999999 a86.0,86.0 0 0,1 29.574782752854787,-30.34633250058573" fill="none" id="id11" stroke="none" /><text fill="#e1ed5e" style="font-size:6.75px; font-family:Arial;" text-anchor="middle"><textPath startOffset="21.40746469413373" xlink:href="#id11">November</textPath></text><path d="M 82.576782715395 88.27688183743585 l -13.779589739481343 -9.271522940274151 a37.60837833806929,37.60837833806929 0 0,0 0.3649987374776748,-0.5325440660993497 l 13.618401265188355 9.506701741443536" fill="#ffc112" stroke="none" /><path d="M 82.78059297857968 87.97951657250589 l -18.381197279994996 -12.83150325715775 a43.41686617894092,43.41686617894092 0 0,0 0.43186322923454534,-0.6074697156322882 l 18.158218952230477 13.14515019949956" fill="#f2ff19" stroke="none" /><path d="M 82.98947788004972 87.6856937992154 l -10.317254072191224 -7.468896304320249 a33.73695974692686,33.73695974692686 0 0,0 0.3436317883452217,-0.466202517286119 l 10.187520264262185 7.644905130875231" fill="#ff8d0d" stroke="none" /><path d="M 83.2033758604659 87.39550010848427 l -17.832190062167317 -13.381607865776195 a43.29471756911628,43.29471756911628 0 0,0 0.45118873004785015,-0.5906205309854416 l 17.59984935476516 13.685749310002521" fill="#f4ff19" stroke="none" /><path d="M 83.42222388311158 87.10902102172516 l -6.13078027027124 -4.767331819855866 a28.766203667362667,28.766203667362667 0 0,0 0.30647454397099283,-0.3872205745738921 l 6.048039295658685 4.871872338344441" fill="#ff4706" stroke="none" /><path d="M 83.64595745247003 86.82634096563983 l -21.682515011237847 -17.465899268348462 a48.8422178438545,48.8422178438545 0 0,0 0.531573535412033,-0.6484332805548472 l 21.379494656587184 17.8355348306018" fill="#b1ff20" stroke="none" /><path d="M 83.8745106332314 86.54754324733833 l -48.376468100305814 -40.357370257985025 a84.0,84.0 0 0,0 0.933221745971542,-1.0993328702017733 l 47.676551790827155 41.18186991063636" fill="#4dd2ff" stroke="none" /><path d="M 84.10781606972428 86.27271002978789 l -5.423650310772993 -4.684819961791133 a28.166834780287925,28.166834780287925 0 0,0 0.31920928766737305,-0.3632015729247436 l 5.342429959147029 4.777233812527177" fill="#ff3f05" stroke="none" /><path d="M 84.34580500576568 86.00192230759919 l -7.148583978353216 -6.392307873799713 a30.589778560999733,30.589778560999733 0 0,0 0.353388124268416,-0.3884354530585986 l 7.037798153242934 6.514080902415969" fill="#ff6109" stroke="none" /><path d="M 84.58840730492382 85.73525988315684 l -8.464193717943543 -7.834331342253547 a32.53340031712639,32.53340031712639 0 0,0 0.38287809986191995,-0.4066032738225605 l 8.32845978434535 7.978476076020619" fill="#ff7d0b" stroke="none" /><path d="M 84.83555147118756 85.47280134310135 l -12.441444758455527 -11.918622641733998 a38.229135595082965,38.229135595082965 0 0,0 0.4580454807770736,-0.46999501488172507 l 12.23501247652765 12.130440348683454" fill="#ffc912" stroke="none" /><path d="M 86.96720088162412 83.53348406188908 l -4.869729114666389 -6.152743654881844 a28.846688227075056,28.846688227075056 0 0,0 0.39092764760157744,-0.30398770327972474 l 4.763391522429567 6.235432409782374" fill="#ff4806" stroke="none" /><line stroke="#e1ed5e" stroke-width="0.3" x1="56.869717070023135" x2="54.33264160355391" y1="26.7553504044142" y2="22.446841604673864" /><path d="M 56.362301976729285 25.89364864446614 a86.0,86.0 0 0,1 42.16139366436587,-11.88097634709845" fill="none" id="id12" stroke="none" /><text fill="#e1ed5e" style="font-size:6.75px; font-family:Arial;" text-anchor="middle"><textPath startOffset="22.145653131862474" xlink:href="#id12">December</textPath></text><path d="M 91.26138138417902 80.90454125486306 l -10.349731541739317 -22.616031247858558 a45.87170706626685,45.87170706626685 0 0,0 0.7188459039829345,-0.32153062950080047 l 9.959972234900762 22.790365628269203" fill="#d4ff1c" stroke="none" /><path d="M 91.5904679813234 80.7573450057729 l -2.4582701696509384 -5.625003228733444 a27.138709436865156,27.138709436865156 0 0,0 0.4284878168764622,-0.18289596956399917 l 2.361347277604045 5.666373847956847" fill="#ff3004" stroke="none" /><path d="M 96.41257539226777 79.30868818359171 l -1.1770629792501945 -6.788986472000643 a27.890269557435985,27.890269557435985 0 0,0 0.472437920356857,-0.07773948001100822 l 1.0603475558402646 6.80819195050732" fill="#ff3b05" stroke="none" /><path d="M 97.12497278360702 79.19773525538626 l -2.1151402405293784 -15.30410112453831 a36.44957376328556,36.44957376328556 0 0,0 0.6205490953810485,-0.08034250422278386 l 1.8521133232575357 15.338155224961488" fill="#ffb210" stroke="none" /><path d="M 97.84075906011542 79.11130261209362 l -0.3860502934009138 -3.7346863920592503 a24.754586165753487,24.754586165753487 0 0,0 0.4230681801481991,-0.04006499652236318 l 0.32188254986769915 3.7407631440867974" fill="#ff0c01" stroke="none" /><path d="M 98.1996594967304 79.07731436759882 l -0.5375414204975547 -6.24704611990866 a27.270130461403205,27.270130461403205 0 0,0 0.46674906687395834,-0.036129329703449765 l 0.4302233588483792 6.255353216607164" fill="#ff3104" stroke="none" /></svg>