<?xml version="1.0" encoding="utf-8" ?>
<svg baseProfile="full" height="200mm" version="1.1" viewBox="0,0,200,200" width="200mm" xmlns="http://www.w3.org/2000/svg" xmlns:ev="http://www.w3.org/2001/xml-events" xmlns:xlink="http://www.w3.org/1999/xlink"><defs /><rect fill="#1a1a1a" height="200" width="200" x="0" y="0" /><text alignment-baseline="middle" fill="#e1ed5e" style="dominant-baseline: central; font-size:9.0px; font-family:Arial;" text-anchor="middle" x="100.0" y="100.0">2024</text><line stroke="#e1ed5e" stroke-width="0.3" x1="100.0" x2="100.0" y1="15.0" y2="10.0" /><path d="M 100.0 14.0 a86.0,86.0 0 0,1 42.35913384403234,11.155469271406648" fill="none" id="id1" stroke="none" /><text fill="#e1ed5e" style="font-size:6.75px; font-family:Arial;" text-anchor="middle"><textPath startOffset="22.145653131862478" xlink:href="#id1">January</textPath></text><path d="M 100.0 79.0 l 0.0 -14.994171602161806 a35.994171602161806,35.994171602161806 0 0,0 0.6178878189702333,0.005303823791233802 l -0.2573948941213785 14.991962176565007" fill="#ff8a0c" stroke="none" /><path d="M 102.15924093988457 79.11130261209362 l 1.9110511571819206 -18.487686379879168 a39.58619552802929,39.58619552802929 0 0,0 0.6753482214239995,0.07567417685214702 l -2.228135280206717 18.452156442520053" fill="#ffbd11" stroke="none" /><path d="M 104.64783097203109 79.52079915486377 l 9.620899018168545 -42.39145624905268 a64.46949805131345,64.46949805131345 0 0,0 1.077155901463573,0.2542058598019417 l -10.347187073372003 42.22005424560451" fill="#33ff4f" stroke="none" /><path d="M 107.06938296918511 80.22567764915836 l 10.00587924709858 -27.98822506832321 a50.72302747000436,50.72302747000436 0 0,0 0.8173915598473959,0.30015750282879616 l -10.4848599586001 27.812336716485692" fill="#afff20" stroke="none" /><line stroke="#e1ed5e" stroke-width="0.3" x1="143.13028292997686" x2="145.6673583964461" y1="26.7553504044142" y2="22.446841604673864" /><path d="M 143.63769802327073 25.89364864446614 a86.0,86.0 0 0,1 29.32050498858742,28.57503671076993" fill="none" id="id2" stroke="none" /><text fill="#e1ed5e" style="font-size:6.75px; font-family:Arial;" text-anchor="middle"><textPath startOffset="20.669276256404974" xlink:href="#id2">February</textPath></text><path d="M 113.86319453409587 84.22622945171908 l 3.882980743645545 -4.418119297324901 a26.88194845105912,26.88194845105912 0 0,0 0.3440056998062273,0.3076120180111366 l -3.958251470275148 4.350811749430377" fill="#ff0000" stroke="none" /><path d="M 114.39649973595853 84.71141617570332 l 5.868172566018818 -6.231795909871804 a29.559832330534917,29.559832330534917 0 0,0 0.36643988899268254,0.35104112444934954 l -5.974284940876813 6.130142655116874" fill="#ff2a04" stroke="none" /><path d="M 114.91283532996326 85.21462403516908 l 9.104961207179933 -9.027141493534335 a33.82145085895277,33.82145085895277 0 0,0 0.4052344495400824,0.41580624443464675 l -9.258582457870826 8.869512557031948" fill="#ff6a09" stroke="none" /><path d="M 115.16444852881244 85.47280134310134 l 12.270795561534664 -11.755144571324834 a37.99281752993677,37.99281752993677 0 0,0 0.4471287244022205,0.4748352105477338 l -12.470780119673144 11.542767900832605" fill="#ffa70f" stroke="none" /><line stroke="#e1ed5e" stroke-width="0.3" x1="172.87174338648825" x2="177.1583165268699" y1="56.24261187166439" y2="53.66864786411523" /><path d="M 173.72905801456457 55.72781907015455 a86.0,86.0 0 0,1 12.242430191666344,42.057860355516425" fill="none" id="id3" stroke="none" /><text fill="#e1ed5e" style="font-size:6.75px; font-family:Arial;" text-anchor="middle"><textPath startOffset="22.145653131862474" xlink:href="#id3">March</textPath></text><path d="M 118.36410011445183 89.81374322990088 l 30.827098647306045 -17.099271967675605 a56.251880982938694,56.251880982938694 0 0,0 0.4611439478141544,0.8484529242527482 l -31.11608794473554 16.567564209948255" fill="#6eff28" stroke="none" /><path d="M 119.4528033332814 92.08871423366111 l 31.011015037222872 -12.611909844580628 a54.47750473925279,54.47750473925279 0 0,0 0.3448719840274048,0.8693026868031801 l -31.2229456962164 12.077706140563883" fill="#83ff25" stroke="none" /><path d="M 120.16314734710363 94.1308016681162 l 14.667301429477122 -4.269437682579343 a36.276054115790835,36.276054115790835 0 0,0 0.16891082252505202,0.5994049204878527 l -14.738430744076757 4.017024838188478" fill="#ff8e0d" stroke="none" /><path d="M 120.26092885502905 94.47779374421319 l 30.52630073780055 -8.320079010517311 a52.63982856268177,52.63982856268177 0 0,0 0.23013761860427628,0.8738700230202129 l -30.664627837209558 7.7948284831243" fill="#98ff23" stroke="none" /><path d="M 120.99303781780057 99.45929381324524 l 30.35238955787994 -0.7817698876729675 a51.36245569828915,51.36245569828915 0 0,0 0.01513619382615944,0.8816074076119298 l -30.361337183304766 0.26061556409197123" fill="#a8ff21" stroke="none" /><line stroke="#e1ed5e" stroke-width="0.3" x1="184.99686870605535" x2="189.99668451229388" y1="99.2704041080226" y2="99.22748670261217" /><path d="M 185.99683186730306 99.26182062694052 a86.0,86.0 0 0,1 -10.086455211305974,41.156179273409016" fill="none" id="id4" stroke="none" /><text fill="#e1ed5e" style="font-size:6.75px; font-family:Arial;" text-anchor="middle"><textPath startOffset="21.40746469413373" xlink:href="#id4">April</textPath></text><path d="M 120.96210409425399 101.26102812881392 l 35.5017269319692 2.1356957336623164 a56.56590799373595,56.56590799373595 0 0,0 -0.06662935699363577,0.9687762275536915 l -35.459833613810495 -2.744815385370351" fill="#6bff28" stroke="none" /><path d="M 120.93736805541906 101.62068470465957 l 19.788548039426257 1.531758769776154 a40.847743409200625,40.847743409200625 0 0,0 -0.06011694141669648,0.6986499854659322 l -19.759337475311817 -1.8712298026177436" fill="#ffcf13" stroke="none" /><path d="M 119.83427380445688 106.89939002012753 l 13.412872486563744 4.665693308834253 a35.20119158355803,35.20119158355803 0 0,0 -0.20342907737291327,0.5690273350645746 l -13.330803239146887 -4.89525560027975" fill="#ff7f0b" stroke="none" /><path d="M 118.8641267826498 109.22738970284198 l 21.46022368518736 10.497270789947871 a44.89003756078607,44.89003756078607 0 0,0 -0.34454191190362354,0.6893146232841151 l -21.276861860072003 -10.86411726939573" fill="#f9ff18" stroke="none" /><path d="M 118.70294669586154 109.54985784667822 l 28.341254788948387 14.4712466346725 a52.82206313508931,52.82206313508931 0 0,0 -0.41928627165310395,0.8040367108620209 l -28.088660448320333 -14.955629588639024" fill="#96ff23" stroke="none" /><line stroke="#e1ed5e" stroke-width="0.3" x1="174.33088141563837" x2="178.70328620479359" y1="141.23008692659167" y2="143.65538615756765" /><path d="M 175.20536237346943 141.71514677278685 a86.0,86.0 0 0,1 -30.301960400862466,31.631185727798858" fill="none" id="id5" stroke="none" /><text fill="#e1ed5e" style="font-size:6.75px; font-family:Arial;" text-anchor="middle"><textPath startOffset="22.145653131862474" xlink:href="#id5">May</textPath></text><path d="M 118.18653347947321 110.5 l 15.002300145279158 8.66158202734048 a38.323164054680966,38.323164054680966 0 0,0 -0.33382448650529173,0.5669069590895849 l -14.851401948644101 -8.917840154723613" fill="#ffac0f" stroke="none" /><line stroke="#e1ed5e" stroke-width="0.3" x1="143.1302829299769" x2="145.66735839644613" y1="173.24464959558577" y2="177.55315839532614" /><path d="M 143.63769802327073 174.10635135553383 a86.0,86.0 0 0,1 -40.68552437913181,11.842963189579606" fill="none" id="id6" stroke="none" /><text fill="#e1ed5e" style="font-size:6.75px; font-family:Arial;" text-anchor="middle"><textPath startOffset="21.407464694133747" xlink:href="#id6">June</textPath></text><path d="M 101.08105385017728 120.97215588758144 l 0.636152883824253 12.341195996581348 a33.35758103827903,33.35758103827903 0 0,0 -0.5721210180313495,0.024569338199494323 l -0.42420610519207386 -12.350297903206673" fill="#ff6409" stroke="none" /><line stroke="#e1ed5e" stroke-width="0.3" x1="101.45913802915013" x2="101.54496967792366" y1="184.9874750549273" y2="189.98673829345242" /><path d="M 101.47630435890484 185.9873277026323 a86.0,86.0 0 0,1 -42.54439059252881,-10.42667462771756" fill="none" id="id7" stroke="none" /><text fill="#e1ed5e" style="font-size:6.75px; font-family:Arial;" text-anchor="middle"><textPath startOffset="22.145653131862474" xlink:href="#id7">July</textPath></text><line stroke="#e1ed5e" stroke-width="0.3" x1="58.13341422392154" x2="55.67067388415222" y1="173.97424548756322" y2="178.32567169271397" /><path d="M 57.64086615596768 174.84453072859336 a86.0,86.0 0 0,1 -31.369924170532247,-30.572349798747897" fill="none" id="id8" stroke="none" /><text fill="#e1ed5e" style="font-size:6.75px; font-family:Arial;" text-anchor="middle"><textPath startOffset="22.145653131862474" xlink:href="#id8">August</textPath></text><line stroke="#e1ed5e" stroke-width="0.3" x1="26.387840678322732" x2="22.057713659400548" y1="142.50000000000003" y2="145.00000000000006" /><path d="M 25.521815274538298 143.00000000000003 a86.0,86.0 0 0,1 -11.493303480769221,-40.785679425670985" fill="none" id="id9" stroke="none" /><text fill="#e1ed5e" style="font-size:6.75px; font-family:Arial;" text-anchor="middle"><textPath startOffset="21.40746469413373" xlink:href="#id9">September</textPath></text><line stroke="#e1ed5e" stroke-width="0.3" x1="15.003131293944662" x2="10.003315487706104" y1="100.72959589197737" y2="100.7725132973878" /><path d="M 14.003168132696942 100.73817937305945 a86.0,86.0 0 0,1 10.791469493833604,-42.45332614584628" fill="none" id="id10" stroke="none" /><text fill="#e1ed5e" style="font-size:6.75px; font-family:Arial;" text-anchor="middle"><textPath startOffset="22.145653131862435" xlink:href="#id10">October</textPath></text><path d="M 79.01933749520258 99.09900007780938 l -26.563960945505862 -1.1407707806892544 a47.588444465376966,47.588444465376966 0 0,0 0.0420555185481747,-0.8158658246124574 l 26.540463837501118 1.5966083986784236" fill="#d6ff1c" stroke="none" /><path d="M 79.06263194458094 98.37931529534042 l -10.381289887007929 -0.803577493120314 a31.412344428875883,31.412344428875883 0 0,0 0.046230560422251654,-0.5372691891160958 l 10.365965703887936 0.9816677296120905" fill="#ff4606" stroke="none" /><path d="M 79.34024301695615 96.23510406497455 l -21.443781247504162 -3.9077712732325027 a42.7969362644091,42.7969362644091 0 0,0 0.13791558837984194,-0.7216326359838088 l 21.373539366842163 4.275306474249626" fill="#ffe915" stroke="none" /><path d="M 79.407916724674 95.88100663000787 l -28.99364549286443 -5.799541112972708 a50.56799208750839,50.56799208750839 0 0,0 0.17757140454991308,-0.8497434523433959 l 28.88981637749015 6.2964010166015125" fill="#b1ff20" stroke="none" /><line stroke="#e1ed5e" stroke-width="0.3" x1="26.387840678322718" x2="22.05771365940052" y1="57.49999999999999" y2="54.99999999999999" /><path d="M 25.521815274538284 56.99999999999999 a86.0,86.0 0 0,1 29.574782752854787,-30.34633250058573" fill="none" id="id11" stroke="none" /><text fill="#e1ed5e" style="font-size:6.75px; font-family:Arial;" text-anchor="middle"><textPath startOffset="21.40746469413373" xlink:href="#id11">November</textPath></text><path d="M 82.576782715395 88.27688183743585 l -27.55928764452639 -18.54311865916684 a54.216887046827345,54.216887046827345 0 0,0 0.5261884770508719,-0.7677247133503723 l 27.236909430660205 19.013478107587247" fill="#86ff25" stroke="none" /><path d="M 82.78059297857968 87.97951657250589 l -36.76253884676507 -25.663107237690383 a65.8339083234231,65.8339083234231 0 0,0 0.6548433073107177,-0.9211191200066366 l 36.31658044092438 26.29040358440654" fill="#35ff61" stroke="none" /><path d="M 82.98947788004972 87.6856937992154 l -20.634589131670435 -14.937851237191436 a46.474019475090955,46.474019475090955 0 0,0 0.4733666146449634,-0.6422127254565413 l 20.375120497441653 15.289870271916842" fill="#e5ff1a" stroke="none" /><path d="M 83.2033758604659 87.39550010848427 l -35.664520101571014 -26.76332077308015 a65.5896101449446,65.5896101449446 0 0,0 0.6835312612534775,-0.8947643626290552 l 35.19983686296323 27.37160604895009" fill="#34ff5e" stroke="none" /><path d="M 83.42222388311158 87.10902102172516 l -12.26160866529194 -9.534701061807993 a36.53246829704812,36.53246829704812 0 0,0 0.3892161680748841,-0.4917619136735539 l 12.096126066575495 9.743782919396232" fill="#ff920d" stroke="none" /><path d="M 83.64595745247003 86.82634096563983 l -43.36520022358494 -34.93193563866264 a76.68465424060098,76.68465424060098 0 0,0 0.8345962686797734,-1.018071744334264 l 42.75915713566654 35.67120966469539" fill="#43ffe0" stroke="none" /><path d="M 83.8745106332314 86.54754324733833 l -48.376468100305814 -40.357370257985025 a84.0,84.0 0 0,0 0.933221745971542,-1.0993328702017733 l 47.676551790827155 41.18186991063636" fill="#4dd2ff" stroke="none" /><path d="M 84.10781606972428 86.27271002978789 l -10.847343195541608 -9.369676697985685 a35.33372581803624,35.33372581803624 0 0,0 0.4004302768482503,-0.4556161490812423 l 10.684901854734765 9.554505124878228" fill="#ff810b" stroke="none" /><path d="M 84.34580500576568 86.00192230759919 l -14.297224070903608 -12.78466592526056 a40.17963239882725,40.17963239882725 0 0,0 0.46417481901353086,-0.5102094375558742 l 14.075651551048212 13.028212938374091" fill="#ffc512" stroke="none" /><path d="M 84.58840730492382 85.73525988315684 l -16.928453877218217 -15.668724181611278 a44.06689116791672,44.06689116791672 0 0,0 0.5186130989299635,-0.5507491390816923 l 16.656984944551983 15.957014780637483" fill="#fffa17" stroke="none" /><path d="M 84.83555147118756 85.47280134310135 l -24.882987178446058 -23.837338841009334 a55.45840643360925,55.45840643360925 0 0,0 0.6644793831352066,-0.6818143845353762 l 24.470120994160048 24.26097591761244" fill="#77ff27" stroke="none" /><path d="M 86.96720088162412 83.53348406188908 l -9.739496455216477 -12.305535606919001 a36.69343804825207,36.69343804825207 0 0,0 0.49726607455596555,-0.3866771072616824 l 9.526820436025266 12.470913765801487" fill="#ff940d" stroke="none" /><line stroke="#e1ed5e" stroke-width="0.3" x1="56.869717070023135" x2="54.33264160355391" y1="26.7553504044142" y2="22.446841604673864" /><path d="M 56.362301976729285 25.89364864446614 a86.0,86.0 0 0,1 42.16139366436587,-11.88097634709845" fill="none" id="id12" stroke="none" /><text fill="#e1ed5e" style="font-size:6.75px; font-family:Arial;" text-anchor="middle"><textPath startOffset="22.145653131862474" xlink:href="#id12">December</textPath></text><path d="M 91.26138138417902 80.90454125486306 l -20.699544325704824 -45.23224002464323 a70.74360936782489,70.74360936782489 0 0,0 1.1086082703128028,-0.49586637838299674 l 19.920022652536403 45.580910153936074" fill="#3bff9d" stroke="none" /><path d="M 91.5904679813234 80.7573450057729 l -4.916559635970622 -11.250050612021314 a33.27746706072131,33.27746706072131 0 0,0 0.5254114697384054,-0.2242669135341062 l 4.722713091061785 11.332792175214824" fill="#ff6209" stroke="none" /><path d="M 96.41257539226777 79.30868818359171 l -2.3541351980846628 -13.578026235468055 a34.78059320137997,34.78059320137997 0 0,0 0.5891542599471525,-0.09694510927481532 l 2.1207034350844376 13.616437343238537" fill="#ff790b" stroke="none" /><path d="M 97.12497278360702 79.19773525538626 l -4.230297084262534 -30.608322381588273 a51.89926880099848,51.89926880099848 0 0,0 0.8835780773337207,-0.11439687196023214 l 3.7042411850380192 30.6764308497489" fill="#a1ff22" stroke="none" /><path d="M 98.1996594967304 79.07731436759882 l -1.0750870605308043 -12.494141277218134 a33.54031014141224,33.54031014141224 0 0,0 0.5740679709370847,-0.04443649161012078 l 0.8604500948185023 12.510755535823307" fill="#ff6609" stroke="none" /></svg>