<?xml version="1.0" encoding="utf-8" ?>
<svg baseProfile="full" height="200mm" version="1.1" viewBox="0,0,200,200" width="200mm" xmlns="http://www.w3.org/2000/svg" xmlns:ev="http://www.w3.org/2001/xml-events" xmlns:xlink="http://www.w3.org/1999/xlink"><defs /><rect fill="#1a1a1a" height="200" width="200" x="0" y="0" /><text alignment-baseline="middle" fill="#e1ed5e" style="dominant-baseline: central; font-size:9.0px; font-family:Arial;" text-anchor="middle" x="100.0" y="100.0">2025</text><line stroke="#e1ed5e" stroke-width="0.3" x1="100.0" x2="100.0" y1="15.0" y2="10.0" /><path d="M 100.0 14.0 a86.0,86.0 0 0,1 42.46469731375804,11.215312516191453" fill="none" id="id13" stroke="none" /><text fill="#e1ed5e" style="font-size:6.75px; font-family:Arial;" text-anchor="middle"><textPath startOffset="22.20632615414155" xlink:href="#id13">January</textPath></text><path d="M 100.0 79.0 l 0.0 -39.65970538877493 a60.65970538877493,60.65970538877493 0 0,0 1.0441571131649874,0.008987389925176508 l -0.6826766338924589 39.653829375458315" fill="red" stroke="none" /><path d="M 100.72285384407766 79.0124445844662 l 0.8795193518344384 -25.53622877832616 a46.55137050158493,46.55137050158493 0 0,0 0.8005930581661066,0.034475221176865786 l -1.3189532423898764 25.517305830625098" fill="red" stroke="none" /><path d="M 107.76421540070413 80.48803036053334 l 12.26257663245649 -30.81663897841181 a54.16679097520045,54.16679097520045 0 0,0 0.8633570796206548,0.3521850303825316 l -12.791217581665531 30.6009930618457" fill="red" stroke="none" /><path d="M 108.43124777332544 80.76684994638697 l 6.837386122348411 -15.597273001710237 a38.03011374230841,38.03011374230841 0 0,0 0.5972862642359785,0.2679849362859772 l -7.104854505051169 15.477267734907729" fill="red" stroke="none" /><path d="M 109.41281617654863 81.2277094730956 l 15.684662942453611 -31.280441904929557 a55.99249487227298,55.99249487227298 0 0,0 0.857857047566391,0.4394276991120034 l -16.22078047760876 31.005821680505054" fill="red" stroke="none" /><path d="M 109.73455568895987 81.39251694778311 l 7.5975396722151185 -14.522603311995 a37.389893716203616,37.389893716203616 0 0,0 0.567712039104357,0.30325211017656484 l -7.846396757847787 14.389672475316681" fill="red" stroke="none" /><path d="M 110.05341064243156 81.56283822128135 l 18.16474904440831 -33.31271632216739 a58.94331530859593,58.94331530859593 0 0,0 0.8866082579150951,0.493396535619357 l -18.73548139139544 32.99510438898785" fill="red" stroke="none" /><line stroke="#e1ed5e" stroke-width="0.3" x1="143.23703022742887" x2="145.7803849466894" y1="26.81831364943548" y2="22.513508569990506" /><path d="M 143.74570117128098 25.957352633546492 a86.0,86.0 0 0,1 28.547481713284135,27.462654790039103" fill="none" id="id14" stroke="none" /><text fill="#e1ed5e" style="font-size:6.75px; font-family:Arial;" text-anchor="middle"><textPath startOffset="19.985693538727396" xlink:href="#id14">February</textPath></text><path d="M 110.68208982089419 81.91981866633111 l 4.308954126272814 -7.293205100100133 a29.47100503449562,29.47100503449562 0 0,0 0.434540052636706,0.26180551961178083 l -4.433856245127158 7.217952971029738" fill="red" stroke="none" /><path d="M 111.2981086023043 82.29822771554956 l 33.894325806912875 -53.10531685335132 a84.0,84.0 0 0,0 1.2121318968628794,0.7884043033618879 l -34.803424729560035 52.514013625829904" fill="red" stroke="none" /><path d="M 114.16331599549186 84.49514656593476 l 18.003450571993458 -19.708722344050386 a47.69378146559761,47.69378146559761 0 0,0 0.6013779678143668,0.5589152805448515 l -18.340036423602672 19.395902477430894" fill="red" stroke="none" /><line stroke="#e1ed5e" stroke-width="0.3" x1="172.23445277983987" x2="176.4835382374775" y1="55.19839476539836" y2="52.563006222186495" /><path d="M 173.08426987136738 54.67131705675599 a86.0,86.0 0 0,1 12.851231095245387,41.99856678651699" fill="none" id="id15" stroke="none" /><text fill="#e1ed5e" style="font-size:6.75px; font-family:Arial;" text-anchor="middle"><textPath startOffset="22.20632615414155" xlink:href="#id15">March</textPath></text><path d="M 117.84615892207809 88.93136811851018 l 16.960173501044462 -10.519121674805746 a40.95743986574678,40.95743986574678 0 0,0 0.3664407568293248,0.6023322551178872 l -17.13873005616001 10.225621646480777" fill="red" stroke="none" /><path d="M 118.56541770881063 90.18545643968196 l 17.794887677419105 -9.407205536674415 a41.12842625396233,41.12842625396233 0 0,0 0.3254836415418263,0.6287307960964614 l -17.954180752121047 9.099502018317608" fill="red" stroke="none" /><path d="M 119.04729006885535 91.15688171328212 l 54.91145846626378 -25.49383774584098 a81.54092858474735,81.54092858474735 0 0,0 0.5800964668199259,1.2781656699371406 l -55.34215725004705 24.544850067061777" fill="red" stroke="none" /><path d="M 119.47837535516314 92.15188598940014 l 36.611996936374354 -14.751493431726814 a60.472077195599475,60.472077195599475 0 0,0 0.380704697967142,0.9688519308799232 l -36.8604951842232 14.119092495951106" fill="red" stroke="none" /><path d="M 120.37134235888165 94.90015583598534 l 21.49443146773415 -5.381002829778894 a43.15774752936788,43.15774752936788 0 0,0 0.1742076859578597,0.7222033261968882 l -21.58387195395283 5.0102142719225995" fill="red" stroke="none" /><path d="M 120.67395015179393 96.31383870115 l 42.672387476125714 -7.608478403454823 a64.34537572254334,64.34537572254334 0 0,0 0.1850332123650584,1.092076493508167 l -42.797032550011 6.872816121630818" fill="red" stroke="none" /><line stroke="#e1ed5e" stroke-width="0.3" x1="184.98032266829074" x2="189.97916517819016" y1="98.17113171792111" y2="98.06355123074" /><path d="M 185.9800911702706 98.14961562048488 a86.0,86.0 0 0,1 -9.607161424134198,41.387399972396054" fill="none" id="id16" stroke="none" /><text fill="#e1ed5e" style="font-size:6.75px; font-family:Arial;" text-anchor="middle"><textPath startOffset="21.466115282336823" xlink:href="#id16">April</textPath></text><line stroke="#e1ed5e" stroke-width="0.3" x1="174.80103733775053" x2="179.2010983576182" y1="140.37084112569926" y2="142.7455964860345" /><path d="M 175.68104954172406 140.8457921977663 a86.0,86.0 0 0,1 -30.038265399797805,32.042727171017184" fill="none" id="id17" stroke="none" /><text fill="#e1ed5e" style="font-size:6.75px; font-family:Arial;" text-anchor="middle"><textPath startOffset="22.206326154141568" xlink:href="#id17">May</textPath></text><line stroke="#e1ed5e" stroke-width="0.3" x1="143.8653032363475" x2="146.44561519142675" y1="172.8068346515853" y2="177.08958963109032" /><path d="M 144.38136562736335 173.6633856474863 a86.0,86.0 0 0,1 -40.68145358897372,12.25698825130547" fill="none" id="id18" stroke="none" /><text fill="#e1ed5e" style="font-size:6.75px; font-family:Arial;" text-anchor="middle"><textPath startOffset="21.466115282336833" xlink:href="#id18">June</textPath></text><line stroke="#e1ed5e" stroke-width="0.3" x1="102.19456741930631" x2="102.32365962044197" y1="184.97166512339345" y2="189.96999836594603" /><path d="M 102.22038585953345 185.97133177190398 a86.0,86.0 0 0,1 -42.740103519485714,-10.115201625700543" fill="none" id="id19" stroke="none" /><text fill="#e1ed5e" style="font-size:6.75px; font-family:Arial;" text-anchor="middle"><textPath startOffset="22.20632615414155" xlink:href="#id19">July</textPath></text><line stroke="#e1ed5e" stroke-width="0.3" x1="58.666819895761336" x2="56.23545636021788" y1="174.27360380694188" y2="178.64263932499728" /><path d="M 58.180547188652646 175.14741091055294 a86.0,86.0 0 0,1 -31.652253787137756,-30.449443065178592" fill="none" id="id20" stroke="none" /><text fill="#e1ed5e" style="font-size:6.75px; font-family:Arial;" text-anchor="middle"><textPath startOffset="22.20632615414155" xlink:href="#id20">August</textPath></text><line stroke="#e1ed5e" stroke-width="0.3" x1="26.63291911575756" x2="22.317208475507996" y1="142.92168965132927" y2="145.44649492493687" /><path d="M 25.769776987707644 143.4266507060508 a86.0,86.0 0 0,1 -11.730757126820373,-40.83630448921669" fill="none" id="id21" stroke="none" /><text fill="#e1ed5e" style="font-size:6.75px; font-family:Arial;" text-anchor="middle"><textPath startOffset="21.46611528233685" xlink:href="#id21">September</textPath></text><line stroke="#e1ed5e" stroke-width="0.3" x1="15.007084014347285" x2="10.007500721073583" y1="101.09737516637583" y2="101.16192664675087" /><path d="M 14.007167355692545 101.11028546245083 a86.0,86.0 0 0,1 10.666146001902534,-42.60595125391555" fill="none" id="id22" stroke="none" /><text fill="#e1ed5e" style="font-size:6.75px; font-family:Arial;" text-anchor="middle"><textPath startOffset="22.20632615414155" xlink:href="#id22">October</textPath></text><line stroke="#e1ed5e" stroke-width="0.3" x1="26.266209847984243" x2="21.928928074336255" y1="57.711370442889674" y2="55.22380399835377" /><path d="M 25.398753493254645 57.213857153982495 a86.0,86.0 0 0,1 29.58750427330803,-30.492523968695096" fill="none" id="id23" stroke="none" /><text fill="#e1ed5e" style="font-size:6.75px; font-family:Arial;" text-anchor="middle"><textPath startOffset="21.46611528233685" xlink:href="#id23">November</textPath></text><line stroke="#e1ed5e" stroke-width="0.3" x1="56.762969772571076" x2="54.21961505331055" y1="26.818313649435495" y2="22.513508569990535" /><path d="M 56.25429882871897 25.957352633546506 a86.0,86.0 0 0,1 42.265352541879196,-11.944610805530505" fill="none" id="id24" stroke="none" /><text fill="#e1ed5e" style="font-size:6.75px; font-family:Arial;" text-anchor="middle"><textPath startOffset="22.20632615414155" xlink:href="#id24">December</textPath></text></svg>